<?xml version="1.0" encoding="UTF-8" standalone="no"?>
<!-- Created with Inkscape (http://www.inkscape.org/) -->

<svg
   xmlns:dc="http://purl.org/dc/elements/1.1/"
   xmlns:cc="http://creativecommons.org/ns#"
   xmlns:rdf="http://www.w3.org/1999/02/22-rdf-syntax-ns#"
   xmlns:svg="http://www.w3.org/2000/svg"
   xmlns="http://www.w3.org/2000/svg"
   xmlns:sodipodi="http://sodipodi.sourceforge.net/DTD/sodipodi-0.dtd"
   xmlns:inkscape="http://www.inkscape.org/namespaces/inkscape"
   width="218.95723mm"
   height="117.13763mm"
   viewBox="0 0 218.95723 117.13763"
   version="1.1"
   id="svg7251"
   inkscape:version="0.92.1 r15371"
   sodipodi:docname="FoldedPaper.svg">
  <defs
     id="defs7245" />
  <sodipodi:namedview
     id="base"
     pagecolor="#ffffff"
     bordercolor="#666666"
     borderopacity="1.0"
     inkscape:pageopacity="0.0"
     inkscape:pageshadow="2"
     inkscape:zoom="0.49497474"
     inkscape:cx="479.82879"
     inkscape:cy="357.13338"
     inkscape:document-units="mm"
     inkscape:current-layer="layer9"
     showgrid="false"
     fit-margin-top="0"
     fit-margin-left="0"
     fit-margin-right="0"
     fit-margin-bottom="0"
     inkscape:window-width="1024"
     inkscape:window-height="714"
     inkscape:window-x="-4"
     inkscape:window-y="1"
     inkscape:window-maximized="1" />
  <metadata
     id="metadata7248">
    <rdf:RDF>
      <cc:Work
         rdf:about="">
        <dc:format>image/svg+xml</dc:format>
        <dc:type
           rdf:resource="http://purl.org/dc/dcmitype/StillImage" />
        <dc:title />
      </cc:Work>
    </rdf:RDF>
  </metadata>
  <g
     inkscape:groupmode="layer"
     id="layer9"
     inkscape:label="Layer 2">
    <rect
       style="opacity:0.98000004;fill:#ffffff;fill-opacity:0.27000002;fill-rule:nonzero;stroke:#ffffff;stroke-width:0.56499994;stroke-miterlimit:4;stroke-dasharray:none;stroke-opacity:0.49500002"
       id="rect7210"
       width="218.62648"
       height="117.59859"
       x="1.0690781"
       y="0.073571965" />
  </g>
  <g
     inkscape:label="Layer 1"
     inkscape:groupmode="layer"
     id="layer1"
     transform="translate(19.535354,-132.93113)">
    <path
       style="opacity:0.98000004;fill:#000000;fill-opacity:0.97254902;stroke-width:0.26458332"
       id="path7798"
       d="m 111.32163,234.13323 c 3.42447,0.21514 6.83196,0.62479 10.24178,0.9962 3.46112,0.39733 6.92227,0.79164 10.37407,1.26422 3.24601,0.47064 6.48081,1.01135 9.71672,1.54558 2.79437,0.47419 5.57503,1.02227 8.33302,1.67535 2.27965,0.51152 4.52175,1.17921 6.70982,1.99652 1.32981,0.56245 2.69233,1.11414 3.79542,2.06565 0.50391,0.48243 0.83626,1.04606 0.82109,1.75077 -0.0808,0.58618 -0.494,0.94315 -0.96012,1.25229 -1.51428,0.92253 -3.1257,1.57186 -4.83042,1.97485 -0.96801,0.21833 -1.95111,0.35738 -2.93451,0.48418 -1.20282,0.14783 -2.41163,0.24005 -3.62005,0.32771 -1.33028,0.0942 -2.66221,0.16219 -3.99433,0.22392 -1.4505,0.069 -2.90204,0.10949 -4.35357,0.14864 -1.56981,0.0417 -3.13985,0.0737 -4.70994,0.10281 -1.61076,0.0286 -3.22166,0.049 -4.83255,0.0685 -1.67926,0.0175 -3.35854,0.0337 -5.03785,0.0455 -1.70908,0.0447 -3.41672,-0.0363 -5.12392,-0.10484 -1.81597,-0.0767 -3.63262,-0.13424 -5.44955,-0.18234 -2.15933,-0.0532 -4.31902,-0.0888 -6.4787,-0.12377 -2.07696,-0.0325 -4.15402,-0.0569 -6.23108,-0.0811 -1.99932,-0.0218 -3.998674,-0.0397 -5.998045,-0.055 -1.96314,-0.009 -3.92421,-0.12456 -5.885111,-0.21086 -1.943875,-0.0553 -3.883499,-0.17423 -5.823032,-0.31063 -1.933263,-0.10429 -3.850635,-0.37382 -5.768512,-0.62536 -1.882137,-0.29447 -3.764214,-0.58799 -5.651206,-0.84986 -1.76525,-0.24311 -3.536572,-0.43756 -5.309447,-0.61513 -1.683589,-0.16649 -3.370408,-0.29675 -5.057931,-0.4156 -1.628129,-0.11308 -3.257857,-0.20053 -4.887907,-0.28024 -1.590524,-0.0766 -3.181818,-0.13543 -4.773263,-0.18898 -1.56505,-0.0519 -3.130466,-0.0914 -4.69595,-0.12746 -1.532731,-0.026 -3.063925,-0.0499 -4.593968,-0.14646 -1.4635,-0.10203 -2.927654,-0.19348 -4.392483,-0.27405 -1.479965,-0.0761 -2.953961,-0.24064 -4.430019,-0.37005 -1.469451,-0.0865 -2.926032,-0.2384 -4.377626,-0.4797 -1.431775,-0.2302 -2.862935,-0.45736 -4.280033,-0.76709 -1.416368,-0.30065 -2.831087,-0.57991 -4.197894,-1.06449 -1.18396,-0.43557 -2.204134,-1.15263 -3.133454,-1.99035 -0.781374,-0.71585 -1.356044,-1.59334 -1.832429,-2.53066 -0.433098,-0.84816 -0.65542,-1.75845 -0.74039,-2.70064 -0.03411,-0.8584 0.04062,-1.70956 0.278913,-2.53484 0.274889,-0.79753 0.71692,-1.49666 1.274211,-2.12308 l 0.311116,-0.2979 2.844671,-0.86942 v 0 c -0.105969,0.091 -0.211938,0.18198 -0.317907,0.27297 -0.57378,0.57568 -1.021083,1.22287 -1.320583,1.98367 -0.270214,0.78211 -0.341264,1.59146 -0.327991,2.41726 0.0688,0.90344 0.260571,1.77626 0.682371,2.58778 0.4595,0.90115 1.011829,1.74308 1.768526,2.42715 0.909718,0.80167 1.908591,1.47966 3.062625,1.88321 1.361521,0.46102 2.768361,0.73158 4.171769,1.0336 1.41673,0.29567 2.845223,0.52143 4.273616,0.75263 1.446736,0.23215 2.901085,0.36036 4.362646,0.46085 1.474118,0.13091 2.946638,0.29113 4.425362,0.36058 1.464929,0.0823 2.929096,0.17636 4.392954,0.27587 1.526646,0.0903 3.054911,0.10659 4.583684,0.1385 1.565741,0.0371 3.13141,0.0778 4.696695,0.13109 1.591792,0.0551 3.183425,0.11551 4.774245,0.19422 1.630495,0.0819 3.260646,0.1717 4.889122,0.28771 1.688028,0.12193 3.375313,0.25554 5.05923,0.42607 1.773256,0.18184 3.544877,0.38094 5.310259,0.62899 1.884341,0.2665 3.76328,0.56739 5.645184,0.85013 1.914403,0.24997 3.829283,0.50577 5.758831,0.60873 1.937509,0.13569 3.87591,0.24163 5.817314,0.30429 1.958557,0.0856 3.917159,0.19866 5.878137,0.2017 1.99865,0.0167 3.99729,0.0339 5.99587,0.0577 2.0754,0.0238 4.15073,0.053 6.226,0.086 2.16148,0.0348 4.32289,0.0751 6.48411,0.12362 1.82425,0.0421 3.64822,0.095 5.47127,0.17456 1.70416,0.0681 3.40877,0.13693 5.11469,0.0925 1.68042,-0.0144 3.36085,-0.0278 5.04121,-0.0493 1.61148,-0.0197 3.22296,-0.0414 4.83428,-0.0721 1.56968,-0.0296 3.13932,-0.0619 4.70869,-0.1055 1.45369,-0.0418 2.90718,-0.0908 4.35985,-0.16007 1.33187,-0.0643 2.66352,-0.13498 3.99335,-0.23364 1.20894,-0.092 2.41814,-0.19006 3.62032,-0.35043 0.98105,-0.13499 1.96199,-0.283 2.92433,-0.52091 0.40036,-0.10442 0.79822,-0.21077 1.18745,-0.35247 0.11601,-0.0422 0.45596,-0.18891 0.34488,-0.13504 -1.38604,0.67228 -3.26494,1.52219 -2.05274,0.97273 0.42643,-0.22707 0.87376,-0.4777 1.05219,-0.95459 0.10312,-0.60099 -0.24895,-1.07506 -0.66323,-1.48119 -1.07529,-0.91463 -2.40441,-1.44763 -3.69249,-1.99271 -2.17034,-0.80987 -4.38953,-1.4821 -6.65229,-1.98375 -2.74905,-0.64406 -5.51809,-1.19608 -8.30173,-1.6697 -3.2284,-0.54047 -6.45662,-1.0829 -9.69718,-1.54679 -3.44954,-0.46905 -6.90723,-0.87066 -10.36674,-1.2587 -7.83372,-2.47001 -7.83372,-2.47001 -7.83372,-2.47001 z"
       inkscape:connector-curvature="0"
       sodipodi:nodetypes="ccccccccccccccccccccccccccccccccccccccccccccccccccccccccccccccccccccccccccccccccccccccccc" />
    <path
       style="opacity:0.98000004;fill:#000000;fill-opacity:0.97254902;stroke-width:0.26458332"
       id="path7802"
       d="m 157.36866,245.96737 c 0.39608,-0.30194 0.82578,-0.55894 1.24425,-0.8305 0.60077,-0.42279 1.18337,-0.87835 1.74217,-1.35591 0.64239,-0.54525 1.22437,-1.1574 1.76997,-1.79827 0.58555,-0.7764 1.2121,-1.51954 1.81742,-2.28026 0.62119,-0.84044 1.23607,-1.68536 1.79878,-2.56629 0.61101,-1.00022 1.23024,-1.99563 1.83634,-2.99889 0.67736,-1.09613 1.297,-2.227 1.8796,-3.37594 0.60185,-1.14381 1.1656,-2.30682 1.78221,-3.44286 0.64844,-1.18162 1.2467,-2.38896 1.83195,-3.60277 0.58276,-1.24916 1.16917,-2.49643 1.73965,-3.75131 0.57016,-1.31215 1.1625,-2.61487 1.76348,-3.91318 0.60198,-1.28312 1.15745,-2.58808 1.68773,-3.90231 0.54627,-1.32475 1.13911,-2.62942 1.70194,-3.94708 0.60149,-1.45095 1.18194,-2.91044 1.77339,-4.36546 0.6089,-1.53574 1.27109,-3.04946 1.89483,-4.57907 0.6012,-1.51635 1.17845,-3.04182 1.75546,-4.56748 0.57886,-1.51701 1.19216,-3.01986 1.8338,-4.51125 0.63174,-1.4788 1.17847,-2.99168 1.74149,-4.49738 0.57079,-1.50031 1.23391,-2.96232 1.83366,-4.45082 0.55456,-1.45682 1.08492,-2.92295 1.55313,-4.40992 0.42493,-1.50813 0.88322,-3.00692 1.29288,-4.51936 0.3809,-1.53662 0.72829,-3.08156 1.08177,-4.62478 0.35066,-1.5248 0.6293,-3.06443 0.88153,-4.60811 0.24484,-1.52185 0.43166,-3.05203 0.60159,-4.58377 0.16588,-1.51986 0.29171,-3.04361 0.40618,-4.56807 0.15716,-1.35186 0.0883,-2.69459 -0.16734,-4.02668 -0.17149,-0.89681 -0.61141,-1.6585 -1.22104,-2.32334 -0.46491,-0.48105 -1.04449,-0.72735 -1.68334,-0.87356 -0.64999,-0.0979 -1.2891,-5.3e-4 -1.91483,0.17736 -0.95633,0.34742 -2.74717,1.17332 1.44923,-0.71977 0.15443,-0.0697 -0.30408,0.14959 -0.4537,0.22905 -0.40799,0.21669 -0.56261,0.31699 -0.96289,0.55748 -1.07809,0.66455 -2.0854,1.43506 -3.06992,2.22941 -1.04097,0.85227 -2.02363,1.77217 -2.99438,2.70268 -1.06935,1.02292 -2.07425,2.11054 -3.09263,3.18355 -1.25852,1.29231 -2.4701,2.62865 -3.6879,3.95903 -1.30067,1.41022 -2.55504,2.86219 -3.82859,4.29677 -1.26315,1.41665 -2.48069,2.87115 -3.68666,4.33639 -1.23323,1.44267 -2.49011,2.86498 -3.73589,4.29691 -1.29233,1.44049 -2.47552,2.97238 -3.72025,4.45314 -1.23386,1.41356 -2.44146,2.84851 -3.61818,4.3099 -1.17429,1.45317 -2.36354,2.89375 -3.50698,4.37151 -1.08892,1.48314 -2.28049,2.88432 -3.45262,4.30098 -1.13315,1.35388 -2.26273,2.71053 -3.38789,4.07109 -1.05136,1.27759 -2.06279,2.58695 -3.09178,3.88246 -0.96392,1.18155 -1.94092,2.35125 -2.87426,3.55725 -0.89016,1.18073 -1.72597,2.40078 -2.59812,3.59464 -0.81701,1.10159 -1.62722,2.20768 -2.42516,3.32323 -0.7091,1.06863 -1.44898,2.1131 -2.2341,3.1269 -0.77184,0.93034 -1.49459,1.89945 -2.2432,2.84822 -0.76134,0.97026 -1.52482,1.93904 -2.30264,2.89621 -0.81157,0.99279 -1.59907,2.00388 -2.37397,3.02546 -0.77932,0.99272 -1.57112,1.97603 -2.37897,2.94573 -0.80957,1.02395 -1.66839,2.00807 -2.53721,2.98186 -0.87553,1.01511 -1.76524,2.01556 -2.71167,2.96525 -0.94555,0.94819 -1.88851,1.89849 -2.90927,2.76618 -0.95305,0.82814 -1.88822,1.66977 -2.9108,2.4124 -1.72537,1.0813 -3.56359,2.1123 -5.56155,2.5652 0,0 2.46988,-1.64827 2.46988,-1.64827 v 0 c 1.03944,-0.29347 2.69982,-1.15689 -1.24208,0.72404 -0.1194,0.057 0.32075,-0.11277 0.99767,-0.50677 0.16976,-0.0988 0.33474,-0.20563 0.50211,-0.30844 1.03703,-0.7215 1.98222,-1.54631 2.92138,-2.38936 1.03518,-0.84761 1.98058,-1.79101 2.92149,-2.74095 0.95543,-0.93487 1.84761,-1.92743 2.71263,-2.94629 0.87604,-0.96317 1.73578,-1.94519 2.53796,-2.97064 0.81583,-0.95932 1.59422,-1.94951 2.38502,-2.92942 0.77073,-1.02828 1.56214,-2.0397 2.37158,-3.03766 0.7799,-0.95287 1.53958,-1.92135 2.29817,-2.8911 0.75891,-0.94079 1.46432,-1.92363 2.24772,-2.84478 0.78446,-1.01275 1.55184,-2.03587 2.24299,-3.11612 0.79505,-1.12113 1.60988,-2.22721 2.42958,-3.33025 0.88367,-1.18821 1.71524,-2.4137 2.59855,-3.60226 0.9318,-1.21123 1.90237,-2.38946 2.88025,-3.56371 1.02871,-1.29927 2.04894,-2.60505 3.09428,-3.89105 1.13284,-1.35621 2.25219,-2.72373 3.39448,-4.07204 1.16743,-1.41846 2.37383,-2.80592 3.45758,-4.29133 1.1384,-1.48337 2.32856,-2.92481 3.5051,-4.37785 1.17583,-1.46454 2.37606,-2.9082 3.61771,-4.31767 1.25115,-1.47829 2.43391,-3.01274 3.72278,-4.45899 1.24328,-1.43093 2.49055,-2.8581 3.73537,-4.2876 1.20725,-1.46771 2.41815,-2.9312 3.68475,-4.34849 1.27444,-1.43418 2.52766,-2.88751 3.8254,-4.30071 1.21389,-1.32739 2.41551,-2.66632 3.66721,-3.95848 1.01672,-1.07361 2.01747,-2.16413 3.07834,-3.19456 0.96852,-0.93645 1.94756,-1.86302 2.98202,-2.7269 0.9784,-0.80525 1.98186,-1.58343 3.04914,-2.2685 1.65626,-1.03773 3.42181,-1.9498 5.293,-2.52571 0.6641,-0.14131 1.3393,-0.20792 2.00747,-0.0425 0.67688,0.19783 1.28509,0.51894 1.76742,1.04658 0.63033,0.72207 1.09518,1.53999 1.27716,2.49262 0.25347,1.36129 0.34341,2.73176 0.18016,4.11308 -0.11346,1.52803 -0.23817,3.05536 -0.40252,4.57888 -0.16853,1.53693 -0.3538,3.07231 -0.59657,4.59954 -0.25027,1.55019 -0.5265,3.09649 -0.87577,4.62787 -0.3524,1.54664 -0.70651,3.09299 -1.07652,4.63541 -0.40053,1.51924 -0.87445,3.01744 -1.29022,4.5325 -0.46166,1.4957 -0.99012,2.96839 -1.54213,4.43301 -0.594,1.49016 -1.26252,2.94851 -1.83995,4.44544 -0.56714,1.50765 -1.10627,3.02687 -1.73358,4.51106 -0.64279,1.48761 -1.26456,2.98337 -1.84127,4.49816 -0.57613,1.52844 -1.15644,3.05513 -1.75387,4.57538 -0.61943,1.53139 -1.28657,3.04297 -1.89416,4.57923 -0.59361,1.45343 -1.16543,2.91577 -1.76431,4.3671 -0.5554,1.31817 -1.1437,2.62194 -1.7004,3.93955 -0.52515,1.32107 -1.08136,2.63086 -1.68164,3.91958 -0.61063,1.29182 -1.19246,2.59826 -1.76244,3.90847 -0.56674,1.25862 -1.15682,2.50611 -1.73753,3.75813 -0.5806,1.21869 -1.17792,2.429 -1.8185,3.61748 -0.62996,1.12703 -1.18204,2.29376 -1.79022,3.4324 -0.5741,1.15724 -1.19005,2.29507 -1.86528,3.39669 -0.59853,1.00761 -1.22669,1.99717 -1.82799,3.00301 -0.551,0.8954 -1.16973,1.743 -1.78272,2.59637 -0.59162,0.7715 -1.24546,1.49226 -1.80837,2.28633 -0.52855,0.66208 -1.11028,1.28794 -1.74984,1.84406 -0.54143,0.50593 -1.14818,0.93463 -1.71972,1.40465 -0.41037,0.25702 -0.85737,0.50574 -1.21858,0.81615 0,0 -2.89687,0.83373 -2.89687,0.83373 z"
       inkscape:connector-curvature="0" />
    <path
       style="opacity:0.98000004;fill:#000000;fill-opacity:0.97254902;stroke-width:0.26458332"
       id="path7808"
       d="m 113.59026,234.36939 c -3.84648,1.71125 8.17944,-3.84313 -1.37344,0.61337 -0.76249,0.33315 -1.56899,0.54243 -2.37668,0.73184 -1.03862,0.23596 -2.09308,0.38653 -3.15008,0.51001 -1.40279,0.16148 -2.81179,0.25772 -4.22079,0.34498 -1.66117,0.0994 -3.323901,0.16999 -4.986646,0.23679 -1.649761,0.0654 -3.300044,0.11604 -4.950433,0.16226 -1.60587,0.0443 -3.211991,0.0784 -4.818163,0.10949 -1.630844,0.0303 -3.261836,0.0519 -4.892826,0.0726 -1.618038,0.0203 -3.236126,0.0359 -4.854226,0.0502 -1.584137,0.0138 -3.168295,0.0243 -4.752461,0.0339 -1.628227,0.008 -3.256455,0.0152 -4.884687,0.0217 -1.622338,0.007 -3.244686,0.011 -4.867035,0.0147 -1.667351,0.0367 -3.332583,-0.0543 -4.997619,-0.12716 -1.712894,-0.0728 -3.420528,-0.23794 -5.129977,-0.36626 -1.770917,-0.17013 -3.539405,-0.35677 -5.30302,-0.59055 -1.752833,-0.30288 -3.515418,-0.54628 -5.268571,-0.84621 -1.702059,-0.29793 -3.408394,-0.56698 -5.108122,-0.87794 -1.70619,-0.2803 -3.385992,-0.68254 -5.057257,-1.12056 -1.60551,-0.47726 -3.210671,-0.95542 -4.818358,-1.42517 -1.646704,-0.45969 -3.290001,-0.93312 -4.907631,-1.48744 -1.49472,-0.5286 -3.011278,-0.99001 -4.515759,-1.4893 -1.155685,-0.37867 -2.307899,-0.77237 -3.447039,-1.19858 0,0 2.550253,-1.46707 2.550253,-1.46707 v 0 c 1.137495,0.41868 2.283415,0.81626 3.435692,1.19228 1.502757,0.50036 3.017639,0.96341 4.509845,1.49532 1.6167,0.54585 3.256574,1.01658 4.899697,1.4759 1.604394,0.46956 3.205668,0.94958 4.810043,1.41916 1.667664,0.43343 3.347326,0.81398 5.04761,1.09831 1.697966,0.30912 3.402857,0.57619 5.102429,0.87634 1.752237,0.29135 3.509811,0.55086 5.26311,0.83592 1.760569,0.23028 3.526427,0.41498 5.294807,0.57463 1.707938,0.12969 3.414564,0.28981 5.126479,0.35631 1.663121,0.0714 3.326564,0.14829 4.991801,0.11336 1.622772,-0.005 3.245538,-0.0104 4.868307,-0.0161 1.628976,-0.006 3.257955,-0.0129 4.88691,-0.0239 1.583528,-0.01 3.167054,-0.0201 4.750554,-0.0337 1.617242,-0.0142 3.234476,-0.0298 4.851654,-0.05 1.631429,-0.0208 3.262836,-0.0437 4.89409,-0.076 1.605047,-0.0314 3.210047,-0.0659 4.814787,-0.11068 1.648865,-0.0467 3.297621,-0.0978 4.945835,-0.16404 1.663347,-0.0679 3.326667,-0.14024 4.988077,-0.24683 1.41152,-0.0946 2.82301,-0.1986 4.22748,-0.37176 1.05525,-0.13716 2.10857,-0.29845 3.14329,-0.55118 0.80308,-0.20454 1.60264,-0.43432 2.35299,-0.7927 -5.37416,2.51111 -0.38136,0.0659 1.41989,-0.6003 0,0 -2.49481,1.69406 -2.49481,1.69406 z"
       inkscape:connector-curvature="0" />
    <path
       style="opacity:0.98000004;fill:#000000;fill-opacity:0.97254902;stroke-width:0.26458332"
       id="path7810"
       d="m 113.51858,231.12087 c -0.3229,-0.1826 -0.62473,-0.39995 -0.9457,-0.58835 -0.63027,-0.26253 -1.19473,-0.64278 -1.78867,-0.97406 -0.75515,-0.45409 -1.56408,-0.80752 -2.35889,-1.18493 -0.93847,-0.426 -1.90699,-0.78043 -2.85573,-1.18158 -0.98014,-0.4981 -1.98309,-0.94821 -2.98951,-1.39005 -1.14142,-0.48266 -2.2864,-0.95662 -3.444066,-1.39913 -1.30882,-0.44246 -2.617187,-0.87537 -3.910576,-1.36204 -1.300335,-0.49757 -2.635539,-0.89154 -3.981035,-1.24514 -1.438767,-0.42571 -2.896518,-0.78057 -4.355941,-1.127 -1.640898,-0.35728 -3.281569,-0.71513 -4.923026,-1.07017 -1.712409,-0.38738 -3.410767,-0.83131 -5.122486,-1.22178 -1.746909,-0.39651 -3.492508,-0.79544 -5.249537,-1.14547 -1.825919,-0.36304 -3.65782,-0.6948 -5.485807,-1.04692 -2.021698,-0.36608 -4.023622,-0.82937 -6.033966,-1.25104 -2.060358,-0.42882 -4.137591,-0.76943 -6.218838,-1.07847 -2.028844,-0.26513 -4.04989,-0.58393 -6.075736,-0.87053 -1.972061,-0.27848 -3.951875,-0.49689 -5.933453,-0.69452 -2.02157,-0.20127 -4.04817,-0.34367 -6.075405,-0.47281 -2.019024,-0.12587 -4.039457,-0.22697 -6.060342,-0.31737 -2.154261,-0.0957 -4.309817,-0.15744 -6.46532,-0.21694 -2.232065,-0.062 -4.464601,-0.10467 -6.697137,-0.14533 -2.097157,-0.038 -4.194433,-0.0686 -6.291753,-0.0959 -1.9459905,-0.025 -3.8920385,-0.0451 -5.8381008,-0.0635 -1.805959,-0.0169 -3.61194772,-0.0304 -5.4179434,-0.0427 -1.7103318,-0.0115 -3.4206789,-0.0206 -5.1310291,-0.0288 -1.6457856,-0.008 -3.2915788,-0.0139 -4.9373737,-0.0194 -1.699984,-0.007 -3.399974,-0.0115 -5.099966,-0.0153 -0.859366,-0.002 -1.718732,-0.003 -2.578098,-0.005 0,0 2.476626,-1.55589 2.476626,-1.55589 v 0 c 0.85895,0.002 1.7179,0.004 2.576849,0.006 1.701866,0.004 3.403732,0.007 5.1055946,0.0123 1.6449947,0.006 3.2899876,0.0128 4.934971,0.0215 1.7091548,0.009 3.41830537,0.0191 5.1274375,0.0318 1.8042081,0.0136 3.6084074,0.0285 5.4125709,0.0471 1.9435239,0.0203 3.887029,0.0425 5.830471,0.0697 2.095415,0.0295 4.190825,0.0602 6.286049,0.10148 2.233358,0.0436 4.466691,0.0894 6.699733,0.14722 2.158985,0.0623 4.318104,0.12488 6.476072,0.21664 2.020541,0.0924 4.040587,0.19563 6.059125,0.32524 2.030971,0.1315 4.061603,0.27295 6.086594,0.4794 1.983454,0.20046 3.964789,0.42492 5.938485,0.70697 2.024775,0.29025 4.046331,0.60228 6.073677,0.8744 2.084216,0.31399 4.16378,0.66287 6.227062,1.09537 2.011293,0.42348 4.016345,0.87855 6.040165,1.24033 1.832072,0.34549 3.665169,0.68455 5.494318,1.04551 1.757781,0.35595 3.505372,0.75616 5.254266,1.15289 1.711256,0.39513 3.411159,0.8369 5.126344,1.2151 1.642322,0.35828 3.286117,0.70938 4.926764,1.075 1.465212,0.34671 2.927903,0.70285 4.373065,1.12704 1.351401,0.36335 2.691384,0.76898 3.998148,1.27238 1.294958,0.48504 2.610618,0.90255 3.914268,1.36255 1.16256,0.44724 2.31555,0.91827 3.46104,1.40761 1.00473,0.44364 2.00349,0.89919 2.98984,1.38246 0.95822,0.39374 1.92946,0.7575 2.87078,1.19147 0.80194,0.38228 1.61645,0.74185 2.37966,1.1994 0.59446,0.33904 1.1813,0.68645 1.80261,0.97513 0.34092,0.20571 0.6897,0.40789 1.00575,0.64942 0,0 -2.6829,1.37882 -2.6829,1.37882 z"
       inkscape:connector-curvature="0" />
    <path
       style="opacity:0.98000004;fill:#000000;fill-opacity:0.97254902;stroke-width:0.26458332"
       id="path7812"
       d="m 16.798988,227.4989 c -0.436991,-0.006 -0.874036,-0.006 -1.311056,-0.007 -0.787745,-0.01 -1.576147,0.0198 -2.362447,-0.0334 -0.935136,-0.0466 -1.858106,-0.18496 -2.782622,-0.32394 -1.0143059,-0.17852 -2.0020135,-0.44963 -2.9848958,-0.75192 -1.0904895,-0.33899 -2.1662176,-0.7191 -3.264989,-1.03255 -1.173207,-0.3149 -2.3640933,-0.55257 -3.54356203,-0.84209 -1.178007,-0.28996 -2.34036097,-0.63656 -3.52015567,-0.92098 -1.1353218,-0.33869 -2.2634435,-0.71464 -3.3781791,-1.11744 -1.1067549,-0.37697 -2.1900877,-0.81605 -3.2965154,-1.19395 -1.104658,-0.40454 -2.206736,-0.80001 -3.255707,-1.33567 -1.045769,-0.55608 -2.135361,-1.02159 -3.213164,-1.51065 -1.092782,-0.45743 -2.193749,-0.89234 -3.235844,-1.45863 0,0 2.585088,-1.4363 2.585088,-1.4363 v 0 c 1.044061,0.54829 2.141516,0.97582 3.223692,1.44161 1.0802,0.49237 2.171469,0.96218 3.219984,1.52076 1.0457083,0.51311 2.1408325,0.89964 3.2339739,1.29865 1.10471,0.38491 2.191145,0.8192 3.2986437,1.19646 1.1100001,0.38953 2.223945,0.77856 3.35827765,1.09027 1.17826429,0.29033 2.34088095,0.63779 3.52081665,0.92084 1.1834569,0.28806 2.379767,0.52166 3.5526289,0.85234 1.098313,0.32085 2.1755489,0.70423 3.2707728,1.03446 0.9752234,0.293 1.9612824,0.54042 2.9669254,0.70676 0.919995,0.13581 1.841431,0.2533 2.77152,0.29391 0.788234,0.0281 1.57706,0.009 2.365687,0.0113 0.444892,-10e-4 0.889808,-0.002 1.334672,-0.007 0,0 -2.553545,1.60495 -2.553545,1.60495 z"
       inkscape:connector-curvature="0" />
    <path
       style="opacity:0.98000004;fill:#000000;fill-opacity:0.97254902;stroke-width:0.26458332"
       id="path7814"
       d="m -19.535354,207.49576 c 0.108485,-0.39088 0.289008,-0.73852 0.541446,-1.05427 0.405906,-0.4467 0.857038,-0.84853 1.26658,-1.29158 0.485128,-0.60578 1.122228,-1.04718 1.728477,-1.51931 0.70425,-0.57167 1.286477,-1.27317 1.91207,-1.92668 0.737961,-0.70496 1.432018,-1.44741 2.079673,-2.2359 0.710537,-0.89077 1.495858,-1.71706 2.2684634,-2.55324 0.8132686,-0.88733 1.5905517,-1.80678 2.3708932,-2.72298 0.8507269,-0.93848 1.6623344,-1.91119 2.4674329,-2.88881 0.8535786,-1.05148 1.7502222,-2.06691 2.6712592,-3.05951 0.9543013,-0.98944 1.92903077,-1.95865 2.89005116,-2.94147 1.02106414,-1.04163 2.10245664,-2.01983 3.18866334,-2.99224 1.2500951,-1.1474 2.5379857,-2.25205 3.8178602,-3.36579 1.338299,-1.11421 2.6556596,-2.25257 3.9763706,-3.38745 1.384795,-1.17668 2.801341,-2.31454 4.218498,-3.45171 1.443933,-1.16757 2.911266,-2.30555 4.356122,-3.47202 1.481656,-1.15736 2.942102,-2.34135 4.4141,-3.51081 1.389351,-1.14633 2.818661,-2.24193 4.246204,-3.33977 1.436232,-1.07207 2.863265,-2.15629 4.301702,-3.2254 1.45451,-1.08402 2.912737,-2.16375 4.399285,-3.20356 1.528569,-1.06557 3.085393,-2.08979 4.622205,-3.14331 1.397553,-0.97473 2.861304,-1.84824 4.292655,-2.77135 1.282642,-0.85852 2.59334,-1.67164 3.909915,-2.47679 1.207677,-0.76126 2.416101,-1.52228 3.644204,-2.2503 1.176808,-0.67299 2.365904,-1.32279 3.567525,-1.95031 1.198004,-0.57538 2.361086,-1.21828 3.538736,-1.83305 0.194471,-0.0959 0.387053,-0.1958 0.583417,-0.28779 10.782678,-5.05171 -1.64119,0.75359 1.74979,-0.81572 1.072224,-0.49621 2.144239,-0.99289 3.218042,-1.48568 0.690325,-0.3168 -1.378405,0.63848 -2.067607,0.95772 2.01169,-0.99301 4.032617,-1.95762 6.17284,-2.63101 1.324599,-0.41069 2.65303,-0.80254 3.998383,-1.14047 1.398056,-0.34553 2.814778,-0.60551 4.234791,-0.84133 1.438706,-0.23456 2.885951,-0.40999 4.334611,-0.56936 1.531633,-0.15804 3.067028,-0.27513 4.602903,-0.38264 1.59516,-0.10886 3.192277,-0.18592 4.789432,-0.2584 1.594601,-0.0713 3.189864,-0.12599 4.785257,-0.17583 1.568423,-0.0482 3.137164,-0.0851 4.705954,-0.11864 1.55011,-0.0326 3.10036,-0.0574 4.65064,-0.08 1.5377,-0.022 3.07547,-0.0388 4.61325,-0.054 1.52933,-0.0149 3.05868,-0.0262 4.58804,-0.0364 1.55386,-0.011 3.10775,-0.0169 4.66164,-0.0234 1.58979,-0.007 3.17958,-0.012 4.76938,-0.0168 1.56659,-0.005 3.13319,-0.008 4.69979,-0.0115 1.54886,-0.003 3.09772,-0.006 4.64658,-0.008 1.53683,-0.002 3.07368,-0.004 4.61051,-0.005 1.52873,-0.001 3.05746,-0.003 4.58619,-0.004 1.52325,-0.001 3.04651,-0.002 4.56977,-0.002 1.51956,-5.3e-4 3.03912,-0.001 4.55869,-0.002 1.52085,-1.7e-4 3.04031,-0.0351 4.55733,0.0866 1.51545,0.14886 3.03043,0.30147 4.54742,0.43401 1.47816,0.0919 2.94603,0.28697 4.41632,0.458 1.42225,0.1327 2.83693,0.31633 4.25121,0.51459 1.40118,0.19555 2.79265,0.45363 4.19139,0.66667 1.38797,0.16198 2.74341,0.48268 4.08536,0.8619 1.28169,0.34937 2.56037,0.71373 3.82117,1.13297 1.17828,0.40904 2.35945,0.8237 3.48927,1.35451 1.07509,0.494 2.12419,1.03998 3.20879,1.51331 1.05755,0.48335 2.10653,0.98479 3.09344,1.60144 0.96283,0.59603 1.93672,1.17491 2.86765,1.82046 0.98855,0.61211 1.841,1.38838 2.60726,2.25641 0.47513,0.60067 0.24517,0.29421 0.68981,0.91943 0,0 -2.65495,1.30423 -2.65495,1.30423 v 0 c -0.43485,-0.60471 -0.20991,-0.30865 -0.6747,-0.88826 -0.75707,-0.84371 -1.60294,-1.5878 -2.56954,-2.18721 -0.93341,-0.63363 -1.90276,-1.21124 -2.86134,-1.80555 -0.98343,-0.59623 -2.02159,-1.0905 -3.06868,-1.56438 -1.08195,-0.48188 -2.13371,-1.02631 -3.21096,-1.51852 -1.12673,-0.51086 -2.29563,-0.92592 -3.46603,-1.32461 -1.26009,-0.40779 -2.53257,-0.77612 -3.81082,-1.12251 -1.3342,-0.3703 -2.68579,-0.66096 -4.0616,-0.83059 -1.39768,-0.21649 -2.7891,-0.47295 -4.19087,-0.66199 -1.41193,-0.1978 -2.82601,-0.3683 -4.24478,-0.50984 -1.46717,-0.17223 -2.93309,-0.35641 -4.40789,-0.45242 -1.51577,-0.13499 -3.02929,-0.2927 -4.54484,-0.42975 -1.51348,-0.0985 -3.02904,-0.0635 -4.54498,-0.0665 -1.51951,5.3e-4 -3.03901,7.9e-4 -4.55852,0.002 -1.52316,5.3e-4 -3.04633,10e-4 -4.5695,0.002 -1.5286,0.001 -3.0572,0.002 -4.5858,0.003 -1.53665,0.001 -3.0733,0.003 -4.60995,0.005 -1.54857,0.002 -3.09715,0.004 -4.64572,0.007 -1.56619,0.003 -3.13238,0.007 -4.69857,0.0111 -1.58944,0.005 -3.17889,0.01 -4.76833,0.0167 -1.55489,0.007 -3.10977,0.0162 -4.66464,0.0262 -1.52906,0.0104 -3.05812,0.0219 -4.58714,0.0371 -1.53734,0.0155 -3.07467,0.0325 -4.61193,0.055 -1.54963,0.023 -3.09923,0.0482 -4.648684,0.0814 -1.567852,0.0341 -3.135641,0.0716 -4.703106,0.12063 -1.594088,0.0506 -3.188047,0.10622 -4.781312,0.17879 -1.596866,0.074 -3.19359,0.15381 -4.788231,0.26717 -1.535118,0.11012 -3.069918,0.22906 -4.600046,0.39632 -1.445876,0.16371 -2.890258,0.34393 -4.325585,0.58503 -1.41596,0.24231 -2.828399,0.50955 -4.221157,0.86435 -1.34229,0.34726 -2.668881,0.74587 -3.991647,1.16097 -0.610317,0.20407 -1.212755,0.41821 -1.807496,0.66475 -0.193143,0.0801 -0.764474,0.33871 -0.576413,0.24734 0.14629,-0.0711 3.331921,-1.56464 1.4992,-0.70526 -10.715897,5.00505 1.649008,-0.77901 -1.729809,0.79934 -1.07125,0.50041 -2.139926,1.00637 -3.213351,1.50211 -0.485801,0.22435 3.501165,-1.65197 1.454192,-0.67999 -1.184005,0.60516 -2.337548,1.26902 -3.542344,1.83359 -1.204968,0.61965 -2.39209,1.27102 -3.573312,1.93441 -1.236681,0.71685 -2.445583,1.48158 -3.652493,2.24711 -1.321036,0.79999 -2.635248,1.60945 -3.918234,2.46933 -1.42831,0.93397 -2.902764,1.79595 -4.307189,2.76646 -1.532397,1.06009 -3.094482,2.07678 -4.623466,3.14191 -1.489258,1.03277 -2.946636,2.11062 -4.399754,3.19343 -1.437918,1.06839 -2.863442,2.15299 -4.302498,3.21991 -1.427149,1.10025 -2.866207,2.18556 -4.252775,3.33731 -1.476304,1.16313 -2.92634,2.3595 -4.414861,3.50735 -1.441748,1.16954 -2.908164,2.30768 -4.353586,3.4725 -1.413466,1.13629 -2.831471,2.26665 -4.215021,3.43958 -1.321109,1.13462 -2.633425,2.27906 -3.978355,3.38565 -1.275382,1.1131 -2.5657486,2.20925 -3.8093027,3.35821 -1.078716,0.97142 -2.1632888,1.93634 -3.185079,2.96863 -0.9569905,0.9848 -1.9295205,1.95401 -2.89116807,2.93422 -0.92204042,0.98481 -1.82327193,1.98957 -2.67223563,3.03852 -0.8029345,0.98017 -1.6064275,1.96136 -2.4647869,2.89386 -0.7796104,0.91738 -1.5533504,1.83994 -2.361149,2.73264 -0.7636687,0.83822 -1.5598238,1.64793 -2.271486,2.53225 -0.6337017,0.80189 -1.3086507,1.5672 -2.0634507,2.25835 -0.623553,0.66381 -1.227295,1.349 -1.89292,1.96984 -0.590453,0.47312 -1.241223,0.87976 -1.737091,1.45913 -0.385662,0.46476 -0.837784,0.86048 -1.253164,1.29691 -0.27101,0.24965 -0.495266,0.54663 -0.568133,0.91487 0,0 -2.829725,1.04238 -2.829725,1.04238 z"
       inkscape:connector-curvature="0" />
  </g>
</svg>
