<?xml version="1.0" encoding="UTF-8" standalone="no"?>
<!-- Created with Inkscape (http://www.inkscape.org/) -->

<svg
   xmlns:dc="http://purl.org/dc/elements/1.1/"
   xmlns:cc="http://creativecommons.org/ns#"
   xmlns:rdf="http://www.w3.org/1999/02/22-rdf-syntax-ns#"
   xmlns:svg="http://www.w3.org/2000/svg"
   xmlns="http://www.w3.org/2000/svg"
   xmlns:xlink="http://www.w3.org/1999/xlink"
   xmlns:sodipodi="http://sodipodi.sourceforge.net/DTD/sodipodi-0.dtd"
   xmlns:inkscape="http://www.inkscape.org/namespaces/inkscape"
   width="10.296701mm"
   height="2.993921mm"
   viewBox="0 0 10.296702 2.9939211"
   version="1.1"
   id="svg8"
   sodipodi:docname="chapsep.svg"
   inkscape:version="0.92.1 r15371">
  <defs
     id="defs2">
    <linearGradient
       id="linearGradient6039">
      <stop
         style="stop-color:#ffffff;stop-opacity:1;"
         offset="0"
         id="stop6037" />
    </linearGradient>
    <linearGradient
       inkscape:collect="always"
       xlink:href="#linearGradient6039"
       id="linearGradient6041"
       x1="31.804331"
       y1="98.688359"
       x2="40.332029"
       y2="98.688359"
       gradientUnits="userSpaceOnUse" />
    <linearGradient
       inkscape:collect="always"
       xlink:href="#linearGradient6039"
       id="linearGradient6043"
       x1="42.056938"
       y1="96.091874"
       x2="45.816227"
       y2="96.091874"
       gradientUnits="userSpaceOnUse" />
    <linearGradient
       inkscape:collect="always"
       xlink:href="#linearGradient6039"
       id="linearGradient6045"
       x1="47.508459"
       y1="98.580609"
       x2="55.462491"
       y2="98.580609"
       gradientUnits="userSpaceOnUse" />
  </defs>
  <sodipodi:namedview
     id="base"
     pagecolor="#ffffff"
     bordercolor="#666666"
     borderopacity="1.0"
     inkscape:pageopacity="0.0"
     inkscape:pageshadow="2"
     inkscape:zoom="11.313708"
     inkscape:cx="9.8046207"
     inkscape:cy="-0.18838981"
     inkscape:document-units="mm"
     inkscape:current-layer="text3682"
     showgrid="false"
     fit-margin-top="0"
     fit-margin-left="0"
     fit-margin-right="0"
     fit-margin-bottom="0"
     inkscape:window-width="1024"
     inkscape:window-height="720"
     inkscape:window-x="0"
     inkscape:window-y="0"
     inkscape:window-maximized="1"
     showborder="true"
     units="px" />
  <metadata
     id="metadata5">
    <rdf:RDF>
      <cc:Work
         rdf:about="">
        <dc:format>image/svg+xml</dc:format>
        <dc:type
           rdf:resource="http://purl.org/dc/dcmitype/StillImage" />
        <dc:title></dc:title>
      </cc:Work>
    </rdf:RDF>
  </metadata>
  <g
     inkscape:label="Layer 1"
     inkscape:groupmode="layer"
     id="layer1"
     transform="translate(-31.936623,-94.341765)">
    <g
       aria-label="☙°❧"
       style="font-style:normal;font-weight:normal;font-size:10.58333302px;line-height:1.25;font-family:sans-serif;letter-spacing:0px;word-spacing:0px;fill:#000000;fill-opacity:1;stroke:none;stroke-width:0.26458332"
       id="text3682"
       transform="matrix(0.44015079,0,0,0.44015079,17.879693,52.817163)">
      <path
         d="m 38.970132,96.237946 q 0.611849,0.02756 0.722092,0.661458 0,0.479558 -0.407899,0.617361 -0.970139,0.198438 -1.080382,0.440973 1.411111,0.148828 1.71428,1.648133 h 0.148828 l 0.104731,0.407899 -0.253559,0.0717 h -0.01654 q -0.09371,0.95911 -0.931554,1.00872 -0.540191,0 -0.677995,-0.51263 0,-0.46302 0.110244,-0.46302 0.08819,0.24805 0.402387,0.24805 0.01102,0 0.01654,0 0.424436,0 0.496094,-0.424437 -1.444184,-0.424436 -1.482769,-1.752865 h -0.01654 q -0.722092,0 -1.096918,0.600825 0.738628,0.352778 0.738628,0.909505 -0.04961,1.355992 -1.890668,1.444182 -3.389974,-0.0165 -3.632509,-1.978861 0,-0.319705 0.363802,-0.369314 0.28112,0.01654 0.325217,0.259071 v 0.12678 l -0.07166,0.214974 q 0,0.496093 0.622874,0.562239 0.490581,0 0.562239,-0.424436 0.292144,-2.634809 1.934766,-2.745052 1.080382,0.03307 1.080382,0.915018 v 0.0441 q 0,0.214974 -0.231511,0.760677 0.512631,-0.424436 1.063846,-0.534679 0.336241,0 0.336241,-0.209462 0.396875,-0.46302 0.826823,-0.689019 0.314193,-0.198437 0.314193,-0.396875 0,-0.07166 -0.104731,-0.237022 -0.09922,-0.165365 0.01102,-0.20395 z m -0.854383,1.951302 q -0.0055,0.0441 -0.0055,0.09371 0,0.727604 1.262283,1.129991 v -0.01654 q -0.176388,-0.9977 -1.25677,-1.207162 z"
         style="font-size:11.28888893px;stroke-width:0.04688735;stroke:url(#linearGradient6041);stroke-miterlimit:4;stroke-dasharray:none;stroke-linejoin:round;paint-order:stroke fill markers"
         id="path3684"
         inkscape:connector-curvature="0" />
      <path
         d="m 43.936582,95.052833 q -0.440972,0 -0.744141,0.308681 -0.303168,0.303168 -0.303168,0.74414 0,0.43546 0.303168,0.738629 0.303169,0.297656 0.744141,0.297656 0.440972,0 0.744141,-0.297656 0.303168,-0.303169 0.303168,-0.738629 0,-0.43546 -0.30868,-0.74414 -0.303169,-0.308681 -0.738629,-0.308681 z m 0,-0.711068 q 0.352778,0 0.677995,0.137804 0.325217,0.132292 0.562239,0.385851 0.253559,0.248047 0.380339,0.56224 0.12678,0.314192 0.12678,0.677994 0,0.727605 -0.512631,1.234723 -0.507118,0.501606 -1.245746,0.501606 -0.744141,0 -1.240235,-0.496094 -0.496093,-0.496094 -0.496093,-1.240235 0,-0.738628 0.507118,-1.251258 0.507118,-0.512631 1.240234,-0.512631 z"
         style="font-size:11.28888893px;stroke-width:0.04688735;stroke:url(#linearGradient6043);stroke-miterlimit:4;stroke-dasharray:none;stroke-linejoin:round;paint-order:stroke fill markers"
         id="path3686"
         inkscape:connector-curvature="0" />
      <path
         d="m 49.399126,98.145151 q -0.347266,0.07717 -0.595313,0.275608 -0.363802,0.281119 -0.51263,0.848871 0.43546,-0.159852 0.777213,-0.479557 0.336242,-0.308681 0.336242,-0.595313 0,-0.02205 -0.0055,-0.04961 z m 2.81671,2.667879 q -2.056033,0 -2.056033,-1.400084 0,-0.380338 0.650434,-0.744141 -0.264584,-0.303168 -0.56224,-0.457508 -0.209462,-0.110243 -0.413411,-0.110243 h -0.02205 q 0.01102,0.479557 -0.402387,0.920529 -0.529167,0.56224 -1.080382,0.644922 0.137804,0.391365 0.507118,0.391365 0.237022,0 0.457509,-0.237025 0.0441,0.165365 0.0441,0.435465 0,0.41341 -0.799262,0.41341 -0.589801,0 -0.700044,-0.942581 h -0.198437 v -0.396875 h 0.214974 q 0.165364,-0.782726 0.722092,-1.223698 0.424436,-0.330729 0.771701,-0.341754 -0.08268,-0.09922 -0.28112,-0.198437 -0.192925,-0.09922 -0.529166,-0.176389 -0.396875,-0.09371 -0.396875,-0.479557 0,-0.56224 0.540191,-0.56224 -0.06615,0.159853 -0.06615,0.352778 0,0.209462 0.788238,0.672483 0.363802,0.214973 0.38585,0.352777 0.336242,0 0.56224,0.104731 0.237023,0.110243 0.545703,0.374827 -0.170877,-0.440973 -0.170877,-0.677995 0,-0.35829 0.336242,-0.573264 0.253559,-0.159853 0.854383,-0.159853 1.190625,0 1.504818,2.011936 0.132292,0.848872 0.689019,0.848872 0.540191,0 0.540191,-0.330729 0,-0.165365 -0.06615,-0.264584 -0.06063,-0.09371 -0.06063,-0.242534 0,-0.33073 0.440972,-0.33073 0.363802,0 0.363802,0.446485 0,0.953602 -1.361502,1.493791 -0.970139,0.38585 -1.752864,0.38585 z"
         style="font-size:11.28888893px;stroke-width:0.04688735;stroke:url(#linearGradient6045);stroke-miterlimit:4;stroke-dasharray:none;stroke-linejoin:round;paint-order:stroke fill markers"
         id="path3688"
         inkscape:connector-curvature="0" />
    </g>
  </g>
</svg>
