<?xml version="1.0" encoding="UTF-8" standalone="no"?>
<!-- Created with Inkscape (http://www.inkscape.org/) -->

<svg
   xmlns:dc="http://purl.org/dc/elements/1.1/"
   xmlns:cc="http://creativecommons.org/ns#"
   xmlns:rdf="http://www.w3.org/1999/02/22-rdf-syntax-ns#"
   xmlns:svg="http://www.w3.org/2000/svg"
   xmlns="http://www.w3.org/2000/svg"
   xmlns:sodipodi="http://sodipodi.sourceforge.net/DTD/sodipodi-0.dtd"
   xmlns:inkscape="http://www.inkscape.org/namespaces/inkscape"
   width="83.184685mm"
   height="114.17409mm"
   viewBox="0 0 83.184685 114.17408"
   version="1.1"
   id="svg8"
   inkscape:version="0.92.1 r15371"
   sodipodi:docname="Slug.svg">
  <defs
     id="defs2" />
  <sodipodi:namedview
     id="base"
     pagecolor="#ffffff"
     bordercolor="#666666"
     borderopacity="1.0"
     inkscape:pageopacity="0.0"
     inkscape:pageshadow="2"
     inkscape:zoom="0.49497475"
     inkscape:cx="409.42636"
     inkscape:cy="273.86266"
     inkscape:document-units="mm"
     inkscape:current-layer="layer1"
     showgrid="false"
     inkscape:window-width="1024"
     inkscape:window-height="714"
     inkscape:window-x="-4"
     inkscape:window-y="1"
     inkscape:window-maximized="1"
     scale-x="1"
     fit-margin-top="0"
     fit-margin-left="0"
     fit-margin-right="0"
     fit-margin-bottom="0" />
  <metadata
     id="metadata5">
    <rdf:RDF>
      <cc:Work
         rdf:about="">
        <dc:format>image/svg+xml</dc:format>
        <dc:type
           rdf:resource="http://purl.org/dc/dcmitype/StillImage" />
        <dc:title></dc:title>
      </cc:Work>
    </rdf:RDF>
  </metadata>
  <g
     inkscape:label="Layer 1"
     inkscape:groupmode="layer"
     id="layer1"
     transform="translate(2.6773968,-176.91532)">
    <path
       style="fill:none;stroke:#000000;stroke-width:0.26458332px;stroke-linecap:butt;stroke-linejoin:miter;stroke-opacity:1"
       d="m 26.192414,191.16127 c -15.34713,-1.20299 -21.7597041,32.77961 -5.34539,36.88319"
       id="path12"
       inkscape:connector-curvature="0" />
    <path
       style="fill:none;stroke:#000000;stroke-width:0.26458332px;stroke-linecap:butt;stroke-linejoin:miter;stroke-opacity:1"
       d="m 12.294397,199.71389 c -13.8095621,33.06102 29.313021,39.72915 39.555891,19.24341"
       id="path14"
       inkscape:connector-curvature="0" />
    <path
       style="fill:none;stroke:#000000;stroke-width:0.26458332px;stroke-linecap:butt;stroke-linejoin:miter;stroke-opacity:1"
       d="m 51.850288,218.9573 c -2.13816,1.06908 -4.20783,2.2878 -6.41447,3.20723 -0.9304,0.38767 1.42544,-1.42544 2.13816,-2.13816 2.56702,-2.56702 2.05056,-9.39375 2.13815,-9.08716 0.75991,2.65967 1.42544,5.34539 2.13816,8.01809"
       id="path16"
       inkscape:connector-curvature="0" />
    <path
       style="fill:none;stroke:#000000;stroke-width:0.26458332px;stroke-linecap:butt;stroke-linejoin:miter;stroke-opacity:1"
       d="m 51.850288,218.9573 c -1.06908,0.53454 -2.1823,0.98866 -3.20724,1.60361 -1.02493,0.61496 2.5125,-0.63098 3.20724,-1.60361 2.45106,-3.43149 1.06908,-11.88667 1.06908,-16.57071"
       id="path18"
       inkscape:connector-curvature="0" />
    <path
       style="fill:none;stroke:#000000;stroke-width:0.26458332px;stroke-linecap:butt;stroke-linejoin:miter;stroke-opacity:1"
       d="m 26.192414,191.16127 c -1.069078,0.35636 -2.160929,0.65055 -3.207234,1.06907 -0.467924,0.18717 0.712718,-0.71271 1.069078,-1.06907 3.376464,-3.37647 8.15641,-3.20724 13.89801,-3.20724 8.01017,0 16.06053,8.9654 14.9671,14.43256"
       id="path22"
       inkscape:connector-curvature="0" />
    <path
       style="fill:none;stroke:#000000;stroke-width:0.26458332px;stroke-linecap:butt;stroke-linejoin:miter;stroke-opacity:1"
       d="m 26.192414,191.16127 c -1.781797,-0.17819 -3.597349,-0.14609 -5.34539,-0.53454 -0.886908,-0.19709 1.764151,-0.53454 2.672693,-0.53454 4.087445,0 7.460421,-1.60362 12.294401,-1.60362 9.95747,0 11.39727,7.6555 17.10525,13.36348 7.37611,7.37611 -8.7773,29.95228 -1.06908,17.10525"
       id="path24"
       inkscape:connector-curvature="0" />
    <path
       style="fill:none;stroke:#000000;stroke-width:0.26458332px;stroke-linecap:butt;stroke-linejoin:miter;stroke-opacity:1"
       d="m 51.850288,218.9573 c -11.3737,8.06556 -4.42918,2.81856 0,0"
       id="path26"
       inkscape:connector-curvature="0" />
    <path
       style="fill:none;stroke:#000000;stroke-width:0.26458332px;stroke-linecap:butt;stroke-linejoin:miter;stroke-opacity:1"
       d="m 51.315748,200.24843 c -6.84683,0.64944 -18.14858,8.31599 -19.64431,14.29892 4.50296,-3.86814 15.68376,-13.5518 21.24793,-12.16076"
       id="path30"
       inkscape:connector-curvature="0" />
    <path
       style="fill:none;stroke:#000000;stroke-width:0.26458332px;stroke-linecap:butt;stroke-linejoin:miter;stroke-opacity:1"
       d="m 12.027128,210.00377 c 1.146926,-0.55648 2.488917,-0.85609 3.875407,-1.20271 5.012373,-1.2531 9.764107,1.20709 13.229843,2.93996 1.03908,0.51954 2.8112,3.3506 2.53906,2.80633"
       id="path34"
       inkscape:connector-curvature="0" />
    <path
       style="fill:none;stroke:#000000;stroke-width:0.26458332px;stroke-linecap:butt;stroke-linejoin:miter;stroke-opacity:1"
       d="m 35.546848,225.23813 c -1.35232,-0.0933 -1.85856,0.10899 -2.27179,0.93544"
       id="path38"
       inkscape:connector-curvature="0" />
    <path
       style="fill:none;stroke:#000000;stroke-width:0.26458332px;stroke-linecap:butt;stroke-linejoin:miter;stroke-opacity:1"
       d="m 52.919368,202.38659 c 0.3243,0.12434 0.63164,0.30847 0.97292,0.37304 1.23796,0.23419 0,-2.51985 0,-3.77977 0,-2.33085 0,-4.6617 0,-6.99256 0,-5.90261 2.56101,-10.79166 4.53571,-14.74107 -5.67824,3.23695 -10.6935,9.3155 -15.49702,11.71727"
       id="path40"
       inkscape:connector-curvature="0" />
    <path
       style="fill:none;stroke:#000000;stroke-width:0.26458332px;stroke-linecap:butt;stroke-linejoin:miter;stroke-opacity:1"
       d="M 10.614012,206.3504 C 9.7272609,200.16385 2.1267029,192.27936 -2.6151551,189.90843"
       id="path42"
       inkscape:connector-curvature="0" />
    <path
       style="fill:none;stroke:#000000;stroke-width:0.26458332px;stroke-linecap:butt;stroke-linejoin:miter;stroke-opacity:1"
       d="m -2.6151551,189.90843 c 5.876989,3.13354 11.727881,3.96875 20.0327391,3.96875"
       id="path44"
       inkscape:connector-curvature="0" />
    <path
       style="fill:none;stroke:#000000;stroke-width:0.26458332px;stroke-linecap:butt;stroke-linejoin:miter;stroke-opacity:1"
       d="m 26.192414,191.16127 c -0.468098,-0.98458 -0.910593,-1.98174 -1.404295,-2.95373 -0.353674,-0.6963 -5.477306,3.20945 -5.669642,3.40179 -1.763586,1.76359 -2.86235,4.00545 -2.834823,3.96875 0.408845,-0.54513 0.755952,-1.13393 1.133928,-1.7009"
       id="path46"
       inkscape:connector-curvature="0" />
    <path
       style="fill:none;stroke:#000000;stroke-width:0.26458332px;stroke-linecap:butt;stroke-linejoin:miter;stroke-opacity:1"
       d="m 17.417582,193.87718 c -0.188987,0.25199 -0.426101,0.47423 -0.566963,0.75596 -0.140861,0.28172 0.274511,-0.63898 0.566963,-0.75596 0.859015,-0.3436 2.371876,-0.22366 3.401787,-0.56696 2.812894,-0.93763 6.874804,0.53128 6.614584,0 -0.363892,-0.74294 -0.827694,-1.43264 -1.241539,-2.14895"
       id="path48"
       inkscape:connector-curvature="0" />
    <path
       style="fill:none;stroke:#000000;stroke-width:0.26458332px;stroke-linecap:butt;stroke-linejoin:miter;stroke-opacity:1"
       d="m 54.081278,211.45308 c -4.54621,10.47949 -11.20204,21.10965 -18.33185,30.61607"
       id="path50"
       inkscape:connector-curvature="0" />
    <path
       style="fill:none;stroke:#000000;stroke-width:0.26458332px;stroke-linecap:butt;stroke-linejoin:miter;stroke-opacity:1"
       d="m 20.847024,228.04446 c -0.702175,-0.42778 -1.423215,-0.82603 -2.106523,-1.28334 -0.983623,-0.65831 2.086295,1.14875 3.212798,1.5119 1.252712,0.40383 3.289316,1.77741 4.157737,2.64583 2.238692,2.2387 10.323202,7.04151 9.638392,11.1503"
       id="path52"
       inkscape:connector-curvature="0" />
    <path
       style="fill:none;stroke:#000000;stroke-width:0.26458332px;stroke-linecap:butt;stroke-linejoin:miter;stroke-opacity:1"
       d="m 15.905679,225.81617 c 7.65339,3.33466 16.056469,14.35934 19.843749,16.25298 -5.81208,-5.58036 -11.881877,-15.67992 -20.977676,-17.95387"
       id="path54"
       inkscape:connector-curvature="0" />
    <path
       style="fill:none;stroke:#000000;stroke-width:0.26458332px;stroke-linecap:butt;stroke-linejoin:miter;stroke-opacity:1"
       d="m 35.749428,242.06915 c -0.62996,-0.88195 -1.30379,-1.73414 -1.88988,-2.64583 -0.28386,-0.44156 10.63671,-12.7228 12.6622,-13.22917 -4.39918,0.55062 -11.61251,10.83382 -10.77232,15.875"
       id="path56"
       inkscape:connector-curvature="0" />
    <path
       style="fill:none;stroke:#000000;stroke-width:0.26458332px;stroke-linecap:butt;stroke-linejoin:miter;stroke-opacity:1"
       d="m 56.126598,193.29942 c 7.93381,-0.71527 11.70828,2.8368 14.96709,9.35444 1.87021,3.7404 3.27257,7.67953 4.54359,11.49259 4.073759,12.2213 -11.209,30.76864 -2.13816,48.91032 1.74712,3.49423 3.89612,6.75891 6.949009,8.28535"
       id="path136"
       inkscape:connector-curvature="0" />
    <path
       style="fill:none;stroke:#000000;stroke-width:0.26458332px;stroke-linecap:butt;stroke-linejoin:miter;stroke-opacity:1"
       d="m 41.961318,234.19166 c 2.89023,15.31562 -12.36219,28.82926 -5.07812,47.03944 1.38111,3.45279 3.32058,7.04416 7.21627,8.01808"
       id="path140"
       inkscape:connector-curvature="0" />
    <path
       style="fill:none;stroke:#000000;stroke-width:0.26458332px;stroke-linecap:butt;stroke-linejoin:miter;stroke-opacity:1"
       d="m 52.919368,202.38659 c 31.761319,12.41759 -6.20674,50.72167 14.69982,71.62823"
       id="path146"
       inkscape:connector-curvature="0" />
    <path
       style="fill:none;stroke:#000000;stroke-width:0.26458332px;stroke-linecap:butt;stroke-linejoin:miter;stroke-opacity:1"
       d="m 67.619188,274.01482 c -1.69794,0.72836 -1.55649,1.65075 -0.80181,2.40542 0.32795,0.32796 1.53072,0.26727 2.13816,0.26727 5.70245,0 -2.47549,-7.2293 -1.33635,-2.67269 z"
       id="path152"
       inkscape:connector-curvature="0" />
    <path
       style="fill:none;stroke:#000000;stroke-width:0.26458332px;stroke-linecap:butt;stroke-linejoin:miter;stroke-opacity:1"
       d="m 20.847024,228.04446 c 0.534537,0.8909 1.007813,1.82155 1.603615,2.6727 0.493596,0.70514 2.317576,1.24849 2.939966,1.87088 0.55704,0.55704 -0.366467,2.74158 0,3.47451 7.001303,14.0026 -21.5150651,41.026 -10.958052,51.58302"
       id="path154"
       inkscape:connector-curvature="0" />
    <path
       style="fill:none;stroke:#000000;stroke-width:0.26458332px;stroke-linecap:butt;stroke-linejoin:miter;stroke-opacity:1"
       d="m 14.432553,287.64557 c 0.06739,-0.6944 2.129647,-2.54758 3.073601,-1.60362 0.462981,0.46298 0.400904,1.33414 0.400904,2.27179 0,5.44294 -7.031005,1.01744 -5.612661,-0.40091 0.192714,-0.19271 1.789316,-0.0928 2.138156,-0.26726 z"
       id="path156"
       inkscape:connector-curvature="0" />
  </g>
</svg>
