<?xml version="1.0" standalone="no"?>
<!DOCTYPE svg PUBLIC "-//W3C//DTD SVG 20010904//EN"
 "http://www.w3.org/TR/2001/REC-SVG-20010904/DTD/svg10.dtd">
<svg version="1.0" xmlns="http://www.w3.org/2000/svg"
 width="648.000000pt" height="486.000000pt" viewBox="0 0 648.000000 486.000000"
 preserveAspectRatio="xMidYMid meet">
<metadata>
Created by potrace 1.15, written by Peter Selinger 2001-2017
</metadata>
<g transform="translate(0.000000,486.000000) scale(0.100000,-0.100000)"
fill="#000000" stroke="none">
<path d="M1449 4733 c-22 -44 -22 -50 -2 -20 11 15 23 24 27 20 4 -4 4 0 0 10
-8 22 -8 22 -25 -10z"/>
<path d="M1500 4715 c7 -8 15 -15 17 -15 3 0 0 7 -7 15 -7 8 -15 15 -17 15 -3
0 0 -7 7 -15z"/>
<path d="M1400 4716 c0 -3 5 -8 10 -11 6 -3 10 -4 10 -1 0 3 -4 8 -10 11 -5 3
-10 4 -10 1z"/>
<path d="M1458 4679 c6 -7 13 -24 13 -38 2 -24 2 -24 6 -3 2 12 9 20 14 17 5
-4 9 -4 9 -2 0 3 -12 13 -27 22 -16 10 -22 12 -15 4z"/>
<path d="M1399 4653 l21 -32 -27 -3 c-14 -2 -27 -7 -28 -13 -1 -5 0 -7 3 -2 7
14 53 7 59 -9 3 -9 0 -26 -7 -38 -12 -19 -12 -20 3 -7 20 16 22 42 5 60 -11
11 -8 12 12 7 23 -6 23 -6 5 5 -11 6 -30 24 -43 38 l-24 26 21 -32z"/>
<path d="M1710 4665 c7 -8 15 -15 17 -15 3 0 0 7 -7 15 -7 8 -15 15 -17 15 -3
0 0 -7 7 -15z"/>
<path d="M1748 4635 c6 -11 25 -33 44 -50 l33 -30 -35 40 c-19 22 -39 45 -44
50 -5 6 -4 1 2 -10z"/>
<path d="M1613 4616 c7 -19 107 -156 113 -156 3 0 -16 28 -41 63 -25 34 -50
72 -55 85 -10 24 -26 31 -17 8z"/>
<path d="M1640 4606 c0 -3 5 -8 10 -11 6 -3 10 -4 10 -1 0 3 -4 8 -10 11 -5 3
-10 4 -10 1z"/>
<path d="M1677 4579 c7 -7 15 -10 18 -7 3 3 -2 9 -12 12 -14 6 -15 5 -6 -5z"/>
<path d="M1351 4574 c-2 -19 26 -47 40 -41 11 4 11 6 -2 6 -9 1 -21 11 -27 24
-6 12 -11 17 -11 11z"/>
<path d="M1609 4555 c17 -33 31 -51 31 -40 0 6 -10 21 -21 35 -13 17 -17 18
-10 5z"/>
<path d="M1717 4559 c7 -7 15 -10 18 -7 3 3 -2 9 -12 12 -14 6 -15 5 -6 -5z"/>
<path d="M1757 4539 c7 -7 15 -10 18 -7 3 3 -2 9 -12 12 -14 6 -15 5 -6 -5z"/>
<path d="M1835 4526 c10 -14 19 -26 22 -26 7 0 -17 39 -28 46 -6 3 -3 -5 6
-20z"/>
<path d="M1800 4520 c8 -5 20 -10 25 -10 6 0 3 5 -5 10 -8 5 -19 10 -25 10 -5
0 -3 -5 5 -10z"/>
<path d="M1149 4493 c-13 -16 -12 -17 4 -4 9 7 17 15 17 17 0 8 -8 3 -21 -13z"/>
<path d="M1235 4489 c-4 -6 -5 -12 -2 -15 2 -3 7 2 10 11 7 17 1 20 -8 4z"/>
<path d="M1640 4495 c0 -5 5 -17 10 -25 5 -8 10 -10 10 -5 0 6 -5 17 -10 25
-5 8 -10 11 -10 5z"/>
<path d="M1120 4475 c0 -3 2 -5 5 -5 3 0 5 2 5 5 0 3 -2 5 -5 5 -3 0 -5 -2 -5
-5z"/>
<path d="M1170 4443 c13 -18 25 -33 27 -33 8 0 -17 38 -33 51 -11 9 -9 2 6
-18z"/>
<path d="M1490 4465 c0 -3 2 -5 5 -5 3 0 5 2 5 5 0 3 -2 5 -5 5 -3 0 -5 -2 -5
-5z"/>
<path d="M1530 4461 c0 -6 4 -13 10 -16 6 -3 7 1 4 9 -7 18 -14 21 -14 7z"/>
<path d="M1030 4456 c0 -10 80 -166 85 -166 5 0 -72 159 -81 169 -2 2 -4 1 -4
-3z"/>
<path d="M1237 4453 c7 -2 21 -2 30 0 10 3 5 5 -12 5 -16 0 -24 -2 -18 -5z"/>
<path d="M1303 4449 c15 -9 16 -13 5 -27 -12 -15 -11 -16 5 -3 13 10 15 17 6
27 -6 8 -17 14 -23 14 -6 0 -3 -5 7 -11z"/>
<path d="M1451 4446 c-7 -8 -11 -32 -8 -53 l4 -38 1 42 c1 28 8 45 20 52 9 6
12 11 6 11 -6 0 -17 -6 -23 -14z"/>
<path d="M1662 4440 c0 -8 4 -26 8 -40 6 -20 8 -21 8 -5 0 11 -3 29 -8 40 -5
12 -8 14 -8 5z"/>
<path d="M1730 4445 c0 -3 2 -5 5 -5 3 0 5 2 5 5 0 3 -2 5 -5 5 -3 0 -5 -2 -5
-5z"/>
<path d="M1779 4413 l-34 -38 38 34 c34 33 42 41 34 41 -2 0 -19 -17 -38 -37z"/>
<path d="M926 4415 c24 -39 24 -40 24 -28 0 6 -9 21 -21 34 l-20 24 17 -30z"/>
<path d="M1561 4410 c6 -14 29 -46 50 -71 36 -44 37 -47 21 -65 -9 -10 2 -1
26 21 40 37 53 53 33 40 -5 -3 -12 3 -14 12 -3 13 -4 12 -2 -3 1 -11 -4 -25
-11 -32 -11 -10 -21 -2 -51 37 -21 26 -44 57 -51 67 -10 16 -11 15 -1 -6z"/>
<path d="M1210 4406 c0 -3 5 -8 10 -11 6 -3 10 -4 10 -1 0 3 -4 8 -10 11 -5 3
-10 4 -10 1z"/>
<path d="M1166 4383 c7 -4 14 -17 17 -28 5 -16 5 -15 4 4 -1 14 -9 26 -17 28
-10 3 -11 2 -4 -4z"/>
<path d="M1240 4385 c0 -3 2 -5 5 -5 3 0 5 2 5 5 0 3 -2 5 -5 5 -3 0 -5 -2 -5
-5z"/>
<path d="M1738 4304 c-48 -46 -80 -80 -70 -75 18 10 170 161 162 161 -3 0 -44
-39 -92 -86z"/>
<path d="M1833 4316 c-58 -80 -98 -163 -108 -222 -4 -22 -16 -74 -27 -116 -11
-45 -18 -101 -16 -135 l3 -58 33 100 c37 112 96 225 117 225 11 0 15 -20 18
-87 l3 -88 2 91 c2 87 1 92 -20 97 -12 4 -23 5 -23 4 -33 -52 -73 -134 -95
-194 -36 -98 -38 -72 -4 66 15 58 27 112 27 119 0 6 4 12 10 12 5 0 7 6 5 12
-3 7 2 19 9 27 8 7 17 26 20 42 3 16 9 29 13 29 4 0 13 13 20 29 6 16 23 39
36 52 21 20 27 21 35 9 8 -12 10 -11 8 5 -1 11 -1 24 0 29 2 15 89 -113 116
-169 27 -58 55 -194 55 -270 0 -104 -13 -88 -41 50 -15 76 -32 142 -38 148 -7
7 -20 6 -40 -3 l-31 -12 0 -92 c0 -53 -6 -110 -15 -136 l-15 -45 3 37 c2 28 0
35 -9 27 -9 -7 -14 -4 -17 13 -3 13 -2 -8 0 -47 3 -38 9 -74 13 -79 16 -17 43
100 47 205 5 101 6 107 29 118 22 10 26 8 34 -15 6 -15 22 -83 35 -152 14 -69
27 -128 30 -130 11 -11 25 54 25 113 0 93 -27 220 -62 289 -38 75 -108 176
-122 176 -6 0 -35 -33 -63 -74z m54 -503 c-4 -3 -7 0 -7 7 0 7 3 10 7 7 3 -4
3 -10 0 -14z"/>
<path d="M1140 4370 c0 -7 3 -10 7 -7 3 4 3 10 0 14 -4 3 -7 0 -7 -7z"/>
<path d="M1730 4370 c0 -7 3 -10 7 -7 3 4 3 10 0 14 -4 3 -7 0 -7 -7z"/>
<path d="M950 4360 c0 -7 3 -10 7 -7 3 4 3 10 0 14 -4 3 -7 0 -7 -7z"/>
<path d="M1710 4350 c0 -7 3 -10 7 -7 3 4 3 10 0 14 -4 3 -7 0 -7 -7z"/>
<path d="M1142 4334 c9 -9 21 -15 27 -13 6 2 -2 10 -17 17 -25 11 -25 11 -10
-4z"/>
<path d="M1450 4330 c6 -11 13 -20 16 -20 2 0 0 9 -6 20 -6 11 -13 20 -16 20
-2 0 0 -9 6 -20z"/>
<path d="M960 4335 c0 -5 5 -17 10 -25 5 -8 10 -10 10 -5 0 6 -5 17 -10 25 -5
8 -10 11 -10 5z"/>
<path d="M1510 4320 c-9 -6 -10 -10 -3 -10 6 0 15 5 18 10 8 12 4 12 -15 0z"/>
<path d="M1558 4312 c9 -10 19 -17 21 -16 6 5 -20 34 -30 34 -5 0 -1 -8 9 -18z"/>
<path d="M1480 4315 c0 -3 2 -5 5 -5 3 0 5 2 5 5 0 3 -2 5 -5 5 -3 0 -5 -2 -5
-5z"/>
<path d="M1020 4306 c0 -3 5 -8 10 -11 6 -3 10 -4 10 -1 0 3 -4 8 -10 11 -5 3
-10 4 -10 1z"/>
<path d="M1891 4296 c-1 -11 2 -17 5 -13 3 3 4 12 1 19 -3 8 -6 5 -6 -6z"/>
<path d="M987 4293 c-11 -10 -8 -27 6 -47 12 -16 14 -15 37 11 l25 28 -27 -23
-26 -24 -7 22 c-5 15 -2 26 6 31 8 5 9 9 3 9 -6 0 -14 -3 -17 -7z"/>
<path d="M1130 4285 c0 -3 2 -5 5 -5 3 0 5 2 5 5 0 3 -2 5 -5 5 -3 0 -5 -2 -5
-5z"/>
<path d="M1532 4250 c-18 -17 -29 -30 -24 -30 5 0 21 14 37 30 37 38 30 38
-13 0z"/>
<path d="M1891 4256 c-1 -11 2 -17 5 -13 3 3 4 12 1 19 -3 8 -6 5 -6 -6z"/>
<path d="M1600 4250 c0 -7 3 -10 7 -7 3 4 3 10 0 14 -4 3 -7 0 -7 -7z"/>
<path d="M1200 4240 c0 -7 3 -10 7 -7 3 4 3 10 0 14 -4 3 -7 0 -7 -7z"/>
<path d="M1580 4230 c0 -7 3 -10 7 -7 3 4 3 10 0 14 -4 3 -7 0 -7 -7z"/>
<path d="M1891 4216 c-1 -11 2 -17 5 -13 3 3 4 12 1 19 -3 8 -6 5 -6 -6z"/>
<path d="M1210 4215 c0 -5 5 -17 10 -25 5 -8 10 -10 10 -5 0 6 -5 17 -10 25
-5 8 -10 11 -10 5z"/>
<path d="M1359 4202 c-13 -16 -13 -16 5 -2 18 14 19 13 14 -12 -3 -15 -1 -25
3 -22 12 7 11 41 0 48 -5 3 -15 -2 -22 -12z"/>
<path d="M1625 4210 c-3 -5 -4 -10 -1 -10 3 0 8 5 11 10 3 6 4 10 1 10 -3 0
-8 -4 -11 -10z"/>
<path d="M1125 4200 c-5 -8 82 -150 92 -150 5 0 -2 12 -50 84 -31 46 -36 60
-26 67 9 6 10 9 2 9 -6 0 -14 -4 -18 -10z"/>
<path d="M1100 4185 c0 -3 2 -5 5 -5 3 0 5 2 5 5 0 3 -2 5 -5 5 -3 0 -5 -2 -5
-5z"/>
<path d="M1891 4176 c-1 -11 2 -17 5 -13 3 3 4 12 1 19 -3 8 -6 5 -6 -6z"/>
<path d="M1280 4175 c0 -3 2 -5 5 -5 3 0 5 2 5 5 0 3 -2 5 -5 5 -3 0 -5 -2 -5
-5z"/>
<path d="M1340 4173 c0 -5 10 -18 23 -29 l22 -19 -20 25 c-11 14 -21 27 -22
29 -2 2 -3 0 -3 -6z"/>
<path d="M1397 4161 c-4 -17 -3 -21 5 -13 5 5 8 16 6 23 -3 8 -7 3 -11 -10z"/>
<path d="M1230 4160 c0 -7 3 -10 7 -7 3 4 3 10 0 14 -4 3 -7 0 -7 -7z"/>
<path d="M1259 4145 c-3 -20 2 -41 14 -60 11 -17 16 -21 12 -10 -5 11 -11 38
-14 60 -7 39 -7 39 -12 10z"/>
<path d="M1311 4153 c7 -12 15 -20 18 -17 3 2 -3 12 -13 22 -17 16 -18 16 -5
-5z"/>
<path d="M1891 4136 c-1 -11 2 -17 5 -13 3 3 4 12 1 19 -3 8 -6 5 -6 -6z"/>
<path d="M3616 4137 c3 -10 9 -15 12 -12 3 3 0 11 -7 18 -10 9 -11 8 -5 -6z"/>
<path d="M1240 4135 c0 -3 2 -5 5 -5 3 0 5 2 5 5 0 3 -2 5 -5 5 -3 0 -5 -2 -5
-5z"/>
<path d="M1330 4110 c0 -7 3 -10 7 -7 3 4 3 10 0 14 -4 3 -7 0 -7 -7z"/>
<path d="M1891 4096 c-1 -11 2 -17 5 -13 3 3 4 12 1 19 -3 8 -6 5 -6 -6z"/>
<path d="M3626 4097 c3 -10 9 -15 12 -12 3 3 0 11 -7 18 -10 9 -11 8 -5 -6z"/>
<path d="M3320 4070 c0 -7 3 -10 7 -7 3 4 3 10 0 14 -4 3 -7 0 -7 -7z"/>
<path d="M1891 4056 c-1 -11 2 -17 5 -13 3 3 4 12 1 19 -3 8 -6 5 -6 -6z"/>
<path d="M3390 4061 c0 -6 4 -13 10 -16 6 -3 7 1 4 9 -7 18 -14 21 -14 7z"/>
<path d="M3640 4060 c0 -7 3 -10 7 -7 3 4 3 10 0 14 -4 3 -7 0 -7 -7z"/>
<path d="M1230 4046 c0 -2 7 -7 16 -10 8 -3 12 -2 9 4 -6 10 -25 14 -25 6z"/>
<path d="M3331 4040 c0 -8 4 -22 9 -30 12 -18 12 -2 0 25 -6 13 -9 15 -9 5z"/>
<path d="M3650 4035 c0 -5 5 -17 10 -25 5 -8 10 -10 10 -5 0 6 -5 17 -10 25
-5 8 -10 11 -10 5z"/>
<path d="M1891 4016 c-1 -11 2 -17 5 -13 3 3 4 12 1 19 -3 8 -6 5 -6 -6z"/>
<path d="M3410 4025 c0 -5 5 -17 10 -25 5 -8 10 -10 10 -5 0 6 -5 17 -10 25
-5 8 -10 11 -10 5z"/>
<path d="M1891 3976 c-1 -11 2 -17 5 -13 3 3 4 12 1 19 -3 8 -6 5 -6 -6z"/>
<path d="M3351 3980 c0 -14 28 -72 29 -59 0 4 -7 22 -15 40 -8 19 -14 27 -14
19z"/>
<path d="M3671 3980 c0 -8 4 -22 9 -30 12 -18 12 -2 0 25 -6 13 -9 15 -9 5z"/>
<path d="M3220 3975 c0 -10 69 -115 76 -115 2 0 -3 12 -13 28 -43 67 -63 94
-63 87z"/>
<path d="M3430 3978 c0 -3 20 -48 44 -100 24 -51 51 -112 61 -136 26 -62 29
-45 4 22 -22 56 -108 227 -109 214z"/>
<path d="M3036 3947 c3 -9 10 -17 16 -17 5 0 6 -4 3 -10 -3 -5 -1 -18 4 -27 8
-13 10 -14 11 -4 0 11 4 10 16 -5 14 -18 15 -18 4 4 -6 13 -16 20 -22 16 -7
-5 -9 -2 -5 8 3 10 -3 24 -14 34 -18 16 -19 16 -13 1z"/>
<path d="M3782 3948 c-7 -7 -12 -16 -12 -22 0 -5 7 -1 15 10 13 16 16 17 26 4
9 -12 10 -12 7 -1 -6 20 -21 24 -36 9z"/>
<path d="M1758 3815 c-8 -175 -35 -284 -106 -417 -2 -4 11 -8 27 -10 31 -3 31
-3 16 -32 -8 -15 -15 -30 -15 -32 0 -2 20 -4 45 -4 24 0 66 -9 92 -19 l48 -19
30 25 c29 24 29 24 5 17 -38 -12 -200 1 -200 15 0 4 7 16 15 27 24 31 19 44
-15 38 -35 -8 -35 -9 -11 42 10 21 25 56 32 78 13 36 14 37 21 15 4 -13 5 -1
2 26 -4 33 -2 45 4 36 7 -10 10 -2 10 25 1 22 4 95 8 164 3 69 5 134 2 145 -2
11 -7 -43 -10 -120z"/>
<path d="M1891 3936 c-1 -11 2 -17 5 -13 3 3 4 12 1 19 -3 8 -6 5 -6 -6z"/>
<path d="M721 3888 c-194 -103 -239 -187 -220 -408 15 -175 36 -246 74 -256
12 -3 32 -19 45 -36 28 -38 76 -58 154 -63 33 -2 50 -1 36 1 -62 12 -165 69
-154 85 3 5 -5 13 -18 18 -26 10 -59 44 -78 79 -6 13 -14 21 -17 18 -3 -3 7
-26 21 -51 15 -25 22 -45 17 -45 -15 0 -43 58 -46 94 -2 17 -3 54 -4 81 -1 36
-4 46 -11 35 -16 -24 -12 108 5 192 14 70 18 75 82 138 75 72 153 123 189 123
13 0 21 3 18 8 -3 5 9 9 26 9 29 0 35 -20 7 -20 -7 0 -23 -10 -37 -21 -28 -23
-25 -22 44 9 l49 22 66 -25 c99 -38 132 -54 179 -86 24 -16 47 -27 52 -24 5 3
24 -14 43 -37 41 -51 63 -136 52 -207 -4 -25 -5 -47 -3 -49 1 -1 -4 -7 -12
-13 -12 -9 -10 -10 8 -6 20 5 22 2 16 -16 -3 -12 -13 -33 -21 -45 -8 -13 -12
-26 -10 -29 3 -2 14 8 24 23 26 41 26 263 0 312 -10 18 -22 30 -26 27 -5 -2
-8 1 -7 8 2 19 -95 99 -162 135 -73 39 -163 62 -241 62 -52 0 -71 -6 -140 -42z
m196 25 c-9 -2 -23 -2 -30 0 -6 3 2 5 18 5 17 0 22 -2 12 -5z m79 -25 c4 -6
-2 -7 -17 -3 -35 10 -45 23 -15 18 15 -3 29 -10 32 -15z m44 -3 c0 -3 -2 -5
-5 -5 -3 0 -5 2 -5 5 0 3 2 5 5 5 3 0 5 -2 5 -5z m74 -47 c-4 -6 -64 29 -64
39 0 1 16 -5 35 -14 19 -9 32 -20 29 -25z m16 -13 c0 -3 -2 -5 -5 -5 -3 0 -5
2 -5 5 0 3 2 5 5 5 3 0 5 -2 5 -5z m-510 -18 c0 -2 -12 -14 -27 -28 l-28 -24
24 28 c23 25 31 32 31 24z m-100 -162 c0 -3 -2 -5 -5 -5 -3 0 -5 2 -5 5 0 3 2
5 5 5 3 0 5 -2 5 -5z m179 -492 c2 -2 -1 -3 -7 -3 -7 0 -26 14 -44 31 l-33 31
40 -28 c22 -16 42 -29 44 -31z"/>
<path d="M3690 3921 c0 -6 4 -13 10 -16 6 -3 7 1 4 9 -7 18 -14 21 -14 7z"/>
<path d="M3790 3905 c-11 -13 -15 -13 -21 -3 -7 10 -9 9 -9 -4 0 -27 14 -28
33 -2 20 26 17 33 -3 9z"/>
<path d="M3380 3900 c0 -7 3 -10 7 -7 3 4 3 10 0 14 -4 3 -7 0 -7 -7z"/>
<path d="M3710 3884 c0 -17 40 -64 53 -63 8 0 7 3 -1 6 -8 3 -22 19 -33 37
-10 17 -19 26 -19 20z"/>
<path d="M3855 3880 c-3 -5 -4 -10 -1 -10 3 0 8 5 11 10 3 6 4 10 1 10 -3 0
-8 -4 -11 -10z"/>
<path d="M1981 3842 c-1 -44 46 -299 80 -434 23 -91 23 -94 5 -79 -18 15 -100
25 -119 15 -10 -6 2 -9 37 -9 32 -1 61 -7 76 -18 30 -21 44 -22 36 -2 -3 8 -3
15 0 15 10 0 54 -33 54 -40 0 -4 -39 -27 -86 -51 -83 -42 -91 -44 -173 -44
-83 1 -89 2 -178 49 -51 26 -104 57 -119 69 l-26 20 38 24 c45 26 38 31 -12 7
-19 -9 -34 -22 -34 -30 0 -17 65 -61 157 -108 92 -46 181 -57 269 -31 64 18
184 80 184 95 0 5 -21 23 -46 40 -25 18 -43 34 -40 37 3 3 1 13 -4 23 -11 21
-77 340 -89 429 -7 56 -9 59 -10 23z"/>
<path d="M3390 3875 c0 -5 5 -17 10 -25 5 -8 10 -10 10 -5 0 6 -5 17 -10 25
-5 8 -10 11 -10 5z"/>
<path d="M3625 3870 c-3 -5 -1 -10 4 -10 6 0 11 5 11 10 0 6 -2 10 -4 10 -3 0
-8 -4 -11 -10z"/>
<path d="M3074 3860 c9 -32 39 -101 43 -97 2 3 -8 29 -22 58 -14 30 -23 47
-21 39z"/>
<path d="M3663 3859 c9 -5 17 -18 18 -27 0 -11 2 -12 6 -4 6 15 -14 42 -31 42
-6 0 -3 -5 7 -11z"/>
<path d="M3797 3863 c7 -2 21 -2 30 0 10 3 5 5 -12 5 -16 0 -24 -2 -18 -5z"/>
<path d="M3100 3856 c0 -3 5 -8 10 -11 6 -3 10 -4 10 -1 0 3 -4 8 -10 11 -5 3
-10 4 -10 1z"/>
<path d="M3520 3850 c0 -7 3 -10 7 -7 3 4 3 10 0 14 -4 3 -7 0 -7 -7z"/>
<path d="M3556 3835 c24 -39 24 -40 24 -28 0 6 -9 21 -21 34 l-20 24 17 -30z"/>
<path d="M3595 3849 c-5 -8 -4 -10 3 -5 8 5 12 -2 13 -21 2 -25 2 -26 6 -4 5
27 -11 49 -22 30z"/>
<path d="M3319 3818 c11 -18 29 -50 40 -70 12 -20 25 -39 30 -43 6 -3 0 11
-12 32 -48 81 -69 113 -74 113 -3 0 4 -15 16 -32z"/>
<path d="M3135 3801 c8 -17 19 -33 25 -36 5 -3 1 10 -11 29 -25 43 -36 48 -14
7z"/>
<path d="M3410 3825 c0 -5 5 -17 10 -25 5 -8 10 -10 10 -5 0 6 -5 17 -10 25
-5 8 -10 11 -10 5z"/>
<path d="M3783 3823 c4 -3 10 -3 14 0 3 4 0 7 -7 7 -7 0 -10 -3 -7 -7z"/>
<path d="M3676 3793 c-6 -14 -5 -15 5 -6 7 7 10 15 7 18 -3 3 -9 -2 -12 -12z"/>
<path d="M3581 3780 c0 -8 4 -22 9 -30 12 -18 12 -2 0 25 -6 13 -9 15 -9 5z"/>
<path d="M3628 3778 c5 -5 16 -8 23 -6 8 3 3 7 -10 11 -17 4 -21 3 -13 -5z"/>
<path d="M3789 3773 c-13 -16 -12 -17 4 -4 9 7 17 15 17 17 0 8 -8 3 -21 -13z"/>
<path d="M3431 3780 c-1 -3 6 -23 14 -45 8 -22 14 -31 14 -20 0 17 -28 80 -28
65z"/>
<path d="M3740 3739 c-22 -18 -22 -19 -3 -10 12 6 25 16 28 21 9 15 3 12 -25
-11z"/>
<path d="M3121 3745 c0 -5 6 -21 14 -35 8 -14 14 -20 14 -15 0 6 -6 21 -14 35
-8 14 -14 21 -14 15z"/>
<path d="M3183 3730 c10 -14 20 -32 23 -40 3 -8 20 -26 37 -40 25 -20 22 -13
-17 35 -55 67 -68 82 -43 45z"/>
<path d="M3410 3732 c0 -5 7 -12 15 -16 19 -7 19 -2 0 14 -9 7 -15 8 -15 2z"/>
<path d="M1871 3716 c-1 -11 2 -17 5 -13 3 3 4 12 1 19 -3 8 -6 5 -6 -6z"/>
<path d="M3695 3710 c-3 -5 -4 -10 -1 -10 3 0 8 5 11 10 3 6 4 10 1 10 -3 0
-8 -4 -11 -10z"/>
<path d="M3417 3694 c4 -12 3 -15 -5 -10 -8 5 -10 2 -6 -8 3 -9 9 -16 13 -16
10 0 11 39 0 45 -5 4 -6 -2 -2 -11z"/>
<path d="M3654 3684 c-18 -14 -18 -15 4 -4 12 6 22 13 22 15 0 8 -5 6 -26 -11z"/>
<path d="M1870 3685 c0 -3 2 -5 5 -5 3 0 5 2 5 5 0 3 -2 5 -5 5 -3 0 -5 -2 -5
-5z"/>
<path d="M3151 3675 c0 -5 8 -26 19 -45 11 -19 19 -30 19 -25 0 6 -8 26 -19
45 -11 19 -19 31 -19 25z"/>
<path d="M1870 3666 c0 -3 5 -8 10 -11 6 -3 10 -4 10 -1 0 3 -4 8 -10 11 -5 3
-10 4 -10 1z"/>
<path d="M3604 3654 c-18 -14 -18 -15 4 -4 12 6 22 13 22 15 0 8 -5 6 -26 -11z"/>
<path d="M3190 3650 c0 -7 3 -10 7 -7 3 4 3 10 0 14 -4 3 -7 0 -7 -7z"/>
<path d="M1870 3631 c0 -6 4 -13 10 -16 6 -3 7 1 4 9 -7 18 -14 21 -14 7z"/>
<path d="M3560 3630 c-9 -6 -10 -10 -3 -10 6 0 15 5 18 10 8 12 4 12 -15 0z"/>
<path d="M3525 3610 c-3 -5 -4 -10 -1 -10 3 0 8 5 11 10 3 6 4 10 1 10 -3 0
-8 -4 -11 -10z"/>
<path d="M1870 3590 c0 -7 3 -10 7 -7 3 4 3 10 0 14 -4 3 -7 0 -7 -7z"/>
<path d="M3490 3590 c-9 -6 -10 -10 -3 -10 6 0 15 5 18 10 8 12 4 12 -15 0z"/>
<path d="M1750 3575 c0 -3 2 -5 5 -5 3 0 5 2 5 5 0 3 -2 5 -5 5 -3 0 -5 -2 -5
-5z"/>
<path d="M3450 3570 c-9 -6 -10 -10 -3 -10 6 0 15 5 18 10 8 12 4 12 -15 0z"/>
<path d="M1871 3556 c-1 -11 2 -17 5 -13 3 3 4 12 1 19 -3 8 -6 5 -6 -6z"/>
<path d="M3410 3550 c-9 -6 -10 -10 -3 -10 6 0 15 5 18 10 8 12 4 12 -15 0z"/>
<path d="M3105 3468 c-44 -39 -108 -88 -142 -111 -35 -23 -63 -45 -63 -49 0
-13 139 84 210 147 87 77 84 74 79 79 -2 2 -40 -28 -84 -66z"/>
<path d="M3370 3530 c-9 -6 -10 -10 -3 -10 6 0 15 5 18 10 8 12 4 12 -15 0z"/>
<path d="M1872 3500 c0 -19 2 -27 5 -17 2 9 2 25 0 35 -3 9 -5 1 -5 -18z"/>
<path d="M3710 3520 c0 -7 3 -10 7 -7 3 4 3 10 0 14 -4 3 -7 0 -7 -7z"/>
<path d="M3340 3515 c0 -3 2 -5 5 -5 3 0 5 2 5 5 0 3 -2 5 -5 5 -3 0 -5 -2 -5
-5z"/>
<path d="M3764 3508 c-4 -7 -3 -8 4 -4 6 4 18 -5 26 -21 18 -33 21 -25 4 12
-12 27 -23 31 -34 13z"/>
<path d="M1732 3490 c0 -14 2 -19 5 -12 2 6 2 18 0 25 -3 6 -5 1 -5 -13z"/>
<path d="M3732 3477 c10 -24 13 -25 21 -12 5 9 6 19 3 22 -3 4 -6 0 -6 -7 0
-9 -5 -7 -15 6 -14 18 -14 17 -3 -9z"/>
<path d="M3551 3470 c14 -31 19 -36 19 -24 0 6 -7 19 -16 30 -14 18 -14 18 -3
-6z"/>
<path d="M1722 3440 c0 -14 2 -19 5 -12 2 6 2 18 0 25 -3 6 -5 1 -5 -13z"/>
<path d="M1863 3445 c-3 -9 -3 -18 -1 -21 3 -3 8 4 11 16 6 23 -1 27 -10 5z"/>
<path d="M3810 3440 c0 -7 3 -10 7 -7 3 4 3 10 0 14 -4 3 -7 0 -7 -7z"/>
<path d="M3391 3426 c-1 -11 2 -17 5 -13 3 3 4 12 1 19 -3 8 -6 5 -6 -6z"/>
<path d="M3777 3391 c16 -27 30 -48 32 -46 4 5 -48 95 -54 95 -3 0 7 -22 22
-49z"/>
<path d="M3576 3417 c3 -10 9 -15 12 -12 3 3 0 11 -7 18 -10 9 -11 8 -5 -6z"/>
<path d="M3684 3415 c8 -8 18 -24 21 -36 4 -11 9 -18 12 -16 7 8 -26 67 -38
67 -6 0 -4 -7 5 -15z"/>
<path d="M3820 3415 c0 -5 5 -17 10 -25 5 -8 10 -10 10 -5 0 6 -5 17 -10 25
-5 8 -10 11 -10 5z"/>
<path d="M1851 3396 c-1 -11 2 -17 5 -13 3 3 4 12 1 19 -3 8 -6 5 -6 -6z"/>
<path d="M3643 3392 c8 -9 27 -42 41 -72 14 -30 26 -49 26 -42 0 7 -9 30 -20
52 -11 22 -20 50 -20 62 0 19 -2 20 -10 8 -6 -10 -10 -11 -10 -2 0 6 -5 12
-12 12 -7 0 -5 -7 5 -18z"/>
<path d="M3402 3380 c0 -14 2 -19 5 -12 2 6 2 18 0 25 -3 6 -5 1 -5 -13z"/>
<path d="M2864 3374 c-4 -10 -16 -41 -26 -68 -11 -29 -15 -53 -10 -58 5 -5 46
-5 98 1 l89 10 -87 -4 c-101 -5 -100 -6 -68 76 12 28 18 54 16 57 -3 3 -9 -4
-12 -14z"/>
<path d="M3590 3387 c0 -12 58 -137 65 -137 3 0 -4 18 -15 41 -12 23 -19 48
-15 57 3 9 3 13 -1 9 -5 -4 -14 3 -21 15 -7 13 -12 20 -13 15z"/>
<path d="M3620 3380 c0 -7 3 -10 7 -7 3 4 3 10 0 14 -4 3 -7 0 -7 -7z"/>
<path d="M1840 3365 c0 -3 2 -5 5 -5 3 0 5 2 5 5 0 3 -2 5 -5 5 -3 0 -5 -2 -5
-5z"/>
<path d="M3840 3360 c0 -7 3 -10 7 -7 3 4 3 10 0 14 -4 3 -7 0 -7 -7z"/>
<path d="M1840 3346 c0 -3 5 -8 10 -11 6 -3 10 -4 10 -1 0 3 -4 8 -10 11 -5 3
-10 4 -10 1z"/>
<path d="M3411 3336 c-1 -11 2 -17 5 -13 3 3 4 12 1 19 -3 8 -6 5 -6 -6z"/>
<path d="M3720 3340 c0 -7 3 -10 7 -7 3 4 3 10 0 14 -4 3 -7 0 -7 -7z"/>
<path d="M1880 3335 c0 -3 2 -5 5 -5 3 0 5 2 5 5 0 3 -2 5 -5 5 -3 0 -5 -2 -5
-5z"/>
<path d="M3850 3335 c0 -5 5 -17 10 -25 5 -8 10 -10 10 -5 0 6 -5 17 -10 25
-5 8 -10 11 -10 5z"/>
<path d="M3525 3320 c-3 -5 0 -7 8 -4 9 3 20 -8 32 -32 14 -30 15 -38 4 -46
-11 -8 -11 -9 1 -5 19 5 16 39 -6 72 -17 27 -29 31 -39 15z"/>
<path d="M3730 3310 c0 -7 3 -10 7 -7 3 4 3 10 0 14 -4 3 -7 0 -7 -7z"/>
<path d="M3421 3296 c-1 -11 2 -17 5 -13 3 3 4 12 1 19 -3 8 -6 5 -6 -6z"/>
<path d="M1293 3281 c-13 -11 -23 -24 -23 -30 0 -18 -22 -13 -63 16 -35 24
-41 25 -51 12 -6 -9 -36 -25 -66 -36 -44 -17 -56 -26 -62 -49 -8 -29 9 -54 38
-54 17 0 5 -46 -17 -66 -10 -9 -19 -22 -19 -27 0 -6 9 -2 19 7 19 17 20 17 24
-6 3 -19 5 -18 6 7 0 17 10 38 21 48 24 21 19 20 66 1 l38 -16 -24 -13 c-22
-12 -26 -11 -32 3 -5 14 -7 13 -7 -5 -1 -12 -9 -27 -18 -33 -16 -10 -15 -11 5
-7 14 3 22 0 22 -8 0 -8 5 -17 10 -20 7 -4 9 2 4 18 -5 21 -1 28 25 41 41 21
49 20 49 -8 0 -16 -9 -28 -26 -35 -13 -7 -22 -14 -19 -17 3 -3 15 -1 26 6 17
9 21 8 21 -5 0 -8 5 -15 11 -15 5 0 8 4 5 9 -9 14 5 41 21 41 8 0 11 5 8 10
-8 13 1 13 41 -2 30 -10 31 -13 16 -25 -16 -12 -16 -13 1 -7 9 3 17 2 17 -2 0
-5 13 -10 28 -11 15 -1 41 -7 57 -14 17 -7 39 -14 50 -16 27 -5 38 -17 38 -46
0 -13 5 -24 13 -24 8 0 12 3 9 5 -3 3 0 11 6 19 9 10 8 13 -5 13 -9 0 -16 4
-16 9 0 5 14 4 31 -2 29 -11 31 -15 26 -52 -5 -35 -4 -38 8 -22 13 18 14 17
20 -2 3 -12 11 -21 16 -21 12 0 11 14 -2 27 -13 13 -5 43 11 43 5 0 19 -9 31
-21 16 -16 18 -23 9 -34 -9 -11 -7 -14 9 -12 12 1 21 7 21 14 0 19 19 26 35
13 16 -13 10 -34 -6 -25 -5 4 -9 2 -9 -4 0 -5 -8 -12 -17 -14 -15 -4 -15 -5 2
-6 11 0 27 4 35 9 10 6 20 4 32 -7 20 -18 25 -4 6 15 -7 7 -8 12 -4 12 5 0 -2
9 -15 21 l-24 21 27 -16 c15 -9 35 -16 44 -16 12 0 15 -7 12 -23 -2 -13 1 -29
9 -35 10 -10 13 -9 13 7 0 10 8 22 17 25 18 7 34 -10 26 -30 -2 -6 1 -15 8
-20 8 -4 10 -3 5 4 -9 15 6 16 21 1 7 -7 12 -6 17 6 3 9 2 13 -4 10 -6 -3 -10
-2 -10 4 0 30 69 16 81 -17 6 -16 3 -25 -14 -37 -24 -17 -16 -20 14 -5 16 9
19 7 20 -12 1 -13 1 -26 0 -30 0 -4 6 -5 15 -1 11 4 12 9 5 16 -29 29 7 78 49
67 70 -19 81 -20 76 -11 -3 5 7 13 22 19 38 13 64 -1 58 -34 -3 -13 0 -24 5
-24 5 0 9 7 9 15 0 19 9 19 32 -2 10 -9 18 -11 18 -5 0 6 -9 16 -19 22 -18 9
-19 13 -7 42 26 60 94 57 82 -4 -3 -18 -2 -27 4 -23 6 3 10 13 10 21 0 8 5 14
11 14 5 0 7 -5 3 -11 -11 -18 30 7 47 28 13 17 13 17 -6 2 -35 -28 -47 -12
-25 31 25 49 40 53 67 18 18 -25 20 -35 11 -65 -5 -19 -7 -37 -4 -41 3 -3 9
10 12 28 l7 33 18 -24 c22 -29 24 -19 4 20 -13 26 -13 34 1 74 8 25 22 48 30
51 18 7 44 -52 45 -103 1 -20 4 -27 6 -17 4 15 7 16 15 5 7 -11 9 -9 5 6 -3
11 -8 29 -13 39 -5 13 -4 17 3 13 6 -4 17 1 24 11 13 15 12 16 -3 3 -16 -12
-18 -11 -17 10 1 13 4 35 8 48 l7 24 16 -25 c11 -16 15 -41 13 -74 -1 -27 0
-43 2 -36 3 6 8 10 12 8 4 -3 6 9 4 27 l-4 32 16 -27 c9 -16 20 -28 25 -28 5
0 0 16 -11 35 -17 28 -19 43 -14 77 l7 42 19 -23 c13 -15 19 -41 20 -75 l2
-51 7 40 c6 39 6 39 14 12 5 -17 21 -33 42 -43 41 -19 120 -103 232 -244 46
-58 91 -114 100 -125 9 -11 57 -70 106 -130 49 -61 119 -141 155 -178 47 -48
62 -70 53 -76 -9 -5 6 -23 50 -60 35 -29 70 -65 79 -81 34 -61 102 -129 166
-168 122 -71 264 -142 274 -136 5 3 8 0 7 -8 -2 -8 6 -12 22 -11 54 3 263 -74
319 -118 26 -21 46 -25 35 -7 -4 7 -3 8 5 4 6 -4 9 -11 7 -15 -3 -4 8 -18 24
-29 33 -25 48 -29 31 -8 -34 41 57 19 109 -26 22 -18 27 -25 12 -18 -12 6 -27
8 -32 5 -6 -4 -9 -1 -8 5 2 7 -8 14 -21 16 -21 4 -22 3 -10 -13 13 -16 12 -17
-4 -4 -9 8 -15 16 -12 19 7 7 -15 32 -27 32 -7 0 -6 -5 1 -13 6 -8 9 -16 6
-19 -3 -3 16 -22 42 -43 27 -22 70 -59 96 -83 27 -24 51 -42 54 -39 2 3 -12
21 -34 40 -95 85 -101 91 -57 58 54 -40 70 -40 24 1 -22 18 -26 26 -12 19 12
-7 28 -9 34 -5 6 4 8 3 5 -4 -4 -6 15 -24 44 -42 29 -17 87 -59 129 -93 194
-155 232 -181 199 -139 -13 15 -12 16 4 3 9 -8 15 -16 12 -19 -6 -7 15 -32 27
-32 5 0 6 6 2 13 -4 7 -3 9 2 4 5 -5 9 -12 9 -15 1 -12 205 -211 205 -200 0
17 -41 71 -104 136 -56 57 -97 86 -65 45 13 -16 12 -17 -3 -4 -10 7 -16 17
-13 21 5 8 -32 43 -82 78 -36 24 -48 28 -37 10 4 -7 3 -8 -5 -4 -6 4 -9 11 -6
16 3 5 -37 43 -89 85 -92 73 -115 87 -100 63 4 -7 3 -8 -5 -4 -6 4 -9 11 -6
16 3 4 -3 14 -12 21 -15 12 -16 12 -10 -4 7 -19 -24 3 -103 72 l-35 31 65 -24
c36 -13 74 -27 85 -31 15 -6 17 -5 9 4 -6 7 -82 37 -169 67 -88 30 -175 63
-195 73 -19 11 -55 24 -79 31 -32 9 -40 14 -30 21 10 6 6 9 -14 9 -15 0 -45 9
-66 20 -21 10 -41 17 -44 14 -7 -8 -110 23 -166 49 -25 12 -81 43 -125 69 -43
26 -81 46 -85 44 -12 -8 -53 21 -107 74 -30 29 -52 56 -49 58 2 3 11 -1 20 -8
31 -26 13 -1 -37 51 -146 150 -414 461 -544 631 -97 126 -207 242 -249 263
-48 22 -65 78 -42 137 13 32 14 45 5 55 -10 12 -13 12 -20 0 -4 -8 -20 -18
-35 -22 -16 -3 -140 -57 -278 -120 -137 -62 -260 -116 -272 -119 -23 -7 -135
9 -168 24 -11 5 -65 21 -120 35 -55 15 -129 38 -165 52 -36 13 -130 44 -210
68 -80 24 -183 61 -230 83 -47 21 -122 54 -167 73 l-82 34 42 16 c38 15 42 15
46 1 2 -10 8 -5 17 17 l14 32 35 -26 c28 -22 33 -30 25 -45 -6 -11 -6 -21 -1
-24 5 -3 12 5 15 19 4 14 11 25 17 25 7 0 9 -10 4 -27 -4 -19 -3 -25 3 -18 6
6 12 21 14 35 3 26 24 36 46 21 8 -4 16 -27 19 -51 6 -39 7 -41 20 -25 15 22
17 39 3 30 -5 -3 -10 -3 -10 2 0 4 -3 19 -6 33 l-5 25 15 -25 c22 -36 19 -16
-4 30 -23 44 -35 48 -67 21z m53 -29 c-3 -2 -14 -1 -26 3 -17 6 -19 9 -9 22
11 13 14 13 26 -3 7 -10 11 -19 9 -22z m-208 -87 c51 -21 117 -65 98 -65 -6 0
-200 62 -204 65 -1 1 1 10 4 19 8 20 12 19 102 -19z m-28 -39 c0 -2 -7 -9 -15
-16 -12 -10 -15 -10 -15 4 0 9 7 16 15 16 8 0 15 -2 15 -4z m150 -11 c0 -3 -2
-5 -5 -5 -3 0 -5 2 -5 5 0 3 2 5 5 5 3 0 5 -2 5 -5z m255 -103 c263 -91 425
-151 409 -152 -14 0 -175 55 -204 70 -15 8 -25 9 -32 2 -11 -11 -66 4 -83 23
-5 6 -37 19 -70 29 -33 10 -78 26 -100 36 -22 9 -73 30 -112 45 -40 14 -73 29
-73 32 0 7 -3 8 265 -85z m1275 73 c0 -3 -2 -5 -5 -5 -3 0 -5 2 -5 5 0 3 2 5
5 5 3 0 5 -2 5 -5z m-30 -10 c0 -3 -2 -5 -5 -5 -3 0 -5 2 -5 5 0 3 2 5 5 5 3
0 5 -2 5 -5z m-23 -12 c-4 -3 -10 -3 -14 0 -3 4 0 7 7 7 7 0 10 -3 7 -7z m37
-27 c-6 -25 -7 -25 -20 -9 -11 15 -11 20 3 30 21 16 25 11 17 -21z m-1514 19
c0 -3 -2 -5 -5 -5 -3 0 -5 2 -5 5 0 3 2 5 5 5 3 0 5 -2 5 -5z m1449 -8 c-17
-13 -271 -119 -274 -115 -3 3 21 16 52 30 32 15 94 42 138 62 43 19 81 33 84
31 2 -3 2 -6 0 -8z m-1329 -22 c0 -3 -2 -5 -5 -5 -3 0 -5 2 -5 5 0 3 2 5 5 5
3 0 5 -2 5 -5z m1330 -7 c0 -7 -4 -19 -9 -26 -6 -10 -11 -10 -21 3 -12 14 -11
18 1 26 20 12 29 11 29 -3z m-1300 -3 c0 -3 -2 -5 -5 -5 -3 0 -5 2 -5 5 0 3 2
5 5 5 3 0 5 -2 5 -5z m1221 -55 l-7 -35 -11 32 c-10 27 -9 32 5 36 9 2 18 3
19 3 1 -1 -2 -17 -6 -36z m-1041 -5 c0 -3 -2 -5 -5 -5 -3 0 -5 2 -5 5 0 3 2 5
5 5 3 0 5 -2 5 -5z m948 -22 c-16 -38 -16 -37 -33 -23 -20 17 -19 25 8 38 34
16 38 14 25 -15z m-913 -13 c-3 -5 -8 -10 -11 -10 -2 0 -4 5 -4 10 0 6 5 10
11 10 5 0 7 -4 4 -10z m775 -10 c-27 -21 -21 -27 11 -10 17 10 18 9 7 -15 -13
-29 -23 -32 -36 -10 -7 14 -17 12 -73 -15 -35 -17 -52 -28 -37 -25 22 4 26 2
21 -10 -3 -11 -11 -14 -22 -9 -9 4 -28 8 -43 8 -31 1 -51 16 -22 17 10 0 62
20 114 44 109 50 114 51 80 25z m-540 -5 c0 -3 -2 -5 -5 -5 -3 0 -5 2 -5 5 0
3 2 5 5 5 3 0 5 -2 5 -5z m-143 -12 c-4 -3 -10 -3 -14 0 -3 4 0 7 7 7 7 0 10
-3 7 -7z m173 2 c0 -3 -2 -5 -5 -5 -3 0 -5 2 -5 5 0 3 2 5 5 5 3 0 5 -2 5 -5z
m37 -12 c-4 -3 -10 -3 -14 0 -3 4 0 7 7 7 7 0 10 -3 7 -7z m23 -8 c0 -3 -2 -5
-5 -5 -3 0 -5 2 -5 5 0 3 2 5 5 5 3 0 5 -2 5 -5z m30 -10 c0 -3 -2 -5 -5 -5
-3 0 -5 2 -5 5 0 3 2 5 5 5 3 0 5 -2 5 -5z m-113 -12 c-4 -3 -10 -3 -14 0 -3
4 0 7 7 7 7 0 10 -3 7 -7z m90 0 c-4 -3 -10 -3 -14 0 -3 4 0 7 7 7 7 0 10 -3
7 -7z m63 2 c0 -3 -2 -5 -5 -5 -3 0 -5 2 -5 5 0 3 2 5 5 5 3 0 5 -2 5 -5z
m-90 -16 c0 -5 -4 -7 -10 -4 -13 8 -13 15 0 15 6 0 10 -5 10 -11z m62 4 c-7
-3 -16 -2 -19 1 -4 3 2 6 13 5 11 0 14 -3 6 -6z m146 -9 c48 -8 62 -20 32 -29
-21 -7 -90 14 -90 26 0 4 -6 9 -12 12 -13 4 -7 3 70 -9z m-101 -1 c-4 -3 -10
-3 -14 0 -3 4 0 7 7 7 7 0 10 -3 7 -7z m21 -22 c11 -7 11 -9 -1 -14 -16 -6
-27 0 -27 15 0 10 11 10 28 -1z m1442 -676 c7 -8 10 -15 7 -15 -2 0 -10 7 -17
15 -7 8 -10 15 -7 15 2 0 10 -7 17 -15z m60 -50 c0 -3 -2 -5 -5 -5 -3 0 -5 2
-5 5 0 3 2 5 5 5 3 0 5 -2 5 -5z m510 -390 c0 -3 -2 -5 -5 -5 -3 0 -5 2 -5 5
0 3 2 5 5 5 3 0 5 -2 5 -5z m390 -150 c0 -3 -2 -5 -5 -5 -3 0 -5 2 -5 5 0 3 2
5 5 5 3 0 5 -2 5 -5z m410 -250 c0 -3 -2 -5 -5 -5 -3 0 -5 2 -5 5 0 3 2 5 5 5
3 0 5 -2 5 -5z m30 -21 c0 -3 -4 -2 -10 1 -5 3 -10 8 -10 11 0 3 5 2 10 -1 6
-3 10 -8 10 -11z m40 -30 c0 -3 -4 -2 -10 1 -5 3 -10 8 -10 11 0 3 5 2 10 -1
6 -3 10 -8 10 -11z"/>
<path d="M3512 3280 c0 -14 2 -19 5 -12 2 6 2 18 0 25 -3 6 -5 1 -5 -13z"/>
<path d="M3870 3285 c0 -3 2 -5 5 -5 3 0 5 2 5 5 0 3 -2 5 -5 5 -3 0 -5 -2 -5
-5z"/>
<path d="M3432 3250 c0 -14 2 -19 5 -12 2 6 2 18 0 25 -3 6 -5 1 -5 -13z"/>
<path d="M3535 3220 c-3 -5 -4 -10 -1 -10 3 0 8 5 11 10 3 6 4 10 1 10 -3 0
-8 -4 -11 -10z"/>
<path d="M3590 3220 c0 -7 3 -10 7 -7 3 4 3 10 0 14 -4 3 -7 0 -7 -7z"/>
<path d="M3441 3206 c-1 -11 2 -17 5 -13 3 3 4 12 1 19 -3 8 -6 5 -6 -6z"/>
<path d="M3902 3200 c0 -14 2 -19 5 -12 2 6 2 18 0 25 -3 6 -5 1 -5 -13z"/>
<path d="M1190 3205 c0 -3 2 -5 5 -5 3 0 5 2 5 5 0 3 -2 5 -5 5 -3 0 -5 -2 -5
-5z"/>
<path d="M1390 3182 c0 -10 -4 -22 -10 -28 -14 -14 3 -35 20 -24 8 6 10 10 4
10 -6 0 -9 13 -6 30 2 17 2 30 -2 30 -3 0 -6 -8 -6 -18z"/>
<path d="M3520 3195 c0 -5 5 -17 10 -25 5 -8 10 -10 10 -5 0 6 -5 17 -10 25
-5 8 -10 11 -10 5z"/>
<path d="M3564 3178 l-19 -23 23 19 c21 18 27 26 19 26 -2 0 -12 -10 -23 -22z"/>
<path d="M1420 3175 c14 -17 20 -19 20 -6 0 5 -7 12 -16 15 -14 5 -15 4 -4 -9z"/>
<path d="M3399 3163 c-13 -17 -13 -17 6 -3 11 8 22 16 24 17 2 2 0 3 -6 3 -6
0 -17 -8 -24 -17z"/>
<path d="M3452 3154 c11 -22 10 -28 -7 -40 -10 -8 -14 -14 -8 -14 20 0 35 29
29 55 -4 14 -11 25 -16 25 -6 0 -5 -11 2 -26z"/>
<path d="M3890 3166 c0 -3 5 -8 10 -11 6 -3 10 -4 10 -1 0 3 -4 8 -10 11 -5 3
-10 4 -10 1z"/>
<path d="M3389 3119 c4 -13 12 -24 17 -24 5 -1 6 0 2 3 -5 2 -8 10 -8 17 0 8
-4 17 -10 20 -6 4 -7 -2 -1 -16z"/>
<path d="M3890 3106 c0 -19 -4 -36 -8 -38 -5 -1 -4 -15 2 -30 11 -24 12 -21
14 37 1 36 -1 65 -3 65 -3 0 -5 -15 -5 -34z"/>
<path d="M3773 3113 c4 -3 10 -3 14 0 3 4 0 7 -7 7 -7 0 -10 -3 -7 -7z"/>
<path d="M995 3100 c-4 -6 -12 -9 -18 -8 -20 4 -58 -22 -51 -34 4 -7 2 -8 -5
-4 -13 9 -62 -19 -58 -33 1 -5 -24 -30 -55 -56 -32 -26 -56 -51 -53 -55 3 -4
-2 -13 -9 -19 -28 -24 -29 10 0 40 15 16 23 29 16 29 -19 0 -95 -97 -98 -126
-2 -15 -9 -31 -17 -36 -8 -4 -20 -29 -27 -55 -8 -27 -17 -50 -21 -53 -4 -3 -3
-23 1 -45 4 -22 8 -30 9 -17 0 12 3 22 6 22 18 0 113 -83 184 -161 91 -99 157
-153 178 -145 7 3 12 0 10 -6 -3 -15 165 -99 206 -102 18 -2 43 -8 55 -15 13
-7 31 -10 40 -6 12 5 0 13 -43 30 l-60 24 45 -4 c40 -4 38 -3 -17 11 -35 9
-63 20 -63 25 0 6 -4 7 -10 4 -5 -3 -21 5 -34 18 -15 15 -29 21 -37 17 -7 -5
-19 -4 -28 0 -9 5 -31 14 -48 20 -18 7 -31 15 -29 19 3 4 0 13 -6 21 -8 12 -9
12 -4 -2 11 -36 -22 -12 -103 75 -47 49 -51 56 -27 47 15 -5 37 -10 49 -10 21
0 21 0 2 14 -11 7 -38 19 -60 26 -22 7 -60 28 -84 46 -24 19 -49 34 -55 34 -6
1 -21 9 -34 20 -28 23 -26 32 29 142 39 77 68 114 54 67 -8 -27 -2 -22 39 34
15 21 45 49 67 64 21 14 37 29 34 32 -2 4 32 31 76 60 43 28 79 54 79 57 0 8
-19 4 -25 -6z m-345 -325 c0 -3 -2 -5 -5 -5 -3 0 -5 2 -5 5 0 3 2 5 5 5 3 0 5
-2 5 -5z m-10 -20 c0 -3 -2 -5 -5 -5 -3 0 -5 2 -5 5 0 3 2 5 5 5 3 0 5 -2 5
-5z m150 -220 c0 -3 -2 -5 -5 -5 -3 0 -5 2 -5 5 0 3 2 5 5 5 3 0 5 -2 5 -5z
m290 -210 c0 -3 -2 -5 -5 -5 -3 0 -5 2 -5 5 0 3 2 5 5 5 3 0 5 -2 5 -5z m116
-83 c-5 -4 -106 46 -106 53 0 3 25 -7 55 -22 30 -15 53 -29 51 -31z"/>
<path d="M3470 3100 c0 -7 3 -10 7 -7 3 4 3 10 0 14 -4 3 -7 0 -7 -7z"/>
<path d="M3800 3106 c0 -2 7 -7 16 -10 8 -3 12 -2 9 4 -6 10 -25 14 -25 6z"/>
<path d="M3732 3060 c-23 -17 -42 -33 -42 -37 0 -3 9 2 19 11 18 17 20 17 31
-1 11 -17 11 -17 5 2 -4 13 1 25 17 37 39 30 14 20 -30 -12z"/>
<path d="M3840 3086 c0 -3 5 -8 10 -11 6 -3 10 -4 10 -1 0 3 -4 8 -10 11 -5 3
-10 4 -10 1z"/>
<path d="M3555 3060 c-4 -7 -2 -17 4 -23 9 -9 11 -8 6 6 -7 16 9 25 18 10 2
-5 3 -4 2 1 -2 15 -22 18 -30 6z"/>
<path d="M1210 3045 c0 -3 2 -5 5 -5 3 0 5 2 5 5 0 3 -2 5 -5 5 -3 0 -5 -2 -5
-5z"/>
<path d="M1190 3035 c0 -3 2 -5 5 -5 3 0 5 2 5 5 0 3 -2 5 -5 5 -3 0 -5 -2 -5
-5z"/>
<path d="M1294 3006 c1 -8 5 -18 8 -22 4 -3 5 1 4 10 -1 8 -5 18 -8 22 -4 3
-5 -1 -4 -10z"/>
<path d="M3665 3010 c-3 -5 -4 -10 -1 -10 3 0 8 5 11 10 3 6 4 10 1 10 -3 0
-8 -4 -11 -10z"/>
<path d="M1270 3005 c0 -3 2 -5 5 -5 3 0 5 2 5 5 0 3 -2 5 -5 5 -3 0 -5 -2 -5
-5z"/>
<path d="M3580 3000 c0 -7 3 -10 7 -7 3 4 3 10 0 14 -4 3 -7 0 -7 -7z"/>
<path d="M3751 3000 c0 -14 28 -72 29 -59 0 4 -7 22 -15 40 -8 19 -14 27 -14
19z"/>
<path d="M1330 2995 c0 -3 2 -5 5 -5 3 0 5 2 5 5 0 3 -2 5 -5 5 -3 0 -5 -2 -5
-5z"/>
<path d="M3900 2990 c0 -7 3 -10 7 -7 3 4 3 10 0 14 -4 3 -7 0 -7 -7z"/>
<path d="M1400 2985 c0 -3 2 -5 5 -5 3 0 5 2 5 5 0 3 -2 5 -5 5 -3 0 -5 -2 -5
-5z"/>
<path d="M1270 2975 c0 -3 2 -5 5 -5 3 0 5 2 5 5 0 3 -2 5 -5 5 -3 0 -5 -2 -5
-5z"/>
<path d="M1350 2975 c0 -3 2 -5 5 -5 3 0 5 2 5 5 0 3 -2 5 -5 5 -3 0 -5 -2 -5
-5z"/>
<path d="M1370 2975 c0 -3 2 -5 5 -5 3 0 5 2 5 5 0 3 -2 5 -5 5 -3 0 -5 -2 -5
-5z"/>
<path d="M3592 2960 c0 -14 2 -19 5 -12 2 6 2 18 0 25 -3 6 -5 1 -5 -13z"/>
<path d="M1240 2965 c0 -3 2 -5 5 -5 3 0 5 2 5 5 0 3 -2 5 -5 5 -3 0 -5 -2 -5
-5z"/>
<path d="M1320 2965 c0 -3 2 -5 5 -5 3 0 5 2 5 5 0 3 -2 5 -5 5 -3 0 -5 -2 -5
-5z"/>
<path d="M1430 2965 c0 -3 2 -5 5 -5 3 0 5 2 5 5 0 3 -2 5 -5 5 -3 0 -5 -2 -5
-5z"/>
<path d="M3912 2960 c0 -8 4 -26 8 -40 6 -20 8 -21 8 -5 0 11 -3 29 -8 40 -5
12 -8 14 -8 5z"/>
<path d="M1210 2955 c0 -3 2 -5 5 -5 3 0 5 2 5 5 0 3 -2 5 -5 5 -3 0 -5 -2 -5
-5z"/>
<path d="M1344 2940 c-34 -14 -54 -50 -54 -97 0 -48 22 -78 65 -89 39 -10 111
5 140 28 25 20 27 25 21 72 -4 28 -7 56 -8 63 -1 7 -6 11 -12 10 -6 -1 -10 3
-9 8 2 13 -114 17 -143 5z m84 -24 l33 -12 -46 -12 c-33 -9 -50 -20 -64 -43
-18 -30 -20 -30 -30 -11 -13 24 -5 51 24 74 23 20 38 21 83 4z"/>
<path d="M3493 2923 c4 -3 10 -3 14 0 3 4 0 7 -7 7 -7 0 -10 -3 -7 -7z"/>
<path d="M3602 2905 c0 -16 2 -24 5 -18 2 7 2 21 0 30 -3 10 -5 5 -5 -12z"/>
<path d="M3781 2920 c0 -8 4 -22 9 -30 12 -18 12 -2 0 25 -6 13 -9 15 -9 5z"/>
<path d="M2570 2915 c0 -3 2 -5 5 -5 3 0 5 2 5 5 0 3 -2 5 -5 5 -3 0 -5 -2 -5
-5z"/>
<path d="M3455 2900 c-10 -11 -16 -22 -14 -24 2 -2 12 7 22 20 22 29 17 32 -8
4z"/>
<path d="M2550 2895 c0 -3 2 -5 5 -5 3 0 5 2 5 5 0 3 -2 5 -5 5 -3 0 -5 -2 -5
-5z"/>
<path d="M2460 2885 c0 -3 2 -5 5 -5 3 0 5 2 5 5 0 3 -2 5 -5 5 -3 0 -5 -2 -5
-5z"/>
<path d="M2600 2885 c0 -3 2 -5 5 -5 3 0 5 2 5 5 0 3 -2 5 -5 5 -3 0 -5 -2 -5
-5z"/>
<path d="M3930 2880 c0 -7 3 -10 7 -7 3 4 3 10 0 14 -4 3 -7 0 -7 -7z"/>
<path d="M1560 2875 c0 -3 2 -5 5 -5 3 0 5 2 5 5 0 3 -2 5 -5 5 -3 0 -5 -2 -5
-5z"/>
<path d="M2440 2875 c0 -3 2 -5 5 -5 3 0 5 2 5 5 0 3 -2 5 -5 5 -3 0 -5 -2 -5
-5z"/>
<path d="M2490 2875 c0 -3 2 -5 5 -5 3 0 5 2 5 5 0 3 -2 5 -5 5 -3 0 -5 -2 -5
-5z"/>
<path d="M2570 2865 c0 -3 2 -5 5 -5 3 0 5 2 5 5 0 3 -2 5 -5 5 -3 0 -5 -2 -5
-5z"/>
<path d="M2590 2865 c0 -3 2 -5 5 -5 3 0 5 2 5 5 0 3 -2 5 -5 5 -3 0 -5 -2 -5
-5z"/>
<path d="M3611 2856 c-1 -11 2 -17 5 -13 3 3 4 12 1 19 -3 8 -6 5 -6 -6z"/>
<path d="M3800 2865 c0 -3 2 -5 5 -5 3 0 5 2 5 5 0 3 -2 5 -5 5 -3 0 -5 -2 -5
-5z"/>
<path d="M3423 2845 c-3 -9 -3 -18 -1 -21 3 -3 8 4 11 16 6 23 -1 27 -10 5z"/>
<path d="M2490 2845 c0 -3 2 -5 5 -5 3 0 5 2 5 5 0 3 -2 5 -5 5 -3 0 -5 -2 -5
-5z"/>
<path d="M2570 2845 c0 -3 2 -5 5 -5 3 0 5 2 5 5 0 3 -2 5 -5 5 -3 0 -5 -2 -5
-5z"/>
<path d="M2360 2836 c0 -3 5 -8 10 -11 6 -3 10 -4 10 -1 0 3 -4 8 -10 11 -5 3
-10 4 -10 1z"/>
<path d="M1880 2825 c0 -3 2 -5 5 -5 3 0 5 2 5 5 0 3 -2 5 -5 5 -3 0 -5 -2 -5
-5z"/>
<path d="M2330 2825 c0 -3 2 -5 5 -5 3 0 5 2 5 5 0 3 -2 5 -5 5 -3 0 -5 -2 -5
-5z"/>
<path d="M2470 2825 c0 -3 2 -5 5 -5 3 0 5 2 5 5 0 3 -2 5 -5 5 -3 0 -5 -2 -5
-5z"/>
<path d="M3620 2820 c0 -7 3 -10 7 -7 3 4 3 10 0 14 -4 3 -7 0 -7 -7z"/>
<path d="M3551 2806 c-1 -11 2 -17 5 -13 3 3 4 12 1 19 -3 8 -6 5 -6 -6z"/>
<path d="M1820 2805 c0 -3 2 -5 5 -5 3 0 5 2 5 5 0 3 -2 5 -5 5 -3 0 -5 -2 -5
-5z"/>
<path d="M2310 2805 c0 -3 2 -5 5 -5 3 0 5 2 5 5 0 3 -2 5 -5 5 -3 0 -5 -2 -5
-5z"/>
<path d="M2350 2805 c0 -3 2 -5 5 -5 3 0 5 2 5 5 0 3 -2 5 -5 5 -3 0 -5 -2 -5
-5z"/>
<path d="M3411 2796 c-1 -11 2 -17 5 -13 3 3 4 12 1 19 -3 8 -6 5 -6 -6z"/>
<path d="M1790 2795 c0 -3 2 -5 5 -5 3 0 5 2 5 5 0 3 -2 5 -5 5 -3 0 -5 -2 -5
-5z"/>
<path d="M2330 2795 c0 -3 2 -5 5 -5 3 0 5 2 5 5 0 3 -2 5 -5 5 -3 0 -5 -2 -5
-5z"/>
<path d="M1970 2785 c0 -3 2 -5 5 -5 3 0 5 2 5 5 0 3 -2 5 -5 5 -3 0 -5 -2 -5
-5z"/>
<path d="M1990 2785 c0 -3 2 -5 5 -5 3 0 5 2 5 5 0 3 -2 5 -5 5 -3 0 -5 -2 -5
-5z"/>
<path d="M2360 2785 c0 -3 2 -5 5 -5 3 0 5 2 5 5 0 3 -2 5 -5 5 -3 0 -5 -2 -5
-5z"/>
<path d="M1870 2770 c0 -7 3 -10 7 -7 3 4 3 10 0 14 -4 3 -7 0 -7 -7z"/>
<path d="M1900 2775 c0 -3 2 -5 5 -5 3 0 5 2 5 5 0 3 -2 5 -5 5 -3 0 -5 -2 -5
-5z"/>
<path d="M1920 2775 c0 -3 2 -5 5 -5 3 0 5 2 5 5 0 3 -2 5 -5 5 -3 0 -5 -2 -5
-5z"/>
<path d="M1950 2770 c0 -7 3 -10 7 -7 3 4 3 10 0 14 -4 3 -7 0 -7 -7z"/>
<path d="M2340 2775 c0 -3 2 -5 5 -5 3 0 5 2 5 5 0 3 -2 5 -5 5 -3 0 -5 -2 -5
-5z"/>
<path d="M2430 2775 c0 -3 2 -5 5 -5 3 0 5 2 5 5 0 3 -2 5 -5 5 -3 0 -5 -2 -5
-5z"/>
<path d="M3521 2746 l-24 -31 28 27 c16 15 27 29 24 31 -2 3 -15 -10 -28 -27z"/>
<path d="M1835 2760 c-4 -6 -11 -7 -17 -4 -6 4 -8 3 -5 -3 4 -5 -1 -19 -11
-29 -9 -11 -25 -33 -34 -50 -25 -44 -80 -196 -73 -202 3 -3 10 9 16 26 9 27
13 30 29 20 14 -9 16 -17 9 -35 -5 -14 -9 -32 -9 -41 1 -9 16 21 33 68 41 107
81 180 119 219 34 35 24 43 -11 10 -13 -12 -29 -18 -38 -15 -14 6 -14 9 2 26
10 11 13 20 7 20 -6 0 -14 -5 -17 -10z m10 -50 c11 -18 -5 -31 -26 -20 -11 6
-17 15 -14 21 8 12 32 12 40 -1z m-21 -55 c-7 -17 -13 -18 -32 -7 -7 5 -10 16
-6 25 5 13 10 14 25 7 10 -6 16 -17 13 -25z m-27 -23 c7 -5 9 -13 3 -22 -7
-11 -11 -11 -24 -1 -29 24 -11 43 21 23z m-13 -62 c-3 -8 -9 -23 -11 -32 -6
-22 -17 -23 -33 -3 -16 19 -3 40 16 24 10 -9 14 -9 14 0 0 6 -6 14 -14 17 -8
3 -12 12 -9 19 4 11 9 12 24 2 12 -7 17 -18 13 -27z"/>
<path d="M2200 2765 c0 -3 2 -5 5 -5 3 0 5 2 5 5 0 3 -2 5 -5 5 -3 0 -5 -2 -5
-5z"/>
<path d="M2230 2765 c0 -3 2 -5 5 -5 3 0 5 2 5 5 0 3 -2 5 -5 5 -3 0 -5 -2 -5
-5z"/>
<path d="M3421 2759 c-1 -9 9 -24 22 -35 22 -19 22 -19 6 1 -9 11 -19 27 -22
35 -5 13 -6 13 -6 -1z"/>
<path d="M1790 2755 c0 -3 2 -5 5 -5 3 0 5 2 5 5 0 3 -2 5 -5 5 -3 0 -5 -2 -5
-5z"/>
<path d="M1930 2755 c0 -3 2 -5 5 -5 3 0 5 2 5 5 0 3 -2 5 -5 5 -3 0 -5 -2 -5
-5z"/>
<path d="M2180 2755 c0 -3 2 -5 5 -5 3 0 5 2 5 5 0 3 -2 5 -5 5 -3 0 -5 -2 -5
-5z"/>
<path d="M2400 2755 c0 -3 2 -5 5 -5 3 0 5 2 5 5 0 3 -2 5 -5 5 -3 0 -5 -2 -5
-5z"/>
<path d="M2110 2745 c0 -3 2 -5 5 -5 3 0 5 2 5 5 0 3 -2 5 -5 5 -3 0 -5 -2 -5
-5z"/>
<path d="M2380 2745 c0 -3 2 -5 5 -5 3 0 5 2 5 5 0 3 -2 5 -5 5 -3 0 -5 -2 -5
-5z"/>
<path d="M2080 2735 c0 -3 2 -5 5 -5 3 0 5 2 5 5 0 3 -2 5 -5 5 -3 0 -5 -2 -5
-5z"/>
<path d="M2150 2735 c0 -3 2 -5 5 -5 3 0 5 2 5 5 0 3 -2 5 -5 5 -3 0 -5 -2 -5
-5z"/>
<path d="M2300 2725 c0 -3 2 -5 5 -5 3 0 5 2 5 5 0 3 -2 5 -5 5 -3 0 -5 -2 -5
-5z"/>
<path d="M2350 2725 c0 -3 2 -5 5 -5 3 0 5 2 5 5 0 3 -2 5 -5 5 -3 0 -5 -2 -5
-5z"/>
<path d="M3475 2720 c-3 -5 -4 -10 -1 -10 3 0 8 5 11 10 3 6 4 10 1 10 -3 0
-8 -4 -11 -10z"/>
<path d="M2020 2715 c0 -3 2 -5 5 -5 3 0 5 2 5 5 0 3 -2 5 -5 5 -3 0 -5 -2 -5
-5z"/>
<path d="M2280 2715 c0 -3 2 -5 5 -5 3 0 5 2 5 5 0 3 -2 5 -5 5 -3 0 -5 -2 -5
-5z"/>
<path d="M2330 2715 c0 -3 2 -5 5 -5 3 0 5 2 5 5 0 3 -2 5 -5 5 -3 0 -5 -2 -5
-5z"/>
<path d="M2000 2705 c0 -3 2 -5 5 -5 3 0 5 2 5 5 0 3 -2 5 -5 5 -3 0 -5 -2 -5
-5z"/>
<path d="M2250 2705 c0 -3 2 -5 5 -5 3 0 5 2 5 5 0 3 -2 5 -5 5 -3 0 -5 -2 -5
-5z"/>
<path d="M1960 2695 c0 -3 2 -5 5 -5 3 0 5 2 5 5 0 3 -2 5 -5 5 -3 0 -5 -2 -5
-5z"/>
<path d="M1980 2695 c0 -3 2 -5 5 -5 3 0 5 2 5 5 0 3 -2 5 -5 5 -3 0 -5 -2 -5
-5z"/>
<path d="M2230 2695 c0 -3 2 -5 5 -5 3 0 5 2 5 5 0 3 -2 5 -5 5 -3 0 -5 -2 -5
-5z"/>
<path d="M2300 2695 c0 -3 2 -5 5 -5 3 0 5 2 5 5 0 3 -2 5 -5 5 -3 0 -5 -2 -5
-5z"/>
<path d="M1935 2680 c-3 -5 -4 -10 -1 -10 3 0 8 5 11 10 3 6 4 10 1 10 -3 0
-8 -4 -11 -10z"/>
<path d="M2200 2685 c0 -3 2 -5 5 -5 3 0 5 2 5 5 0 3 -2 5 -5 5 -3 0 -5 -2 -5
-5z"/>
<path d="M1910 2675 c0 -3 2 -5 5 -5 3 0 5 2 5 5 0 3 -2 5 -5 5 -3 0 -5 -2 -5
-5z"/>
<path d="M2180 2675 c0 -3 2 -5 5 -5 3 0 5 2 5 5 0 3 -2 5 -5 5 -3 0 -5 -2 -5
-5z"/>
<path d="M2270 2675 c0 -3 2 -5 5 -5 3 0 5 2 5 5 0 3 -2 5 -5 5 -3 0 -5 -2 -5
-5z"/>
<path d="M1880 2665 c0 -3 2 -5 5 -5 3 0 5 2 5 5 0 3 -2 5 -5 5 -3 0 -5 -2 -5
-5z"/>
<path d="M2150 2665 c0 -3 2 -5 5 -5 3 0 5 2 5 5 0 3 -2 5 -5 5 -3 0 -5 -2 -5
-5z"/>
<path d="M2130 2655 c0 -3 2 -5 5 -5 3 0 5 2 5 5 0 3 -2 5 -5 5 -3 0 -5 -2 -5
-5z"/>
<path d="M2240 2655 c0 -3 2 -5 5 -5 3 0 5 2 5 5 0 3 -2 5 -5 5 -3 0 -5 -2 -5
-5z"/>
<path d="M2100 2645 c0 -3 2 -5 5 -5 3 0 5 2 5 5 0 3 -2 5 -5 5 -3 0 -5 -2 -5
-5z"/>
<path d="M2220 2645 c0 -3 2 -5 5 -5 3 0 5 2 5 5 0 3 -2 5 -5 5 -3 0 -5 -2 -5
-5z"/>
<path d="M2080 2635 c0 -3 2 -5 5 -5 3 0 5 2 5 5 0 3 -2 5 -5 5 -3 0 -5 -2 -5
-5z"/>
<path d="M2190 2625 c0 -3 2 -5 5 -5 3 0 5 2 5 5 0 3 -2 5 -5 5 -3 0 -5 -2 -5
-5z"/>
<path d="M1585 2589 c-22 -16 -48 -37 -58 -45 -10 -8 -31 -17 -45 -19 -15 -3
-46 -10 -69 -17 -34 -10 -52 -10 -85 0 -24 7 -50 13 -58 13 -21 0 -151 19
-174 26 -13 4 -16 1 -11 -8 7 -10 -15 -11 -106 -7 -85 5 -108 3 -89 -4 14 -6
82 -10 155 -9 110 1 144 -2 220 -23 71 -19 100 -22 140 -16 28 4 74 5 102 3
l53 -6 -21 -34 c-32 -51 -17 -49 19 2 l32 45 -58 0 -57 0 50 34 c62 43 123 95
110 95 -5 0 -28 -14 -50 -30z m-295 -84 c0 -3 -2 -5 -5 -5 -3 0 -5 2 -5 5 0 3
2 5 5 5 3 0 5 -2 5 -5z"/>
<path d="M2170 2615 c0 -3 2 -5 5 -5 3 0 5 2 5 5 0 3 -2 5 -5 5 -3 0 -5 -2 -5
-5z"/>
<path d="M2140 2595 c0 -3 2 -5 5 -5 3 0 5 2 5 5 0 3 -2 5 -5 5 -3 0 -5 -2 -5
-5z"/>
<path d="M2110 2585 c0 -3 2 -5 5 -5 3 0 5 2 5 5 0 3 -2 5 -5 5 -3 0 -5 -2 -5
-5z"/>
<path d="M2080 2565 c0 -3 2 -5 5 -5 3 0 5 2 5 5 0 3 -2 5 -5 5 -3 0 -5 -2 -5
-5z"/>
<path d="M2290 2565 c0 -3 2 -5 5 -5 3 0 5 2 5 5 0 3 -2 5 -5 5 -3 0 -5 -2 -5
-5z"/>
<path d="M2050 2545 c0 -3 2 -5 5 -5 3 0 5 2 5 5 0 3 -2 5 -5 5 -3 0 -5 -2 -5
-5z"/>
<path d="M2260 2545 c0 -3 2 -5 5 -5 3 0 5 2 5 5 0 3 -2 5 -5 5 -3 0 -5 -2 -5
-5z"/>
<path d="M2010 2535 c0 -3 2 -5 5 -5 3 0 5 2 5 5 0 3 -2 5 -5 5 -3 0 -5 -2 -5
-5z"/>
<path d="M2240 2525 c0 -3 2 -5 5 -5 3 0 5 2 5 5 0 3 -2 5 -5 5 -3 0 -5 -2 -5
-5z"/>
<path d="M2220 2505 c0 -3 2 -5 5 -5 3 0 5 2 5 5 0 3 -2 5 -5 5 -3 0 -5 -2 -5
-5z"/>
<path d="M2280 2505 c0 -3 2 -5 5 -5 3 0 5 2 5 5 0 3 -2 5 -5 5 -3 0 -5 -2 -5
-5z"/>
<path d="M2340 2505 c0 -3 2 -5 5 -5 3 0 5 2 5 5 0 3 -2 5 -5 5 -3 0 -5 -2 -5
-5z"/>
<path d="M2200 2485 c0 -3 2 -5 5 -5 3 0 5 2 5 5 0 3 -2 5 -5 5 -3 0 -5 -2 -5
-5z"/>
<path d="M2250 2485 c0 -3 2 -5 5 -5 3 0 5 2 5 5 0 3 -2 5 -5 5 -3 0 -5 -2 -5
-5z"/>
<path d="M2310 2485 c0 -3 2 -5 5 -5 3 0 5 2 5 5 0 3 -2 5 -5 5 -3 0 -5 -2 -5
-5z"/>
<path d="M2230 2475 c0 -3 2 -5 5 -5 3 0 5 2 5 5 0 3 -2 5 -5 5 -3 0 -5 -2 -5
-5z"/>
<path d="M1514 2457 c-40 -23 -111 -92 -138 -135 -15 -23 -31 -40 -36 -37 -6
3 -7 -1 -4 -9 3 -9 2 -16 -3 -16 -12 0 -43 -128 -42 -171 1 -34 2 -34 8 6 7
37 32 101 71 182 20 42 139 173 156 173 8 0 14 5 14 10 0 12 0 12 -26 -3z
m-174 -222 c0 -3 -2 -5 -5 -5 -3 0 -5 2 -5 5 0 3 2 5 5 5 3 0 5 -2 5 -5z m-10
-20 c0 -3 -2 -5 -5 -5 -3 0 -5 2 -5 5 0 3 2 5 5 5 3 0 5 -2 5 -5z"/>
<path d="M2180 2465 c0 -3 2 -5 5 -5 3 0 5 2 5 5 0 3 -2 5 -5 5 -3 0 -5 -2 -5
-5z"/>
<path d="M2290 2465 c0 -3 2 -5 5 -5 3 0 5 2 5 5 0 3 -2 5 -5 5 -3 0 -5 -2 -5
-5z"/>
<path d="M2210 2455 c0 -3 2 -5 5 -5 3 0 5 2 5 5 0 3 -2 5 -5 5 -3 0 -5 -2 -5
-5z"/>
<path d="M2170 2445 c0 -3 2 -5 5 -5 3 0 5 2 5 5 0 3 -2 5 -5 5 -3 0 -5 -2 -5
-5z"/>
<path d="M2270 2445 c0 -3 2 -5 5 -5 3 0 5 2 5 5 0 3 -2 5 -5 5 -3 0 -5 -2 -5
-5z"/>
<path d="M2190 2435 c0 -3 2 -5 5 -5 3 0 5 2 5 5 0 3 -2 5 -5 5 -3 0 -5 -2 -5
-5z"/>
<path d="M2340 2435 c0 -3 2 -5 5 -5 3 0 5 2 5 5 0 3 -2 5 -5 5 -3 0 -5 -2 -5
-5z"/>
<path d="M2250 2425 c0 -3 2 -5 5 -5 3 0 5 2 5 5 0 3 -2 5 -5 5 -3 0 -5 -2 -5
-5z"/>
<path d="M2076 2365 c4 -56 22 -136 40 -179 5 -14 4 -17 -4 -12 -15 9 -8 -36
20 -124 27 -83 72 -182 133 -290 120 -212 129 -237 38 -100 -61 91 -117 201
-132 258 -7 23 -16 40 -21 37 -5 -3 -12 10 -16 30 -3 19 -10 33 -14 30 -10 -6
-88 209 -100 275 l-9 55 2 -47 c1 -27 -1 -48 -5 -48 -4 0 -1 -15 7 -32 8 -18
24 -69 35 -114 12 -45 31 -96 43 -114 38 -58 40 -62 111 -195 85 -160 174
-305 185 -302 9 2 43 -35 170 -187 l83 -99 -43 7 c-84 13 -201 54 -193 67 3 5
-5 9 -18 9 -13 0 -36 7 -52 15 -15 8 -36 15 -45 15 -9 0 -45 17 -81 36 -36 20
-77 43 -91 50 -31 16 -217 207 -278 284 -23 29 -85 116 -138 194 -53 77 -100
143 -103 146 -4 3 -13 23 -22 45 -20 51 -130 265 -126 245 10 -50 74 -220 83
-220 5 0 23 -31 39 -68 40 -90 220 -423 224 -412 2 4 -30 70 -71 146 -123 231
-127 241 -53 135 21 -30 39 -59 40 -66 1 -6 21 -35 44 -65 23 -29 39 -56 37
-61 -10 -15 306 -317 360 -344 117 -57 255 -115 320 -134 82 -24 195 -44 202
-37 3 3 -8 17 -25 31 -17 15 -46 48 -63 76 -18 27 -34 49 -36 49 -2 0 -1 -6 3
-12 12 -22 -10 4 -57 67 -24 33 -47 61 -51 63 -4 2 -18 24 -30 50 -13 26 -31
55 -40 66 -22 24 -95 201 -112 273 -8 32 -15 49 -16 38 -1 -25 -36 57 -45 109
-4 19 -11 34 -15 31 -4 -2 -5 8 -3 23 3 20 2 23 -5 13 -13 -19 -50 100 -66
211 -6 44 -14 77 -17 74 -3 -3 -4 9 -2 27 3 23 2 28 -5 18 -8 -11 -11 -10 -16
5 -3 10 -3 -8 0 -41z m-556 -190 c0 -3 -2 -5 -5 -5 -3 0 -5 2 -5 5 0 3 2 5 5
5 3 0 5 -2 5 -5z m644 -140 c7 -11 25 -54 41 -95 15 -41 32 -80 36 -86 12 -16
40 -84 34 -84 -20 0 -156 327 -154 373 0 12 7 -3 15 -33 8 -30 21 -64 28 -75z
m-629 105 c-3 -5 -8 -10 -11 -10 -3 0 -2 5 1 10 3 6 8 10 11 10 3 0 2 -4 -1
-10z m10 -20 c-3 -5 -8 -10 -11 -10 -3 0 -2 5 1 10 3 6 8 10 11 10 3 0 2 -4
-1 -10z m522 -27 c-4 -3 -7 0 -7 7 0 7 3 10 7 7 3 -4 3 -10 0 -14z m10 -30
c-4 -3 -7 0 -7 7 0 7 3 10 7 7 3 -4 3 -10 0 -14z m23 -48 c0 -5 -5 -3 -10 5
-5 8 -10 20 -10 25 0 6 5 3 10 -5 5 -8 10 -19 10 -25z m10 -20 c0 -3 -2 -5 -5
-5 -3 0 -5 2 -5 5 0 3 2 5 5 5 3 0 5 -2 5 -5z m-490 -10 c0 -3 -2 -5 -5 -5 -3
0 -5 2 -5 5 0 3 2 5 5 5 3 0 5 -2 5 -5z m540 -60 c0 -3 -2 -5 -5 -5 -3 0 -5 2
-5 5 0 3 2 5 5 5 3 0 5 -2 5 -5z m224 -373 c3 -5 -1 -9 -9 -9 -8 0 -12 4 -9 9
3 4 7 8 9 8 2 0 6 -4 9 -8z m6 -37 c0 -3 -2 -5 -5 -5 -3 0 -5 2 -5 5 0 3 2 5
5 5 3 0 5 -2 5 -5z"/>
<path d="M2310 2415 c0 -3 2 -5 5 -5 3 0 5 2 5 5 0 3 -2 5 -5 5 -3 0 -5 -2 -5
-5z"/>
<path d="M2330 2415 c0 -3 2 -5 5 -5 3 0 5 2 5 5 0 3 -2 5 -5 5 -3 0 -5 -2 -5
-5z"/>
<path d="M986 2397 c3 -10 9 -15 12 -12 3 3 0 11 -7 18 -10 9 -11 8 -5 -6z"/>
<path d="M1020 2406 c0 -3 5 -8 10 -11 6 -3 10 -4 10 -1 0 3 -4 8 -10 11 -5 3
-10 4 -10 1z"/>
<path d="M1050 2400 c0 -7 3 -10 7 -7 3 4 3 10 0 14 -4 3 -7 0 -7 -7z"/>
<path d="M1070 2405 c0 -3 2 -5 5 -5 3 0 5 2 5 5 0 3 -2 5 -5 5 -3 0 -5 -2 -5
-5z"/>
<path d="M1130 2405 c0 -3 2 -5 5 -5 3 0 5 2 5 5 0 3 -2 5 -5 5 -3 0 -5 -2 -5
-5z"/>
<path d="M2240 2405 c0 -3 2 -5 5 -5 3 0 5 2 5 5 0 3 -2 5 -5 5 -3 0 -5 -2 -5
-5z"/>
<path d="M2290 2406 c0 -3 5 -8 10 -11 6 -3 10 -4 10 -1 0 3 -4 8 -10 11 -5 3
-10 4 -10 1z"/>
<path d="M1100 2391 c0 -6 4 -13 10 -16 6 -3 7 1 4 9 -7 18 -14 21 -14 7z"/>
<path d="M1220 2396 c0 -3 5 -8 10 -11 6 -3 10 -4 10 -1 0 3 -4 8 -10 11 -5 3
-10 4 -10 1z"/>
<path d="M1330 2395 c0 -3 2 -5 5 -5 3 0 5 2 5 5 0 3 -2 5 -5 5 -3 0 -5 -2 -5
-5z"/>
<path d="M2330 2390 c0 -7 3 -10 7 -7 3 4 3 10 0 14 -4 3 -7 0 -7 -7z"/>
<path d="M1010 2385 c0 -3 2 -5 5 -5 3 0 5 2 5 5 0 3 -2 5 -5 5 -3 0 -5 -2 -5
-5z"/>
<path d="M1190 2385 c0 -3 2 -5 5 -5 3 0 5 2 5 5 0 3 -2 5 -5 5 -3 0 -5 -2 -5
-5z"/>
<path d="M2210 2385 c0 -3 2 -5 5 -5 3 0 5 2 5 5 0 3 -2 5 -5 5 -3 0 -5 -2 -5
-5z"/>
<path d="M2254 2368 l-19 -23 23 19 c21 18 27 26 19 26 -2 0 -12 -10 -23 -22z"/>
<path d="M1060 2376 c0 -3 5 -8 10 -11 6 -3 10 -4 10 -1 0 3 -4 8 -10 11 -5 3
-10 4 -10 1z"/>
<path d="M1164 2366 c1 -8 5 -18 8 -22 4 -3 5 1 4 10 -1 8 -5 18 -8 22 -4 3
-5 -1 -4 -10z"/>
<path d="M1210 2375 c0 -3 2 -5 5 -5 3 0 5 2 5 5 0 3 -2 5 -5 5 -3 0 -5 -2 -5
-5z"/>
<path d="M1010 2365 c0 -3 2 -5 5 -5 3 0 5 2 5 5 0 3 -2 5 -5 5 -3 0 -5 -2 -5
-5z"/>
<path d="M1140 2365 c0 -3 2 -5 5 -5 3 0 5 2 5 5 0 3 -2 5 -5 5 -3 0 -5 -2 -5
-5z"/>
<path d="M1190 2365 c0 -3 2 -5 5 -5 3 0 5 2 5 5 0 3 -2 5 -5 5 -3 0 -5 -2 -5
-5z"/>
<path d="M1310 2365 c0 -3 2 -5 5 -5 3 0 5 2 5 5 0 3 -2 5 -5 5 -3 0 -5 -2 -5
-5z"/>
<path d="M2315 2361 c-3 -5 -2 -12 3 -15 5 -3 9 1 9 9 0 17 -3 19 -12 6z"/>
<path d="M1113 2353 c4 -3 10 -3 14 0 3 4 0 7 -7 7 -7 0 -10 -3 -7 -7z"/>
<path d="M1220 2355 c0 -3 2 -5 5 -5 3 0 5 2 5 5 0 3 -2 5 -5 5 -3 0 -5 -2 -5
-5z"/>
<path d="M1340 2355 c0 -3 2 -5 5 -5 3 0 5 2 5 5 0 3 -2 5 -5 5 -3 0 -5 -2 -5
-5z"/>
<path d="M2360 2355 c0 -3 2 -5 5 -5 3 0 5 2 5 5 0 3 -2 5 -5 5 -3 0 -5 -2 -5
-5z"/>
<path d="M1250 2345 c0 -3 2 -5 5 -5 3 0 5 2 5 5 0 3 -2 5 -5 5 -3 0 -5 -2 -5
-5z"/>
<path d="M2280 2345 c0 -3 2 -5 5 -5 3 0 5 2 5 5 0 3 -2 5 -5 5 -3 0 -5 -2 -5
-5z"/>
<path d="M1130 2330 c0 -7 3 -10 7 -7 3 4 3 10 0 14 -4 3 -7 0 -7 -7z"/>
<path d="M1210 2336 c0 -3 5 -8 10 -11 6 -3 10 -1 10 4 0 6 -4 11 -10 11 -5 0
-10 -2 -10 -4z"/>
<path d="M1325 2320 c10 -11 20 -20 23 -20 3 0 -3 9 -13 20 -10 11 -20 20 -23
20 -3 0 3 -9 13 -20z"/>
<path d="M1350 2335 c0 -3 2 -5 5 -5 3 0 5 2 5 5 0 3 -2 5 -5 5 -3 0 -5 -2 -5
-5z"/>
<path d="M2140 2335 c0 -3 2 -5 5 -5 3 0 5 2 5 5 0 3 -2 5 -5 5 -3 0 -5 -2 -5
-5z"/>
<path d="M2220 2331 c0 -6 4 -13 10 -16 6 -3 7 1 4 9 -7 18 -14 21 -14 7z"/>
<path d="M2250 2335 c0 -3 2 -5 5 -5 3 0 5 2 5 5 0 3 -2 5 -5 5 -3 0 -5 -2 -5
-5z"/>
<path d="M2300 2335 c0 -3 2 -5 5 -5 3 0 5 2 5 5 0 3 -2 5 -5 5 -3 0 -5 -2 -5
-5z"/>
<path d="M2350 2335 c0 -3 2 -5 5 -5 3 0 5 2 5 5 0 3 -2 5 -5 5 -3 0 -5 -2 -5
-5z"/>
<path d="M1185 2321 c-3 -5 -2 -12 3 -15 5 -3 9 1 9 9 0 17 -3 19 -12 6z"/>
<path d="M1260 2325 c0 -3 2 -5 5 -5 3 0 5 2 5 5 0 3 -2 5 -5 5 -3 0 -5 -2 -5
-5z"/>
<path d="M2270 2325 c0 -3 2 -5 5 -5 3 0 5 2 5 5 0 3 -2 5 -5 5 -3 0 -5 -2 -5
-5z"/>
<path d="M1160 2315 c0 -3 2 -5 5 -5 3 0 5 2 5 5 0 3 -2 5 -5 5 -3 0 -5 -2 -5
-5z"/>
<path d="M1280 2310 c0 -7 3 -10 7 -7 3 4 3 10 0 14 -4 3 -7 0 -7 -7z"/>
<path d="M1410 2315 c0 -3 2 -5 5 -5 3 0 5 2 5 5 0 3 -2 5 -5 5 -3 0 -5 -2 -5
-5z"/>
<path d="M2140 2315 c0 -3 2 -5 5 -5 3 0 5 2 5 5 0 3 -2 5 -5 5 -3 0 -5 -2 -5
-5z"/>
<path d="M2310 2315 c0 -3 2 -5 5 -5 3 0 5 2 5 5 0 3 -2 5 -5 5 -3 0 -5 -2 -5
-5z"/>
<path d="M2250 2305 c0 -3 2 -5 5 -5 3 0 5 2 5 5 0 3 -2 5 -5 5 -3 0 -5 -2 -5
-5z"/>
<path d="M2275 2300 c-3 -5 -4 -10 -1 -10 3 0 8 5 11 10 3 6 4 10 1 10 -3 0
-8 -4 -11 -10z"/>
<path d="M2340 2300 c0 -7 3 -10 7 -7 3 4 3 10 0 14 -4 3 -7 0 -7 -7z"/>
<path d="M1230 2296 c0 -3 5 -8 10 -11 6 -3 10 -4 10 -1 0 3 -4 8 -10 11 -5 3
-10 4 -10 1z"/>
<path d="M1260 2295 c0 -3 2 -5 5 -5 3 0 5 2 5 5 0 3 -2 5 -5 5 -3 0 -5 -2 -5
-5z"/>
<path d="M1310 2295 c0 -3 2 -5 5 -5 3 0 5 2 5 5 0 3 -2 5 -5 5 -3 0 -5 -2 -5
-5z"/>
<path d="M1397 2286 c-3 -8 2 -20 11 -27 14 -11 15 -11 5 0 -6 7 -9 20 -6 27
3 8 3 14 0 14 -3 0 -7 -6 -10 -14z"/>
<path d="M2150 2295 c0 -3 2 -5 5 -5 3 0 5 2 5 5 0 3 -2 5 -5 5 -3 0 -5 -2 -5
-5z"/>
<path d="M2210 2290 c0 -7 3 -10 7 -7 3 4 3 10 0 14 -4 3 -7 0 -7 -7z"/>
<path d="M2234 2276 c1 -13 7 -31 14 -39 7 -8 15 -24 17 -36 2 -12 6 -25 9
-29 2 -4 1 -14 -4 -22 -8 -13 -16 -12 -50 8 -22 12 -40 19 -40 14 0 -13 99
-69 195 -109 50 -20 93 -42 97 -48 4 -5 8 -7 8 -3 0 4 25 -2 57 -13 31 -10 58
-17 61 -14 3 2 -1 7 -9 9 -65 21 -189 70 -185 73 3 3 33 -4 68 -15 101 -32
228 -63 236 -58 15 9 225 -42 342 -82 63 -22 166 -61 229 -86 62 -26 119 -45
126 -42 7 2 59 -11 115 -30 57 -19 119 -34 140 -34 32 0 45 -8 107 -72 157
-161 291 -311 287 -322 -2 -6 49 -59 113 -118 65 -58 147 -133 183 -166 36
-33 67 -58 70 -55 3 3 -20 27 -50 55 -30 27 -48 46 -39 43 37 -14 11 28 -52
84 -73 66 -100 80 -53 29 l29 -33 -32 29 c-18 16 -31 32 -28 34 2 3 -25 36
-60 75 -36 39 -65 75 -65 79 0 4 -6 8 -13 8 -32 0 -336 332 -380 415 -9 17
-16 23 -17 15 0 -9 11 -32 25 -53 l26 -37 -46 0 c-25 0 -45 5 -45 10 0 6 -13
10 -28 10 -16 0 -37 6 -47 14 -11 8 -25 12 -32 9 -7 -3 -19 -1 -26 4 -6 5 -38
17 -69 27 -32 11 -55 23 -52 27 3 5 -3 6 -12 2 -12 -4 -15 -3 -10 5 5 9 0 9
-19 2 -19 -7 -34 -5 -60 7 -19 9 -32 20 -29 25 3 4 -3 5 -12 1 -13 -5 -15 -3
-9 7 5 9 4 11 -3 6 -6 -4 -29 2 -51 13 -21 11 -48 19 -59 16 -11 -2 -31 3 -45
10 -14 7 -28 11 -31 7 -3 -3 -6 -1 -6 4 0 5 -9 10 -21 11 -27 2 -51 22 -42 36
3 6 1 7 -6 3 -6 -4 -8 -12 -5 -18 5 -7 2 -8 -6 -3 -7 5 -26 9 -41 10 -15 2
-38 13 -51 27 -13 13 -17 17 -10 8 15 -21 16 -33 0 -24 -6 4 -24 8 -40 9 -16
2 -41 13 -56 26 -14 13 -20 16 -13 7 12 -16 11 -18 -11 -18 -14 0 -38 10 -54
22 -22 17 -26 18 -14 4 14 -18 13 -18 -10 -11 -14 5 -33 8 -43 7 -9 0 -15 3
-13 7 3 5 -6 6 -19 3 -15 -2 -25 0 -25 7 0 7 -4 10 -10 6 -13 -8 -61 5 -55 15
3 5 -5 6 -16 3 -14 -4 -25 0 -31 12 -7 12 -13 14 -17 6 -5 -8 -16 -8 -42 0
-19 6 -41 13 -49 16 -8 2 -15 3 -16 1 0 -2 -8 3 -17 11 -12 9 -14 18 -7 30 5
10 5 23 0 31 -6 10 -3 21 8 35 12 14 13 16 2 8 -13 -10 -19 -8 -30 10 -8 12
-14 30 -15 39 0 9 -3 19 -6 22 -3 4 -5 -5 -5 -18z m156 -201 c0 -3 -2 -5 -5
-5 -3 0 -5 2 -5 5 0 3 2 5 5 5 3 0 5 -2 5 -5z m360 -70 c0 -3 -2 -5 -5 -5 -3
0 -5 2 -5 5 0 3 2 5 5 5 3 0 5 -2 5 -5z m377 -102 c-4 -3 -10 -3 -14 0 -3 4 0
7 7 7 7 0 10 -3 7 -7z m213 -83 c8 -5 11 -10 5 -10 -5 0 -17 5 -25 10 -8 5
-10 10 -5 10 6 0 17 -5 25 -10z m37 -17 c-4 -3 -10 -3 -14 0 -3 4 0 7 7 7 7 0
10 -3 7 -7z m23 -8 c0 -3 -2 -5 -5 -5 -3 0 -5 2 -5 5 0 3 2 5 5 5 3 0 5 -2 5
-5z m130 -30 c0 -3 -2 -5 -5 -5 -3 0 -5 2 -5 5 0 3 2 5 5 5 3 0 5 -2 5 -5z
m598 -471 c47 -50 53 -63 12 -28 -8 7 -19 13 -25 13 -5 1 -10 4 -10 9 0 13
-16 32 -24 28 -4 -3 -8 4 -8 15 -1 10 -1 19 0 19 2 0 26 -25 55 -56z m182
-170 c0 -3 -4 -2 -10 1 -5 3 -10 8 -10 11 0 3 5 2 10 -1 6 -3 10 -8 10 -11z"/>
<path d="M4110 1285 c0 -3 2 -5 5 -5 3 0 5 2 5 5 0 3 -2 5 -5 5 -3 0 -5 -2 -5
-5z"/>
<path d="M2400 2295 c0 -3 2 -5 5 -5 3 0 5 2 5 5 0 3 -2 5 -5 5 -3 0 -5 -2 -5
-5z"/>
<path d="M1285 2280 c-3 -5 -4 -10 -1 -10 3 0 8 5 11 10 3 6 4 10 1 10 -3 0
-8 -4 -11 -10z"/>
<path d="M2305 2279 c-4 -6 -5 -12 -2 -15 2 -3 7 2 10 11 7 17 1 20 -8 4z"/>
<path d="M2360 2285 c0 -3 2 -5 5 -5 3 0 5 2 5 5 0 3 -2 5 -5 5 -3 0 -5 -2 -5
-5z"/>
<path d="M1420 2275 c0 -3 2 -5 5 -5 3 0 5 2 5 5 0 3 -2 5 -5 5 -3 0 -5 -2 -5
-5z"/>
<path d="M2160 2275 c0 -3 2 -5 5 -5 3 0 5 2 5 5 0 3 -2 5 -5 5 -3 0 -5 -2 -5
-5z"/>
<path d="M2280 2275 c0 -3 2 -5 5 -5 3 0 5 2 5 5 0 3 -2 5 -5 5 -3 0 -5 -2 -5
-5z"/>
<path d="M2330 2275 c0 -3 2 -5 5 -5 3 0 5 2 5 5 0 3 -2 5 -5 5 -3 0 -5 -2 -5
-5z"/>
<path d="M2200 2265 c0 -3 2 -5 5 -5 3 0 5 2 5 5 0 3 -2 5 -5 5 -3 0 -5 -2 -5
-5z"/>
<path d="M2360 2265 c0 -3 2 -5 5 -5 3 0 5 2 5 5 0 3 -2 5 -5 5 -3 0 -5 -2 -5
-5z"/>
<path d="M1300 2255 c0 -3 2 -5 5 -5 3 0 5 2 5 5 0 3 -2 5 -5 5 -3 0 -5 -2 -5
-5z"/>
<path d="M1380 2250 c0 -7 3 -10 7 -7 3 4 3 10 0 14 -4 3 -7 0 -7 -7z"/>
<path d="M1426 2243 c-6 -14 -5 -15 5 -6 7 7 10 15 7 18 -3 3 -9 -2 -12 -12z"/>
<path d="M2260 2255 c0 -3 2 -5 5 -5 3 0 5 2 5 5 0 3 -2 5 -5 5 -3 0 -5 -2 -5
-5z"/>
<path d="M2330 2255 c0 -3 2 -5 5 -5 3 0 5 2 5 5 0 3 -2 5 -5 5 -3 0 -5 -2 -5
-5z"/>
<path d="M2390 2255 c0 -3 2 -5 5 -5 3 0 5 2 5 5 0 3 -2 5 -5 5 -3 0 -5 -2 -5
-5z"/>
<path d="M2440 2255 c0 -3 2 -5 5 -5 3 0 5 2 5 5 0 3 -2 5 -5 5 -3 0 -5 -2 -5
-5z"/>
<path d="M2180 2245 c0 -3 2 -5 5 -5 3 0 5 2 5 5 0 3 -2 5 -5 5 -3 0 -5 -2 -5
-5z"/>
<path d="M2293 2243 c4 -3 10 -3 14 0 3 4 0 7 -7 7 -7 0 -10 -3 -7 -7z"/>
<path d="M2360 2240 c0 -7 3 -10 7 -7 3 4 3 10 0 14 -4 3 -7 0 -7 -7z"/>
<path d="M1360 2230 c0 -7 3 -10 7 -7 3 4 3 10 0 14 -4 3 -7 0 -7 -7z"/>
<path d="M2200 2230 c0 -7 3 -10 7 -7 3 4 3 10 0 14 -4 3 -7 0 -7 -7z"/>
<path d="M2400 2235 c0 -3 2 -5 5 -5 3 0 5 2 5 5 0 3 -2 5 -5 5 -3 0 -5 -2 -5
-5z"/>
<path d="M2420 2235 c0 -3 2 -5 5 -5 3 0 5 2 5 5 0 3 -2 5 -5 5 -3 0 -5 -2 -5
-5z"/>
<path d="M2450 2235 c0 -3 2 -5 5 -5 3 0 5 2 5 5 0 3 -2 5 -5 5 -3 0 -5 -2 -5
-5z"/>
<path d="M1390 2225 c0 -3 2 -5 5 -5 3 0 5 2 5 5 0 3 -2 5 -5 5 -3 0 -5 -2 -5
-5z"/>
<path d="M1440 2225 c0 -3 2 -5 5 -5 3 0 5 2 5 5 0 3 -2 5 -5 5 -3 0 -5 -2 -5
-5z"/>
<path d="M2320 2220 c0 -7 3 -10 7 -7 3 4 3 10 0 14 -4 3 -7 0 -7 -7z"/>
<path d="M2230 2216 c0 -3 5 -8 10 -11 6 -3 10 -4 10 -1 0 3 -4 8 -10 11 -5 3
-10 4 -10 1z"/>
<path d="M2340 2215 c0 -3 2 -5 5 -5 3 0 5 2 5 5 0 3 -2 5 -5 5 -3 0 -5 -2 -5
-5z"/>
<path d="M2360 2215 c0 -3 2 -5 5 -5 3 0 5 2 5 5 0 3 -2 5 -5 5 -3 0 -5 -2 -5
-5z"/>
<path d="M2400 2215 c0 -3 2 -5 5 -5 3 0 5 2 5 5 0 3 -2 5 -5 5 -3 0 -5 -2 -5
-5z"/>
<path d="M1382 2202 c-13 -9 39 -42 86 -57 21 -6 22 -5 11 13 -7 11 -27 23
-45 27 -18 3 -34 10 -36 15 -2 5 -9 6 -16 2z m78 -37 c0 -3 -2 -5 -5 -5 -3 0
-5 2 -5 5 0 3 2 5 5 5 3 0 5 -2 5 -5z"/>
<path d="M2460 2205 c0 -3 2 -5 5 -5 3 0 5 2 5 5 0 3 -2 5 -5 5 -3 0 -5 -2 -5
-5z"/>
<path d="M2210 2195 c0 -3 2 -5 5 -5 3 0 5 2 5 5 0 3 -2 5 -5 5 -3 0 -5 -2 -5
-5z"/>
<path d="M2305 2190 c-3 -5 -4 -10 -1 -10 3 0 8 5 11 10 3 6 4 10 1 10 -3 0
-8 -4 -11 -10z"/>
<path d="M2330 2195 c0 -3 2 -5 5 -5 3 0 5 2 5 5 0 3 -2 5 -5 5 -3 0 -5 -2 -5
-5z"/>
<path d="M2370 2195 c0 -3 2 -5 5 -5 3 0 5 2 5 5 0 3 -2 5 -5 5 -3 0 -5 -2 -5
-5z"/>
<path d="M2390 2196 c0 -3 5 -8 10 -11 6 -3 10 -4 10 -1 0 3 -4 8 -10 11 -5 3
-10 4 -10 1z"/>
<path d="M2510 2195 c0 -3 2 -5 5 -5 3 0 5 2 5 5 0 3 -2 5 -5 5 -3 0 -5 -2 -5
-5z"/>
<path d="M2470 2185 c0 -3 2 -5 5 -5 3 0 5 2 5 5 0 3 -2 5 -5 5 -3 0 -5 -2 -5
-5z"/>
<path d="M2230 2175 c0 -3 2 -5 5 -5 3 0 5 2 5 5 0 3 -2 5 -5 5 -3 0 -5 -2 -5
-5z"/>
<path d="M2320 2175 c0 -3 2 -5 5 -5 3 0 5 2 5 5 0 3 -2 5 -5 5 -3 0 -5 -2 -5
-5z"/>
<path d="M2340 2175 c0 -3 2 -5 5 -5 3 0 5 2 5 5 0 3 -2 5 -5 5 -3 0 -5 -2 -5
-5z"/>
<path d="M2370 2175 c0 -3 2 -5 5 -5 3 0 5 2 5 5 0 3 -2 5 -5 5 -3 0 -5 -2 -5
-5z"/>
<path d="M2430 2170 c0 -7 3 -10 7 -7 3 4 3 10 0 14 -4 3 -7 0 -7 -7z"/>
<path d="M2520 2175 c0 -3 2 -5 5 -5 3 0 5 2 5 5 0 3 -2 5 -5 5 -3 0 -5 -2 -5
-5z"/>
<path d="M2480 2165 c0 -3 2 -5 5 -5 3 0 5 2 5 5 0 3 -2 5 -5 5 -3 0 -5 -2 -5
-5z"/>
<path d="M2250 2155 c0 -3 2 -5 5 -5 3 0 5 2 5 5 0 3 -2 5 -5 5 -3 0 -5 -2 -5
-5z"/>
<path d="M2345 2150 c-3 -5 -4 -10 -1 -10 3 0 8 5 11 10 3 6 4 10 1 10 -3 0
-8 -4 -11 -10z"/>
<path d="M2370 2155 c0 -3 2 -5 5 -5 3 0 5 2 5 5 0 3 -2 5 -5 5 -3 0 -5 -2 -5
-5z"/>
<path d="M2390 2145 c-8 -10 -9 -19 -1 -32 9 -16 10 -15 8 7 -1 16 3 24 11 23
14 -3 16 3 3 11 -5 3 -14 -1 -21 -9z"/>
<path d="M2440 2145 c0 -3 2 -5 5 -5 3 0 5 2 5 5 0 3 -2 5 -5 5 -3 0 -5 -2 -5
-5z"/>
<path d="M2465 2140 c-3 -5 -4 -10 -1 -10 3 0 8 5 11 10 3 6 4 10 1 10 -3 0
-8 -4 -11 -10z"/>
<path d="M2490 2145 c0 -3 2 -5 5 -5 3 0 5 2 5 5 0 3 -2 5 -5 5 -3 0 -5 -2 -5
-5z"/>
<path d="M2290 2135 c0 -3 2 -5 5 -5 3 0 5 2 5 5 0 3 -2 5 -5 5 -3 0 -5 -2 -5
-5z"/>
<path d="M2320 2130 c0 -7 3 -10 7 -7 3 4 3 10 0 14 -4 3 -7 0 -7 -7z"/>
<path d="M2360 2135 c0 -3 2 -5 5 -5 3 0 5 2 5 5 0 3 -2 5 -5 5 -3 0 -5 -2 -5
-5z"/>
<path d="M2510 2135 c0 -3 2 -5 5 -5 3 0 5 2 5 5 0 3 -2 5 -5 5 -3 0 -5 -2 -5
-5z"/>
<path d="M2530 2135 c0 -3 2 -5 5 -5 3 0 5 2 5 5 0 3 -2 5 -5 5 -3 0 -5 -2 -5
-5z"/>
<path d="M2545 2121 c-3 -5 -2 -12 3 -15 5 -3 9 1 9 9 0 17 -3 19 -12 6z"/>
<path d="M2340 2115 c0 -3 2 -5 5 -5 3 0 5 2 5 5 0 3 -2 5 -5 5 -3 0 -5 -2 -5
-5z"/>
<path d="M2360 2115 c0 -3 2 -5 5 -5 3 0 5 2 5 5 0 3 -2 5 -5 5 -3 0 -5 -2 -5
-5z"/>
<path d="M2420 2115 c0 -3 2 -5 5 -5 3 0 5 2 5 5 0 3 -2 5 -5 5 -3 0 -5 -2 -5
-5z"/>
<path d="M2440 2115 c0 -3 2 -5 5 -5 3 0 5 2 5 5 0 3 -2 5 -5 5 -3 0 -5 -2 -5
-5z"/>
<path d="M2590 2115 c0 -3 2 -5 5 -5 3 0 5 2 5 5 0 3 -2 5 -5 5 -3 0 -5 -2 -5
-5z"/>
<path d="M2690 2115 c0 -3 2 -5 5 -5 3 0 5 2 5 5 0 3 -2 5 -5 5 -3 0 -5 -2 -5
-5z"/>
<path d="M2720 2115 c0 -3 2 -5 5 -5 3 0 5 2 5 5 0 3 -2 5 -5 5 -3 0 -5 -2 -5
-5z"/>
<path d="M2660 2105 c0 -3 2 -5 5 -5 3 0 5 2 5 5 0 3 -2 5 -5 5 -3 0 -5 -2 -5
-5z"/>
<path d="M2460 2095 c0 -3 2 -5 5 -5 3 0 5 2 5 5 0 3 -2 5 -5 5 -3 0 -5 -2 -5
-5z"/>
<path d="M2559 2083 c-13 -16 -12 -17 4 -4 16 13 21 21 13 21 -2 0 -10 -8 -17
-17z"/>
<path d="M2600 2095 c0 -3 2 -5 5 -5 3 0 5 2 5 5 0 3 -2 5 -5 5 -3 0 -5 -2 -5
-5z"/>
<path d="M2676 2083 c-6 -14 -5 -15 5 -6 7 7 10 15 7 18 -3 3 -9 -2 -12 -12z"/>
<path d="M2700 2095 c0 -3 2 -5 5 -5 3 0 5 2 5 5 0 3 -2 5 -5 5 -3 0 -5 -2 -5
-5z"/>
<path d="M2270 2075 c0 -3 2 -5 5 -5 3 0 5 2 5 5 0 3 -2 5 -5 5 -3 0 -5 -2 -5
-5z"/>
<path d="M2600 2075 c0 -3 2 -5 5 -5 3 0 5 2 5 5 0 3 -2 5 -5 5 -3 0 -5 -2 -5
-5z"/>
<path d="M2623 2059 c-2 -23 3 -25 10 -4 4 8 3 16 -1 19 -4 3 -9 -4 -9 -15z"/>
<path d="M2650 2075 c0 -3 2 -5 5 -5 3 0 5 2 5 5 0 3 -2 5 -5 5 -3 0 -5 -2 -5
-5z"/>
<path d="M2723 2065 c0 -8 4 -12 9 -9 5 3 6 10 3 15 -9 13 -12 11 -12 -6z"/>
<path d="M2810 2075 c0 -3 2 -5 5 -5 3 0 5 2 5 5 0 3 -2 5 -5 5 -3 0 -5 -2 -5
-5z"/>
<path d="M2330 2065 c0 -3 2 -5 5 -5 3 0 5 2 5 5 0 3 -2 5 -5 5 -3 0 -5 -2 -5
-5z"/>
<path d="M2570 2065 c0 -3 2 -5 5 -5 3 0 5 2 5 5 0 3 -2 5 -5 5 -3 0 -5 -2 -5
-5z"/>
<path d="M2690 2065 c0 -3 2 -5 5 -5 3 0 5 2 5 5 0 3 -2 5 -5 5 -3 0 -5 -2 -5
-5z"/>
<path d="M2754 2050 c0 -13 4 -16 10 -10 7 7 7 13 0 20 -6 6 -10 3 -10 -10z"/>
<path d="M2280 2055 c0 -3 2 -5 5 -5 3 0 5 2 5 5 0 3 -2 5 -5 5 -3 0 -5 -2 -5
-5z"/>
<path d="M2600 2055 c0 -3 2 -5 5 -5 3 0 5 2 5 5 0 3 -2 5 -5 5 -3 0 -5 -2 -5
-5z"/>
<path d="M2780 2055 c0 -3 2 -5 5 -5 3 0 5 2 5 5 0 3 -2 5 -5 5 -3 0 -5 -2 -5
-5z"/>
<path d="M2700 2045 c0 -3 2 -5 5 -5 3 0 5 2 5 5 0 3 -2 5 -5 5 -3 0 -5 -2 -5
-5z"/>
<path d="M2290 2035 c0 -3 2 -5 5 -5 3 0 5 2 5 5 0 3 -2 5 -5 5 -3 0 -5 -2 -5
-5z"/>
<path d="M2680 2035 c0 -3 2 -5 5 -5 3 0 5 2 5 5 0 3 -2 5 -5 5 -3 0 -5 -2 -5
-5z"/>
<path d="M2850 2035 c0 -3 2 -5 5 -5 3 0 5 2 5 5 0 3 -2 5 -5 5 -3 0 -5 -2 -5
-5z"/>
<path d="M2790 2015 c7 -8 15 -15 17 -15 3 0 0 7 -7 15 -7 8 -15 15 -17 15 -3
0 0 -7 7 -15z"/>
<path d="M2300 2015 c0 -3 2 -5 5 -5 3 0 5 2 5 5 0 3 -2 5 -5 5 -3 0 -5 -2 -5
-5z"/>
<path d="M2450 2015 c0 -3 2 -5 5 -5 3 0 5 2 5 5 0 3 -2 5 -5 5 -3 0 -5 -2 -5
-5z"/>
<path d="M2880 2015 c0 -3 2 -5 5 -5 3 0 5 2 5 5 0 3 -2 5 -5 5 -3 0 -5 -2 -5
-5z"/>
<path d="M2390 2005 c0 -3 2 -5 5 -5 3 0 5 2 5 5 0 3 -2 5 -5 5 -3 0 -5 -2 -5
-5z"/>
<path d="M2420 1995 c7 -8 15 -15 17 -15 3 0 0 7 -7 15 -7 8 -15 15 -17 15 -3
0 0 -7 7 -15z"/>
<path d="M2350 1995 c0 -3 2 -5 5 -5 3 0 5 2 5 5 0 3 -2 5 -5 5 -3 0 -5 -2 -5
-5z"/>
<path d="M2370 1996 c0 -3 5 -8 10 -11 6 -3 10 -4 10 -1 0 3 -4 8 -10 11 -5 3
-10 4 -10 1z"/>
<path d="M2470 1995 c0 -3 2 -5 5 -5 3 0 5 2 5 5 0 3 -2 5 -5 5 -3 0 -5 -2 -5
-5z"/>
<path d="M2499 1985 c17 -33 31 -51 31 -40 0 6 -10 21 -21 35 -13 17 -17 18
-10 5z"/>
<path d="M2880 1995 c0 -3 2 -5 5 -5 3 0 5 2 5 5 0 3 -2 5 -5 5 -3 0 -5 -2 -5
-5z"/>
<path d="M2330 1975 c7 -8 15 -15 17 -15 3 0 0 7 -7 15 -7 8 -15 15 -17 15 -3
0 0 -7 7 -15z"/>
<path d="M2400 1986 c0 -3 5 -8 10 -11 6 -3 10 -4 10 -1 0 3 -4 8 -10 11 -5 3
-10 4 -10 1z"/>
<path d="M2636 1970 c4 -14 17 -48 29 -77 13 -28 20 -55 17 -59 -4 -4 -2 -4 5
-1 7 5 16 -6 23 -28 6 -19 16 -35 22 -35 6 0 9 -3 5 -6 -3 -3 -2 -11 4 -18 41
-49 77 -105 71 -111 -4 -3 -2 -5 4 -3 6 2 23 -12 38 -29 32 -38 26 -40 -35
-14 -42 18 -79 31 -89 33 -3 1 -21 8 -39 16 -19 7 -44 16 -55 18 -12 2 -34 19
-49 39 -16 19 -33 32 -39 29 -6 -4 -21 6 -34 21 -13 16 -24 25 -24 21 0 -14
-87 68 -140 132 -28 34 -49 65 -46 70 2 4 -4 9 -15 9 -16 2 -18 -1 -10 -11 6
-7 7 -17 3 -21 -4 -5 -2 -6 3 -3 6 4 21 -10 35 -30 25 -36 216 -232 257 -264
13 -10 25 -13 28 -8 4 6 16 3 30 -6 13 -9 30 -12 36 -8 8 4 9 3 5 -4 -9 -14
66 -53 158 -81 79 -24 79 -24 71 -11 -3 6 -12 10 -20 10 -19 0 -127 41 -122
46 2 2 21 -2 43 -9 21 -8 56 -17 77 -20 l39 -6 -44 47 c-53 57 -102 141 -135
231 -19 51 -23 58 -19 29 2 -21 3 -38 1 -38 -11 0 -45 72 -39 82 4 7 3 9 -2 5
-4 -4 -19 14 -31 40 -13 26 -20 37 -17 23z m-66 -265 c7 -8 10 -15 7 -15 -2 0
-10 7 -17 15 -7 8 -10 15 -7 15 2 0 10 -7 17 -15z m-20 -10 c7 -8 10 -15 7
-15 -2 0 -10 7 -17 15 -7 8 -10 15 -7 15 2 0 10 -7 17 -15z m40 -31 c0 -3 -4
-2 -10 1 -5 3 -10 8 -10 11 0 3 5 2 10 -1 6 -3 10 -8 10 -11z m140 -59 c0 -3
-2 -5 -5 -5 -3 0 -5 2 -5 5 0 3 2 5 5 5 3 0 5 -2 5 -5z m20 -10 c0 -3 -2 -5
-5 -5 -3 0 -5 2 -5 5 0 3 2 5 5 5 3 0 5 -2 5 -5z"/>
<path d="M2900 1985 c0 -3 2 -5 5 -5 3 0 5 2 5 5 0 3 -2 5 -5 5 -3 0 -5 -2 -5
-5z"/>
<path d="M2970 1985 c0 -3 2 -5 5 -5 3 0 5 2 5 5 0 3 -2 5 -5 5 -3 0 -5 -2 -5
-5z"/>
<path d="M2455 1970 c-3 -5 -4 -10 -1 -10 3 0 8 5 11 10 3 6 4 10 1 10 -3 0
-8 -4 -11 -10z"/>
<path d="M3020 1975 c0 -3 2 -5 5 -5 3 0 5 2 5 5 0 3 -2 5 -5 5 -3 0 -5 -2 -5
-5z"/>
<path d="M2360 1965 c0 -3 2 -5 5 -5 3 0 5 2 5 5 0 3 -2 5 -5 5 -3 0 -5 -2 -5
-5z"/>
<path d="M2390 1965 c0 -3 2 -5 5 -5 3 0 5 2 5 5 0 3 -2 5 -5 5 -3 0 -5 -2 -5
-5z"/>
<path d="M2430 1961 c0 -6 4 -13 10 -16 6 -3 7 1 4 9 -7 18 -14 21 -14 7z"/>
<path d="M2540 1965 c0 -3 2 -5 5 -5 3 0 5 2 5 5 0 3 -2 5 -5 5 -3 0 -5 -2 -5
-5z"/>
<path d="M2980 1965 c0 -3 2 -5 5 -5 3 0 5 2 5 5 0 3 -2 5 -5 5 -3 0 -5 -2 -5
-5z"/>
<path d="M3000 1965 c0 -3 2 -5 5 -5 3 0 5 2 5 5 0 3 -2 5 -5 5 -3 0 -5 -2 -5
-5z"/>
<path d="M1023 1944 c-10 -9 -11 -12 -3 -8 12 6 13 5 5 -7 -6 -8 -8 -40 -4
-74 3 -33 6 -46 7 -29 1 21 8 33 20 37 9 2 25 8 35 12 13 6 17 2 17 -17 0 -30
17 -48 45 -48 29 0 45 19 45 52 0 31 -30 53 -61 45 -13 -4 -19 0 -19 13 0 36
-53 51 -87 24z m56 -13 c19 -12 7 -39 -21 -50 -28 -10 -32 -3 -19 32 11 29 18
32 40 18z m101 -71 c0 -40 -53 -51 -67 -14 -9 24 34 59 53 43 8 -6 14 -19 14
-29z"/>
<path d="M2320 1955 c0 -3 2 -5 5 -5 3 0 5 2 5 5 0 3 -2 5 -5 5 -3 0 -5 -2 -5
-5z"/>
<path d="M2410 1955 c0 -3 2 -5 5 -5 3 0 5 2 5 5 0 3 -2 5 -5 5 -3 0 -5 -2 -5
-5z"/>
<path d="M2590 1955 c0 -3 2 -5 5 -5 3 0 5 2 5 5 0 3 -2 5 -5 5 -3 0 -5 -2 -5
-5z"/>
<path d="M2850 1955 c0 -3 2 -5 5 -5 3 0 5 2 5 5 0 3 -2 5 -5 5 -3 0 -5 -2 -5
-5z"/>
<path d="M3040 1955 c0 -3 2 -5 5 -5 3 0 5 2 5 5 0 3 -2 5 -5 5 -3 0 -5 -2 -5
-5z"/>
<path d="M2463 1935 c0 -8 4 -12 9 -9 5 3 6 10 3 15 -9 13 -12 11 -12 -6z"/>
<path d="M2550 1945 c0 -3 2 -5 5 -5 3 0 5 2 5 5 0 3 -2 5 -5 5 -3 0 -5 -2 -5
-5z"/>
<path d="M1202 1877 c1 -59 1 -60 7 -18 9 65 29 64 34 -1 l4 -53 -1 59 c-1 51
-4 60 -23 67 -22 8 -23 7 -21 -54z"/>
<path d="M2360 1925 c7 -8 15 -15 17 -15 3 0 0 7 -7 15 -7 8 -15 15 -17 15 -3
0 0 -7 7 -15z"/>
<path d="M2393 1933 c4 -3 10 -3 14 0 3 4 0 7 -7 7 -7 0 -10 -3 -7 -7z"/>
<path d="M2435 1921 c11 -13 19 -25 17 -28 -2 -3 -2 -7 1 -9 2 -2 4 3 4 11 0
8 -10 23 -21 32 l-21 18 20 -24z"/>
<path d="M2490 1935 c0 -3 2 -5 5 -5 3 0 5 2 5 5 0 3 -2 5 -5 5 -3 0 -5 -2 -5
-5z"/>
<path d="M2610 1935 c0 -3 2 -5 5 -5 3 0 5 2 5 5 0 3 -2 5 -5 5 -3 0 -5 -2 -5
-5z"/>
<path d="M3060 1935 c0 -3 2 -5 5 -5 3 0 5 2 5 5 0 3 -2 5 -5 5 -3 0 -5 -2 -5
-5z"/>
<path d="M3100 1935 c0 -3 2 -5 5 -5 3 0 5 2 5 5 0 3 -2 5 -5 5 -3 0 -5 -2 -5
-5z"/>
<path d="M1290 1921 c0 -6 5 -11 10 -11 13 0 13 7 0 15 -5 3 -10 1 -10 -4z"/>
<path d="M2540 1925 c0 -3 2 -5 5 -5 3 0 5 2 5 5 0 3 -2 5 -5 5 -3 0 -5 -2 -5
-5z"/>
<path d="M2570 1925 c0 -3 2 -5 5 -5 3 0 5 2 5 5 0 3 -2 5 -5 5 -3 0 -5 -2 -5
-5z"/>
<path d="M1336 1901 c-13 -14 -16 -28 -10 -56 3 -20 13 -39 20 -42 20 -8 64 5
64 19 0 9 -3 9 -12 0 -20 -20 -48 -14 -58 14 -15 38 -13 40 31 36 38 -4 40 -3
37 19 -4 32 -47 38 -72 10z m62 -8 c2 -9 -7 -13 -27 -13 -31 0 -42 14 -18 23
19 8 40 3 45 -10z"/>
<path d="M1443 1904 c-3 -8 4 -25 16 -38 29 -31 26 -39 -11 -31 -25 5 -29 4
-18 -4 26 -19 60 -13 60 9 0 11 -6 23 -14 26 -25 10 -27 34 -3 44 l22 9 -23 0
c-12 1 -25 -6 -29 -15z"/>
<path d="M2484 1906 c1 -8 5 -18 8 -22 4 -3 5 1 4 10 -1 8 -5 18 -8 22 -4 3
-5 -1 -4 -10z"/>
<path d="M2620 1916 c0 -3 5 -8 10 -11 6 -3 10 -4 10 -1 0 3 -4 8 -10 11 -5 3
-10 4 -10 1z"/>
<path d="M3190 1915 c0 -3 2 -5 5 -5 3 0 5 2 5 5 0 3 -2 5 -5 5 -3 0 -5 -2 -5
-5z"/>
<path d="M2420 1905 c0 -3 2 -5 5 -5 3 0 5 2 5 5 0 3 -2 5 -5 5 -3 0 -5 -2 -5
-5z"/>
<path d="M2551 1896 c-1 -11 2 -17 5 -13 3 3 4 12 1 19 -3 8 -6 5 -6 -6z"/>
<path d="M2595 1900 c-3 -5 -4 -10 -1 -10 3 0 8 5 11 10 3 6 4 10 1 10 -3 0
-8 -4 -11 -10z"/>
<path d="M2380 1890 c0 -7 3 -10 7 -7 3 4 3 10 0 14 -4 3 -7 0 -7 -7z"/>
<path d="M2400 1895 c0 -3 2 -5 5 -5 3 0 5 2 5 5 0 3 -2 5 -5 5 -3 0 -5 -2 -5
-5z"/>
<path d="M2570 1895 c0 -3 2 -5 5 -5 3 0 5 2 5 5 0 3 -2 5 -5 5 -3 0 -5 -2 -5
-5z"/>
<path d="M3260 1895 c0 -3 2 -5 5 -5 3 0 5 2 5 5 0 3 -2 5 -5 5 -3 0 -5 -2 -5
-5z"/>
<path d="M1303 1855 c-1 -22 1 -32 4 -23 2 10 2 28 0 40 -2 13 -4 5 -4 -17z"/>
<path d="M2510 1880 c0 -7 3 -10 7 -7 3 4 3 10 0 14 -4 3 -7 0 -7 -7z"/>
<path d="M2610 1885 c0 -3 2 -5 5 -5 3 0 5 2 5 5 0 3 -2 5 -5 5 -3 0 -5 -2 -5
-5z"/>
<path d="M2635 1879 c-4 -6 -5 -12 -2 -15 2 -3 7 2 10 11 7 17 1 20 -8 4z"/>
<path d="M2400 1875 c0 -3 2 -5 5 -5 3 0 5 2 5 5 0 3 -2 5 -5 5 -3 0 -5 -2 -5
-5z"/>
<path d="M2430 1875 c0 -3 2 -5 5 -5 3 0 5 2 5 5 0 3 -2 5 -5 5 -3 0 -5 -2 -5
-5z"/>
<path d="M2470 1875 c0 -3 2 -5 5 -5 3 0 5 2 5 5 0 3 -2 5 -5 5 -3 0 -5 -2 -5
-5z"/>
<path d="M2530 1875 c0 -3 2 -5 5 -5 3 0 5 2 5 5 0 3 -2 5 -5 5 -3 0 -5 -2 -5
-5z"/>
<path d="M2570 1875 c0 -3 2 -5 5 -5 3 0 5 2 5 5 0 3 -2 5 -5 5 -3 0 -5 -2 -5
-5z"/>
<path d="M2490 1865 c0 -3 2 -5 5 -5 3 0 5 2 5 5 0 3 -2 5 -5 5 -3 0 -5 -2 -5
-5z"/>
<path d="M3300 1865 c0 -3 2 -5 5 -5 3 0 5 2 5 5 0 3 -2 5 -5 5 -3 0 -5 -2 -5
-5z"/>
<path d="M2440 1855 c0 -3 2 -5 5 -5 3 0 5 2 5 5 0 3 -2 5 -5 5 -3 0 -5 -2 -5
-5z"/>
<path d="M2491 1834 c13 -17 26 -30 28 -27 3 2 -8 16 -24 31 l-28 27 24 -31z"/>
<path d="M2510 1855 c0 -3 2 -5 5 -5 3 0 5 2 5 5 0 3 -2 5 -5 5 -3 0 -5 -2 -5
-5z"/>
<path d="M2585 1840 c10 -11 20 -20 22 -20 2 0 -2 9 -9 20 -7 11 -17 20 -22
20 -5 0 -1 -9 9 -20z"/>
<path d="M2600 1856 c0 -3 5 -8 10 -11 6 -3 10 -4 10 -1 0 3 -4 8 -10 11 -5 3
-10 4 -10 1z"/>
<path d="M2660 1855 c0 -3 2 -5 5 -5 3 0 5 2 5 5 0 3 -2 5 -5 5 -3 0 -5 -2 -5
-5z"/>
<path d="M3320 1855 c0 -3 2 -5 5 -5 3 0 5 2 5 5 0 3 -2 5 -5 5 -3 0 -5 -2 -5
-5z"/>
<path d="M2410 1845 c0 -3 2 -5 5 -5 3 0 5 2 5 5 0 3 -2 5 -5 5 -3 0 -5 -2 -5
-5z"/>
<path d="M2545 1820 c9 -16 18 -30 21 -30 2 0 -2 14 -11 30 -9 17 -18 30 -21
30 -2 0 2 -13 11 -30z"/>
<path d="M2450 1835 c0 -3 2 -5 5 -5 3 0 5 2 5 5 0 3 -2 5 -5 5 -3 0 -5 -2 -5
-5z"/>
<path d="M2660 1830 c0 -7 3 -10 7 -7 3 4 3 10 0 14 -4 3 -7 0 -7 -7z"/>
<path d="M2627 1813 c5 -11 3 -14 -6 -8 -10 6 -11 3 -2 -14 14 -25 23 -28 14
-4 -5 11 -3 14 6 8 10 -6 11 -3 2 14 -14 25 -23 28 -14 4z"/>
<path d="M2471 1803 c7 -12 15 -20 18 -17 3 2 -3 12 -13 22 -17 16 -18 16 -5
-5z"/>
<path d="M2680 1816 c0 -3 5 -8 10 -11 6 -3 10 -4 10 -1 0 3 -4 8 -10 11 -5 3
-10 4 -10 1z"/>
<path d="M3450 1805 c0 -3 2 -5 5 -5 3 0 5 2 5 5 0 3 -2 5 -5 5 -3 0 -5 -2 -5
-5z"/>
<path d="M2520 1785 c0 -3 2 -5 5 -5 3 0 5 2 5 5 0 3 -2 5 -5 5 -3 0 -5 -2 -5
-5z"/>
<path d="M2590 1785 c0 -3 2 -5 5 -5 3 0 5 2 5 5 0 3 -2 5 -5 5 -3 0 -5 -2 -5
-5z"/>
<path d="M2566 1772 c-3 -5 1 -9 9 -9 8 0 12 4 9 9 -3 4 -7 8 -9 8 -2 0 -6 -4
-9 -8z"/>
<path d="M2650 1776 c0 -3 5 -8 10 -11 6 -3 10 -4 10 -1 0 3 -4 8 -10 11 -5 3
-10 4 -10 1z"/>
<path d="M2410 1765 c0 -3 2 -5 5 -5 3 0 5 2 5 5 0 3 -2 5 -5 5 -3 0 -5 -2 -5
-5z"/>
<path d="M2536 1757 c3 -10 9 -15 12 -12 3 3 0 11 -7 18 -10 9 -11 8 -5 -6z"/>
<path d="M1002 1700 c-2 -66 12 -110 37 -118 9 -3 11 0 6 8 -5 9 -2 10 13 6
24 -8 62 9 62 26 0 6 -8 4 -19 -6 -20 -18 -46 -13 -55 10 -4 10 3 14 24 14 23
0 30 4 30 20 0 29 -27 36 -51 14 -16 -14 -19 -26 -15 -48 5 -24 4 -28 -6 -18
-6 6 -15 44 -18 84 l-7 73 -1 -65z m88 -41 c0 -5 -10 -9 -21 -9 -18 0 -19 2
-9 15 12 15 30 12 30 -6z"/>
<path d="M2640 1755 c0 -3 2 -5 5 -5 3 0 5 2 5 5 0 3 -2 5 -5 5 -3 0 -5 -2 -5
-5z"/>
<path d="M896 1728 c-19 -27 -21 -69 -4 -86 20 -20 88 -12 88 10 0 6 -6 6 -14
-2 -20 -16 -56 -9 -70 13 -16 25 12 70 49 78 l30 7 -32 1 c-22 1 -36 -6 -47
-21z"/>
<path d="M2580 1745 c0 -3 2 -5 5 -5 3 0 5 2 5 5 0 3 -2 5 -5 5 -3 0 -5 -2 -5
-5z"/>
<path d="M2600 1745 c0 -3 2 -5 5 -5 3 0 5 2 5 5 0 3 -2 5 -5 5 -3 0 -5 -2 -5
-5z"/>
<path d="M2655 1741 c-3 -5 -2 -12 3 -15 5 -3 9 1 9 9 0 17 -3 19 -12 6z"/>
<path d="M2680 1745 c0 -3 2 -5 5 -5 3 0 5 2 5 5 0 3 -2 5 -5 5 -3 0 -5 -2 -5
-5z"/>
<path d="M2720 1735 c0 -3 2 -5 5 -5 3 0 5 2 5 5 0 3 -2 5 -5 5 -3 0 -5 -2 -5
-5z"/>
<path d="M1166 1713 c-35 -18 -28 -28 8 -11 23 10 29 9 37 -3 22 -34 -17 -117
-43 -91 -17 17 3 48 28 44 16 -3 17 -1 6 9 -19 20 -47 -2 -47 -37 0 -22 5 -30
21 -32 11 -2 26 4 33 12 7 8 18 13 26 10 7 -3 16 0 20 6 3 6 1 9 -7 8 -7 -2
-14 8 -16 22 -9 75 -21 87 -66 63z"/>
<path d="M1285 1722 c-3 -3 -4 -28 -3 -56 l1 -51 6 45 c4 32 11 46 24 48 14 3
17 -4 17 -39 0 -26 4 -39 9 -33 5 5 6 27 2 49 -5 32 -11 40 -28 41 -13 1 -25
-1 -28 -4z"/>
<path d="M2680 1725 c0 -3 2 -5 5 -5 3 0 5 2 5 5 0 3 -2 5 -5 5 -3 0 -5 -2 -5
-5z"/>
<path d="M2700 1725 c0 -3 2 -5 5 -5 3 0 5 2 5 5 0 3 -2 5 -5 5 -3 0 -5 -2 -5
-5z"/>
<path d="M2620 1715 c0 -3 2 -5 5 -5 3 0 5 2 5 5 0 3 -2 5 -5 5 -3 0 -5 -2 -5
-5z"/>
<path d="M2720 1715 c0 -3 2 -5 5 -5 3 0 5 2 5 5 0 3 -2 5 -5 5 -3 0 -5 -2 -5
-5z"/>
<path d="M2670 1705 c0 -3 2 -5 5 -5 3 0 5 2 5 5 0 3 -2 5 -5 5 -3 0 -5 -2 -5
-5z"/>
<path d="M2690 1705 c0 -3 2 -5 5 -5 3 0 5 2 5 5 0 3 -2 5 -5 5 -3 0 -5 -2 -5
-5z"/>
<path d="M2640 1690 c0 -7 3 -10 7 -7 3 4 3 10 0 14 -4 3 -7 0 -7 -7z"/>
<path d="M2740 1695 c0 -3 2 -5 5 -5 3 0 5 2 5 5 0 3 -2 5 -5 5 -3 0 -5 -2 -5
-5z"/>
<path d="M2680 1685 c0 -3 2 -5 5 -5 3 0 5 2 5 5 0 3 -2 5 -5 5 -3 0 -5 -2 -5
-5z"/>
<path d="M2700 1685 c0 -3 2 -5 5 -5 3 0 5 2 5 5 0 3 -2 5 -5 5 -3 0 -5 -2 -5
-5z"/>
<path d="M2620 1675 c0 -3 2 -5 5 -5 3 0 5 2 5 5 0 3 -2 5 -5 5 -3 0 -5 -2 -5
-5z"/>
<path d="M2760 1676 c0 -3 5 -8 10 -11 6 -3 10 -4 10 -1 0 3 -4 8 -10 11 -5 3
-10 4 -10 1z"/>
<path d="M2710 1665 c0 -3 2 -5 5 -5 3 0 5 2 5 5 0 3 -2 5 -5 5 -3 0 -5 -2 -5
-5z"/>
<path d="M2740 1655 c0 -3 2 -5 5 -5 3 0 5 2 5 5 0 3 -2 5 -5 5 -3 0 -5 -2 -5
-5z"/>
<path d="M2720 1645 c0 -3 2 -5 5 -5 3 0 5 2 5 5 0 3 -2 5 -5 5 -3 0 -5 -2 -5
-5z"/>
<path d="M903 1480 c0 -47 2 -75 4 -62 2 12 11 22 18 22 7 0 16 -10 18 -22 4
-16 5 -13 4 7 -1 19 -7 30 -17 30 -11 0 -17 15 -21 55 -5 47 -6 43 -6 -30z"/>
<path d="M1252 1534 c-15 -10 -22 -26 -22 -49 0 -18 -3 -35 -7 -37 -5 -1 -5
-21 -2 -43 l6 -40 2 38 c1 34 4 37 29 37 21 0 32 -7 40 -25 6 -14 16 -25 22
-25 6 0 4 10 -5 24 -15 23 -15 23 22 30 60 9 83 7 83 -8 0 -9 -12 -16 -32 -18
-21 -2 -33 -8 -33 -18 0 -11 14 -15 55 -17 30 -1 47 1 38 4 -12 3 -18 14 -18
34 0 24 4 29 25 29 31 0 40 -30 31 -111 -3 -32 -2 -59 3 -59 5 0 9 6 8 13 0 6
1 37 1 69 2 53 3 57 35 69 17 7 43 12 57 11 24 -1 24 -1 4 9 -12 6 -27 22 -33
35 -11 25 -27 30 -51 14 -12 -7 -18 -2 -27 23 -12 31 -12 30 -7 -15 6 -48 6
-48 -24 -48 -27 0 -30 4 -36 40 -4 24 -12 40 -20 40 -17 0 -59 -67 -51 -81 4
-5 -5 -9 -19 -9 -24 0 -25 2 -21 48 l4 47 -10 -47 c-10 -43 -14 -48 -38 -47
-25 0 -25 0 -3 9 27 12 29 24 2 15 -28 -9 -27 29 2 49 12 9 20 18 17 21 -3 2
-15 -2 -27 -11z m158 -51 c0 -19 -5 -23 -31 -23 -31 0 -31 0 -1 48 17 26 32
14 32 -25z m138 -6 c3 -13 -4 -17 -29 -17 -32 0 -32 0 -14 20 21 23 38 22 43
-3z m-8 -31 c0 -9 -40 -13 -46 -5 -3 5 6 9 20 9 14 0 26 -2 26 -4z m-130 -46
c0 -5 -12 -10 -26 -10 -14 0 -23 4 -19 10 3 6 15 10 26 10 10 0 19 -4 19 -10z"/>
<path d="M813 1493 c13 -3 17 -15 17 -48 0 -24 3 -46 8 -48 4 -3 5 17 4 43 -3
40 -1 49 15 53 10 3 0 5 -22 5 -22 0 -32 -2 -22 -5z"/>
<path d="M1008 1469 c-25 -14 -23 -56 3 -69 23 -13 69 -5 69 11 0 6 -7 6 -20
-1 -14 -7 -26 -8 -38 -1 -15 9 -15 10 -1 11 27 0 44 27 29 45 -15 17 -19 18
-42 4z m32 -19 c0 -12 -28 -25 -36 -17 -9 9 6 27 22 27 8 0 14 -5 14 -10z"/>
<path d="M4150 1415 c13 -14 26 -25 28 -25 3 0 -5 11 -18 25 -13 14 -26 25
-28 25 -3 0 5 -11 18 -25z"/>
<path d="M4205 1370 c10 -11 20 -20 23 -20 3 0 -3 9 -13 20 -10 11 -20 20 -23
20 -3 0 3 -9 13 -20z"/>
<path d="M4410 1375 c0 -3 2 -5 5 -5 3 0 5 2 5 5 0 3 -2 5 -5 5 -3 0 -5 -2 -5
-5z"/>
<path d="M4385 1363 c6 -5 39 -33 75 -62 l65 -53 -55 51 c-30 29 -64 57 -75
63 -11 6 -15 6 -10 1z"/>
<path d="M4445 1350 c10 -11 20 -20 23 -20 3 0 -3 9 -13 20 -10 11 -20 20 -23
20 -3 0 3 -9 13 -20z"/>
<path d="M4240 1349 c0 -3 18 -23 40 -44 22 -21 40 -37 40 -34 0 3 -18 23 -40
44 -22 21 -40 37 -40 34z"/>
<path d="M4480 1326 c0 -3 5 -8 10 -11 6 -3 10 -4 10 -1 0 3 -4 8 -10 11 -5 3
-10 4 -10 1z"/>
<path d="M4523 1292 c10 -11 55 -45 100 -76 45 -31 98 -68 116 -84 19 -15 32
-21 27 -14 -11 18 2 15 40 -9 19 -11 34 -18 34 -16 0 7 -125 83 -125 77 0 -3
-7 1 -15 8 -34 29 -193 132 -177 114z m237 -159 c0 -7 -39 17 -46 28 -3 6 5 3
20 -6 14 -10 26 -19 26 -22z"/>
<path d="M1007 1222 c-8 -76 -17 -94 -29 -62 -8 22 -9 23 -23 4 -16 -22 -16
-21 -41 63 -13 46 -14 47 -8 8 7 -55 26 -115 35 -115 4 0 11 10 15 23 7 20 8
20 19 -12 6 -19 14 -31 17 -25 12 20 30 120 26 149 -2 20 -6 9 -11 -33z"/>
<path d="M4730 1276 c0 -2 7 -7 16 -10 8 -3 12 -2 9 4 -6 10 -25 14 -25 6z"/>
<path d="M1123 1190 c0 -74 1 -78 6 -31 8 76 29 78 34 4 l4 -58 -1 65 c-1 51
-4 65 -16 65 -8 0 -18 9 -22 20 -3 11 -6 -18 -5 -65z"/>
<path d="M4325 1259 c-5 -8 -4 -10 3 -5 7 4 12 3 12 -2 0 -5 35 -38 78 -73 69
-57 177 -148 257 -218 17 -14 30 -24 30 -21 0 2 22 -18 48 -46 27 -27 45 -40
41 -29 -7 18 -6 18 9 6 9 -7 15 -16 12 -20 -2 -4 9 -20 26 -35 21 -20 27 -23
22 -9 -6 16 -5 16 10 4 9 -7 15 -17 12 -21 -2 -4 6 -17 19 -29 16 -16 26 -19
31 -11 4 6 4 14 1 17 -3 4 -6 1 -6 -6 0 -7 -5 -9 -10 -6 -6 4 -8 10 -6 14 3 4
-8 21 -24 36 -17 16 -30 25 -30 22 0 -4 -14 8 -31 28 -18 20 -34 33 -37 31 -2
-3 -14 6 -24 20 -11 14 -22 23 -25 21 -2 -3 -16 7 -31 22 -15 14 -85 73 -156
131 -151 123 -142 116 -188 158 -26 24 -38 30 -43 21z m385 -314 c0 -3 -2 -5
-5 -5 -3 0 -5 2 -5 5 0 3 2 5 5 5 3 0 5 -2 5 -5z m50 -40 c7 -8 10 -15 7 -15
-2 0 -10 7 -17 15 -7 8 -10 15 -7 15 2 0 10 -7 17 -15z m80 -71 c0 -3 -4 -2
-10 1 -5 3 -10 8 -10 11 0 3 5 2 10 -1 6 -3 10 -8 10 -11z m70 -60 c0 -3 -4
-2 -10 1 -5 3 -10 8 -10 11 0 3 5 2 10 -1 6 -3 10 -8 10 -11z"/>
<path d="M1070 1255 c0 -3 2 -5 5 -5 3 0 5 2 5 5 0 3 -2 5 -5 5 -3 0 -5 -2 -5
-5z"/>
<path d="M4780 1245 c7 -8 15 -15 17 -15 3 0 0 7 -7 15 -7 8 -15 15 -17 15 -3
0 0 -7 7 -15z"/>
<path d="M4530 1249 c0 -3 18 -23 40 -44 22 -21 40 -37 40 -34 0 3 -18 23 -40
44 -22 21 -40 37 -40 34z"/>
<path d="M1252 1228 c-7 -7 -12 -22 -12 -34 0 -13 -4 -26 -10 -29 -13 -8 -13
-62 1 -70 5 -4 21 -4 35 -1 17 5 24 13 24 31 0 13 -4 27 -10 30 -15 9 -12 25
5 25 9 0 15 9 15 25 0 14 -2 25 -4 25 -2 0 -10 2 -18 5 -7 3 -19 0 -26 -7z
m38 -24 c0 -8 -9 -14 -20 -14 -22 0 -26 10 -8 28 13 13 28 7 28 -14z m-20 -59
c15 -18 6 -45 -15 -45 -18 0 -30 24 -21 45 7 19 20 19 36 0z"/>
<path d="M4730 1215 c13 -14 26 -25 28 -25 3 0 -5 11 -18 25 -13 14 -26 25
-28 25 -3 0 5 -11 18 -25z"/>
<path d="M1343 1223 c-20 -7 -15 -33 9 -52 25 -21 16 -45 -15 -37 -14 3 -17 2
-10 -5 17 -17 48 -6 51 18 2 13 -5 27 -20 37 -24 17 -18 30 17 39 l20 5 -20 0
c-11 0 -26 -2 -32 -5z"/>
<path d="M4810 1226 c0 -3 5 -8 10 -11 6 -3 10 -4 10 -1 0 3 -4 8 -10 11 -5 3
-10 4 -10 1z"/>
<path d="M1073 1165 c0 -33 2 -48 4 -33 2 15 2 42 0 60 -2 18 -4 6 -4 -27z"/>
<path d="M4855 1190 c10 -11 20 -20 23 -20 3 0 -3 9 -13 20 -10 11 -20 20 -23
20 -3 0 3 -9 13 -20z"/>
<path d="M4770 1180 c0 -7 3 -10 7 -7 3 4 3 10 0 14 -4 3 -7 0 -7 -7z"/>
<path d="M4620 1169 c0 -3 14 -18 30 -34 17 -16 30 -26 30 -24 0 3 -13 18 -30
34 -16 16 -30 26 -30 24z"/>
<path d="M4790 1166 c0 -3 5 -8 10 -11 6 -3 10 -4 10 -1 0 3 -4 8 -10 11 -5 3
-10 4 -10 1z"/>
<path d="M4905 1150 c10 -11 20 -20 23 -20 3 0 -3 9 -13 20 -10 11 -20 20 -23
20 -3 0 3 -9 13 -20z"/>
<path d="M4820 1149 c0 -3 14 -18 30 -34 17 -16 30 -26 30 -24 0 3 -13 18 -30
34 -16 16 -30 26 -30 24z"/>
<path d="M4955 1110 c10 -11 20 -20 23 -20 3 0 -3 9 -13 20 -10 11 -20 20 -23
20 -3 0 3 -9 13 -20z"/>
<path d="M4690 1109 c0 -3 14 -18 30 -34 17 -16 30 -26 30 -24 0 3 -13 18 -30
34 -16 16 -30 26 -30 24z"/>
<path d="M4780 1106 c0 -3 28 -26 63 -52 34 -26 56 -40 48 -31 -14 18 -111 90
-111 83z"/>
<path d="M4354 1084 c4 -27 432 -382 445 -369 3 4 -3 11 -13 17 -10 6 -35 25
-55 42 -20 18 -58 49 -85 69 -27 20 -46 37 -42 37 4 0 -36 34 -88 76 -53 41
-96 77 -96 79 0 3 8 2 18 -2 9 -3 5 4 -10 16 -16 13 -33 19 -40 15 -7 -4 -10
-4 -6 1 8 9 -9 35 -22 35 -5 0 -7 -7 -6 -16z"/>
<path d="M4850 1086 c0 -3 5 -8 10 -11 6 -3 10 -4 10 -1 0 3 -4 8 -10 11 -5 3
-10 4 -10 1z"/>
<path d="M4887 1076 c-3 -9 4 -21 19 -30 13 -9 24 -14 24 -12 0 3 36 -29 80
-71 86 -81 101 -110 26 -48 -26 21 -46 35 -46 32 0 -2 33 -31 73 -62 39 -32
95 -81 124 -108 29 -28 60 -52 69 -53 9 -1 30 -15 47 -31 16 -15 27 -23 23
-16 -4 7 -41 41 -84 75 -79 65 -197 184 -197 199 0 5 -2 8 -5 8 -3 -1 -32 23
-65 53 -32 31 -65 54 -72 51 -9 -4 -11 0 -7 11 3 9 4 16 1 16 -3 0 -7 -6 -10
-14z m43 -32 c0 -3 -4 -2 -10 1 -5 3 -10 8 -10 11 0 3 5 2 10 -1 6 -3 10 -8
10 -11z m110 -89 c0 -3 -2 -5 -5 -5 -3 0 -5 2 -5 5 0 3 2 5 5 5 3 0 5 -2 5 -5z
m75 -95 c10 -11 16 -20 13 -20 -3 0 -13 9 -23 20 -10 11 -16 20 -13 20 3 0 13
-9 23 -20z m125 -115 c7 -8 10 -15 7 -15 -2 0 -10 7 -17 15 -7 8 -10 15 -7 15
2 0 10 -7 17 -15z"/>
<path d="M4990 1089 c0 -3 14 -18 30 -34 17 -16 30 -26 30 -24 0 3 -13 18 -30
34 -16 16 -30 26 -30 24z"/>
<path d="M4760 1049 c0 -3 14 -18 30 -34 17 -16 30 -26 30 -24 0 3 -13 18 -30
34 -16 16 -30 26 -30 24z"/>
<path d="M5060 1029 c0 -3 14 -18 30 -34 17 -16 30 -26 30 -24 0 3 -13 18 -30
34 -16 16 -30 26 -30 24z"/>
<path d="M4910 1006 c0 -3 5 -8 10 -11 6 -3 10 -4 10 -1 0 3 -4 8 -10 11 -5 3
-10 4 -10 1z"/>
<path d="M4830 988 c0 -3 46 -44 103 -92 56 -48 79 -66 51 -39 -58 56 -154
137 -154 131z"/>
<path d="M4955 970 c10 -11 20 -20 23 -20 3 0 -3 9 -13 20 -10 11 -20 20 -23
20 -3 0 3 -9 13 -20z"/>
<path d="M5130 969 c0 -3 18 -23 40 -44 22 -21 40 -37 40 -34 0 3 -18 23 -40
44 -22 21 -40 37 -40 34z"/>
<path d="M5060 946 c0 -3 5 -8 10 -11 6 -3 10 -4 10 -1 0 3 -4 8 -10 11 -5 3
-10 4 -10 1z"/>
<path d="M5090 926 c0 -3 5 -8 10 -11 6 -3 10 -4 10 -1 0 3 -4 8 -10 11 -5 3
-10 4 -10 1z"/>
<path d="M5120 906 c0 -3 5 -8 10 -11 6 -3 10 -4 10 -1 0 3 -4 8 -10 11 -5 3
-10 4 -10 1z"/>
<path d="M5150 886 c0 -3 5 -8 10 -11 6 -3 10 -4 10 -1 0 3 -4 8 -10 11 -5 3
-10 4 -10 1z"/>
<path d="M5263 844 c26 -27 45 -53 42 -56 -4 -3 -2 -8 3 -12 5 -3 9 1 9 9 0 8
-23 36 -51 62 l-51 48 48 -51z"/>
<path d="M5180 867 c0 -3 12 -12 26 -22 15 -9 23 -12 20 -6 -7 11 -46 35 -46
28z"/>
<path d="M5240 826 c0 -3 5 -8 10 -11 6 -3 10 -4 10 -1 0 3 -4 8 -10 11 -5 3
-10 4 -10 1z"/>
<path d="M5040 809 c0 -3 14 -18 30 -34 17 -16 30 -26 30 -24 0 3 -13 18 -30
34 -16 16 -30 26 -30 24z"/>
<path d="M5270 806 c0 -3 5 -8 10 -11 6 -3 10 -4 10 -1 0 3 -4 8 -10 11 -5 3
-10 4 -10 1z"/>
<path d="M5331 779 c0 -9 8 -24 19 -34 11 -10 20 -15 20 -12 0 4 25 -19 56
-51 32 -31 44 -41 28 -21 -60 72 -97 108 -105 104 -4 -3 -10 3 -12 12 -4 15
-5 15 -6 2z m39 -35 c0 -3 -4 -2 -10 1 -5 3 -10 8 -10 11 0 3 5 2 10 -1 6 -3
10 -8 10 -11z"/>
<path d="M4950 749 c0 -3 14 -18 30 -34 17 -16 30 -26 30 -24 0 3 -13 18 -30
34 -16 16 -30 26 -30 24z"/>
<path d="M5110 749 c0 -3 14 -18 30 -34 17 -16 30 -26 30 -24 0 3 -13 18 -30
34 -16 16 -30 26 -30 24z"/>
<path d="M5301 650 c30 -36 78 -98 107 -138 30 -39 56 -72 59 -72 11 0 -166
227 -198 255 -12 11 2 -9 32 -45z"/>
<path d="M5020 689 c0 -3 23 -27 50 -54 28 -27 50 -47 50 -44 0 3 -22 27 -50
54 -27 27 -50 47 -50 44z"/>
<path d="M5180 689 c0 -3 14 -18 30 -34 17 -16 30 -26 30 -24 0 3 -13 18 -30
34 -16 16 -30 26 -30 24z"/>
<path d="M5340 669 c0 -3 14 -18 30 -34 17 -16 30 -26 30 -24 0 3 -13 18 -30
34 -16 16 -30 26 -30 24z"/>
<path d="M5265 610 c10 -11 20 -20 23 -20 3 0 -3 9 -13 20 -10 11 -20 20 -23
20 -3 0 3 -9 13 -20z"/>
<path d="M5450 565 c24 -25 46 -45 49 -45 3 0 -15 20 -39 45 -24 25 -46 45
-49 45 -3 0 15 -20 39 -45z"/>
<path d="M5160 555 c19 -19 36 -35 39 -35 3 0 -10 16 -29 35 -19 19 -36 35
-39 35 -3 0 10 -16 29 -35z"/>
<path d="M5230 475 c19 -19 36 -35 39 -35 3 0 -10 16 -29 35 -19 19 -36 35
-39 35 -3 0 10 -16 29 -35z"/>
<path d="M5270 425 c0 -3 2 -5 5 -5 3 0 5 2 5 5 0 3 -2 5 -5 5 -3 0 -5 -2 -5
-5z"/>
<path d="M5470 426 c0 -3 5 -8 10 -11 6 -3 10 -4 10 -1 0 3 -4 8 -10 11 -5 3
-10 4 -10 1z"/>
</g>
</svg>
