<?xml version="1.0" encoding="UTF-8" standalone="no"?>
<!-- Created with Inkscape (http://www.inkscape.org/) -->

<svg
   xmlns:dc="http://purl.org/dc/elements/1.1/"
   xmlns:cc="http://creativecommons.org/ns#"
   xmlns:rdf="http://www.w3.org/1999/02/22-rdf-syntax-ns#"
   xmlns:svg="http://www.w3.org/2000/svg"
   xmlns="http://www.w3.org/2000/svg"
   xmlns:sodipodi="http://sodipodi.sourceforge.net/DTD/sodipodi-0.dtd"
   xmlns:inkscape="http://www.inkscape.org/namespaces/inkscape"
   width="227.48767mm"
   height="143.56197mm"
   viewBox="0 0 227.48767 143.56197"
   version="1.1"
   id="svg8"
   inkscape:version="0.92.1 r15371"
   sodipodi:docname="Whalianhouse.svg">
  <defs
     id="defs2" />
  <sodipodi:namedview
     id="base"
     pagecolor="#ffffff"
     bordercolor="#666666"
     borderopacity="1.0"
     inkscape:pageopacity="0.0"
     inkscape:pageshadow="2"
     inkscape:zoom="0.35"
     inkscape:cx="332.94567"
     inkscape:cy="186.89097"
     inkscape:document-units="mm"
     inkscape:current-layer="layer3"
     showgrid="false"
     fit-margin-top="0"
     fit-margin-left="0"
     fit-margin-right="0"
     fit-margin-bottom="0"
     inkscape:window-width="1024"
     inkscape:window-height="714"
     inkscape:window-x="-4"
     inkscape:window-y="1"
     inkscape:window-maximized="1" />
  <metadata
     id="metadata5">
    <rdf:RDF>
      <cc:Work
         rdf:about="">
        <dc:format>image/svg+xml</dc:format>
        <dc:type
           rdf:resource="http://purl.org/dc/dcmitype/StillImage" />
        <dc:title />
      </cc:Work>
    </rdf:RDF>
  </metadata>
  <g
     inkscape:groupmode="layer"
     id="layer3"
     inkscape:label="Layer 2">
    <rect
       style="opacity:0.98000004;fill:#ffffff;fill-opacity:0.27522936;stroke-width:0.1;stroke-miterlimit:4;stroke-dasharray:none"
       id="rect8357"
       width="229.05357"
       height="145.14285"
       x="-0.75595242"
       y="-0.068985485" />
  </g>
  <g
     inkscape:label="Layer 1"
     inkscape:groupmode="layer"
     id="layer1"
     transform="translate(-20.535866,-90.682839)">
    <path
       id="path16"
       d="m 50.339593,199.23502 c -0.674841,0.24436 -1.34642,0.50223 -2.020914,0.74934 -1.364605,0.5341 -2.74787,1.01733 -4.12146,1.52715 -1.794933,0.68135 -3.598743,1.33877 -5.39284,2.02236 -0.917337,0.34123 -1.828488,0.69868 -2.742102,1.04968 0,0 1.704292,-1.13239 1.704292,-1.13239 v 0 c 0.912447,-0.35048 1.823347,-0.70507 2.739088,-1.04691 1.799106,-0.68381 3.606652,-1.34501 5.405792,-2.02873 1.382811,-0.5108 2.770362,-1.0083 4.144582,-1.5422 0.689028,-0.25607 1.370589,-0.54717 2.077725,-0.74709 0,0 -1.794163,1.14879 -1.794163,1.14879 z"
       inkscape:connector-curvature="0"
       style="stroke-width:0.26458332" />
    <path
       id="path20"
       d="m 38.583676,204.01267 c -0.340714,-0.022 -0.67433,0.0183 -1.005914,0.0946 -0.527261,0.10236 -1.037873,0.26855 -1.559224,0.39643 -0.607372,0.17267 -1.201089,0.38496 -1.801391,0.57962 -0.659088,0.2366 -1.298488,0.51926 -1.936057,0.80736 3.344108,-1.56469 0.607361,-0.25893 -0.153088,0.1238 -0.697979,0.3713 -1.396331,0.74027 -2.101165,1.09853 -0.118208,0.0601 -0.236416,0.12021 -0.354624,0.18031 0,0 -2.016834,0.58534 -2.016834,0.58534 v 0 c 0.118319,-0.0596 0.236641,-0.1192 0.35496,-0.1788 0.700522,-0.36593 1.410264,-0.71356 2.100681,-1.09874 1.283007,-0.67139 2.621343,-1.23579 3.915103,-1.88438 0.639889,-0.28869 1.286854,-0.56219 1.951132,-0.79055 0.600657,-0.20055 1.200113,-0.40495 1.812198,-0.5689 0.522615,-0.13579 1.039458,-0.2953 1.571776,-0.39081 0.345223,-0.056 0.690512,-0.0777 1.040357,-0.0678 0,0 -1.81791,1.11401 -1.81791,1.11401 z"
       inkscape:connector-curvature="0"
       style="stroke-width:0.26458332" />
    <path
       id="path22"
       d="m 22.353776,210.3822 c 0.767868,0.009 1.535799,0.0116 2.303702,0.0162 3.041939,0.0178 6.083914,0.0277 9.125889,0.0365 6.708786,0.0167 13.41755,0.0405 20.126336,0.0577 10.763067,0.0215 21.526158,0.0281 32.289241,0.0337 11.574823,0.006 23.149646,0.003 34.724466,-0.009 7.84538,-0.009 15.69075,-0.0202 23.53613,-0.0315 0,0 -1.48038,0.90717 -1.48038,0.90717 v 0 c -7.81111,-0.0113 -15.62222,-0.0229 -23.43334,-0.0315 -11.5648,-0.012 -23.129601,-0.0154 -34.694406,-0.009 -10.799784,0.006 -21.599575,0.0123 -32.39934,0.0337 -6.771558,0.0172 -13.543095,0.041 -20.31465,0.0577 -3.081663,0.009 -6.163324,0.0188 -9.244949,0.0365 -0.785539,0.005 -1.571104,0.007 -2.356609,0.0162 0,0 1.81791,-1.11402 1.81791,-1.11402 z"
       inkscape:connector-curvature="0"
       style="stroke-width:0.26458332" />
    <path
       id="path24"
       d="m 27.714337,209.31352 c 0.660471,0.007 1.320985,0.009 1.98148,0.012 2.897031,0.0175 5.794073,0.0329 8.691131,0.0455 6.990622,0.0285 13.981308,0.0352 20.971978,0.0419 8.824558,0.007 17.649118,0.0125 26.473679,0.0128 8.325038,5.3e-4 16.650065,-0.0103 24.975095,-0.0213 6.19056,-0.008 12.38113,-0.0171 18.5717,-0.0255 4.53056,-0.006 9.06113,-0.012 13.59169,-0.0175 3.40979,-0.004 6.81958,-0.009 10.22937,-0.0114 2.84758,-0.002 5.69517,-0.003 8.54276,-0.005 2.55428,-0.002 5.10856,-0.002 7.66283,-0.003 2.33081,-0.001 4.66162,-0.002 6.99243,-0.003 2.12067,0.0193 4.24027,-0.015 6.3601,-0.0694 1.92196,-0.0328 3.84155,-0.11523 5.76075,-0.21942 1.65294,-0.093 3.30632,-0.17746 4.96006,-0.25487 1.46325,-0.068 2.92701,-0.1242 4.39092,-0.17583 1.33512,-0.0466 2.67052,-0.0842 4.006,-0.11858 0.8401,-0.0214 1.68027,-0.0394 2.52046,-0.0567 0,0 -1.77013,1.08976 -1.77013,1.08976 v 0 c -0.8393,0.0172 -1.67858,0.035 -2.51779,0.0563 -1.33366,0.0341 -2.66725,0.0713 -4.00056,0.11752 -1.4613,0.0511 -2.92246,0.10662 -4.38313,0.17378 -1.65026,0.0764 -3.30015,0.15978 -4.9497,0.2501 -1.91649,0.10047 -3.83357,0.17386 -5.75254,0.20761 -2.11865,0.053 -4.23721,0.0802 -6.35661,0.0613 -2.32723,-8e-4 -4.65447,-0.002 -6.9817,-0.003 -2.55139,-5.3e-4 -5.10277,-0.001 -7.65415,-0.003 -2.84263,-0.002 -5.68525,-0.002 -8.52788,-0.005 -3.39732,-0.003 -6.79464,-0.007 -10.19197,-0.0114 -4.51146,-0.006 -9.02293,-0.0114 -13.5344,-0.0176 -6.16286,-0.008 -12.32573,-0.017 -18.48859,-0.0255 -8.30186,-0.011 -16.60372,-0.0217 -24.905583,-0.0213 -8.83844,2.1e-4 -17.676878,0.005 -26.515316,0.0128 -7.036234,0.007 -14.072481,0.0135 -21.108667,0.0419 -2.94659,0.0127 -5.893162,0.0281 -8.839726,0.0455 -0.67354,0.003 -1.347095,0.005 -2.020611,0.012 0,0 1.81662,-1.11323 1.81662,-1.11323 z"
       inkscape:connector-curvature="0"
       style="stroke-width:0.26458332" />
    <path
       id="path28"
       d="m 33.5799,205.31601 c -0.26281,0.15313 -0.509852,0.3304 -0.758698,0.50517 -1.020492,0.67197 -2.19864,1.12895 -3.293393,1.6363 -0.682,0.27203 -2.032973,0.87171 1.008563,-0.4873 0.0992,-0.0443 -0.193995,0.098 -0.289687,0.14943 -0.170953,0.0919 -0.402058,0.2274 -0.569659,0.32437 -1.246177,0.67424 -2.52695,1.29261 -3.838254,1.82921 -0.370425,0.13163 -0.730542,0.28948 -1.094729,0.43705 0,0 1.747236,-1.16577 1.747236,-1.16577 v 0 c 0.363918,-0.14834 0.727451,-0.29771 1.094081,-0.43928 0.844764,-0.36179 0.606073,-0.26437 -1.182532,0.56981 -0.911603,0.42516 2.169272,-1.0221 1.254486,-0.63259 1.163076,-0.6724 2.372357,-1.26081 3.620799,-1.76108 -3.249401,1.52659 -1.189906,0.60514 -0.482598,0.161 0.242676,-0.17548 0.481799,-0.36591 0.743461,-0.50744 0,0 2.040924,-0.61888 2.040924,-0.61888 z"
       inkscape:connector-curvature="0"
       style="stroke-width:0.26458332" />
    <path
       id="path32"
       d="m 63.538205,198.20836 c 0.371959,0.35002 0.813721,0.59975 1.264378,0.83281 0.888603,0.42934 1.824794,0.74067 2.750907,1.0761 1.238686,0.44541 2.483689,0.87199 3.7446,1.25021 1.461733,0.46669 2.950028,0.83608 4.447453,1.16682 1.641059,0.36064 3.279232,0.73405 4.918289,1.10373 1.754928,0.39833 3.520292,0.74645 5.282113,1.11197 1.733004,0.37128 3.478948,0.67452 5.22882,0.95346 1.710137,0.27071 3.429254,0.4766 5.150741,0.65889 1.823519,0.18863 3.651904,0.32354 5.480874,0.4459 1.88737,0.12524 3.7767,0.21696 5.6663,0.30064 1.9903,0.0868 3.98159,0.14796 5.97295,0.204 1.96502,0.054 3.93033,0.0963 5.8957,0.13543 1.95636,0.0386 3.91291,0.0669 5.86947,0.0932 2.05118,0.051 4.10123,-0.038 6.14997,-0.12562 2.0856,-0.0726 4.16892,-0.18467 6.25212,-0.30621 1.97483,-0.13609 3.94627,-0.31232 5.91161,-0.54877 1.87544,-0.2209 3.73729,-0.53814 5.60197,-0.83294 1.85015,-0.28674 3.68426,-0.65972 5.51249,-1.06079 1.85398,-0.42369 3.68457,-0.94057 5.51784,-1.44431 1.85907,-0.51833 3.70011,-1.09808 5.55281,-1.63833 1.72533,-0.52246 3.44193,-1.07468 5.14846,-1.6557 1.5363,-0.52215 3.07676,-1.03217 4.61123,-1.55969 1.38605,-0.48453 2.73145,-1.07317 4.08906,-1.62988 0.99866,-0.40353 1.99946,-0.80338 2.99001,-1.22658 0,0 -1.72808,1.15659 -1.72808,1.15659 v 0 c -0.99125,0.41562 -1.9877,0.81917 -2.9848,1.2205 -1.35515,0.55839 -2.7028,1.13781 -4.08956,1.61527 -1.53315,0.5224 -3.06959,1.03511 -4.60391,1.55409 -1.70679,0.57536 -3.42135,1.12886 -5.14718,1.64447 -1.85174,0.54206 -3.69309,1.11968 -5.55277,1.63446 -1.83489,0.50583 -3.66899,1.01835 -5.52636,1.43674 -1.83033,0.39753 -3.66664,0.76575 -5.51839,1.05052 -1.86509,0.29605 -3.7284,0.60827 -5.60489,0.82534 -1.96531,0.22991 -3.93626,0.4039 -5.91076,0.53382 -2.08404,0.12148 -4.16847,0.22905 -6.25479,0.30411 -2.05175,0.087 -4.1048,0.1683 -6.15887,0.11777 -1.95795,-0.0247 -3.91582,-0.0546 -5.87355,-0.0924 -1.96408,-0.0401 -3.92808,-0.0846 -5.8918,-0.13973 -1.99358,-0.0563 -3.9871,-0.11714 -5.97963,-0.20382 -1.89087,-0.0844 -3.78151,-0.17658 -5.67006,-0.30378 -1.831957,-0.12336 -3.663331,-0.25938 -5.489732,-0.44989 -1.723919,-0.18415 -3.445367,-0.39249 -5.157467,-0.66763 -1.750481,-0.28337 -3.496998,-0.59046 -5.23108,-0.96282 -1.763527,-0.36414 -3.529086,-0.71811 -5.285959,-1.11391 -1.640943,-0.3697 -3.28191,-0.73907 -4.924989,-1.09911 -1.501566,-0.33588 -2.99322,-0.71172 -4.460766,-1.17669 -1.265515,-0.38224 -2.517005,-0.80754 -3.761621,-1.25303 -0.938707,-0.33419 -1.885537,-0.65132 -2.781734,-1.09175 -0.468934,-0.24785 -0.928788,-0.51366 -1.3208,-0.87566 0,0 1.899383,-0.96779 1.899383,-0.96779 z"
       inkscape:connector-curvature="0"
       style="stroke-width:0.26458332" />
    <path
       id="path34"
       d="m 62.637129,197.319 c 0.282528,-0.16991 0.557816,-0.35115 0.826135,-0.54316 0.562293,-0.37636 1.083813,-0.80726 1.588514,-1.25678 0.737235,-0.69587 1.410755,-1.45582 2.099069,-2.19929 0.823262,-0.87995 1.643004,-1.76317 2.466343,-2.64302 1.138062,-1.17925 2.344975,-2.28884 3.539408,-3.41008 1.297596,-1.19555 2.604288,-2.38111 3.92862,-3.54698 0.604822,-0.54742 1.21594,-1.08781 1.826657,-1.62862 0,0 1.964481,-0.62503 1.964481,-0.62503 v 0 c -0.61263,0.54131 -1.227624,1.08003 -1.831721,1.6309 -1.325922,1.16364 -2.634226,2.34681 -3.932592,3.54114 -1.187704,1.11597 -2.38846,2.21954 -3.522504,3.39076 -0.822864,0.87633 -1.634516,1.76322 -2.458188,2.63889 -0.687025,0.74336 -1.359284,1.50223 -2.081458,2.21179 -0.489382,0.46071 -1.005594,0.89919 -1.565109,1.27301 -0.258209,0.19561 -0.523126,0.39482 -0.80673,0.5476 0,0 -2.040925,0.61887 -2.040925,0.61887 z"
       inkscape:connector-curvature="0"
       style="stroke-width:0.26458332" />
    <path
       id="path36"
       d="m 62.631452,199.49977 c 0.108455,-0.33624 0.348517,-0.61484 0.557101,-0.89435 0.405799,-0.49773 0.790117,-1.01171 1.175978,-1.52485 0.442102,-0.61752 0.920324,-1.20724 1.397547,-1.79757 0.507611,-0.62846 0.986166,-1.2796 1.515033,-1.89063 0.570799,-0.60804 1.107149,-1.247 1.639496,-1.88862 0.555228,-0.64891 1.115838,-1.29316 1.696689,-1.91931 0.635997,-0.68805 1.311084,-1.33813 1.981157,-1.99257 0.728099,-0.69863 1.474592,-1.3782 2.237232,-2.03894 0.904002,-0.79941 1.854703,-1.54158 2.805658,-2.28348 1.05891,-0.83306 2.15501,-1.61601 3.25864,-2.38818 1.190003,-0.85109 2.391124,-1.68401 3.626829,-2.46745 1.252677,-0.77193 2.525178,-1.51137 3.811897,-2.22494 1.32461,-0.73991 2.686335,-1.41 4.038705,-2.0969 2.038435,-1.05774 4.131099,-2.00525 6.22013,-2.95754 1.626716,-0.74872 3.258696,-1.4831 4.906186,-2.18501 1.70147,-0.71536 3.42632,-1.37062 5.16038,-2.00199 1.80082,-0.67162 3.65122,-1.19308 5.51245,-1.66605 1.83401,-0.46249 3.69156,-0.82163 5.55433,-1.14548 1.77061,-0.30445 3.55033,-0.55127 5.33271,-0.77495 1.70169,-0.21175 3.40907,-0.3736 5.11729,-0.52184 1.69146,-0.14702 3.38604,-0.25352 5.08096,-0.35109 1.70528,-0.11648 3.4126,-0.15545 5.12124,-0.16935 1.59761,-0.0381 3.19312,0.0179 4.78693,0.12277 0.24363,0.0232 0.48726,0.0464 0.7309,0.0696 0,0 -1.77328,1.06416 -1.77328,1.06416 v 0 c -0.24187,-0.022 -0.48374,-0.044 -0.72561,-0.066 -1.58887,-0.10192 -3.17951,-0.14876 -4.77184,-0.11421 -1.70662,0.0155 -3.41187,0.0628 -5.11511,0.17751 -1.69419,0.0994 -3.38794,0.20831 -5.07866,0.35672 -1.70617,0.15026 -3.41152,0.31288 -5.11102,0.52723 -1.77879,0.22608 -3.55519,0.47292 -5.32209,0.77983 -1.85932,0.32816 -3.71345,0.69056 -5.54365,1.1574 -1.85819,0.47925 -3.70438,1.00869 -5.50236,1.68379 -1.73339,0.63502 -3.45738,1.2946 -5.15803,2.01351 -1.64816,0.70435 -3.279255,1.44502 -4.908278,2.19242 -0.256302,0.11675 -1.018675,0.48037 -0.768903,0.35023 2.992826,-1.55927 -1.330889,0.71252 -1.761882,0.88243 -1.350179,0.68886 -2.714061,1.35239 -4.038811,2.08983 -1.289275,0.70649 -2.558235,1.44974 -3.814702,2.21299 -1.237112,0.77777 -2.441691,1.60188 -3.626501,2.45729 -1.102013,0.76828 -2.197661,1.54594 -3.254843,2.37545 -0.947502,0.74029 -1.901582,1.47239 -2.801152,2.27147 -0.763135,0.65466 -1.505191,1.33364 -2.23488,2.0252 -0.671726,0.64838 -1.341556,1.29979 -1.980001,1.9812 -0.582417,0.62194 -1.14245,1.26334 -1.700152,1.9074 -0.530711,0.64349 -1.061227,1.28865 -1.635254,1.89429 -0.539621,0.59942 -1.013714,1.25124 -1.516703,1.88097 -0.472657,0.59151 -0.962755,1.16973 -1.396635,1.79122 -0.388906,0.50645 -0.753922,1.03125 -1.165437,1.52035 -0.199617,0.26237 -0.40265,0.5255 -0.570663,0.80875 0,0 -1.989021,0.76735 -1.989021,0.76735 z"
       inkscape:connector-curvature="0"
       style="stroke-width:0.26458332" />
    <path
       id="path38"
       d="m 181.28669,195.8554 c -0.14666,-0.25073 -0.3416,-0.47534 -0.52365,-0.70291 -0.26322,-0.37965 -0.52973,-0.75693 -0.79678,-1.13408 -0.36263,-0.51406 -0.76773,-0.99662 -1.16601,-1.48323 -0.48662,-0.64164 -0.99327,-1.26706 -1.52182,-1.87456 -0.5651,-0.66509 -1.10895,-1.34757 -1.66011,-2.02417 -0.5849,-0.67876 -1.14709,-1.37671 -1.7045,-2.07807 -0.55861,-0.69154 -1.14464,-1.35976 -1.7148,-2.0417 -0.57503,-0.72224 -1.1603,-1.43591 -1.74725,-2.14842 -0.61585,-0.73757 -1.21082,-1.49216 -1.82964,-2.22722 -0.576,-0.73814 -1.23918,-1.39985 -1.85437,-2.10386 -0.60803,-0.70673 -1.17422,-1.44784 -1.80164,-2.1378 -0.61451,-0.66976 -1.22645,-1.34198 -1.83894,-2.01373 -0.6663,-0.71815 -1.34667,-1.42385 -2.03742,-2.11861 -0.6467,-0.66719 -1.29106,-1.33692 -1.97243,-1.96905 -0.66556,-0.65011 -1.38074,-1.24547 -2.07177,-1.86765 -0.707,-0.63131 -1.4258,-1.24764 -2.16171,-1.84499 -0.72656,-0.61296 -1.43754,-1.24272 -2.20303,-1.80719 -0.70838,-0.56144 -1.47373,-1.04337 -2.23515,-1.52818 -0.77394,-0.43658 -1.52636,-0.91004 -2.29978,-1.3475 -0.77545,-0.4413 -1.57711,-0.83056 -2.37199,-1.23442 -0.38914,-0.20292 -0.78985,-0.38134 -1.19147,-0.5576 0,0 1.83113,-1.01964 1.83113,-1.01964 v 0 c 0.40304,0.18019 0.805,0.36278 1.19668,0.56695 0.79897,0.40191 1.59785,0.80234 2.37613,1.24391 0.77387,0.44287 1.53398,0.90975 2.30541,1.35671 0.7632,0.48976 1.52942,0.97714 2.24027,1.54215 0.76309,0.57151 1.47492,1.20415 2.20558,1.8159 0.73876,0.59917 1.45794,1.22036 2.16758,1.85373 0.69373,0.62104 1.40773,1.21975 2.0742,1.87073 0.68055,0.63664 1.32721,1.30742 1.97491,1.97719 0.6903,0.69904 1.37268,1.40637 2.04149,2.12598 0.61459,0.67052 1.22876,1.3415 1.84129,2.01382 0.62411,0.69414 1.1915,1.43556 1.8024,2.14112 0.61769,0.70352 1.27886,1.36892 1.85535,2.10832 0.61693,0.73751 1.21365,1.49158 1.83154,2.22833 0.58707,0.71175 1.17034,1.42637 1.74703,2.14661 0.573,0.68187 1.1604,1.35134 1.71789,2.04615 0.55761,0.7002 1.12025,1.39658 1.7035,2.07571 0.55076,0.67453 1.09369,1.35543 1.65972,2.01729 0.52801,0.61079 1.03717,1.23693 1.52944,1.87692 0.40391,0.48901 0.81307,0.97517 1.18141,1.49188 0.26722,0.37277 0.5295,0.74897 0.79729,1.12108 0.18579,0.23381 0.38613,0.4596 0.54301,0.71357 0,0 -1.91899,0.93053 -1.91899,0.93053 z"
       inkscape:connector-curvature="0"
       style="stroke-width:0.26458332" />
    <path
       id="path42"
       d="m 133.5239,162.77036 c 0.36027,-0.0662 0.72513,-0.10167 1.08956,-0.13554 0.64863,-0.0579 1.29945,-0.0848 1.95003,-0.10924 0.93413,-0.0261 1.87177,0.002 2.80408,0.0661 1.06433,0.0722 2.11772,0.26446 3.16271,0.47288 1.04343,0.22296 2.08206,0.47463 3.11532,0.74144 1.00235,0.23346 1.98682,0.5276 2.96384,0.84911 0.91832,0.27938 1.82289,0.60029 2.74037,0.88233 0.8714,0.28234 1.73077,0.59814 2.59562,0.8993 0.86724,0.23845 1.65953,0.65782 2.45308,1.06888 0.78448,0.42386 1.55634,0.86356 2.3118,1.33697 0.70108,0.4682 1.40015,0.94005 2.0521,1.47537 0.59068,0.56214 1.15628,1.1475 1.77121,1.6844 0.62791,0.53987 1.2308,1.10582 1.81374,1.69384 0.61557,0.59212 1.22821,1.18708 1.82579,1.79737 0.60267,0.60434 1.21112,1.20312 1.80725,1.81395 0.5523,0.61733 1.07765,1.25915 1.60178,1.90063 0.51428,0.61601 1.04654,1.21642 1.56986,1.82466 0.4987,0.61938 1.00666,1.23103 1.50602,1.84993 0.0882,0.10828 0.17644,0.21656 0.26467,0.32484 0,0 -1.87874,0.93366 -1.87874,0.93366 v 0 c -0.0888,-0.10837 -0.17764,-0.21674 -0.26647,-0.32511 -0.49961,-0.61597 -1.00437,-1.22758 -1.50362,-1.84382 -0.52544,-0.6086 -1.05665,-1.21212 -1.5714,-1.82989 -0.52116,-0.63599 -1.03985,-1.27559 -1.59246,-1.88453 -0.59719,-0.60939 -1.20336,-1.20998 -1.80564,-1.81432 -0.59906,-0.60871 -1.21307,-1.20189 -1.82758,-1.7949 -0.58167,-0.58282 -1.18184,-1.14495 -1.80658,-1.68152 -0.61036,-0.53825 -1.17306,-1.12343 -1.76812,-1.67731 -0.64976,-0.52475 -1.34145,-0.99334 -2.03799,-1.45349 -0.75083,-0.47044 -1.52203,-0.90195 -2.30183,-1.32266 -0.78783,-0.40638 -1.58181,-0.8007 -2.43897,-1.04308 -0.86158,-0.30316 -1.72017,-0.61429 -2.58991,-0.89382 -0.91654,-0.28625 -1.8228,-0.60391 -2.74061,-0.88625 -0.97345,-0.319 -1.95665,-0.60275 -2.95388,-0.83862 -1.03168,-0.2604 -2.06517,-0.51899 -3.10766,-0.73216 -1.04254,-0.19975 -2.09138,-0.38834 -3.15296,-0.44697 -0.93183,-0.0529 -1.86743,-0.0827 -2.80033,-0.0428 -0.65293,0.0296 -1.30613,0.0616 -1.95657,0.12791 -0.36461,0.0395 -0.73176,0.0776 -1.08743,0.17063 0,0 1.78992,-1.15812 1.78992,-1.15812 z"
       inkscape:connector-curvature="0"
       style="stroke-width:0.26458332" />
    <path
       id="path44"
       d="m 47.477111,199.69142 c 0.342497,-0.004 0.672271,-0.12248 1.003091,-0.2019 0.576418,-0.12738 1.139803,-0.30876 1.703406,-0.48345 0.917686,-0.29959 1.805487,-0.68173 2.705999,-1.02785 1.035034,-0.41833 2.048161,-0.88964 3.065341,-1.34946 1.68702,-0.7594 -1.089954,0.52044 -0.816549,0.39226 0.791472,-0.37107 1.583544,-0.74087 2.376762,-1.10818 0.169066,-0.0783 0.678588,-0.30801 0.510043,-0.22862 -0.456642,0.21512 -0.91626,0.42387 -1.374391,0.6358 0,0 2.00466,-0.5764 2.00466,-0.5764 v 0 c -0.78667,0.36804 -1.572575,0.73772 -2.360012,1.10412 -0.168619,0.0785 -0.676164,0.31016 -0.508129,0.23045 0.449889,-0.2134 1.805408,-0.84116 1.353738,-0.63155 -2.728744,1.26631 -1.544783,0.73786 -2.914343,1.3446 -1.01984,0.4585 -2.033059,0.93438 -3.074591,1.34224 -0.904211,0.35399 -1.800831,0.73195 -2.727635,1.02424 -0.569941,0.17445 -1.139311,0.35346 -1.72212,0.48096 -0.342376,0.0857 -0.686593,0.18001 -1.04318,0.16676 0,0 1.81791,-1.11402 1.81791,-1.11402 z"
       inkscape:connector-curvature="0"
       style="stroke-width:0.26458332" />
    <path
       id="path46"
       d="m 59.771509,194.88057 c 0.360384,0.004 0.720794,0.004 1.081194,0.004 0.601326,0.0238 1.198986,-0.0228 1.797783,-0.0699 0.470209,-0.0358 0.233103,-0.0183 0.711327,-0.0526 0,0 -1.785327,1.11215 -1.785327,1.11215 v 0 c -0.479067,0.036 -0.241464,0.0178 -0.712808,0.0546 -0.604174,0.0465 -1.208027,0.0757 -1.814293,0.0608 -0.365263,8e-4 -0.730536,0.001 -1.095785,0.004 0,0 1.817909,-1.11402 1.817909,-1.11402 z"
       inkscape:connector-curvature="0"
       style="stroke-width:0.26458332" />
    <path
       id="path48"
       d="m 60.30605,194.88057 c 0.381809,0.004 0.763645,0.004 1.145474,0.005 0.09568,1.7e-4 0.19137,2.7e-4 0.287057,5.3e-4 0,0 -1.799564,1.10277 -1.799564,1.10277 v 0 c -0.09622,1.7e-4 -0.192442,2.7e-4 -0.288663,5.3e-4 -0.387408,8e-4 -0.774824,0.002 -1.162217,0.005 0,0 1.817913,-1.11402 1.817913,-1.11402 z"
       inkscape:connector-curvature="0"
       style="stroke-width:0.26458332" />
    <path
       id="path50"
       d="m 184.33428,189.53557 c 0.50749,0.005 1.01502,0.006 1.52254,0.007 1.01591,0.003 2.03182,0.005 3.04773,0.007 1.45543,0.002 2.91087,0.003 4.36631,0.004 1.47998,-2e-4 2.95995,-0.001 4.43993,-0.002 1.3285,-0.0106 2.65618,-0.0108 3.98176,0.0848 1.16022,0.10174 2.31995,0.20838 3.48093,0.30126 0.56406,0.0448 1.12862,0.0829 1.69317,0.12083 0,0 -1.78436,1.07689 -1.78436,1.07689 v 0 c -0.56482,-0.0388 -1.12965,-0.0777 -1.69396,-0.12347 -1.15926,-0.0945 -2.31719,-0.20379 -3.47619,-0.30123 -1.32077,-0.0865 -2.64319,-0.0856 -3.96636,-0.0775 -1.47832,-5.3e-4 -2.95663,-0.001 -4.43494,-0.002 -1.4594,1.7e-4 -2.9188,0.002 -4.3782,0.004 -1.02311,0.002 -2.04622,0.004 -3.06933,0.007 -0.51522,0.001 -1.03045,0.002 -1.54565,0.007 0,0 1.81662,-1.11322 1.81662,-1.11322 z"
       inkscape:connector-curvature="0"
       style="stroke-width:0.26458332" />
    <path
       id="path52"
       d="m 204.6176,191.10093 c 0.36026,-0.0662 0.72513,-0.10167 1.08955,-0.13554 0.60062,-0.0526 1.20285,-0.0832 1.80501,-0.11163 0.75338,-0.0341 1.50721,-0.0565 2.26106,-0.0768 0.85767,-0.0311 1.71399,-0.0418 2.57151,-0.008 0.92522,0.0426 1.85054,0.0826 2.7761,0.11718 0.1592,0.006 0.31841,0.0111 0.47762,0.0167 0,0 -1.78784,1.08697 -1.78784,1.08697 v 0 c -0.1594,-0.006 -0.31881,-0.0113 -0.47821,-0.0169 -0.92622,-0.0351 -1.85216,-0.0763 -2.77821,-0.11527 -0.85636,-0.0268 -1.71192,-0.006 -2.56812,0.0219 -0.75484,0.0221 -1.50965,0.0463 -2.2639,0.0839 -0.603,0.0313 -1.20615,0.0651 -1.80707,0.12553 -0.3646,0.0395 -0.73176,0.0776 -1.08742,0.17062 0,0 1.78992,-1.15811 1.78992,-1.15811 z"
       inkscape:connector-curvature="0"
       style="stroke-width:0.26458332" />
    <path
       id="path54"
       d="m 218.73733,192.82521 c -1.11163,0.58591 2.83159,-1.40847 1.05973,-0.44695 -0.53474,0.29217 -1.03347,0.64324 -1.52472,1.00218 -0.64979,0.4792 -1.30245,0.95445 -1.95381,1.43153 -0.66315,0.49361 -1.33164,0.97939 -2.00566,1.45811 -0.67316,0.4516 -1.34408,0.90652 -2.00059,1.38209 -0.64718,0.46195 -1.27069,0.95562 -1.89974,1.44164 -0.69755,0.53377 -1.39128,1.07208 -2.08275,1.61375 -0.73194,0.57773 -1.43907,1.18664 -2.13861,1.80303 -0.74701,0.66459 -1.46261,1.36294 -2.16945,2.06974 -0.48275,0.48177 -0.98441,0.94431 -1.48697,1.40525 0,0 -1.99088,0.6366 -1.99088,0.6366 v 0 c 0.50526,-0.45682 1.00523,-0.92004 1.49242,-1.39608 0.7025,-0.71106 1.41731,-1.41014 2.15935,-2.08012 0.69562,-0.62311 1.40811,-1.22827 2.13445,-1.81514 0.68967,-0.54192 1.38041,-1.08171 2.07771,-1.61363 0.62868,-0.48736 1.25128,-0.98297 1.89781,-1.44654 0.65059,-0.48476 1.32356,-0.93903 2.00029,-1.38628 0.67709,-0.47399 1.34416,-0.96109 2.00765,-1.4537 0.64556,-0.48257 1.30449,-0.94759 1.94994,-1.43029 0.48555,-0.36416 0.97879,-0.71762 1.50093,-1.02815 0.90333,-0.46619 1.78528,-1.01493 2.76282,-1.30515 0,0 -1.78992,1.15811 -1.78992,1.15811 z"
       inkscape:connector-curvature="0"
       style="stroke-width:0.26458332" />
    <path
       id="path56"
       d="m 196.8191,210.66958 c 0.67199,-0.31161 1.34152,-0.62859 2.01597,-0.93483 1.41975,-0.64466 -2.71588,1.36606 -1.01071,0.45663 0.55569,-0.32083 1.11011,-0.64374 1.67011,-0.95704 0.69143,-0.38587 1.35875,-0.8109 2.0251,-1.23783 0.73292,-0.48725 1.44946,-0.99922 2.15472,-1.52565 0.70829,-0.53246 1.43096,-1.04529 2.13842,-1.57885 0.74952,-0.58422 1.49661,-1.17199 2.22427,-1.78332 0.88061,-0.74588 1.70893,-1.54865 2.52763,-2.36097 0.90094,-0.89188 1.78768,-1.79773 2.66318,-2.71454 0.81066,-0.8132 1.5673,-1.67716 2.33982,-2.52597 0.4637,-0.52735 0.94797,-1.0359 1.42181,-1.55402 0,0 1.98279,-0.65462 1.98279,-0.65462 v 0 c -0.47165,0.52116 -0.96137,1.02555 -1.42359,1.55527 -0.77909,0.8465 -1.52898,1.72054 -2.34537,2.53211 -0.87329,0.92001 -1.76246,1.82468 -2.66125,2.71983 -0.816,0.81415 -1.63699,1.62332 -2.51328,2.3734 -0.71933,0.62003 -1.47002,1.20217 -2.21406,1.79193 -0.70221,0.54074 -1.42898,1.04808 -2.13804,1.57973 -0.70077,0.53503 -1.42345,1.04065 -2.14907,1.54124 -0.66736,0.42354 -1.3262,0.86002 -2.01521,1.24853 -0.55972,0.30631 -1.11177,0.62681 -1.65906,0.95466 -1.22877,0.69218 -4.91356,2.2745 -0.98697,0.48123 0,0 -2.04721,0.59308 -2.04721,0.59308 z"
       inkscape:connector-curvature="0"
       style="stroke-width:0.26458332" />
    <path
       id="path60"
       d="m 209.44244,190.60426 c 0.36039,0.004 0.7208,0.004 1.08119,0.004 0.60071,0.001 1.20142,0.002 1.80213,0.002 0.75329,7.9e-4 1.50658,10e-4 2.25987,0.002 0.85601,5.3e-4 1.71203,7.9e-4 2.56805,0.001 0.47704,7.9e-4 0.95407,7.9e-4 1.43112,0.001 0,0 -1.78328,1.0928 -1.78328,1.0928 v 0 c -0.47819,1.9e-4 -0.95638,2.6e-4 -1.43458,10e-4 -0.85719,2.7e-4 -1.71438,5.3e-4 -2.57157,0.001 -0.75503,5.3e-4 -1.51007,8e-4 -2.2651,0.002 -0.60332,5.3e-4 -1.20663,0.001 -1.80995,0.002 -0.36526,8e-4 -0.73054,10e-4 -1.09579,0.004 0,0 1.81791,-1.11401 1.81791,-1.11401 z"
       inkscape:connector-curvature="0"
       style="stroke-width:0.26458332" />
    <path
       id="path62"
       d="m 26.108235,208.45635 c -0.0062,0.36388 -0.0065,0.72785 -0.0079,1.09177 -0.0021,0.6026 -0.0032,1.20519 -0.0042,1.80779 -0.0013,0.75455 -0.0021,1.5091 -0.0028,2.26366 -8.2e-4,0.85687 -0.0014,1.71373 -0.0019,2.5706 -5.56e-4,0.9259 -9.26e-4,1.8518 -0.0013,2.77769 -3.7e-4,0.97247 -6.35e-4,1.94495 -8.73e-4,2.91742 -2.44e-4,1.00389 -4.23e-4,2.00779 -5.82e-4,3.01169 -1.63e-4,1.02509 -2.91e-4,2.05019 -3.97e-4,3.07529 -3.7e-4,1.09239 -0.0018,2.18478 -0.0025,3.27717 -2.1e-4,0.57449 -1.35e-4,1.14897 -8.7e-5,1.72345 0,0 -1.924607,0.7972 -1.924607,0.7972 v 0 c 4.8e-5,-0.57446 1.23e-4,-1.14892 -8.7e-5,-1.72338 -6.61e-4,-1.0917 -0.0021,-2.18341 -0.0025,-3.27512 -1.11e-4,-1.02499 -2.33e-4,-2.04998 -3.97e-4,-3.07497 -1.64e-4,-1.00373 -3.44e-4,-2.00746 -5.82e-4,-3.0112 -2.41e-4,-0.97223 -5.03e-4,-1.94446 -8.73e-4,-2.91669 -3.44e-4,-0.92554 -7.41e-4,-1.85108 -0.0013,-2.77662 -5.29e-4,-0.85634 -0.0011,-1.71268 -0.0019,-2.56902 -7.41e-4,-0.75377 -0.0016,-1.50754 -0.0028,-2.26131 -0.0011,-0.60143 -0.0022,-1.20286 -0.0042,-1.80428 -0.0014,-0.36174 -0.0017,-0.72352 -0.0079,-1.08522 0,0 1.969799,-0.81592 1.969799,-0.81592 z"
       inkscape:connector-curvature="0"
       style="stroke-width:0.26458332" />
    <path
       id="path64"
       d="m 27.711852,211.12905 c -0.006,0.38242 -0.007,0.76491 -0.0096,1.14736 -0.0069,0.87671 -0.009,1.75344 -0.01032,2.63017 -0.0019,1.13645 -0.0026,2.27291 -0.0039,3.40936 -7.94e-4,1.2106 -1.14e-4,2.42119 2.25e-4,3.63179 2.64e-4,1.17085 5.29e-4,2.3417 7.93e-4,3.51256 0.01791,0.93053 -0.0173,1.8598 -0.06176,2.78899 0,0 -1.931473,0.78904 -1.931473,0.78904 v 0 c 0.04599,-0.92649 0.08883,-1.85296 0.06896,-2.78097 2.6e-4,-1.1711 5.55e-4,-2.3422 8.99e-4,-3.5133 3.44e-4,-1.21066 9e-4,-2.42131 2.24e-4,-3.63197 -0.0014,-1.13537 -0.002,-2.27074 -0.0039,-3.40611 -0.0013,-0.87388 -0.0034,-1.74776 -0.01032,-2.62162 -0.0026,-0.3798 -0.0036,-0.75962 -0.0096,-1.13938 0,0 1.9698,-0.81592 1.9698,-0.81592 z"
       inkscape:connector-curvature="0"
       style="stroke-width:0.26458332" />
    <path
       id="path66"
       d="m 201.43704,210.05997 c -0.006,0.36925 -0.006,0.73858 -0.009,1.10787 -0.006,0.83106 -0.009,1.66214 -0.0112,2.49322 -0.002,1.07528 -0.001,2.15057 -0.001,3.22585 1e-5,1.08198 5e-5,2.16396 8e-5,3.24594 3e-5,1.07799 6e-5,2.15597 8e-5,3.23396 5.3e-4,0.16862 0.001,0.33723 0.001,0.50585 0,0 -1.93057,0.79967 -1.93057,0.79967 v 0 c 5.3e-4,-0.16901 10e-4,-0.33801 10e-4,-0.50702 2e-5,-1.07801 5e-5,-2.15601 8e-5,-3.23402 3e-5,-1.08201 7e-5,-2.16401 8e-5,-3.24601 -1e-5,-1.0749 2.5e-4,-2.1498 -0.001,-3.2247 -0.002,-0.82799 -0.005,-1.65598 -0.0112,-2.48395 -0.002,-0.36691 -0.002,-0.73387 -0.009,-1.10074 0,0 1.9698,-0.81592 1.9698,-0.81592 z"
       inkscape:connector-curvature="0"
       style="stroke-width:0.26458332" />
    <path
       id="path68"
       d="m 201.97158,207.38727 c -0.006,0.36389 -0.007,0.72785 -0.008,1.09177 -0.002,0.60797 -0.003,1.21593 -0.005,1.8239 -0.003,0.90372 -0.005,1.80745 -0.007,2.71117 -8e-4,1.11043 -0.002,2.22085 -0.002,3.33128 -5e-5,1.13926 1.9e-4,2.27851 2.6e-4,3.41777 1.7e-4,1.11804 2.7e-4,2.23608 5.3e-4,3.35411 1.2e-4,1.10215 2.1e-4,2.2043 2.7e-4,3.30645 0,0 -1.92685,0.79813 -1.92685,0.79813 v 0 c 8e-5,-1.10223 1.7e-4,-2.20447 2.6e-4,-3.3067 1.3e-4,-1.11815 2.7e-4,-2.23631 5.3e-4,-3.35447 1.7e-4,-1.13936 5.3e-4,-2.27871 2.7e-4,-3.41807 -2.4e-4,-1.1098 -10e-4,-2.21959 -0.002,-3.32939 -0.002,-0.90167 -0.005,-1.80334 -0.007,-2.70501 -0.002,-0.6066 -0.003,-1.2132 -0.005,-1.8198 -0.001,-0.36174 -0.002,-0.72352 -0.008,-1.08522 0,0 1.9698,-0.81592 1.9698,-0.81592 z"
       inkscape:connector-curvature="0"
       style="stroke-width:0.26458332" />
    <path
       id="path70"
       d="m 26.10884,231.26752 c 0.465478,0.0889 0.941218,0.11344 1.413295,0.14426 1.276014,0.072 2.554039,0.0985 3.831606,0.12638 2.093238,0.0416 4.186783,0.065 6.280306,0.0865 2.289368,0.0229 4.578792,0.0391 6.868224,0.0539 2.231051,0.0144 4.462121,0.0256 6.693193,0.0358 2.242325,0.009 4.484648,0.0184 6.726978,0.0265 2.580005,0.009 5.160018,0.0154 7.740034,0.0207 2.764263,0.005 5.528527,0.009 8.292793,0.0126 2.974128,0.004 5.948262,0.007 8.92239,0.0118 3.675785,0.007 7.351572,0.0114 11.02736,0.0158 4.379579,0.005 8.759151,0.008 13.138731,0.011 4.71426,0.004 9.42852,0.004 14.14278,0.002 4.07312,-0.003 8.14624,-0.005 12.21936,-0.009 3.28499,-0.003 6.56998,-0.006 9.85497,-0.008 2.6703,-0.002 5.3406,-0.004 8.01089,-0.007 2.20113,-0.001 4.40227,-0.003 6.6034,-0.004 1.89878,-8e-4 3.79757,-0.002 5.69636,-0.003 1.66502,-0.001 3.33005,-0.001 4.99508,-0.002 1.55857,-1.3e-4 3.11714,-5.3e-4 4.6757,-8e-4 1.4524,-5.2e-4 2.90481,-0.001 4.35721,-0.002 1.33078,-5.3e-4 2.66155,-8e-4 3.99233,-0.001 1.24572,-2.6e-4 2.49145,-5.3e-4 3.73717,-7.9e-4 1.18826,-2.3e-4 2.37652,-5.3e-4 3.56479,-5.3e-4 1.14949,-1.5e-4 2.29899,-2.6e-4 3.44848,-2.6e-4 1.12334,-1.1e-4 2.24668,-1.9e-4 3.37001,-2.7e-4 0.18532,-10e-6 0.37065,-2e-5 0.55597,-3e-5 0,0 -1.77767,1.08936 -1.77767,1.08936 v 0 c -0.18528,-2e-5 -0.37056,-3e-5 -0.55585,-4e-5 -1.12303,-9e-5 -2.24607,-1.8e-4 -3.36911,-2.7e-4 -1.14905,-1.2e-4 -2.2981,-2.5e-4 -3.44715,-5.3e-4 -1.1876,-1.8e-4 -2.37521,-2.6e-4 -3.56282,-5.3e-4 -1.24474,-2.6e-4 -2.48949,-5.3e-4 -3.73424,-0.001 -1.32934,-5.3e-4 -2.65868,-8e-4 -3.98802,-0.001 -1.45058,-5.3e-4 -2.90116,-10e-4 -4.35175,-0.002 -1.55761,-2.6e-4 -3.11521,-7.9e-4 -4.67282,-0.001 -1.66265,-7.9e-4 -3.32531,-0.001 -4.98797,-0.002 -1.89476,-0.001 -3.78952,-0.003 -5.68428,-0.004 -2.1963,-0.001 -4.39259,-0.003 -6.58889,-0.005 -2.66217,-0.003 -5.32434,-0.006 -7.98651,-0.008 -3.27552,-0.003 -6.55103,-0.006 -9.82655,-0.01 -4.0617,-0.004 -8.1234,-0.008 -12.18511,-0.0121 -4.71334,-0.004 -9.42669,-0.006 -14.14003,-0.003 -4.38784,0.001 -8.775676,0.002 -13.163513,0.004 -3.687516,0.002 -7.375035,0.003 -11.062552,0.006 -2.978787,2.7e-4 -5.957575,-7.9e-4 -8.936362,-0.003 -2.765838,-0.003 -5.53167,-0.006 -8.297506,-0.01 -2.584584,-0.004 -5.169169,-0.007 -7.753752,-0.0126 -2.244494,-0.005 -4.488987,-0.0109 -6.733458,-0.0229 -2.230453,-0.0106 -4.460904,-0.0221 -6.69133,-0.0374 -2.289535,-0.016 -4.57907,-0.0326 -6.868557,-0.0545 -2.10148,-0.0203 -4.202973,-0.0408 -6.304296,-0.0742 -1.292058,-0.0226 -2.584685,-0.042 -3.875309,-0.11077 -0.487588,-0.0312 -0.980421,-0.0542 -1.458497,-0.16191 0,0 1.844492,-1.06905 1.844492,-1.06905 z"
       inkscape:connector-curvature="0"
       style="stroke-width:0.26458332" />
    <path
       id="path74"
       d="m 201.43704,221.28529 c -0.006,0.36388 -0.007,0.72784 -0.008,1.09177 -0.002,0.60259 -0.003,1.20519 -0.004,1.80779 -0.001,0.75455 -0.002,1.5091 -0.003,2.26366 -5.3e-4,0.41802 -8e-4,0.83606 -0.001,1.25409 0,0 -1.93774,0.80263 -1.93774,0.80263 v 0 c -2.7e-4,-0.41774 -5.3e-4,-0.83548 -0.001,-1.25322 -7.9e-4,-0.75377 -0.002,-1.50754 -0.003,-2.26131 -0.001,-0.60142 -0.002,-1.20285 -0.004,-1.80428 -0.001,-0.36174 -0.002,-0.72352 -0.008,-1.08521 0,0 1.9698,-0.81592 1.9698,-0.81592 z"
       inkscape:connector-curvature="0"
       style="stroke-width:0.26458332" />
    <path
       id="path76"
       d="m 198.92978,232.79191 c -0.28436,-0.14418 -0.59994,-0.2098 -0.90941,-0.27592 -0.55395,-0.10989 -1.11578,-0.17156 -1.67711,-0.22901 -0.72418,-0.071 -1.45047,-0.11662 -2.17681,-0.15826 -0.837,-0.0465 -1.67469,-0.0785 -2.51244,-0.10754 -0.5927,-0.019 -0.29537,-0.01 -0.89197,-0.0275 0,0 1.78961,-1.08936 1.78961,-1.08936 v 0 c 0.5976,0.0179 0.29977,0.009 0.8935,0.0278 0.83987,0.0294 1.67967,0.0619 2.51874,0.10936 0.72995,0.0426 1.45985,0.0894 2.18743,0.16318 0.56865,0.0604 1.13808,0.12516 1.69782,0.24529 0.33052,0.0772 0.66941,0.15578 0.9614,0.33641 0,0 -1.88076,1.00554 -1.88076,1.00554 z"
       inkscape:connector-curvature="0"
       style="stroke-width:0.26458332" />
    <path
       id="path82"
       d="m 220.68045,191.88564 c -0.0547,0.34539 -0.11099,0.69007 -0.14932,1.03835 -0.0694,0.73308 -0.10324,1.46894 -0.13618,2.20437 -0.0415,0.99466 -0.0675,1.98987 -0.091,2.98508 -0.0245,1.08577 -0.0423,2.17168 -0.0586,3.2576 -0.016,1.08362 -0.0281,2.16729 -0.0391,3.25096 -0.0108,1.07898 -0.019,2.15797 -0.0264,3.23697 -0.007,1.07576 -0.0128,2.15153 -0.0178,3.2273 -0.003,0.71618 -0.002,0.35812 -0.005,1.07419 0,0 -1.92819,0.79776 -1.92819,0.79776 v 0 c 0.003,-0.71615 0.001,-0.35805 0.005,-1.07431 0.005,-1.07594 0.0105,-2.15186 0.0178,-3.22778 0.007,-1.07924 0.0156,-2.15847 0.0263,-3.23768 0.011,-1.08402 0.0231,-2.16803 0.039,-3.25199 0.0162,-1.0863 0.0341,-2.17257 0.0572,-3.25875 0.0214,-0.99513 0.0442,-1.99028 0.0806,-2.985 0.0277,-0.73696 0.0596,-1.47391 0.11616,-2.20931 0.0299,-0.33852 0.0543,-0.68193 0.13982,-1.01184 0,0 1.9698,-0.81592 1.9698,-0.81592 z"
       inkscape:connector-curvature="0"
       style="stroke-width:0.26458332" />
    <path
       id="path84"
       d="m 220.66857,210.6614 c -0.26976,0.13406 -0.46103,0.3506 -0.65801,0.57206 -0.30765,0.3577 -0.63212,0.70007 -0.95447,1.04442 -0.39969,0.43143 -0.80144,0.86103 -1.20852,1.28551 -0.45245,0.45785 -0.88089,0.93686 -1.29897,1.42604 -0.45294,0.54306 -0.94198,1.05349 -1.41814,1.57571 -0.52953,0.5736 -1.05313,1.15258 -1.59561,1.71405 -0.5877,0.60361 -1.16866,1.21393 -1.74678,1.82675 -0.58664,0.61115 -1.16419,1.23074 -1.7561,1.83685 -0.57548,0.60526 -1.17469,1.18761 -1.73652,1.80569 -0.53992,0.60519 -1.13045,1.16202 -1.67979,1.75828 -0.54934,0.57481 -1.04213,1.19932 -1.55286,1.80774 -0.5271,0.57786 -1.04971,1.1604 -1.53962,1.77033 -0.49176,0.60305 -0.97191,1.21472 -1.44433,1.83293 -0.24672,0.30247 -0.49696,0.60205 -0.74657,0.90213 0,0 -1.99134,0.66727 -1.99134,0.66727 v 0 c 0.24852,-0.29891 0.49353,-0.6008 0.74833,-0.89443 0.4774,-0.61499 0.94393,-1.23803 1.44376,-1.83546 0.48074,-0.61871 1.00216,-1.20565 1.53764,-1.77735 0.51764,-0.60441 0.99931,-1.24013 1.55126,-1.81454 0.54007,-0.60544 1.13514,-1.15744 1.68123,-1.75735 0.55384,-0.62843 1.16008,-1.20648 1.73462,-1.81565 0.59666,-0.60021 1.16794,-1.22433 1.75722,-1.83163 0.57367,-0.61696 1.16064,-1.22164 1.74369,-1.82965 0.54385,-0.55797 1.06704,-1.13456 1.59646,-1.70605 0.4678,-0.52638 0.9633,-1.02758 1.41577,-1.56769 0.41262,-0.4964 0.84106,-0.97787 1.29201,-1.4397 0.41263,-0.41705 0.80817,-0.85102 1.20577,-1.2822 0.32552,-0.33546 0.63736,-0.68383 0.95118,-1.02986 0.18013,-0.2248 0.36458,-0.49761 0.62776,-0.62532 0,0 2.04093,-0.61888 2.04093,-0.61888 z"
       inkscape:connector-curvature="0"
       style="stroke-width:0.26458332" />
    <path
       id="path86"
       d="m 202.68636,228.85681 c 0.24555,-0.17908 0.4683,-0.38924 0.70714,-0.57832 0.44886,-0.31405 0.84027,-0.69794 1.22872,-1.08168 0.4866,-0.48658 1.02396,-0.91888 1.56307,-1.34519 0.65046,-0.49985 1.26131,-1.04604 1.85786,-1.60812 0.58157,-0.58485 1.14842,-1.18365 1.73154,-1.76728 0.59724,-0.57271 1.18062,-1.1581 1.74897,-1.75931 0.5337,-0.60449 1.11935,-1.15905 1.69428,-1.7234 0.57401,-0.54033 1.12027,-1.11015 1.63457,-1.70749 0.55089,-0.61502 1.07203,-1.2546 1.5927,-1.89503 0.51731,-0.66449 1.062,-1.30494 1.62837,-1.92774 0.4452,-0.51337 0.89283,-1.0246 1.33768,-1.53828 0,0 1.99172,-0.66372 1.99172,-0.66372 v 0 c -0.44217,0.51763 -0.898,1.02327 -1.33675,1.54386 -0.56404,0.62283 -1.12475,1.24751 -1.63296,1.91798 -0.52458,0.6366 -1.02988,1.28924 -1.58858,1.89722 -0.50557,0.60849 -1.05223,1.18418 -1.62923,1.72536 -0.56995,0.56823 -1.16879,1.10898 -1.69722,1.71748 -0.57185,0.59922 -1.14102,1.20005 -1.74846,1.76413 -0.5805,0.58738 -1.16214,1.17293 -1.72856,1.77388 -0.59919,0.56145 -1.19688,1.12425 -1.84971,1.62453 -0.53559,0.42173 -1.07213,0.8454 -1.56377,1.31853 -0.38067,0.39202 -0.76924,0.78365 -1.21068,1.10767 -0.24485,0.17597 -0.48217,0.36978 -0.68978,0.58604 0,0 -2.04092,0.61888 -2.04092,0.61888 z"
       inkscape:connector-curvature="0"
       style="stroke-width:0.26458332" />
    <path
       id="path96"
       d="m 146.54788,232.66547 c 0.009,-0.33069 0.0779,-0.65676 0.12087,-0.98438 0.0684,-0.55392 0.10599,-1.11096 0.14094,-1.66778 0.0433,-0.72264 0.0707,-1.4461 0.0958,-2.16957 0.028,-0.83567 0.0471,-1.67161 0.0644,-2.50756 0.0177,-0.901 0.0323,-1.80207 0.042,-2.70319 0.0119,-0.68894 -0.1025,-1.36501 -0.37151,-1.99863 -0.24765,-0.51319 -0.65953,-0.89134 -1.12317,-1.20678 -0.50933,-0.31752 -1.08117,-0.50492 -1.65258,-0.67479 -0.61599,-0.15696 -1.25313,-0.19755 -1.88637,-0.17812 -0.67387,0.0366 -1.34813,0.0501 -2.01171,0.18002 -0.70677,0.20099 -2.07549,0.82018 1.00292,-0.52936 0.0936,-0.041 -0.1807,0.0958 -0.26737,0.14985 -0.227,0.14163 -0.28158,0.19905 -0.48666,0.36999 -0.49257,0.44151 -0.83176,1.00651 -1.13276,1.58755 -0.33498,0.67596 -0.56061,1.39672 -0.76404,2.12086 -0.22173,0.81466 -0.37558,1.64519 -0.51494,2.47719 -0.14713,0.90102 -0.25203,1.80806 -0.34718,2.71579 -0.0746,0.6177 -0.10798,1.23779 -0.12778,1.85921 0,0 -1.93719,0.79554 -1.93719,0.79554 v 0 c 0.018,-0.6262 0.0483,-1.25117 0.12289,-1.8737 0.0933,-0.91118 0.19607,-1.8217 0.33986,-2.72651 0.13653,-0.83804 0.28725,-1.67463 0.50332,-2.49643 0.19925,-0.73518 0.42016,-1.46701 0.74513,-2.15811 0.29415,-0.60038 0.62474,-1.18695 1.10338,-1.66251 0.97266,-0.90466 2.25341,-1.44733 3.53662,-1.76044 0.67216,-0.10307 1.35236,-0.12599 2.03122,-0.15243 0.64671,0.003 1.29498,0.0495 1.9185,0.23444 0.5874,0.18261 1.17427,0.38608 1.68908,0.7315 0.4831,0.35256 0.91518,0.76281 1.17438,1.31242 0.27856,0.66083 0.40438,1.36556 0.39379,2.08382 -0.0146,0.90147 -0.0238,1.80302 -0.0414,2.70444 -0.016,0.83621 -0.0335,1.67242 -0.0592,2.5084 -0.0229,0.7243 -0.0481,1.44859 -0.0874,2.17222 -0.0318,0.55953 -0.0661,1.11921 -0.12687,1.67649 -0.0369,0.3183 -0.0976,0.63631 -0.11707,0.95464 0,0 -1.9698,0.81592 -1.9698,0.81592 z"
       inkscape:connector-curvature="0"
       style="stroke-width:0.26458332" />
    <path
       id="path98"
       d="m 159.37059,181.42284 c -0.13137,-0.25926 -0.35433,-0.45806 -0.54432,-0.67437 -0.31414,-0.32607 -0.58106,-0.68527 -0.92214,-0.98541 -0.41,-0.39496 -0.8779,-0.72298 -1.36169,-1.02028 -0.55047,-0.34329 -1.15841,-0.54085 -1.78846,-0.67246 -0.6128,-0.16113 -1.20679,-0.0634 -1.80797,0.0814 -0.69255,0.24617 -2.01034,0.79862 1.08071,-0.53339 0.0884,-0.0381 -0.16725,0.0956 -0.24717,0.14916 -0.21135,0.14176 -0.26145,0.19842 -0.45109,0.3679 -0.47851,0.4151 -0.86011,0.91208 -1.19192,1.44783 -0.36787,0.62215 -0.61484,1.30221 -0.83668,1.98692 -0.26396,0.75114 -0.31413,1.54107 -0.3199,2.32969 -0.002,0.77056 0.15512,1.51278 0.39504,2.24029 0.27395,0.73193 0.69768,1.39659 1.1654,2.01853 0.47089,0.60614 1.07689,1.07031 1.71616,1.48377 0.68681,0.42824 1.43697,0.73339 2.19534,1.00777 0.7667,0.27978 1.55916,0.46777 2.37347,0.52119 0.67468,0.0232 1.31266,-0.0997 1.9233,-0.38092 0.0939,-0.044 0.37594,-0.17515 0.28159,-0.13215 -2.99119,1.36335 -1.33445,0.67022 -0.64014,-0.019 0.46626,-0.49221 0.78511,-1.08938 1.06886,-1.69869 0.2992,-0.65098 0.49791,-1.33607 0.57717,-2.0472 0.044,-0.71839 -0.11851,-1.41595 -0.31794,-2.09953 -0.22715,-0.67071 -0.54648,-1.30641 -0.93481,-1.89736 -0.20026,-0.29771 -0.45173,-0.55086 -0.70529,-0.80189 0,0 1.87416,-0.95467 1.87416,-0.95467 v 0 c 0.26029,0.26395 0.51839,0.53012 0.72442,0.84065 0.39653,0.61011 0.72789,1.26262 0.96116,1.95323 0.20834,0.70772 0.37769,1.42921 0.35094,2.17325 -0.0639,0.73224 -0.25723,1.43854 -0.55366,2.112 -0.27758,0.627 -0.58874,1.24327 -1.04159,1.76494 -0.91411,0.99457 -2.12565,1.49315 -3.39744,1.97883 -0.63365,0.24188 -1.29301,0.3398 -1.97233,0.29189 -0.82221,-0.0842 -1.62314,-0.28323 -2.39808,-0.5719 -0.76866,-0.2858 -1.52812,-0.60414 -2.22097,-1.04849 -0.65309,-0.43403 -1.27016,-0.92082 -1.74987,-1.54885 -0.477,-0.64296 -0.91063,-1.32697 -1.19274,-2.07989 -0.25169,-0.74736 -0.42006,-1.50947 -0.42268,-2.30285 5.3e-4,-0.80579 0.0365,-1.61723 0.29521,-2.3885 0.21716,-0.69754 0.45864,-1.39064 0.81528,-2.03127 0.32122,-0.55234 0.68644,-1.0766 1.1703,-1.50111 0.91592,-0.91699 2.16481,-1.41437 3.39928,-1.77185 0.61983,-0.13082 1.23537,-0.16664 1.85569,-0.002 0.64339,0.15208 1.26073,0.3801 1.82281,0.73487 0.49055,0.30964 0.96545,0.64661 1.38462,1.0498 0.34009,0.31102 0.61767,0.67361 0.93811,1.00358 0.20084,0.22146 0.42183,0.43256 0.56885,0.6956 0,0 -1.91899,0.93052 -1.91899,0.93052 z"
       inkscape:connector-curvature="0"
       style="stroke-width:0.26458332" />
    <path
       id="path100"
       d="m 96.13285,173.17678 c -0.0062,0.36388 -0.0065,0.72784 -0.0079,1.09176 -0.0011,0.59491 0.014,1.18858 -0.05329,1.78041 -0.101142,0.70535 -0.273881,1.39864 -0.460748,2.08554 -0.172051,0.7249 -0.427228,1.42073 -0.733769,2.09811 -0.297225,0.68018 -0.579731,1.36606 -0.937625,2.01719 -0.328816,0.65683 -0.813549,1.20571 -1.267992,1.77484 -0.448172,0.58422 -0.924232,1.13819 -1.473247,1.6294 -0.549823,0.51717 -1.163265,0.94969 -1.813518,1.32927 -1.328322,0.70012 -2.691934,1.33539 -4.124563,1.78719 -0.839251,0.25736 -1.698191,0.4403 -2.559405,0.60592 -0.879102,0.17685 -1.772136,0.26998 -2.667857,0.29486 -0.850297,0.0197 -1.699159,-0.002 -2.543291,-0.10785 -0.782119,-0.11931 -1.508766,-0.43747 -2.229186,-0.74882 -0.477914,-0.19841 -0.240887,-0.0946 -0.711068,-0.31144 0,0 1.836838,-1.02035 1.836838,-1.02035 v 0 c 0.467744,0.21022 0.231458,0.10764 0.708933,0.30756 0.707845,0.30299 1.426091,0.60086 2.196758,0.69714 0.83896,0.0899 1.681615,0.10823 2.524951,0.0816 0.889886,-0.0404 1.775928,-0.13869 2.648627,-0.32165 0.858308,-0.17141 1.714175,-0.3609 2.54849,-0.62848 0.340154,-0.11229 0.450819,-0.14476 0.784887,-0.27111 0.126672,-0.0479 0.498906,-0.2101 0.377772,-0.14953 -2.914436,1.45701 -1.465432,0.67686 -0.807141,0.38041 0.654545,-0.3618 1.279449,-0.77209 1.824199,-1.28895 0.559972,-0.47154 1.042787,-1.00848 1.485212,-1.59163 0.443127,-0.5696 0.950109,-1.09429 1.278673,-1.74471 0.372936,-0.63851 0.65399,-1.3206 0.943616,-1.99978 0.307051,-0.66788 0.583586,-1.34641 0.746148,-2.06656 0.186093,-0.67763 0.361652,-1.36014 0.46713,-2.05567 0.07883,-0.58248 0.0609,-1.16679 0.05648,-1.75352 -0.0013,-0.36174 -0.0016,-0.72352 -0.0079,-1.08522 0,0 1.969799,-0.81591 1.969799,-0.81591 z"
       inkscape:connector-curvature="0"
       style="stroke-width:0.26458332" />
    <path
       id="path104"
       d="m 125.50582,182.54831 c 0.73825,-0.32206 2.18998,-0.99904 -1.04934,0.49737 0.4541,-0.20109 0.83452,-0.51506 1.22871,-0.80925 0.46936,-0.34604 0.90315,-0.7368 1.28956,-1.1731 0.4304,-0.50922 0.72221,-1.10805 0.9818,-1.71678 0.2751,-0.64894 0.41889,-1.33833 0.50839,-2.03418 0.0763,-0.64237 0.002,-1.27521 -0.14856,-1.89976 -0.13597,-0.62467 -0.35925,-1.21802 -0.63683,-1.79212 -0.2879,-0.5728 -0.7396,-1.01105 -1.23916,-1.39877 -0.56807,-0.4179 -1.21392,-0.70211 -1.8671,-0.9569 -0.6508,-0.2448 -1.33302,-0.32815 -2.02234,-0.35673 -0.66253,-0.0409 -1.31158,0.0431 -1.94232,0.242 -0.72332,0.30098 -1.0315,0.43336 1.30228,-0.60946 0.0993,-0.0444 -0.19487,0.0967 -0.29062,0.14825 -0.28926,0.15578 -0.55542,0.33962 -0.82482,0.52672 -0.58033,0.40496 -1.13278,0.84737 -1.63364,1.34738 -0.51925,0.53621 -0.89786,1.17752 -1.23475,1.83787 -0.35668,0.70188 -0.5874,1.45089 -0.77194,2.21305 -0.18109,0.74312 -0.24378,1.50601 -0.26065,2.2684 -0.01,0.69014 0.155,1.35267 0.36945,2.0021 0.20509,0.61427 0.59747,1.12705 1.00104,1.62292 0.47309,0.53885 0.99945,1.02151 1.57095,1.45308 0.6006,0.44445 1.27503,0.76268 1.98098,0.99804 0.64046,0.19515 1.30874,0.29076 1.97746,0.26992 0.62859,-0.005 1.22151,-0.18175 1.80743,-0.38893 1.03814,-0.4628 -0.88865,0.42329 -1.34007,0.61908 -0.0917,0.0397 0.17333,-0.0995 0.25844,-0.15177 0.26518,-0.16298 0.52601,-0.3346 0.78664,-0.50474 0.53893,-0.36261 1.025,-0.7834 1.45305,-1.27082 0.45546,-0.54356 0.77123,-1.17802 1.05272,-1.82371 0.30121,-0.72946 0.52705,-1.48737 0.69601,-2.25752 0.0944,-0.51786 0.0503,-0.25771 0.13213,-0.78048 0,0 1.95197,-0.77404 1.95197,-0.77404 v 0 c -0.0791,0.52953 -0.0366,0.2656 -0.12756,0.7918 -0.16181,0.78217 -0.38611,1.5511 -0.67941,2.29459 -0.27573,0.66177 -0.58432,1.31353 -1.02813,1.88198 -0.41693,0.50988 -0.89267,0.94868 -1.43362,1.32631 -1.08417,0.74107 -2.22721,1.38478 -3.48269,1.80998 -0.59697,0.19907 -1.20977,0.33488 -1.84319,0.33059 -0.68266,-0.0123 -1.36251,-0.11473 -2.01106,-0.3338 -0.71571,-0.26117 -1.40115,-0.59455 -2.01057,-1.05757 -0.57942,-0.44697 -1.11876,-0.94146 -1.59866,-1.49532 -0.41646,-0.51801 -0.81936,-1.05354 -1.03282,-1.6918 -0.22319,-0.67112 -0.3967,-1.35569 -0.39402,-2.06915 0.0122,-0.7758 0.0682,-1.55276 0.24525,-2.31061 0.1798,-0.77596 0.40263,-1.54005 0.75456,-2.2582 0.33055,-0.6771 0.70115,-1.33741 1.21131,-1.89839 0.48958,-0.51854 1.03849,-0.9705 1.61879,-1.38465 1.1041,-0.7743 2.29325,-1.42109 3.59263,-1.83204 0.64724,-0.16994 1.31006,-0.22848 1.97899,-0.18217 0.70223,0.0441 1.39546,0.15708 2.05345,0.41788 0.66692,0.26887 1.32487,0.56989 1.90007,1.00861 0.51699,0.41504 0.98243,0.8832 1.28225,1.48382 0.28336,0.5874 0.5146,1.19358 0.65587,1.83201 0.16068,0.64723 0.2447,1.30379 0.17507,1.97143 -0.0834,0.71236 -0.21856,1.41974 -0.48855,2.08786 -0.25358,0.62517 -0.53769,1.24188 -0.95558,1.7771 -0.37439,0.45663 -0.80446,0.85795 -1.27126,1.21958 -0.40135,0.28453 -0.75905,0.63248 -1.21307,0.83615 -0.86797,0.41064 -1.82299,0.9416 -2.77484,1.255 0,0 1.78992,-1.15811 1.78992,-1.15811 z"
       inkscape:connector-curvature="0"
       style="stroke-width:0.26458332" />
    <path
       id="path106"
       d="m 40.180812,234.24481 c 0.09083,-0.35253 0.127921,-0.7162 0.166646,-1.07732 0.05985,-0.59953 0.09352,-1.20123 0.124804,-1.80279 0.03758,-0.75347 0.06189,-1.50751 0.08404,-2.26156 0.02442,-0.85638 0.04127,-1.71295 0.05657,-2.56953 0.01072,-0.61099 0.01902,-1.22201 0.02705,-1.83304 0,0 1.935189,-0.79872 1.935189,-0.79872 v 0 c -0.0074,0.61106 -0.01503,1.22213 -0.02484,1.83316 -0.01405,0.85675 -0.02952,1.7135 -0.05188,2.57009 -0.02027,0.75463 -0.04253,1.50925 -0.07668,2.2634 -0.02844,0.6036 -0.05918,1.20727 -0.112347,1.80929 -0.03459,0.36789 -0.07091,0.73624 -0.139521,1.09966 0,0 -1.989018,0.76736 -1.989018,0.76736 z"
       inkscape:connector-curvature="0"
       style="stroke-width:0.26458332" />
    <path
       id="path110"
       d="m 40.709146,226.78554 c 0.0062,-0.36388 0.0065,-0.72784 0.0079,-1.09176 0.0021,-0.6026 0.0032,-1.2052 0.0042,-1.8078 7.94e-4,-0.47111 2.65e-4,-0.2336 0.0011,-0.71251 0,0 1.943368,-0.80497 1.943368,-0.80497 v 0 c 7.93e-4,0.47833 2.64e-4,0.24112 0.0011,0.71163 0.0011,0.60142 0.0021,1.20285 0.0042,1.80428 0.0013,0.36174 0.0016,0.72352 0.0079,1.08521 0,0 -1.969799,0.81592 -1.969799,0.81592 z"
       inkscape:connector-curvature="0"
       style="stroke-width:0.26458332" />
    <path
       id="path112"
       d="m 40.71535,223.01949 c 0.09083,-0.35253 0.127924,-0.7162 0.166648,-1.07732 0.05985,-0.59953 0.09352,-1.20123 0.124801,-1.80279 0.0055,-0.11665 0.01095,-0.23329 0.01643,-0.34994 0,0 1.947955,-0.79668 1.947955,-0.79668 v 0 c -0.005,0.11681 -0.0099,0.23362 -0.01495,0.35042 -0.02844,0.6036 -0.05918,1.20727 -0.112347,1.80929 -0.03459,0.36789 -0.07091,0.73624 -0.13952,1.09966 0,0 -1.989021,0.76736 -1.989021,0.76736 z"
       inkscape:connector-curvature="0"
       style="stroke-width:0.26458332" />
    <path
       id="path114"
       d="m 42.307322,219.32596 c -0.07715,-0.36449 -0.114843,-0.7357 -0.15139,-1.10598 0,0 1.945667,-0.82887 1.945667,-0.82887 v 0 c 0.03677,0.3587 0.07249,0.71927 0.154776,1.071 0,0 -1.949053,0.86385 -1.949053,0.86385 z"
       inkscape:connector-curvature="0"
       style="stroke-width:0.26458332" />
    <path
       id="path116"
       d="m 44.255883,216.75881 c 0.360262,-0.0662 0.72513,-0.10168 1.089554,-0.13555 0.600625,-0.0525 1.202848,-0.0832 1.805006,-0.11162 0.755248,-0.0118 1.505942,-0.0774 2.257393,-0.14797 0.858822,-0.06 1.712307,-0.16282 2.566265,-0.26934 0.923743,-0.11648 1.850567,-0.20532 2.778096,-0.28509 0.771779,-0.0641 1.544659,-0.11339 2.316879,-0.17169 0,0 -1.781272,1.1094 -1.781272,1.1094 v 0 c -0.770311,0.0537 -1.540905,0.10407 -2.310204,0.17117 -0.926955,0.0824 -1.853071,0.17464 -2.776215,0.29305 -0.856102,0.10694 -1.713106,0.19893 -2.573356,0.26614 -0.754703,0.0703 -1.509705,0.12226 -2.267575,0.14346 -0.603001,0.0313 -1.206148,0.0651 -1.807067,0.12553 -0.364606,0.0395 -0.73176,0.0776 -1.087424,0.17062 0,0 1.78992,-1.15811 1.78992,-1.15811 z"
       inkscape:connector-curvature="0"
       style="stroke-width:0.26458332" />
    <path
       id="path118"
       d="m 54.984684,215.89484 c 0.154037,0.35666 0.234238,0.73839 0.31011,1.1176 0.112599,0.601 0.177435,1.20939 0.237249,1.81746 0.07125,0.75456 0.117536,1.51114 0.159684,2.26778 0.04635,0.85711 0.07838,1.71489 0.107453,2.57273 0.03064,0.92612 0.05253,1.8525 0.0724,2.77891 0.02043,0.97264 0.0353,1.94539 0.04881,2.91815 0.0069,0.49883 0.01246,0.99767 0.01807,1.49651 0,0 -1.930138,0.80207 -1.930138,0.80207 v 0 c -0.0057,-0.49859 -0.01151,-0.99717 -0.01849,-1.49573 -0.01384,-0.97204 -0.02905,-1.94405 -0.04993,-2.91596 -0.02032,-0.92525 -0.04268,-1.85046 -0.07395,-2.77541 -0.02965,-0.8559 -0.06229,-1.71175 -0.109455,-2.56689 -0.04278,-0.75313 -0.08972,-1.50619 -0.161751,-2.25719 -0.05997,-0.60045 -0.124793,-1.20125 -0.237051,-1.79461 -0.07277,-0.35969 -0.14615,-0.72478 -0.302223,-1.05939 0,0 1.92922,-0.90603 1.92922,-0.90603 z"
       inkscape:connector-curvature="0"
       style="stroke-width:0.26458332" />
    <path
       id="path120"
       d="m 191.44916,194.7132 c 0.007,-0.44069 0.009,-0.88145 0.0127,-1.32218 0.01,-1.24628 0.0161,-2.49258 0.0206,-3.73888 0.009,-2.20857 0.0151,-4.41715 0.0229,-6.62572 0.0136,-3.41737 0.0203,-6.83477 0.0264,-10.25216 0.007,-4.27984 0.013,-8.55967 0.0128,-12.83951 0.001,-4.28746 -0.003,-8.57491 -0.008,-12.86237 -0.005,-3.6939 -0.008,-7.38781 -0.0142,-11.08171 -0.004,-3.02916 -0.0106,-6.05832 -0.0144,-9.08749 -0.004,-2.5375 -0.005,-5.075 -0.008,-7.61251 -0.002,-2.283 -0.003,-4.56601 -0.005,-6.84901 -0.002,-2.07995 -0.003,-4.1599 -0.004,-6.23985 -0.002,-1.84196 -0.004,-3.68392 -0.006,-5.52588 -0.002,-1.594992 -0.003,-3.189982 -0.005,-4.784973 -2.1e-4,-0.247438 -5.3e-4,-0.494879 -5.3e-4,-0.742317 0,0 1.90967,-0.791012 1.90967,-0.791012 v 0 c -2.1e-4,0.24761 -5.3e-4,0.495223 -5.3e-4,0.742836 -10e-4,1.596292 -0.003,3.192587 -0.005,4.788882 -0.002,1.843684 -0.004,3.687364 -0.006,5.531044 -0.002,2.08111 -0.002,4.16223 -0.004,6.24334 -0.002,2.28426 -0.003,4.56852 -0.005,6.85278 -0.003,2.53979 -0.004,5.07957 -0.008,7.61936 -0.004,3.03314 -0.0101,6.06628 -0.0144,9.09942 -0.006,3.69783 -0.009,7.39566 -0.0142,11.09349 -0.005,4.2897 -0.009,8.57939 -0.008,12.86908 -2.6e-4,4.27632 0.006,8.55263 0.0128,12.82894 0.006,3.4101 0.0128,6.8202 0.0264,10.23029 0.008,2.20225 0.0141,4.4045 0.0229,6.60675 0.005,1.2406 0.0108,2.4812 0.0206,3.72178 0.004,0.43722 0.006,0.87448 0.0127,1.31166 0,0 -1.9698,0.81592 -1.9698,0.81592 z"
       inkscape:connector-curvature="0"
       style="stroke-width:0.26458332" />
    <path
       id="path122"
       d="m 192.87173,94.921767 c 0.2882,-0.06655 0.5707,-0.155014 0.85804,-0.230454 2.18879,-0.955318 -2.45749,1.393078 -0.68688,0.291441 0.42916,-0.283141 0.74953,-0.678035 0.98993,-1.127258 0.18787,-0.375398 0.24161,-0.753652 0.0963,-1.147974 -0.19181,-0.374226 -0.54133,-0.603649 -0.90867,-0.782989 -0.39021,-0.187722 -0.77205,-0.204015 -1.16318,-0.02651 3.00853,-1.512901 1.55147,-0.888235 1.02167,-0.0084 -0.24867,0.447474 -0.38333,0.942718 -0.4246,1.450565 -0.0155,0.30354 0.0799,0.569473 0.21604,0.833654 0,0 -1.91484,0.901451 -1.91484,0.901451 v 0 c -0.1511,-0.297182 -0.26462,-0.5984 -0.25929,-0.938551 0.0252,-0.534363 0.15143,-1.05841 0.39001,-1.539489 0.60992,-1.147426 1.31581,-1.327038 2.7412,-1.866018 0.43688,-0.105916 0.84971,-0.03387 1.24862,0.1759 0.40125,0.223951 0.775,0.494787 0.98109,0.919456 0.1679,0.441542 0.15982,0.873607 -0.0352,1.310214 -0.22087,0.480618 -0.53228,0.908709 -0.955,1.233241 -0.9431,0.658101 -2.02301,1.119458 -3.11406,1.47633 -0.29352,0.08321 -0.59235,0.179653 -0.89911,0.189387 0,0 1.81791,-1.114015 1.81791,-1.114015 z"
       inkscape:connector-curvature="0"
       style="stroke-width:0.26458332" />
    <path
       id="path124"
       d="m 193.40627,97.594461 c 0.29922,0.07049 0.59331,0.141666 0.87761,0.262702 0.42372,0.221666 0.81423,0.505532 1.18991,0.80036 0.4866,0.427823 0.9966,0.825904 1.51351,1.216056 0.62478,0.473591 1.32114,0.831751 2.03391,1.151061 0.7791,0.33876 1.59429,0.57987 2.41386,0.79756 0.88052,0.22798 1.77549,0.3917 2.67227,0.54007 0.94959,0.15319 1.90489,0.26652 2.86148,0.36517 1.0583,0.10637 2.1194,0.18025 3.18079,0.2472 1.17192,0.0716 2.34497,0.12174 3.51813,0.16747 1.21672,0.0198 2.43146,-0.0809 3.64112,-0.20075 1.25228,-0.10995 2.49545,-0.30265 3.72856,-0.54423 1.20185,-0.24637 2.39309,-0.54037 3.59367,-0.79337 1.15152,-0.27545 2.30811,-0.52734 3.47053,-0.75213 1.1232,-0.21471 2.25455,-0.38178 3.38768,-0.53383 1.10675,-0.14628 2.21753,-0.25844 3.32909,-0.360559 1.09511,-0.09903 2.19212,-0.174501 3.28948,-0.24319 1.08693,-0.06695 2.17475,-0.117782 3.26273,-0.164039 1.01645,-0.03217 2.02969,0.03106 3.04245,0.107191 0.93748,0.07222 1.87549,0.176038 2.79315,0.384317 0.54914,0.16398 0.27671,0.0799 0.81734,0.25199 0,0 -1.8212,1.04112 -1.8212,1.04112 v 0 c -0.53451,-0.16584 -0.2658,-0.0869 -0.80615,-0.23678 -0.9136,-0.19162 -1.84379,-0.29334 -2.7743,-0.36117 -1.00696,-0.0736 -2.01519,-0.12725 -3.02534,-0.089 -1.08714,0.0472 -2.17411,0.0991 -3.26016,0.16741 -1.09613,0.0701 -2.1919,0.14706 -3.28569,0.24805 -1.10978,0.10409 -2.21875,0.21843 -3.32354,0.36746 -1.13062,0.15482 -2.25939,0.32495 -3.37978,0.5431 -1.1607,0.2284 -2.31488,0.48603 -3.46706,0.75396 -1.19957,0.25621 -2.39054,0.55116 -3.59399,0.78874 -1.23795,0.23232 -2.48426,0.4202 -3.73973,0.52853 -1.21495,0.11585 -2.43554,0.21068 -3.65698,0.17724 -1.1754,-0.0466 -2.3507,-0.097 -3.52484,-0.1693 -1.06423,-0.0683 -2.12819,-0.14298 -3.18917,-0.25192 -0.96001,-0.10059 -1.91856,-0.21732 -2.87113,-0.3746 -0.90129,-0.15274 -1.80067,-0.32139 -2.68476,-0.5563 -0.82703,-0.22545 -1.64925,-0.47548 -2.43339,-0.82588 -0.72205,-0.33221 -1.42554,-0.70536 -2.05924,-1.18963 -0.51975,-0.38992 -1.02744,-0.79405 -1.52378,-1.213388 -0.36739,-0.277841 -0.74316,-0.558234 -1.16705,-0.743886 -0.27213,-0.09513 -0.55819,-0.180531 -0.8479,-0.188767 0,0 1.81791,-1.114018 1.81791,-1.114018 z"
       inkscape:connector-curvature="0"
       style="stroke-width:0.26458332" />
    <path
       id="path126"
       d="m 243.86067,100.8845 c -0.28279,0.1436 -0.59431,0.23086 -0.89237,0.34343 -0.80736,0.40473 0.26326,-0.13468 1.51355,-0.68686 0.0701,-0.031 -0.13268,0.0767 -0.1978,0.11712 -0.20984,0.13013 -0.41154,0.27331 -0.61922,0.40689 -0.51809,0.3172 -1.03007,0.64409 -1.56561,0.93132 -0.6206,0.2792 -1.19909,0.63799 -1.80292,0.9497 -1.02573,0.56454 -2.10292,1.02283 -3.16161,1.52161 -0.51629,0.24324 1.03499,-0.48128 1.55377,-0.71914 0.11176,-0.0512 -0.22179,0.10618 -0.33268,0.15927 -1.31392,0.69808 -2.66091,1.26153 -4.08303,1.67036 -0.82817,0.23144 -1.67285,0.39442 -2.51928,0.542 -0.5934,0.0956 -0.29561,0.0494 -0.89339,0.13848 0,0 1.76928,-1.12123 1.76928,-1.12123 v 0 c 0.5965,-0.0923 0.29937,-0.0444 0.89138,-0.14349 0.84388,-0.15302 1.68586,-0.32217 2.50971,-0.56335 0.82084,-0.24735 3.68415,-1.38717 0.30443,0.0585 1.21235,-0.57494 4.52237,-2.1106 0.99504,-0.46831 -0.98645,0.45927 1.96283,-0.89562 0.94511,-0.48835 0.60952,-0.30052 1.17898,-0.67249 1.80137,-0.94645 0.54025,-0.27298 1.04902,-0.5969 1.56399,-0.91388 0.99814,-0.60189 1.92111,-1.31475 3.09285,-1.61577 0.30353,-0.115472 0.61153,-0.223793 0.91735,-0.329994 0,0 -1.78992,1.158114 -1.78992,1.158114 z"
       inkscape:connector-curvature="0"
       style="stroke-width:0.26458332" />
    <path
       id="path130"
       d="m 233.51231,104.0948 c 0.24897,0.17202 0.51536,0.30208 0.79934,0.40874 0.49902,0.17219 1.01961,0.26674 1.53865,0.35487 0.63737,0.0572 1.27871,0.0959 1.91861,0.0755 0.72361,-0.0369 1.44701,-0.0772 2.1708,-0.11035 0.68624,-0.0309 1.37281,-0.0534 2.05941,-0.0744 0,0 -1.78467,1.10141 -1.78467,1.10141 v 0 c -0.68715,0.0224 -1.37427,0.0464 -2.06101,0.0793 -0.7261,0.0353 -1.45173,0.0809 -2.1782,0.1076 -0.64809,0.002 -1.29893,-0.0216 -1.9417,-0.10833 -0.53037,-0.0945 -1.06273,-0.19639 -1.56847,-0.38725 -0.29304,-0.12069 -0.56769,-0.26907 -0.83352,-0.44153 0,0 1.88076,-1.00554 1.88076,-1.00554 z"
       inkscape:connector-curvature="0"
       style="stroke-width:0.26458332" />
    <path
       id="path132"
       d="m 246.86098,105.35721 c -6.85664,3.17738 4.36483,-1.94754 -2.42247,1.14597 -0.0943,0.043 -0.32242,0.11405 -0.41652,0.14473 -0.073,0.0307 -0.29092,0.1255 -0.21912,0.092 5.57939,-2.60132 -4.92736,2.30186 0.70851,-0.30902 -1.18906,0.5569 -2.37488,1.1254 -3.59412,1.61408 -0.66213,0.23087 -1.3142,0.4878 -1.98154,0.70394 -0.68673,0.25374 -1.36865,0.52396 -2.03637,0.82448 -0.69415,0.33418 -1.43447,0.54897 -2.15572,0.81245 -0.76299,0.28847 -1.54815,0.50881 -2.33926,0.70423 -0.81122,0.24592 -1.63185,0.45602 -2.45932,0.6391 -0.88491,0.19155 -1.77998,0.3293 -2.67635,0.45403 -0.94633,0.1288 -1.89688,0.2224 -2.848,0.30735 -0.98695,0.0864 -1.97567,0.1499 -2.96465,0.20759 -0.98685,0.1 -1.97219,0.0432 -2.95806,-0.0265 -0.93832,-0.10917 -1.8744,-0.23571 -2.8131,-0.34204 -0.96193,-0.11585 -1.93015,-0.16778 -2.89233,-0.27915 -0.94887,-0.1236 -1.89922,-0.23431 -2.85119,-0.33105 -0.93585,-0.13272 -1.87102,-0.26907 -2.80908,-0.3855 -0.94495,-0.0862 -1.88009,-0.20656 -2.80924,-0.39854 -0.89459,-0.1949 -1.79636,-0.3525 -2.70103,-0.49209 -0.94682,-0.14321 -1.89878,-0.24783 -2.85147,-0.34271 -0.95358,-0.11521 -1.91387,-0.12296 -2.87284,-0.13392 -0.74847,0.0147 -1.49377,0.0531 -2.23275,0.17456 0,0 1.77159,-1.12229 1.77159,-1.12229 v 0 c 0.74485,-0.10143 1.49513,-0.13998 2.24687,-0.14348 0.96219,0.0131 1.92473,0.0343 2.88127,0.1503 0.9553,0.0973 1.90983,0.20462 2.85897,0.3515 0.90664,0.14305 1.80992,0.3055 2.70716,0.49965 0.92592,0.18552 1.86013,0.28918 2.79909,0.38602 0.93662,0.11847 1.87006,0.25902 2.80606,0.38186 0.95226,0.0987 1.90265,0.21273 2.8525,0.33234 0.96331,0.10277 1.93083,0.1636 2.89293,0.27952 0.93629,0.10789 1.86986,0.23857 2.80747,0.33441 0.98117,0.0656 1.9615,0.0997 2.94282,0.005 0.9883,-0.0594 1.97631,-0.12484 2.96244,-0.21394 0.94998,-0.0876 1.89935,-0.18418 2.84418,-0.31735 0.89445,-0.12895 1.78749,-0.27151 2.6696,-0.46985 0.82586,-0.18955 1.64287,-0.41116 2.45745,-0.64425 0.78828,-0.20305 1.56861,-0.43463 2.33054,-0.72272 0.72471,-0.25386 1.45435,-0.49589 2.14946,-0.82597 0.67457,-0.28874 1.35288,-0.57085 2.04754,-0.80818 0.66405,-0.22461 1.31962,-0.47391 1.97663,-0.71799 0.29517,-0.12316 0.58756,-0.25237 0.88221,-0.37672 0.0951,-0.0401 0.37902,-0.16377 0.28597,-0.11903 -0.44967,0.21619 -2.35743,1.10607 -1.35508,0.63582 6.8421,-3.19906 -1.3884,0.65193 0.96697,-0.45998 2.08184,-0.98279 1.39659,-0.7181 2.33863,-1.07291 0.13779,-0.051 0.5429,-0.2245 0.41011,-0.16159 -0.57457,0.2722 -2.305,1.07447 -1.72769,0.80814 6.87924,-3.17357 -1.17868,0.51165 0.34941,-0.15294 0,0 2.04092,-0.61888 2.04092,-0.61888 z"
       inkscape:connector-curvature="0"
       style="stroke-width:0.26458332" />
  </g>
</svg>
