<?xml version="1.0" encoding="UTF-8" standalone="no"?>
<!-- Created with Inkscape (http://www.inkscape.org/) -->

<svg
   xmlns:dc="http://purl.org/dc/elements/1.1/"
   xmlns:cc="http://creativecommons.org/ns#"
   xmlns:rdf="http://www.w3.org/1999/02/22-rdf-syntax-ns#"
   xmlns:svg="http://www.w3.org/2000/svg"
   xmlns="http://www.w3.org/2000/svg"
   xmlns:sodipodi="http://sodipodi.sourceforge.net/DTD/sodipodi-0.dtd"
   xmlns:inkscape="http://www.inkscape.org/namespaces/inkscape"
   width="169.16608mm"
   height="259.17792mm"
   viewBox="0 0 169.16608 259.17792"
   version="1.1"
   id="svg8"
   inkscape:version="0.92.1 r15371"
   sodipodi:docname="Xolobdys.svg">
  <defs
     id="defs2" />
  <sodipodi:namedview
     id="base"
     pagecolor="#ffffff"
     bordercolor="#666666"
     borderopacity="1.0"
     inkscape:pageopacity="0.0"
     inkscape:pageshadow="2"
     inkscape:zoom="0.24748737"
     inkscape:cx="138.43325"
     inkscape:cy="258.90626"
     inkscape:document-units="mm"
     inkscape:current-layer="layer2"
     showgrid="false"
     fit-margin-top="0"
     fit-margin-left="0"
     fit-margin-right="0"
     fit-margin-bottom="0"
     inkscape:window-width="1024"
     inkscape:window-height="714"
     inkscape:window-x="-4"
     inkscape:window-y="1"
     inkscape:window-maximized="1" />
  <metadata
     id="metadata5">
    <rdf:RDF>
      <cc:Work
         rdf:about="">
        <dc:format>image/svg+xml</dc:format>
        <dc:type
           rdf:resource="http://purl.org/dc/dcmitype/StillImage" />
        <dc:title></dc:title>
      </cc:Work>
    </rdf:RDF>
  </metadata>
  <g
     inkscape:label="Layer 1"
     inkscape:groupmode="layer"
     id="layer1"
     style="display:none;opacity:0.18600003"
     transform="translate(35.219525,-31.076482)">
    <path
       style="opacity:0.98000004;fill:#1a1a1a;fill-opacity:0.98039216;stroke-width:0.26458332"
       id="path12"
       d="m -15.235589,60.661459 c -0.0098,0.615612 -0.01312,1.231323 -0.017,1.846998 0.02824,1.43781 0.34768,2.852558 0.678475,4.246039 0.485028,2.008529 1.26431,3.924776 2.072986,5.820058 0.954054,2.286421 2.131791,4.462319 3.3716749,6.603336 1.3910948,2.455905 2.9921015,4.782476 4.6349957,7.074466 1.776449,2.462831 3.68615856,4.822819 5.6740931,7.11685 2.0293117,2.351301 4.0939374,4.672438 6.2294363,6.927874 2.1692465,2.24988 4.370627,4.46922 6.589459,6.67022 2.447424,2.37554 4.971949,4.67093 7.548911,6.90483 2.66242,2.2734 5.408196,4.4455 8.174142,6.59074 2.652726,2.06482 5.341689,4.08192 8.031949,6.09731 2.714096,2.04592 5.500092,3.99271 8.313586,5.89862 2.831264,1.8904 5.69264,3.73524 8.557699,5.57386 2.760057,1.77002 5.480273,3.60073 8.231553,5.38425 2.632416,1.63621 5.27789,3.25123 7.898114,4.90698 2.563963,1.58041 5.076245,3.24192 7.604942,4.87749 2.50942,1.63783 5.065985,3.20311 7.655735,4.71037 2.216028,1.3138 4.488392,2.52831 6.749701,3.76135 2.053214,1.11054 4.122832,2.18902 6.198115,3.25745 1.927052,0.95857 3.857502,1.91017 5.788462,2.86092 1.83853,0.93223 3.75157,1.69806 5.68581,2.40468 1.86975,0.62673 3.74802,1.22909 5.63995,1.78567 1.75527,0.51339 3.53597,0.93061 5.32388,1.31192 1.67864,0.35362 3.37145,0.63254 5.06751,0.88709 1.46515,0.2661 2.94073,0.31054 4.41161,0.0927 -0.62062,0.59501 2.62417,-0.97712 1.66874,-0.52467 -4.08217,1.93319 -2.1434,1.02831 -1.26481,0.44809 0.72911,-0.50008 1.29159,-1.16101 1.73588,-1.91754 0.35117,-0.71846 0.39228,-1.51447 0.35164,-2.2989 -0.0312,-0.86402 -0.36638,-1.6627 -0.64582,-2.46772 -0.33402,-0.90123 -0.79713,-1.74508 -1.33949,-2.53613 -0.59565,-0.89882 -1.26401,-1.74559 -1.95996,-2.56807 -0.88047,-1.04134 -1.83986,-2.01197 -2.82331,-2.95536 -1.24434,-1.22865 -2.51993,-2.42552 -3.83909,-3.57346 -1.57472,-1.33033 -3.13486,-2.67718 -4.69915,-4.01969 -1.72813,-1.50819 -3.46062,-3.01205 -5.18108,-4.52911 -1.91091,-1.63493 -3.81019,-3.28402 -5.73429,-4.90353 -2.10477,-1.76576 -4.2034,-3.53884 -6.30154,-5.3125 -2.24224,-1.85524 -4.459493,-3.74024 -6.712069,-5.58294 -2.391142,-1.94903 -4.773054,-3.90905 -7.153137,-5.87156 -2.385973,-1.96873 -4.806627,-3.89435 -7.212663,-5.8382 -2.458183,-1.9777 -4.936421,-3.93001 -7.411932,-5.88596 -2.511983,-2.01598 -5.055523,-3.99169 -7.555679,-6.02236 -2.469682,-1.97557 -4.933342,-3.95852 -7.38319,-5.95871 C 54.982799,99.992158 52.515568,98.068153 50.081184,96.102478 47.71754,94.196775 45.373236,92.267293 43.01673,90.352829 40.760559,88.46885 38.521028,86.565006 36.275409,84.668425 34.152723,82.876947 32.026151,81.089684 29.887518,79.317233 27.844752,77.651514 25.844354,75.93491 23.815408,74.252668 21.920697,72.672421 19.997211,71.127325 18.090087,69.562188 16.261889,68.05333 14.46181,66.511262 12.637012,64.99834 10.975249,63.658747 9.3249434,62.304741 7.6461982,60.986354 6.1381605,59.844151 4.568463,58.78247 2.9755491,57.762473 1.5554838,56.855936 0.04487052,56.110549 -1.4945,55.432205 -2.9497059,54.800669 -4.4573578,54.306017 -5.9768311,53.856236 -7.4120038,53.428341 -8.8715598,53.10152 -10.357837,52.91909 c -1.251815,-0.101463 -2.506972,-0.08615 -3.754359,0.05359 0.795224,-0.666753 -2.994258,1.067279 -2.046709,0.639186 2.32651,-1.051092 2.912061,-1.434502 1.79569,-0.748914 -0.76123,0.497152 -1.342501,1.177541 -1.821817,1.94016 -0.431982,0.725401 -0.684328,1.51706 -0.813136,2.346066 -0.130799,0.873313 -0.130597,1.752806 -0.105539,2.632699 0.07082,0.94655 0.190522,1.887861 0.352542,2.822814 0.177484,0.931571 0.574193,1.796534 0.922403,2.67214 0.06434,0.145622 0.128677,0.291243 0.193016,0.436864 0,0 -2.701298,1.252332 -2.701298,1.252332 v 0 c -0.06599,-0.149299 -0.131985,-0.298599 -0.197977,-0.447898 -0.357726,-0.895985 -0.762555,-1.781445 -0.949217,-2.734003 -0.167793,-0.94902 -0.292001,-1.904029 -0.373019,-2.864651 -0.03062,-0.896337 -0.04228,-1.79197 0.07922,-2.683442 0.113919,-0.867076 0.344566,-1.698056 0.770251,-2.469245 0.459933,-0.805492 1.026454,-1.533448 1.783347,-2.083988 1.654455,-1.140491 3.605689,-2.020175 5.606806,-2.316032 1.259855,-0.10857 2.5268728,-0.12232 3.7858415,0.01529 1.4913676,0.212211 2.9583232,0.54905 4.4005055,0.985591 1.5262926,0.461195 3.04020906,0.96819 4.5001009,1.613548 1.5462387,0.693836 3.0626588,1.455558 4.4878639,2.377281 1.5936124,1.032246 3.1675697,2.100353 4.6739692,3.256905 1.6755,1.324054 3.327467,2.677369 4.984088,4.02486 1.821645,1.514499 3.618118,3.058758 5.446345,4.56538 1.906781,1.565582 3.8304,3.110579 5.722113,4.69447 2.023073,1.687301 4.024169,3.400962 6.0638,5.068467 2.137518,1.773944 4.262398,3.56339 6.383475,5.356918 2.241579,1.897116 4.476612,3.80211 6.732492,5.68216 2.354546,1.915626 4.699161,3.843438 7.060705,5.750483 2.433807,1.966275 4.900771,3.890664 7.335158,5.856139 2.449433,2.00034 4.916286,3.97899 7.382867,5.95804 2.498016,2.03077 5.039489,4.00668 7.552033,6.0194 2.47685,1.957 4.960268,3.90555 7.418118,5.88643 2.408449,1.94275 4.827373,3.87235 7.215158,5.84071 2.378898,1.96404 4.761606,3.92325 7.156201,5.86814 2.257365,1.8406 4.475169,3.72872 6.719739,5.58486 2.10032,1.77326 4.20652,3.53958 6.31262,5.30596 1.92723,1.62108 3.83219,3.26876 5.74641,4.90506 1.72447,1.5125 3.45592,3.01738 5.18829,4.52073 1.56763,1.34208 3.13512,2.68382 4.71126,4.01591 1.32553,1.15159 2.60685,2.35247 3.86419,3.57809 0.99311,0.95091 1.95949,1.93101 2.85178,2.97822 0.70708,0.8286 1.37748,1.68894 1.98284,2.59526 0.555,0.81724 1.03373,1.68478 1.37825,2.6131 0.29144,0.8313 0.64496,1.6548 0.68851,2.54702 0.06,0.83658 0.024,1.68295 -0.2854,2.47346 -0.42166,0.80329 -0.96869,1.51683 -1.70187,2.06402 -1.69493,1.23426 -3.6835,2.12978 -5.7448,2.51666 -1.48657,0.16755 -2.97079,0.0867 -4.44395,-0.17975 -1.69846,-0.26038 -3.39352,-0.54558 -5.07394,-0.90646 -1.79041,-0.38919 -3.57331,-0.81489 -5.33041,-1.33652 -1.8938,-0.56474 -3.77674,-1.16713 -5.64687,-1.80578 -1.93797,-0.71872 -3.85349,-1.49801 -5.69703,-2.43699 -1.93192,-0.9499 -3.862536,-1.90254 -5.786192,-2.86901 -2.075002,-1.07025 -4.141824,-2.15569 -6.194575,-3.26819 -2.259523,-1.23522 -4.525629,-2.45997 -6.738274,-3.77836 -2.585376,-1.51882 -5.138078,-3.09345 -7.651109,-4.72941 -2.526234,-1.63884 -5.049809,-3.28196 -7.607004,-4.87243 -2.61856,-1.65706 -5.263023,-3.27243 -7.89047,-4.91529 -2.748584,-1.784 -5.465376,-3.61617 -8.222054,-5.38772 -2.866673,-1.84089 -5.732518,-3.68358 -8.562898,-5.58003 -2.815669,-1.91066 -5.603232,-3.86287 -8.320921,-5.91138 -2.693038,-2.01412 -5.382199,-4.03351 -8.033118,-6.10303 -2.76651,-2.15155 -5.511829,-4.33105 -8.176153,-6.60881 -2.583618,-2.23924 -5.11938,-4.53562 -7.57469,-6.91528 -2.2214186,-2.20345 -4.4296077,-4.42116 -6.597421,-6.67743 -2.1365263,-2.260583 -4.20331787,-4.585546 -6.2353064,-6.940412 -1.9939651,-2.302203 -3.911491,-4.668631 -5.6947726,-7.139077 -1.6493855,-2.300499 -3.260172,-4.633103 -4.661424,-7.095559 -1.251078,-2.149472 -2.43811,-4.335348 -3.40282,-6.631241 -0.824071,-1.90745 -1.61378,-3.837966 -2.119419,-5.858706 -0.34657,-1.412446 -0.677074,-2.844723 -0.743515,-4.302201 -0.0039,-0.61104 -0.0071,-1.222116 -0.01699,-1.833092 0,0 2.790725,-1.141717 2.790725,-1.141717 z"
       inkscape:connector-curvature="0" />
    <path
       style="opacity:0.98000004;fill:#1a1a1a;fill-opacity:0.98039216;stroke-width:0.26458332"
       id="path14"
       d="m 43.728695,90.143604 c 0.0021,0.52124 -0.01159,1.039551 -0.06063,1.558589 -0.12354,0.83385 -0.317805,1.655575 -0.532313,2.470131 -0.389885,1.229538 -0.85076,2.435527 -1.377751,3.612481 -0.598752,1.249791 -1.295011,2.447145 -2.032728,3.618925 -0.854906,1.32937 -1.787739,2.6065 -2.765449,3.84762 -1.038555,1.20084 -2.047234,2.42692 -3.076673,3.6354 -0.972396,1.14654 -1.955257,2.28459 -2.959158,3.4037 -0.997466,1.16779 -2.06606,2.27043 -3.110608,3.39523 -1.100333,1.19056 -2.186001,2.39381 -3.226752,3.63692 -1.03877,1.17239 -1.973018,2.4278 -2.867267,3.71197 -0.875944,1.28625 -1.776947,2.55553 -2.636278,3.85297 -0.769793,1.23674 -1.510252,2.49287 -2.188411,3.78237 -0.649795,1.24934 -1.151128,2.56551 -1.603755,3.89651 -0.449379,1.27985 -0.605403,2.61242 -0.647329,3.95967 -0.06759,1.38993 0.09417,2.75904 0.341227,4.12266 0.312175,1.53619 1.007359,2.95982 1.692642,4.35839 0.851398,1.65971 1.93106,3.17951 3.041655,4.67198 1.245681,1.67137 2.712599,3.15177 4.143415,4.66059 1.553559,1.64503 3.149472,3.25061 4.772606,4.82693 1.7052,1.63469 3.454908,3.22344 5.2416,4.76854 2.089785,1.81536 4.336182,3.43077 6.629559,4.97548 2.474261,1.66715 5.033618,3.19816 7.6323,4.66152 2.517894,1.41036 5.052364,2.79066 7.648059,4.05288 2.398138,1.14696 4.827934,2.21973 7.307921,3.17675 2.307109,0.91646 4.66176,1.70544 7.016163,2.48984 2.251707,0.71697 4.512561,1.40596 6.775151,2.08794 2.230469,0.6808 4.502861,1.20771 6.780223,1.70354 2.078865,0.44825 4.172929,0.81971 6.271463,1.16211 1.897552,0.30669 3.803653,0.55535 5.712037,0.78332 1.772917,0.20942 3.550438,0.37579 5.329056,0.52788 1.659,0.14745 3.3268,0.15613 4.99112,0.18131 1.57166,-0.0177 3.1406,-0.0916 4.70675,-0.22043 1.49807,-0.15905 2.98568,-0.41406 4.45686,-0.73648 1.3685,-0.28247 2.72343,-0.61881 4.08108,-0.94799 1.26502,-0.32055 2.48886,-0.77087 3.71383,-1.21534 1.24037,-0.44879 2.43953,-0.99376 3.63428,-1.54972 -4.51646,2.26988 -0.44315,0.0287 0.56708,-0.56457 0.9982,-0.60543 1.98665,-1.22836 2.92243,-1.92714 0.85613,-0.72383 1.73229,-1.42288 2.52863,-2.21324 0.78974,-0.80287 1.38422,-1.75628 1.91429,-2.74228 0.54526,-1.01903 0.91046,-2.11035 1.20631,-3.22301 0.30341,-1.11735 0.46421,-2.26003 0.57578,-3.40983 0.12725,-1.07565 0.0769,-2.15684 -0.13274,-3.21719 -0.15113,-0.96469 -0.62342,-1.80985 -1.04887,-2.6718 -0.42005,-0.87008 -0.93033,-1.67042 -1.57792,-2.38658 -0.62785,-0.76478 -1.39417,-1.377 -2.21798,-1.9151 -0.89747,-0.52955 -1.79337,-1.06279 -2.65917,-1.6431 -0.88224,-0.58342 -1.79308,-1.12111 -2.68878,-1.68299 -0.93154,-0.5382 -1.84815,-1.09987 -2.76233,-1.6669 -0.89676,-0.59146 -1.76221,-1.2255 -2.68656,-1.77403 -0.91466,-0.57319 -1.79106,-1.20796 -2.64317,-1.87017 -0.8828,-0.67663 -1.7901,-1.32015 -2.66714,-2.00424 -0.93533,-0.67585 -1.77828,-1.46537 -2.63939,-2.23052 -0.92992,-0.76798 -1.83476,-1.56069 -2.69001,-2.41107 -0.89105,-0.89733 -1.80488,-1.77121 -2.69121,-2.67334 -0.86736,-0.92931 -1.74065,-1.85271 -2.59391,-2.79508 -0.87735,-0.96644 -1.70596,-1.97558 -2.61384,-2.91397 -0.89404,-0.93159 -1.76002,-1.88944 -2.613836,-2.85788 -0.839833,-0.96963 -1.774659,-1.84786 -2.650557,-2.78312 -0.837168,-0.88639 -1.681577,-1.7662 -2.511163,-2.65974 -0.830135,-0.82458 -1.662691,-1.64551 -2.463892,-2.49886 -0.8113,-0.80241 -1.534192,-1.6866 -2.295083,-2.53542 -0.73519,-0.8392 -1.472748,-1.67709 -2.232634,-2.49414 -0.52003,-0.51323 -0.260895,-0.25421 -0.777354,-0.77711 0,0 2.643257,-1.35641 2.643257,-1.35641 v 0 c 0.518266,0.52339 0.257619,0.26114 0.78197,0.78673 0.757934,0.82137 1.498696,1.65864 2.234468,2.49984 0.756105,0.84926 1.482886,1.726 2.290074,2.52836 0.803934,0.85124 1.638231,1.67109 2.463041,2.50153 0.830691,0.89144 1.671145,1.77382 2.507869,2.65957 0.88097,0.93443 1.81145,1.8212 2.65303,2.79303 0.85311,0.9633 1.71591,1.91819 2.60844,2.84526 0.90403,0.94608 1.7358,1.9565 2.61863,2.92205 0.85251,0.93712 1.71981,1.86036 2.58761,2.78329 0.88813,0.89881 1.79871,1.77464 2.69202,2.6682 0.85562,0.84188 1.76123,1.6258 2.68275,2.39476 0.85834,0.75912 1.70159,1.53812 2.63219,2.21007 0.88096,0.67915 1.78618,1.32568 2.66913,2.00223 0.8478,0.6491 1.71309,1.27941 2.6243,1.83715 0.91955,0.55846 1.78642,1.19389 2.68943,1.77817 0.91333,0.56872 1.83681,1.11948 2.76295,1.66694 0.90177,0.55769 1.80909,1.1066 2.69421,1.69079 0.87127,0.5725 1.76817,1.10336 2.66017,1.64265 0.83719,0.56486 1.61362,1.20521 2.25904,1.98812 0.65713,0.74515 1.18345,1.57093 1.61659,2.46594 0.43929,0.88658 0.92066,1.75931 1.08202,2.75049 0.22263,1.08874 0.28832,2.20104 0.16319,3.30806 -0.10654,1.16528 -0.25712,2.32429 -0.55616,3.45847 -0.28875,1.13436 -0.64224,2.24944 -1.18118,3.2937 -0.52076,1.01163 -1.10357,1.99426 -1.88266,2.8323 -0.78277,0.81752 -1.66669,1.51281 -2.5167,2.25764 -0.92309,0.72547 -1.91855,1.34639 -2.91398,1.96701 -1.90586,1.1105 -3.77872,2.26237 -5.85229,3.06083 -1.19695,0.5551 -2.40781,1.07844 -3.64978,1.52597 -1.2274,0.44488 -2.46102,0.87552 -3.73125,1.18427 -1.35688,0.33177 -2.71568,0.65261 -4.08332,0.9377 -1.4797,0.30245 -2.97001,0.56308 -4.47537,0.69856 -1.57005,0.12171 -3.14387,0.18903 -4.7189,0.19153 -1.6677,-0.0271 -3.33831,-0.0432 -4.999927,-0.20275 -1.779059,-0.15575 -3.556969,-0.32606 -5.330098,-0.54008 -1.908577,-0.23294 -3.814783,-0.48687 -5.712174,-0.79948 -2.098265,-0.34896 -4.191913,-0.72729 -6.270038,-1.18274 -2.280396,-0.50443 -4.555664,-1.03995 -6.789213,-1.72695 -2.263479,-0.68471 -4.527471,-1.3694 -6.777366,-2.09752 -2.355154,-0.7899 -4.710011,-1.58505 -7.017829,-2.50646 -2.480379,-0.96837 -4.911233,-2.05074 -7.310268,-3.20616 -2.595107,-1.27254 -5.131319,-2.65806 -7.651348,-4.07285 -2.601116,-1.47427 -5.166159,-3.01058 -7.646313,-4.68239 -2.303491,-1.55462 -4.562403,-3.17779 -6.664758,-4.99973 -1.793881,-1.54761 -3.553272,-3.13609 -5.259164,-4.78048 -1.626039,-1.57992 -3.224227,-3.18958 -4.783012,-4.83595 -1.443868,-1.51516 -2.917018,-3.00819 -4.171427,-4.68985 -1.122503,-1.50856 -2.21294,-3.04497 -3.076199,-4.72099 -0.700716,-1.42304 -1.417575,-2.87091 -1.744674,-4.43312 -0.254811,-1.38407 -0.431323,-2.7725 -0.366842,-4.18467 0.02789,-1.3757 0.163337,-2.74013 0.612928,-4.05056 0.447706,-1.34597 0.943145,-2.67792 1.587244,-3.94434 0.671753,-1.30296 1.420113,-2.56342 2.182194,-3.81519 0.852253,-1.30435 1.762343,-2.56949 2.634839,-3.86032 0.888752,-1.2957 1.814886,-2.56731 2.862635,-3.74078 1.033539,-1.25171 2.11853,-2.45797 3.218145,-3.65182 1.036879,-1.12971 2.119484,-2.21751 3.108526,-3.39077 1.010751,-1.11252 1.990585,-2.25323 2.965445,-3.39715 1.037225,-1.19992 2.025679,-2.44151 3.082779,-3.6247 0.983911,-1.22481 1.909628,-2.49612 2.768537,-3.81197 0.738486,-1.15839 1.431401,-2.34335 2.042551,-3.57464 0.532366,-1.156415 0.987171,-2.345135 1.380178,-3.556244 0.217101,-0.796017 0.390705,-1.602319 0.538385,-2.414074 0.04955,-0.50651 0.07589,-1.010984 0.04987,-1.520124 0,0 2.790724,-1.141714 2.790724,-1.141714 z"
       inkscape:connector-curvature="0" />
    <path
       style="opacity:0.98000004;fill:#1a1a1a;fill-opacity:0.98039216;stroke-width:0.26458332"
       id="path16"
       d="m 98.861567,166.87349 c 1.090609,-0.2505 3.242793,-1.36902 -1.384147,0.76434 1.573289,-0.73749 3.10452,-1.61917 4.81454,-1.98441 0.86344,-0.18918 1.74159,-0.21736 2.62126,-0.22809 0.95188,-0.015 1.84685,0.22325 2.73918,0.52298 0.93763,0.23366 1.72698,0.7511 2.50794,1.29373 0.80411,0.55962 1.42373,1.30658 1.97207,2.10774 0.56308,0.81534 0.90924,1.71034 1.08879,2.67781 0.1552,0.90077 0.0379,1.779 -0.17967,2.65509 -0.25429,0.8845 -0.67116,1.71089 -1.16409,2.48432 -0.5542,0.80399 -1.21151,1.51534 -1.95449,2.14559 -1.60513,1.23165 -3.55333,1.94261 -5.37168,2.77405 -1.07233,0.41503 -2.17825,0.73964 -3.30499,0.9667 -1.04147,0.21851 -2.105583,0.21935 -3.151553,0.0454 -1.031716,-0.22039 -1.98035,-0.6945 -2.90001,-1.19603 -0.913913,-0.55379 -1.751859,-1.21811 -2.507036,-1.97233 -0.792498,-0.74637 -1.480074,-1.59267 -2.113372,-2.47549 -0.676971,-0.96567 -1.176923,-2.03362 -1.624902,-3.11979 -0.460848,-1.09227 -0.745101,-2.23694 -0.925555,-3.40489 -0.167039,-1.13593 0.0059,-2.25008 0.324554,-3.34008 0.315129,-1.07206 0.80136,-2.08137 1.369563,-3.03995 0.593854,-0.97667 1.376672,-1.81007 2.208585,-2.58543 0.835933,-0.81936 1.76512,-1.52175 2.753911,-2.14369 1.894387,-1.08271 3.890314,-1.99646 5.950615,-2.71419 1.10065,-0.40766 2.24718,-0.58578 3.41286,-0.64376 1.05233,-0.0103 2.08052,0.1956 3.07046,0.53844 0.98461,0.38135 1.88976,0.90611 2.72895,1.54234 0.80727,0.69637 1.63707,1.35883 2.37546,2.12976 0.84114,0.83494 1.45446,1.84308 2.01143,2.87942 0.58694,1.12473 1.01593,2.31944 1.403,3.52458 0.40343,1.22905 0.66161,2.49286 0.8587,3.76885 0.20418,1.24793 0.22832,2.51308 0.15649,3.77268 -0.084,1.09253 -0.43526,2.13162 -0.88966,3.12057 -0.44356,0.91986 -1.13528,1.65036 -1.90672,2.3013 -1.63246,1.2188 -3.5414,2.02123 -5.41835,2.78385 -1.01717,0.48498 -2.07384,0.87281 -3.14662,1.21355 -1.14834,0.36253 -2.3223,0.61721 -3.51273,0.7896 -1.17454,0.13353 -2.346604,0.0298 -3.496335,-0.22129 -0.942113,-0.1636 -1.802434,-0.56049 -2.658102,-0.96659 0,0 2.589543,-1.45789 2.589543,-1.45789 v 0 c 0.840547,0.39176 1.693937,0.74779 2.615834,0.90108 1.13353,0.21467 2.28725,0.28919 3.43456,0.12416 1.18126,-0.18943 2.34582,-0.46334 3.4841,-0.83454 1.067,-0.35556 2.11169,-0.76724 3.13385,-1.23733 1.1088,-0.47866 1.22182,-0.53379 -1.65678,0.79789 -0.16026,0.0741 0.31809,-0.15355 0.47456,-0.23537 0.30406,-0.159 0.60365,-0.33155 0.89121,-0.51892 0.1405,-0.0915 0.27605,-0.19049 0.41407,-0.28574 0.77589,-0.60466 1.48487,-1.28461 1.95225,-2.16402 0.47284,-0.94411 0.83043,-1.9509 0.94208,-3.00657 0.0888,-1.23695 0.07,-2.48154 -0.1271,-3.70857 -0.19105,-1.26003 -0.4354,-2.50936 -0.83675,-3.72204 -0.3802,-1.18633 -0.80137,-2.36269 -1.38069,-3.46889 -0.54577,-1.01023 -1.15083,-1.98766 -1.97872,-2.79569 -0.73315,-0.75127 -1.55063,-1.40537 -2.35121,-2.08265 -0.82488,-0.60356 -1.7139,-1.10243 -2.6784,-1.44995 -0.97323,-0.30409 -1.98088,-0.481 -3.00473,-0.43324 -1.14914,0.083 -2.274272,0.30657 -3.355331,0.71599 -0.49876,0.18195 -0.657751,0.23364 -1.146995,0.43716 -0.186131,0.0774 -0.736253,0.3286 -0.554667,0.24104 4.125813,-1.98931 1.939502,-0.92914 1.05523,-0.44388 -0.996466,0.59509 -1.942841,1.26562 -2.770749,2.0847 -0.83758,0.7426 -1.625803,1.54967 -2.233265,2.49602 -0.584867,0.92508 -1.075455,1.91441 -1.398765,2.96254 -0.331814,1.04178 -0.530265,2.10766 -0.378526,3.20466 0.168878,1.14404 0.434191,2.26663 0.88973,3.33456 0.438661,1.06262 0.928333,2.10755 1.595281,3.04946 0.627761,0.86571 1.311445,1.69155 2.09205,2.42519 0.742495,0.725 1.56274,1.36817 2.461718,1.89003 0.902819,0.47513 1.831054,0.92791 2.847599,1.0951 1.02998,0.12841 2.0668,0.0966 3.08155,-0.13888 1.11546,-0.25383 2.21507,-0.5807 3.27294,-1.01932 -4.61481,2.18512 -0.86144,0.52276 0.0759,-0.22985 0.75541,-0.59422 1.41536,-1.27292 1.98221,-2.05156 0.50808,-0.73312 0.9165,-1.53195 1.19855,-2.37961 0.21933,-0.8335 0.3753,-1.65952 0.233,-2.52505 -0.16174,-0.92542 -0.47919,-1.77891 -1.02701,-2.55282 -0.53306,-0.76682 -1.13786,-1.47505 -1.92003,-2.00099 -0.76383,-0.52465 -1.55257,-0.98291 -2.46175,-1.2115 -0.87344,-0.27917 -1.75917,-0.4607 -2.68292,-0.42858 -0.86985,0.0216 -1.73826,0.0803 -2.586405,0.29052 -0.39172,0.10509 -0.773348,0.22306 -1.151358,0.37111 -0.115649,0.0453 -0.45635,0.19606 -0.344286,0.14251 0.683313,-0.32657 3.356399,-1.57365 2.057639,-0.96343 -1.329183,0.61469 -2.591968,1.35038 -4.015849,1.68906 0,0 2.508496,-1.67257 2.508496,-1.67257 z"
       inkscape:connector-curvature="0" />
    <path
       style="opacity:0.98000004;fill:#1a1a1a;fill-opacity:0.98039216;stroke-width:0.26458332"
       id="path18"
       d="m 117.04846,174.09217 c -0.15159,0.45927 -0.37892,0.89207 -0.60334,1.31949 -0.43239,0.8591 -0.94253,1.67537 -1.44538,2.49416 -0.71368,1.22327 -1.45283,2.43127 -2.2163,3.62404 -0.88431,1.43438 -1.7401,2.88622 -2.59742,4.33686 -0.92491,1.53432 -1.85003,3.06837 -2.78407,4.59713 -0.83358,1.42401 -1.70288,2.82643 -2.56703,4.23191 -0.82532,1.30261 -1.66637,2.59502 -2.50453,3.88937 -0.77048,1.21323 -1.58181,2.39974 -2.385487,3.59109 -0.779619,1.13789 -1.462066,2.33754 -2.233784,3.48034 -0.756579,1.07811 -1.526681,2.14542 -2.251456,3.24558 -0.683226,1.08986 -1.47315,2.10299 -2.23374,3.138 -0.750909,1.02648 -1.467313,2.07704 -2.18268,3.12832 -0.688083,1.02176 -1.303293,2.08765 -1.983565,3.11474 -0.699016,0.95556 -1.324624,1.95972 -1.951194,2.96325 -0.423545,0.65256 -0.212212,0.32692 -0.634003,0.97693 0,0 -2.812586,0.94833 -2.812586,0.94833 v 0 c 0.419679,-0.65148 0.207475,-0.32767 0.636584,-0.97144 0.622327,-1.00855 1.240142,-2.02202 1.949461,-2.97286 0.681662,-1.02879 1.316321,-2.08313 1.984147,-3.1205 0.724223,-1.04731 1.426041,-2.11001 2.17968,-3.13694 0.749996,-1.03993 1.561328,-2.03424 2.24228,-3.12339 0.716955,-1.10794 1.483469,-2.17988 2.25039,-3.25319 0.78981,-1.13159 1.462125,-2.33734 2.236314,-3.47961 0.81194,-1.18519 1.614919,-2.37733 2.390862,-3.58637 0.846887,-1.28874 1.674887,-2.58984 2.514727,-3.88325 0.8613,-1.40844 1.7415,-2.80562 2.57166,-4.23288 0.93341,-1.52864 1.86356,-3.05903 2.78887,-4.59266 0.84741,-1.45631 1.71524,-2.9009 2.58239,-4.34554 0.76345,-1.18569 1.50127,-2.38808 2.20271,-3.61161 0.49179,-0.81105 1.00248,-1.6137 1.42593,-2.46346 0.2106,-0.41047 0.42135,-0.81999 0.61033,-1.23983 0,0 2.82023,-1.06601 2.82023,-1.06601 z"
       inkscape:connector-curvature="0" />
    <path
       style="opacity:0.98000004;fill:#1a1a1a;fill-opacity:0.98039216;stroke-width:0.26458332"
       id="path20"
       d="m 91.34608,165.77669 c -0.175697,0.4335 -0.310142,0.88016 -0.4484,1.32713 -0.195271,0.70663 -0.499661,1.37059 -0.786329,2.04263 -0.210158,0.549 -0.440854,1.08954 -0.686387,1.62351 0,0 -2.810719,0.99322 -2.810719,0.99322 v 0 c 0.255746,-0.52403 0.488717,-1.05993 0.688351,-1.60805 0.273618,-0.6678 0.601675,-1.31302 0.78505,-2.01446 0.149712,-0.43065 0.21749,-0.89516 0.438206,-1.29796 0,0 2.820228,-1.06602 2.820228,-1.06602 z"
       inkscape:connector-curvature="0" />
    <path
       style="opacity:0.98000004;fill:#1a1a1a;fill-opacity:0.98039216;stroke-width:0.26458332"
       id="path22"
       d="m 91.343344,163.53987 c -0.225055,0.38392 -0.424175,0.78545 -0.634823,1.17862 -0.411808,0.74465 -0.789289,1.50677 -1.153501,2.27558 -0.539456,1.12753 -1.08616,2.25083 -1.666502,3.35794 -0.694828,1.3982 -1.469289,2.75386 -2.230948,4.11604 -0.805061,1.44152 -1.619287,2.87781 -2.468978,4.29358 -0.858337,1.44012 -1.722337,2.87749 -2.623791,4.29111 -0.972502,1.50217 -1.905807,3.02902 -2.860064,4.54265 -0.878271,1.39979 -1.716828,2.82415 -2.618475,4.20921 -0.822478,1.27084 -1.659837,2.53227 -2.42352,3.83969 -0.701339,1.25458 -1.496139,2.45269 -2.246548,3.67756 -0.718836,1.12581 -1.38803,2.28193 -2.101096,3.4113 -0.672922,1.06654 -1.285364,2.16701 -1.96419,3.23005 -0.632838,1.0356 -1.255119,2.07861 -1.816504,3.15497 -0.540515,1.08654 -1.068904,2.17677 -1.526358,3.30115 -0.467606,1.17286 -0.808082,2.38929 -1.115139,3.6122 -0.316545,1.29074 -0.546225,2.60008 -0.754396,3.91192 -0.212249,1.36631 -0.367787,2.74038 -0.50896,4.11556 -0.142442,1.41516 -0.247725,2.83362 -0.343356,4.25258 -0.136466,1.48049 -0.12293,2.96369 -0.05414,4.44669 0.08047,1.77012 0.225727,3.53661 0.402559,5.2995 0.220517,2.02286 0.609549,4.01933 1.047461,6.00462 0.41565,1.97604 0.975688,3.91484 1.552221,5.84835 0.58824,1.99151 1.292799,3.94502 1.998842,5.89689 0.739098,1.9946 1.551818,3.96154 2.390563,5.91606 0.930929,2.07358 1.999173,4.0813 3.113434,6.06107 1.075812,1.95654 2.154458,3.91091 3.262345,5.84949 1.031094,1.79655 2.13851,3.54753 3.207668,5.32135 0.953786,1.57187 2.040136,3.0565 3.059477,4.5852 0.908564,1.31218 1.80222,2.63428 2.704799,3.9505 0.577196,0.78655 1.158782,1.5698 1.726546,2.36318 0,0 -2.651151,1.30265 -2.651151,1.30265 v 0 c -0.56972,-0.79465 -1.153933,-1.57869 -1.727216,-2.3708 -0.899115,-1.31956 -1.794,-2.64179 -2.697472,-3.95843 -1.019813,-1.53342 -2.102583,-3.02586 -3.053236,-4.60457 -1.068409,-1.77702 -2.17618,-3.5306 -3.205755,-5.33075 -1.103718,-1.94143 -2.179984,-3.89768 -3.256278,-5.85443 -1.118706,-1.99039 -2.192739,-4.00786 -3.134016,-6.08923 -0.84224,-1.95978 -1.65871,-3.93194 -2.401273,-5.93187 -0.707785,-1.9576 -1.415749,-3.91593 -2.009958,-5.91191 -0.580702,-1.9405 -1.142098,-3.88701 -1.558975,-5.87086 -0.443296,-1.99596 -0.837295,-4.00309 -1.067395,-6.03644 -0.18646,-1.76546 -0.339948,-3.53511 -0.425718,-5.30854 -0.07758,-1.4933 -0.105674,-2.98744 0.03358,-4.47891 0.0941,-1.4222 0.197692,-2.84391 0.337691,-4.26244 0.138914,-1.38026 0.291943,-2.75945 0.500414,-4.13121 0.204859,-1.31998 0.430842,-2.63753 0.741484,-3.9374 0.302213,-1.23572 0.636982,-2.46533 1.096457,-3.6534 0.449046,-1.13629 0.974503,-2.23486 1.515616,-3.3297 0.552145,-1.08964 1.179962,-2.13651 1.807162,-3.18411 0.680302,-1.0636 1.311587,-2.15238 1.96714,-3.23102 0.725294,-1.12157 1.381749,-2.28505 2.10801,-3.40605 0.742341,-1.22918 1.550865,-2.41784 2.252109,-3.67192 0.755925,-1.31887 1.597903,-2.58343 2.423409,-3.85927 0.915223,-1.37732 1.749361,-2.80573 2.627455,-4.20662 0.962919,-1.50836 1.885799,-3.04217 2.859627,-4.54378 0.90365,-1.40833 1.764782,-2.84383 2.621349,-4.28115 0.853765,-1.41084 1.669373,-2.84389 2.473375,-4.28351 0.755693,-1.35979 1.535822,-2.7071 2.222326,-4.10403 0.575624,-1.10093 1.12255,-2.21486 1.653947,-3.33781 0.35497,-0.77145 0.719545,-1.53852 1.130239,-2.28207 0.202319,-0.40206 0.440312,-0.7859 0.602941,-1.20582 0,0 2.859484,-0.95921 2.859484,-0.95921 z"
       inkscape:connector-curvature="0" />
    <path
       style="opacity:0.98000004;fill:#1a1a1a;fill-opacity:0.98039216;stroke-width:0.26458332"
       id="path26"
       d="m 86.810367,221.71717 c -0.12913,0.49769 -0.181528,1.01141 -0.236363,1.52141 -0.107669,0.79837 -0.07411,1.60271 -0.04952,2.4049 0.03111,0.9868 0.273796,1.93515 0.56701,2.87138 0.357227,1.18992 0.866971,2.32396 1.336191,3.47176 0.429977,1.13433 0.910571,2.24907 1.45193,3.33461 0.578138,1.0917 1.186217,2.16648 1.800267,3.23814 0.635794,1.09798 1.427565,2.09187 2.187284,3.10445 0.8685,1.22223 1.778479,2.41158 2.740326,3.56152 1.067324,1.27462 2.149774,2.53576 3.236447,3.79395 1.136451,1.36621 2.289371,2.71846 3.438441,4.0741 1.15416,1.36454 2.31433,2.72424 3.44241,4.11057 1.15203,1.35954 2.27804,2.73985 3.40347,4.12125 1.03304,1.2851 2.10277,2.54083 3.1226,3.83645 0.99584,1.14657 1.82721,2.4135 2.66698,3.67397 0.80321,1.17375 1.4646,2.43126 2.05844,3.72095 0.57917,1.28301 1.017,2.62138 1.41322,3.97002 0.3821,1.23523 0.57725,2.51145 0.59486,3.802 -0.0126,1.0644 -0.2578,2.07947 -0.66079,3.05777 -0.37446,0.95607 -0.94378,1.79019 -1.63235,2.54344 -0.72504,0.7552 -1.61503,1.30106 -2.53315,1.78652 -1.84979,1.04232 -3.69775,1.78675 -5.7328,2.25591 -1.13468,0.25104 -2.28482,0.42061 -3.43595,0.57484 -1.22733,0.18806 -2.46337,0.25434 -3.70275,0.28744 -1.25259,0.0647 -2.496759,-0.1221 -3.737906,-0.26194 -1.260864,-0.16282 -2.504813,-0.41645 -3.750242,-0.66659 -1.272825,-0.25738 -2.556838,-0.45183 -3.843236,-0.62643 -1.309931,-0.12766 -2.602977,-0.35271 -3.888264,-0.63058 -1.179322,-0.30363 -2.351985,-0.62936 -3.496469,-1.04677 -1.105559,-0.40378 -2.224521,-0.76613 -3.311403,-1.2193 -0.687758,-0.31015 -1.347145,-0.66702 -1.984362,-1.06963 0,0 2.607617,-1.42447 2.607617,-1.42447 v 0 c 0.629306,0.38407 1.278059,0.73015 1.955337,1.02352 1.087805,0.43891 2.201659,0.80414 3.303019,1.20684 1.138298,0.39878 2.299046,0.72641 3.470912,1.01153 1.280671,0.27072 2.571374,0.47196 3.87322,0.6115 1.290912,0.17968 2.579081,0.3805 3.856304,0.64204 1.239494,0.2494 2.480326,0.4916 3.736743,0.64177 1.23323,0.13793 2.46989,0.30086 3.7139,0.22249 1.23383,-0.0407 2.46324,-0.12972 3.68464,-0.31713 1.14769,-0.16123 2.29448,-0.33843 3.42329,-0.60486 1.17496,-0.29059 5.10762,-1.7875 0.39166,0.17587 0.91857,-0.45532 1.81472,-0.96557 2.56071,-1.67987 0.70329,-0.70847 1.29766,-1.49839 1.66971,-2.43411 0.42306,-0.93303 0.68144,-1.90424 0.71488,-2.93434 0.008,-1.26259 -0.17633,-2.51378 -0.54711,-3.72268 -0.39031,-1.3339 -0.82164,-2.65777 -1.39381,-3.92661 -0.58647,-1.27457 -1.24105,-2.51645 -2.03426,-3.67659 -0.83199,-1.25505 -1.6637,-2.51029 -2.64916,-3.65366 -1.01904,-1.29379 -2.08459,-2.55048 -3.11658,-3.83396 -1.12061,-1.38416 -2.24647,-2.76346 -3.39592,-4.12398 -1.13238,-1.38069 -2.2906,-2.74 -3.44367,-4.10333 -1.148704,-1.3544 -2.297533,-2.70862 -3.436062,-4.07155 -1.091525,-1.25752 -2.180066,-2.51689 -3.248305,-3.79427 -0.965144,-1.15517 -1.87702,-2.35097 -2.758408,-3.57129 -0.769662,-1.02202 -1.568725,-2.02755 -2.207824,-3.13947 -0.61732,-1.07719 -1.22895,-2.15744 -1.811512,-3.25402 -0.542753,-1.09379 -1.027237,-2.21547 -1.459526,-3.35754 -0.47243,-1.15573 -0.983081,-2.29824 -1.34951,-3.49407 -0.312052,-0.96029 -0.574746,-1.93307 -0.616037,-2.9485 -0.02897,-0.81405 -0.07455,-1.63062 0.02458,-2.44206 0.04884,-0.52096 0.100238,-1.04254 0.196626,-1.5573 0,0 2.820228,-1.06601 2.820228,-1.06601 z"
       inkscape:connector-curvature="0" />
  </g>
  <g
     inkscape:groupmode="layer"
     id="layer2"
     inkscape:label="Layer 2"
     transform="translate(35.219525,-31.076482)">
    <path
       style="opacity:0.98000004;fill:#1a1a1a;fill-opacity:0.98039216;stroke-width:0.26458332"
       id="path29"
       d="m 112.51001,173.36725 c -0.26077,0.33005 -0.51107,0.66871 -0.74089,1.02229 -0.35445,0.55394 -0.72493,1.09685 -1.08263,1.64868 -0.48841,0.66159 -0.98776,1.31511 -1.48246,1.97207 -0.57417,0.79122 -1.02889,1.65852 -1.57002,2.47138 -0.63668,0.88988 -1.22998,1.80744 -1.79456,2.74439 -0.62809,1.04111 -1.30088,2.05419 -1.92787,3.09581 -0.68467,1.08135 -1.3079,2.19919 -1.93456,3.31457 -0.60377,1.1622 -1.34402,2.24347 -2.000965,3.37481 -0.618572,1.10755 -1.217996,2.22292 -1.740993,3.37902 -0.5159,1.12931 -1.041421,2.25435 -1.548863,3.3875 -0.440266,1.12416 -1.022209,2.18273 -1.532464,3.27493 -0.489727,1.09439 -0.980556,2.18637 -1.402879,3.30888 -0.416438,1.14359 -0.809818,2.29518 -1.215464,3.44253 -0.435406,1.14745 -0.791633,2.32101 -1.105132,3.50681 -0.324851,1.25676 -0.559483,2.53382 -0.771877,3.81357 -0.228571,1.31358 -0.295709,2.64659 -0.302311,3.97751 0.02342,1.265 0.183047,2.51932 0.345792,3.77201 0.18832,1.27075 0.474015,2.5234 0.840804,3.75379 0.391419,1.2833 0.868852,2.54046 1.390901,3.77595 0.525301,1.27653 1.151697,2.50762 1.754002,3.74867 0.674045,1.33265 1.445885,2.60972 2.229689,3.87955 0.748914,1.24298 1.52953,2.46742 2.35118,3.66364 0.78619,1.20337 1.64727,2.35411 2.48731,3.51957 0.89436,1.26781 1.89095,2.45891 2.89038,3.64415 1.03494,1.23189 2.08569,2.45025 3.12636,3.67727 1.00024,1.06492 1.8424,2.25962 2.77187,3.38313 0.83426,1.03932 1.7351,2.02234 2.56867,3.06206 0.77168,1.07426 1.59559,2.10865 2.40217,3.15656 0.82321,1.12348 1.65117,2.24454 2.43076,3.39892 0.676,1.15057 1.41428,2.26147 2.12063,3.39323 0.69249,1.11225 1.22767,2.30777 1.70803,3.52348 0.48317,1.25124 0.83943,2.54495 1.1617,3.84524 0,0 -2.70789,1.19309 -2.70789,1.19309 v 0 c -0.3175,-1.28656 -0.66845,-2.5667 -1.14578,-3.80468 -0.47268,-1.19751 -0.9999,-2.3749 -1.68328,-3.46959 -0.70472,-1.12797 -1.43486,-2.23927 -2.11202,-3.38426 -0.77695,-1.14813 -1.59869,-2.26552 -2.4223,-3.38045 -0.80737,-1.04486 -1.62855,-2.07888 -2.4023,-3.14923 -0.83476,-1.0365 -1.73111,-2.02138 -2.56251,-3.06083 -0.92268,-1.12639 -1.76902,-2.31488 -2.76336,-3.38218 -1.03985,-1.22763 -2.08509,-2.45066 -3.12365,-3.67937 -1.00608,-1.19077 -2.00747,-2.38855 -2.906366,-3.66366 -0.843499,-1.1666 -1.708666,-2.31809 -2.495372,-3.52472 -0.820235,-1.20307 -1.602153,-2.4322 -2.35303,-3.67971 -0.789921,-1.27894 -1.563862,-2.56749 -2.24723,-3.90751 -0.605777,-1.24573 -1.237925,-2.48049 -1.764983,-3.76254 -0.525515,-1.24669 -1.009573,-2.51353 -1.405432,-3.80775 -0.377156,-1.24531 -0.670933,-2.51374 -0.863915,-3.8013 -0.166187,-1.2663 -0.333793,-2.53339 -0.361741,-3.81234 0.0021,-1.34633 0.06094,-2.6959 0.28393,-4.02603 0.208798,-1.28832 0.439359,-2.57406 0.757901,-3.84052 0.307393,-1.19477 0.653812,-2.37937 1.092745,-3.5334 0.417275,-1.1439 0.794362,-2.30286 1.214628,-3.44581 0.414076,-1.13268 0.901923,-2.2317 1.393468,-3.3323 0.500142,-1.09669 1.096907,-2.14682 1.53561,-3.27101 0.500565,-1.13686 1.03274,-2.25963 1.550498,-3.38869 0.514451,-1.16935 1.110708,-2.29412 1.730822,-3.41047 0.645877,-1.13846 1.397627,-2.21147 2.003539,-3.37262 0.627666,-1.11592 1.236578,-2.24374 1.929518,-3.32132 0.61576,-1.04696 1.28903,-2.05822 1.92293,-3.09422 0.55592,-0.94496 1.14014,-1.87188 1.78139,-2.76171 0.56347,-0.80081 1.00927,-1.67248 1.56014,-2.48174 0.48375,-0.65814 0.97504,-1.31112 1.48046,-1.95284 0.36691,-0.53974 0.70381,-1.09899 1.07896,-1.63335 0.20394,-0.35974 0.43487,-0.73313 0.71883,-1.02969 0,0 2.85948,-0.95922 2.85948,-0.95922 z"
       inkscape:connector-curvature="0" />
    <path
       style="opacity:0.98000004;fill:#1a1a1a;fill-opacity:0.98039216;stroke-width:0.26458332"
       id="path43"
       d="m 94.619013,287.16181 c -0.469805,-0.0895 -0.934996,-0.2218 -1.384599,-0.38594 -0.654095,-0.2258 -1.274699,-0.54314 -1.867837,-0.89755 -0.774401,-0.52221 -1.551548,-1.04082 -2.281441,-1.62441 -0.973283,-0.81674 -1.91379,-1.67405 -2.832156,-2.55207 -0.971066,-0.97821 -1.884812,-2.01019 -2.758165,-3.07593 -0.983617,-1.18349 -1.859396,-2.44999 -2.734085,-3.71438 -0.878541,-1.3556 -1.766054,-2.70516 -2.590665,-4.09451 -0.808397,-1.4061 -1.56324,-2.84104 -2.264216,-4.30345 -0.723353,-1.52934 -1.465562,-3.04936 -2.203466,-4.57171 -0.747517,-1.562 -1.435635,-3.15244 -2.095101,-4.75343 -0.655796,-1.5499 -1.33147,-3.09134 -2.017024,-4.6283 -0.626732,-1.41475 -1.272453,-2.81906 -1.83733,-4.26018 -0.561962,-1.34475 -1.086525,-2.70456 -1.644492,-4.05094 -0.560657,-1.33415 -1.156475,-2.65134 -1.672479,-4.004 -0.456408,-1.32433 -0.935183,-2.64105 -1.366194,-3.97405 -0.399529,-1.34549 -0.80159,-2.69051 -1.166104,-4.04604 -0.369707,-1.38793 -0.650957,-2.79666 -0.905478,-4.20953 -0.276847,-1.41301 -0.436896,-2.83608 -0.474244,-4.27431 -0.04924,-1.33828 0.03133,-2.67173 0.188092,-3.99996 0.131524,-1.25715 0.389043,-2.49285 0.769572,-3.69704 0.393105,-1.23153 0.909318,-2.41478 1.455793,-3.58417 0.609415,-1.27286 1.302002,-2.50464 2.009439,-3.72512 0.853369,-1.42648 1.683719,-2.86647 2.511777,-4.30778 0.847365,-1.48699 1.776005,-2.92527 2.690019,-4.37156 0.890021,-1.44466 1.881754,-2.82205 2.836823,-4.22348 0.931333,-1.38893 1.893678,-2.75578 2.862434,-4.11864 0.983917,-1.35746 1.930742,-2.74149 2.934761,-4.08424 1.006727,-1.30898 1.961856,-2.65571 2.927826,-3.99459 0.893162,-1.27089 1.848552,-2.49624 2.792879,-3.72909 0.865296,-1.17053 1.71346,-2.35317 2.620031,-3.4923 0.872728,-1.10764 1.761741,-2.20264 2.669468,-3.2818 0.947838,-1.0099 1.830142,-2.07587 2.699136,-3.15345 0.819127,-1.03643 1.6885,-2.02866 2.589192,-2.99445 0.596937,-0.59735 0.292819,-0.30578 0.912204,-0.87488 0,0 2.834761,-0.86488 2.834761,-0.86488 v 0 c -0.625869,0.55099 -0.318725,0.26784 -0.921252,0.84964 -0.909339,0.9536 -1.78031,1.94042 -2.601794,2.971 -0.863174,1.08338 -1.735635,2.16161 -2.695548,3.1619 -0.917004,1.07063 -1.802043,2.16884 -2.676472,3.27434 -0.913427,1.13305 -1.768089,2.30983 -2.624802,3.48605 -0.941446,1.23497 -1.908368,2.45164 -2.800673,3.7232 -0.974354,1.33504 -1.915977,2.6941 -2.928601,4.00115 -1.013939,1.33268 -1.950699,2.72107 -2.936192,4.07469 -0.965182,1.36415 -1.939796,2.72109 -2.865562,4.11276 -0.949394,1.4031 -1.950612,2.77157 -2.841628,4.21347 -0.909592,1.44607 -1.845791,2.87662 -2.695874,4.35909 -0.823195,1.44119 -1.651201,2.87961 -2.499553,4.30606 -0.708221,1.21001 -1.394732,2.4352 -2.01123,3.69474 -0.542679,1.15979 -1.07556,2.32406 -1.467202,3.54602 -0.397677,1.18047 -0.65773,2.39869 -0.792795,3.63783 -0.162697,1.31419 -0.261636,2.63296 -0.210481,3.9587 0.02822,1.4233 0.173389,2.8311 0.452154,4.22901 0.251394,1.40422 0.529159,2.80443 0.895313,4.18393 0.362196,1.35057 0.765083,2.68958 1.16128,4.03041 0.428123,1.32814 0.903949,2.64008 1.357143,3.95967 0.513747,1.35011 1.107385,2.66484 1.666434,3.99623 0.560628,1.34772 1.086326,2.70946 1.645938,4.05761 0.561486,1.43714 1.203889,2.83766 1.825646,4.24922 0.68434,1.54091 1.358765,3.08627 2.017726,4.63817 0.655259,1.5955 1.340345,3.18008 2.084618,4.73622 0.740436,1.52176 1.485423,3.04106 2.208368,4.57125 0.696968,1.45378 1.452518,2.87753 2.254396,4.2763 0.820793,1.38279 1.703067,2.72695 2.581118,4.07384 0.871662,1.25656 1.745705,2.51407 2.729606,3.68684 0.868656,1.05354 1.77709,2.07386 2.744396,3.03837 0.916017,0.86804 1.847779,1.72294 2.826837,2.51962 0.731536,0.56243 1.49782,1.07898 2.27515,1.57578 0.588526,0.33055 1.195641,0.63357 1.841262,0.83696 0.4568,0.14105 0.917969,0.26509 1.388096,0.35306 0,0 -2.594953,1.53503 -2.594953,1.53503 z"
       inkscape:connector-curvature="0" />
    <path
       style="opacity:0.98000004;fill:#1a1a1a;fill-opacity:0.98039216;stroke-width:0.26458332"
       id="path45"
       d="m 104.93138,190.3644 c 0.50968,0.005 1.0194,0.005 1.5291,0.006 0.8317,0.0167 1.65925,0.004 2.48818,-0.0628 0.98389,-0.0974 1.97375,-0.12449 2.95543,-0.24116 1.08376,-0.14549 2.17038,-0.26633 3.25874,-0.37121 1.10593,-0.15187 2.18815,-0.44122 3.26662,-0.72339 1.09416,-0.3213 2.14937,-0.75339 3.23038,-1.1143 0.95077,-0.37622 3.13816,-1.30741 -1.12666,0.55886 -0.16629,0.0728 0.32307,-0.16568 0.48234,-0.25274 0.27314,-0.1493 0.66403,-0.3821 0.93204,-0.53976 0.93988,-0.53343 1.79054,-1.19063 2.63111,-1.86451 0.87175,-0.68522 1.69768,-1.41417 2.43263,-2.24487 0.75801,-0.81525 1.39841,-1.7188 1.9614,-2.67628 0.5815,-1.02002 0.99796,-2.11851 1.37238,-3.22765 0.40699,-1.16381 0.65801,-2.3596 0.78348,-3.58336 0.11427,-1.15993 0.0724,-2.32668 -0.0199,-3.48609 -0.0853,-1.12369 -0.28008,-2.23528 -0.50842,-3.33758 -0.23145,-1.0503 -0.6021,-2.05774 -0.99647,-3.05532 -0.42954,-0.99233 -0.87869,-1.97278 -1.36871,-2.93653 -0.53687,-0.96414 -1.0943,-1.91719 -1.6639,-2.86238 -0.51122,-0.95466 -1.19399,-1.79397 -1.90065,-2.60812 -0.69931,-0.80968 -1.5087,-1.49718 -2.3237,-2.18387 -0.79553,-0.71867 -1.56836,-1.45864 -2.42255,-2.10813 -0.87954,-0.6463 -1.78919,-1.23814 -2.75433,-1.74784 -0.96533,-0.57628 -2.00521,-1.0059 -2.98184,-1.56005 -0.97661,-0.54187 -1.96443,-1.06635 -2.96694,-1.55909 -0.9827,-0.57015 -2.03608,-0.99292 -3.06854,-1.45928 -1.06359,-0.44114 -2.12035,-0.88255 -3.15457,-1.38937 -1.02574,-0.46166 -1.99601,-1.03205 -2.9946,-1.54714 -1.04558,-0.48647 -2.096925,-0.95907 -3.120442,-1.49139 -1.087493,-0.56339 -2.162321,-1.15112 -3.240019,-1.73321 -1.073631,-0.55328 -2.170012,-1.06122 -3.247295,-1.60704 -1.048736,-0.53024 -2.083146,-1.08862 -3.120204,-1.6415 -1.010883,-0.60632 -2.048743,-1.16453 -3.073289,-1.74647 -0.98833,-0.62464 -1.968863,-1.26205 -2.941556,-1.91078 -1.053264,-0.67086 -2.084818,-1.37417 -3.114643,-2.0802 -1.140656,-0.78107 -2.264246,-1.58634 -3.366423,-2.42091 -1.136724,-0.8534 -2.284585,-1.69153 -3.425545,-2.53921 -1.226854,-0.89236 -2.40384,-1.85028 -3.631829,-2.74082 -1.179589,-0.8846 -2.348212,-1.7834 -3.519922,-2.67842 -1.254693,-0.95119 -2.456807,-1.96826 -3.67752,-2.96185 -1.288111,-1.02649 -2.601574,-2.01933 -3.927753,-2.99596 -1.182203,-0.8857 -2.277816,-1.87823 -3.434389,-2.79587 -1.088292,-0.86746 -2.175023,-1.73269 -3.198355,-2.67687 -1.039585,-0.94521 -2.018752,-1.95127 -3.011654,-2.94449 -0.968875,-0.98694 -1.928879,-1.98012 -2.811621,-3.04557 C 45.28916,101.16515 44.383322,100.2015 43.50331,99.215063 42.620226,98.20676 41.733962,97.200999 40.857566,96.186806 39.966899,95.188896 39.099106,94.171372 38.22434,93.159581 37.280516,92.037327 36.338189,90.913917 35.408417,89.780027 34.499306,88.643858 33.585655,87.511294 32.677094,86.374638 31.803988,85.353384 31.006436,84.271513 30.164947,83.22475 29.415642,82.223344 28.550367,81.318639 27.714625,80.390835 26.924354,79.479554 26.220557,78.499927 25.503059,77.531951 24.830904,76.589606 24.092244,75.696322 23.366425,74.794945 22.645554,73.923003 21.991771,72.997943 21.263997,72.132046 20.554615,71.28298 19.82854,70.446862 19.081287,69.630787 18.366615,68.808938 17.596009,68.034148 16.777941,67.315331 15.987172,66.569412 15.194572,65.826734 14.375144,65.111854 13.528362,64.436399 12.712881,63.72268 11.847119,63.071366 10.920855,62.488659 10.038969,61.840869 9.127615,61.235764 8.1832486,60.615914 7.1497512,60.160653 6.100025,59.753994 4.959093,59.324673 3.7781695,59.019479 2.5925373,58.743545 1.3231008,58.455311 0.03768258,58.247795 -1.2497474,58.059642 c -0.2215649,-0.03005 -0.4431298,-0.06011 -0.6646946,-0.09016 0,0 2.52898893,-1.537009 2.52898893,-1.537009 v 0 c 0.22229503,0.03094 0.44459007,0.06188 0.66688507,0.09281 1.2935981,0.19404 2.5850486,0.408181 3.8595158,0.70579 1.1958513,0.286258 2.3865371,0.60326 3.5346671,1.048564 1.0641864,0.424792 2.1098681,0.901171 3.0648221,1.541323 0.912055,0.61433 1.809851,1.249198 2.729055,1.852594 0.865824,0.662506 1.692227,1.374251 2.538925,2.060807 0.816516,0.718865 1.608897,1.462612 2.403383,2.205271 0.819993,0.733324 1.597317,1.51571 2.318817,2.346486 0.747034,0.822415 1.478152,1.659935 2.188325,2.514349 0.723733,0.871736 1.383597,1.794412 2.104198,2.669077 0.725957,0.906634 1.469005,1.801468 2.140713,2.749484 0.709155,0.96112 1.410192,1.930026 2.195798,2.831398 0.840581,0.931405 1.70239,1.846861 2.455479,2.852606 0.837726,1.049451 1.638369,2.128488 2.507742,3.152513 0.907293,1.135636 1.81501,2.270979 2.726539,3.403147 0.928749,1.132012 1.868382,2.254917 2.818069,3.369448 0.872504,1.01378 1.745983,2.026218 2.63421,3.026285 0.87597,1.012288 1.756567,2.020784 2.64341,3.023481 0.884005,0.987486 1.789488,1.956385 2.640309,2.972954 0.879851,1.05494 1.835735,2.03905 2.797339,3.01927 0.990121,0.98967 1.965838,1.99313 3.005026,2.9323 1.022618,0.93409 2.107576,1.79077 3.187232,2.65733 1.147485,0.92122 2.241688,1.90825 3.42166,2.78901 1.325661,0.98365 2.640579,1.98086 3.93032,3.01135 1.221478,0.99013 2.426541,2.00112 3.68237,2.94815 1.170477,0.89251 2.334419,1.7935 3.514587,2.6732 1.224098,0.89721 2.405169,1.8513 3.634031,2.7424 1.14477,0.84515 2.293535,1.68471 3.43117,2.5395 1.101613,0.82832 2.221208,1.63192 3.361547,2.40615 1.032137,0.70272 2.067216,1.4005 3.119837,2.07235 0.969833,0.64003 1.937194,1.28467 2.92844,1.89121 1.026096,0.57557 2.054876,1.14578 3.071032,1.73907 1.033751,0.55358 2.067962,1.10708 3.114934,1.63514 1.083003,0.54014 2.177812,1.05703 3.251287,1.61616 1.074857,0.58325 2.149619,1.16735 3.236979,1.72684 1.02957,0.52249 2.08461,0.99024 3.12467,1.49076 0.99339,0.51993 1.96801,1.07701 2.99027,1.54029 1.03216,0.5028 2.09494,0.92551 3.14864,1.38018 1.03914,0.46126 2.0833,0.9109 3.07547,1.47006 1.00336,0.50156 1.99719,1.02408 2.9755,1.57278 0.98175,0.53999 2.01368,0.98292 2.97874,1.55508 0.97251,0.52789 1.89308,1.13418 2.78155,1.79402 0.85022,0.66104 1.6257,1.40499 2.42945,2.12068 0.82867,0.69598 1.63782,1.40896 2.34756,2.23019 0.71418,0.83194 1.4036,1.68831 1.92398,2.65883 0.5717,0.95287 1.13601,1.91074 1.67329,2.88347 0.49536,0.97246 0.95101,1.96136 1.38376,2.96341 0.40177,1.01477 0.77861,2.03976 1.01706,3.10757 0.23283,1.11477 0.43345,2.23873 0.52322,3.37527 0.0979,1.17741 0.14705,2.36231 0.0392,3.54133 -0.11682,1.24554 -0.34867,2.46518 -0.75774,3.65133 -0.36815,1.12722 -0.77719,2.24443 -1.34665,3.28823 -0.55015,0.97809 -1.17113,1.91241 -1.94083,2.73446 -0.71965,0.85894 -1.53271,1.61166 -2.41457,2.30313 -0.84723,0.6727 -1.67297,1.36984 -2.61703,1.90852 -1.78838,1.05384 -3.64081,2.01788 -5.60379,2.70721 -1.07875,0.37225 -2.13955,0.79943 -3.24357,1.09465 -1.08527,0.28131 -2.17786,0.55949 -3.2947,0.68078 -1.08917,0.11028 -2.17576,0.24139 -3.26209,0.37648 -0.98761,0.0939 -1.97875,0.1467 -2.96689,0.2358 -0.83583,0.0561 -1.67214,0.0497 -2.50956,0.0477 -0.51654,0.001 -1.03309,0.001 -1.5496,0.006 0,0 2.55287,-1.60452 2.55287,-1.60452 z"
       inkscape:connector-curvature="0" />
    <path
       style="opacity:0.98000004;fill:#1a1a1a;fill-opacity:0.98039216;stroke-width:0.26458332"
       id="path47"
       d="M 2.392823,58.864192 C 1.8637477,58.753022 1.3236357,58.70993 0.78604852,58.662395 c -0.89017695,-0.0737 -1.77786707,-0.154358 -2.66910602,-0.06967 -0.4475122,0.02066 -0.8741733,0.135739 -1.3000713,0.262953 0,0 2.47855313,-1.658107 2.47855313,-1.658107 v 0 c 0.43938261,-0.102012 0.8798229,-0.192243 1.33260323,-0.210063 0.90304704,-0.04076 1.80309534,0.03567 2.70295854,0.110474 0.5551284,0.05164 1.1134299,0.100309 1.6567909,0.23119 0,0 -2.594954,1.53502 -2.594954,1.53502 z"
       inkscape:connector-curvature="0" />
    <path
       style="opacity:0.98000004;fill:#1a1a1a;fill-opacity:0.98039216;stroke-width:0.26458332"
       id="path49"
       d="m 2.4138624,58.165356 c -0.509683,-0.0051 -1.019406,-0.0053 -1.52911022,-0.0064 -0.84954227,-0.0016 -1.6990858,-0.0026 -2.54862918,-0.0034 -1.0653199,-0.0011 -2.1306398,-0.0016 -3.19596,-0.0024 -1.1548588,-0.0024 -2.3073693,0.104119 -3.4594643,0.176377 -1.1023923,0.100441 -2.1824767,0.364611 -3.2313437,0.711276 -1.163474,0.32343 -4.991215,2.10955 -0.290057,-0.05321 -0.937241,0.4479 -1.830321,0.981114 -2.705613,1.538684 -0.836872,0.598514 -1.614533,1.276509 -2.413882,1.924161 -0.802659,0.65636 -1.558987,1.367475 -2.242107,2.147406 -0.660704,0.819431 -1.38397,1.583349 -2.077201,2.374289 -0.683525,0.815403 -1.310681,1.674093 -1.933572,2.535907 -0.620059,0.898353 -1.150585,1.856713 -1.666823,2.817595 -0.482682,1.005255 -1.026048,1.978964 -1.541404,2.967271 -0.515856,1.004286 -0.98951,2.027666 -1.462117,3.052574 -0.518832,1.03772 -0.8973,2.133457 -1.297742,3.219466 -0.438978,1.115285 -0.792646,2.259613 -1.104005,3.416115 -0.325105,1.236525 -0.558462,2.493994 -0.769673,3.754109 -0.217953,1.330172 -0.376161,2.668931 -0.519703,4.00884 -0.145976,1.390996 -0.253201,2.785583 -0.350573,4.180689 -0.09797,1.431023 -0.17055,2.863583 -0.236495,4.296385 -0.06586,1.45762 -0.114938,2.91592 -0.159546,4.37432 -0.04433,1.47541 -0.07749,2.95111 -0.107641,4.42687 -0.0199,1.47825 -0.07434,2.95654 -0.05114,4.43493 0.03549,1.4242 0.202361,2.84124 0.331803,4.25908 0.115994,1.3924 0.323297,2.77519 0.491657,4.1619 0.18211,1.34082 0.444362,2.66761 0.703061,3.99505 0.271865,1.27047 0.625026,2.52272 1.018913,3.76034 0.372513,1.19542 0.762344,2.38488 1.144686,3.57716 0.365987,1.10457 0.915159,2.13875 1.460979,3.16312 0.508418,0.99073 1.067997,1.95093 1.75597,2.82754 0.685054,0.84097 1.556398,1.47829 2.4703,2.04616 0.922577,0.63699 1.915425,1.15158 2.938754,1.60381 1.079638,0.4698 2.205223,0.8043 3.353878,1.05246 1.075464,0.20396 2.165732,0.22325 3.25594,0.22333 1.089016,0.009 2.172706,-0.11373 3.248412,-0.27093 1.0611254,-0.13791 2.1030871,-0.39601 3.1158004,-0.7382 1.0054534,-0.33466 2.0084473,-0.6824 2.9903957,-1.08149 1.4422088,-0.69755 -0.5121363,0.25233 -1.7316384,0.77315 -0.1577382,0.0674 0.3006566,-0.16526 0.4487148,-0.25186 0.4415803,-0.25826 0.8699524,-0.53795 1.2959884,-0.82073 0.8728456,-0.55629 1.7225417,-1.14172 2.5421481,-1.77393 0.7974212,-0.66053 1.54980133,-1.37241 2.31010527,-2.0746 0.77557013,-0.70126 1.50865533,-1.44445 2.22299623,-2.20736 0.7758795,-0.79576 1.4112652,-1.70794 2.0497807,-2.61318 0.6071492,-0.9389 1.2761479,-1.83524 1.9304447,-2.74139 0.6531708,-0.90262 1.2397211,-1.85296 1.8036823,-2.81333 0.5583068,-0.99011 1.096989,-1.98806 1.5620948,-3.02556 0.481723,-1.03481 1.037118,-2.03078 1.504637,-3.07275 0.483392,-1.09957 0.83125,-2.24983 1.144218,-3.40724 0.327511,-1.24271 0.562249,-2.50665 0.774876,-3.7732 0.219058,-1.33461 0.378267,-2.67784 0.522723,-4.02224 0.146748,-1.39399 0.254633,-2.7916 0.352606,-4.18973 0.09851,-1.43305 0.171524,-2.86764 0.237867,-4.30248 0.06623,-1.45898 0.1156,-2.918657 0.160474,-4.378432 0.03135,-1.375672 -0.06609,-2.746248 -0.185077,-4.115329 -0.07907,-1.262221 -0.33257,-2.505366 -0.629748,-3.732043 0,0 2.714251,-1.194438 2.714251,-1.194438 v 0 c 0.302744,1.242063 0.561519,2.501403 0.643853,3.779668 0.121033,1.381655 0.222527,2.764521 0.193981,4.152988 -0.04411,1.461185 -0.09264,2.922266 -0.157712,4.382686 -0.06521,1.437 -0.136976,2.87377 -0.233718,4.30905 -0.09629,1.40151 -0.202309,2.80251 -0.346336,4.20006 -0.141957,1.34979 -0.298392,2.69847 -0.513177,4.03893 -0.208944,1.2754 -0.439566,2.54828 -0.760253,3.8011 -0.307501,1.1716 -0.648776,2.33656 -1.122891,3.45341 -0.455315,1.04842 -0.998642,2.04924 -1.504922,3.07261 -0.455318,1.05145 -0.989139,2.05956 -1.548687,3.05883 -0.555411,0.97334 -1.150044,1.92733 -1.791939,2.84581 -0.662505,0.89829 -1.325734,1.79894 -1.9332353,2.73529 -0.6344404,0.91614 -1.2653211,1.84217 -2.0327127,2.65431 -0.7070035,0.77567 -1.4406872,1.52413 -2.2144117,2.23349 -0.7695187,0.69723 -1.5161919,1.41916 -2.3027784,2.09765 -0.80895354,0.6501 -1.65299506,1.24912 -2.5352794,1.79575 -1.6532603,1.15095 -3.4455843,2.05559 -5.3203323,2.80969 -0.9918409,0.38004 -1.9907838,0.74214 -3.0030375,1.06442 -1.0284337,0.31399 -2.0760787,0.56206 -3.1452497,0.69072 -1.08464,0.1478 -2.177594,0.24668 -3.273508,0.23111 -1.102944,-0.008 -2.207138,-0.0543 -3.289903,-0.28552 -1.159982,-0.26902 -2.296863,-0.62623 -3.387237,-1.10902 -1.030655,-0.46869 -2.027295,-1.00269 -2.963032,-1.64315 -0.935756,-0.59916 -1.824695,-1.2712 -2.523208,-2.14636 -0.69184,-0.89664 -1.262121,-1.87195 -1.778439,-2.87932 -0.553011,-1.04267 -1.110724,-2.09408 -1.481029,-3.21801 -0.382037,-1.19265 -0.771922,-2.38237 -1.14404,-3.57819 -0.397592,-1.24972 -0.753658,-2.51425 -1.029385,-3.79681 -0.260564,-1.33493 -0.52868,-2.66835 -0.711541,-4.01692 -0.168106,-1.39006 -0.376249,-2.77605 -0.493419,-4.17161 -0.129932,-1.4255 -0.299479,-2.84996 -0.34053,-4.28152 -0.02689,-1.48229 0.02915,-2.96454 0.04812,-4.44675 0.02964,-1.47667 0.06223,-2.95329 0.105783,-4.42963 0.04384,-1.4598 0.09207,-2.9195 0.156766,-4.37854 0.0648,-1.43496 0.136125,-2.869677 0.232314,-4.30292 0.09568,-1.398474 0.201025,-2.796447 0.344255,-4.190981 0.14102,-1.345303 0.296431,-2.689498 0.510066,-4.025514 0.207481,-1.268897 0.436621,-2.535253 0.755039,-3.781779 0.305028,-1.166159 0.648626,-2.322307 1.090078,-3.445185 0.412274,-1.087596 0.763548,-2.200524 1.287277,-3.243159 0.483643,-1.02261 0.936133,-2.059445 1.457114,-3.06437 0.506627,-0.993796 1.06952,-1.958237 1.53992,-2.970588 0.509161,-0.974942 1.050869,-1.93689 1.650947,-2.858627 0.618787,-0.871575 1.2525,-1.731389 1.923746,-2.563437 0.679348,-0.802738 1.425005,-1.54605 2.077406,-2.372439 0.668259,-0.806921 1.423208,-1.530594 2.223356,-2.206459 0.809308,-0.642604 1.591871,-1.317847 2.404781,-1.954964 0.866023,-0.577873 1.76411,-1.111675 2.694962,-1.578395 1.845812,-0.863407 3.669695,-1.788282 5.6221629,-2.391661 1.0666661,-0.317998 2.1552625,-0.573628 3.2699168,-0.642446 1.1561882,-0.07449 2.3130042,-0.174151 3.4725537,-0.160131 1.0677693,-5.29e-4 2.13553852,-0.0013 3.20330745,-0.0024 0.85320585,-7.94e-4 1.70641185,-0.0019 2.55961665,-0.0034 0.5165351,-0.0011 1.0330883,-0.0013 1.5496031,-0.0064 0,0 -2.5528752,1.604523 -2.5528752,1.604523 z"
       inkscape:connector-curvature="0" />
    <path
       style="opacity:0.98000004;fill:#1a1a1a;fill-opacity:0.98039216;stroke-width:0.26458332"
       id="path53"
       d="m 19.547554,108.83264 c 0.446594,0.32049 0.907013,0.62406 1.350911,0.94906 0.641091,0.44864 1.265412,0.92316 1.867474,1.42318 0.701813,0.52986 1.339513,1.13118 1.975106,1.73637 0.689985,0.69265 1.291062,1.46799 1.893995,2.23591 0.698635,0.82589 1.355006,1.68593 1.98043,2.56821 0.666303,0.99889 1.3266,2.0018 2.018184,2.98351 0.754351,1.10063 1.457282,2.23558 2.171083,3.36272 0.734939,1.16751 1.522966,2.30023 2.259849,3.46633 0.764706,1.10138 1.428067,2.26323 2.017522,3.4661 0.367882,0.81237 0.189756,0.40338 0.534342,1.22699 0,0 -2.688249,1.2391 -2.688249,1.2391 v 0 c -0.339415,-0.8119 -0.163933,-0.40882 -0.526394,-1.20926 -0.584652,-1.19222 -1.245391,-2.34163 -2.000414,-3.43527 -0.737592,-1.16563 -1.523561,-2.29973 -2.261235,-3.46542 -0.710933,-1.12265 -1.410589,-2.25352 -2.166281,-3.34683 -0.693732,-0.98009 -1.355466,-1.98178 -2.023253,-2.9796 -0.626456,-0.87578 -1.286013,-1.72686 -1.979076,-2.55113 -0.596706,-0.75431 -1.189911,-1.51742 -1.877867,-2.19194 -0.629941,-0.60089 -1.274618,-1.18364 -1.967079,-1.71302 -0.603927,-0.48905 -1.223155,-0.96006 -1.862953,-1.40132 -0.440148,-0.30845 -0.879274,-0.62711 -1.346565,-0.89189 0,0 2.63047,-1.4718 2.63047,-1.4718 z"
       inkscape:connector-curvature="0" />
    <path
       style="opacity:0.98000004;fill:#1a1a1a;fill-opacity:0.98039216;stroke-width:0.26458332"
       id="path55"
       d="m 72.678636,185.81021 c -0.485447,-0.29718 -0.913046,-0.67588 -1.359281,-1.0268 -0.704181,-0.5327 -1.484612,-0.94776 -2.249303,-1.38455 -1.025286,-0.60652 -2.056172,-1.20405 -3.098593,-1.78073 -1.134213,-0.64467 -2.23366,-1.3474 -3.367686,-1.99207 -1.211103,-0.71276 -2.456256,-1.36275 -3.702417,-2.01102 -1.31572,-0.65175 -2.642307,-1.28215 -3.97174,-1.90555 -1.42757,-0.71127 -2.897785,-1.3307 -4.353684,-1.98035 -1.746015,-0.75789 -3.483883,-1.5346 -5.237912,-2.27379 -1.875726,-0.79688 -3.763322,-1.56539 -5.642226,-2.3549 -1.914342,-0.81436 -3.852706,-1.56733 -5.789898,-2.3247 -1.799106,-0.66845 -3.562776,-1.42513 -5.340543,-2.14689 -1.581227,-0.64407 -3.171939,-1.2628 -4.762929,-1.88224 -1.501,-0.55768 -3.00466,-1.10909 -4.513327,-1.646 -1.354623,-0.51531 -2.697258,-1.06434 -4.022961,-1.65014 -1.216869,-0.51486 -2.399973,-1.09804 -3.501511,-1.82885 -0.903149,-0.61759 -1.658778,-1.39399 -2.2775095,-2.29122 -0.491762,-0.74925 -0.7768275,-1.59312 -0.9682093,-2.46173 -0.1483802,-0.80923 -0.066309,-1.6203 0.073951,-2.42253 0.1583114,-0.88025 0.478119,-1.70769 0.8597419,-2.51184 0.4017846,-0.83316 0.8812089,-1.62574 1.3839819,-2.40107 0.538062,-0.79527 1.177546,-1.50885 1.83591,-2.20453 0.725224,-0.73963 1.449014,-1.48077 2.168204,-2.22628 0.736803,-0.75657 1.479303,-1.50758 2.215658,-2.26459 0.740762,-0.7702 1.568885,-1.45175 2.416305,-2.10051 0.922223,-0.665 1.913734,-1.2264 2.927576,-1.73784 1.969873,-0.91851 3.936109,-1.86122 5.971068,-2.63113 1.176766,-0.43706 2.391553,-0.75533 3.612012,-1.04241 1.278909,-0.25131 2.513664,-0.67409 3.767418,-1.02325 1.289251,-0.35593 2.600251,-0.62189 3.915207,-0.86189 1.127328,-0.1974 2.258565,-0.37247 3.398289,-0.47797 0,0 -2.488117,1.60219 -2.488117,1.60219 v 0 c -1.133811,0.12216 -2.261087,0.29574 -3.382947,0.50055 -1.310741,0.24774 -2.616965,0.52301 -3.900884,0.88786 -1.253385,0.35667 -2.495508,0.75805 -3.775348,1.01334 -1.214699,0.29756 -2.422914,0.62823 -3.590794,1.08006 -1.100928,0.43179 -5.327593,2.29488 -0.662994,0.17271 -1.017315,0.49088 -2.004219,1.04293 -2.93901,1.67849 -0.854918,0.62598 -1.678187,1.30357 -2.431041,2.0497 -0.728054,0.76455 -1.478745,1.50734 -2.215757,2.26316 -0.710463,0.75257 -1.442426,1.48476 -2.163819,2.22671 -0.664059,0.67556 -1.29886,1.37747 -1.852852,2.14754 -0.513556,0.75625 -0.986233,1.54301 -1.395545,2.3606 -0.394357,0.77139 -0.71986,1.57057 -0.887382,2.42447 -0.142226,0.76266 -0.250546,1.53029 -0.124282,2.30539 0.169867,0.82944 0.442506,1.63329 0.91094,2.34574 0.595373,0.86242 1.331269,1.60142 2.205275,2.18612 1.095831,0.70827 2.269411,1.27419 3.469321,1.78476 1.321844,0.57596 2.653758,1.13073 4.005036,1.63425 1.507755,0.54261 3.013898,1.0904 4.513053,1.65614 1.591975,0.61647 3.177406,1.24768 4.758731,1.89096 1.772415,0.72647 3.53523,1.47661 5.330013,2.1474 1.938655,0.757 3.872838,1.52369 5.790324,2.33334 1.882259,0.78505 3.769968,1.5571 5.647623,2.35301 1.756133,0.74347 3.500284,1.51492 5.249937,2.2735 1.463196,0.64435 2.936343,1.26757 4.368316,1.98032 1.331896,0.62757 2.665126,1.25349 3.980333,1.91541 1.251363,0.64813 2.495323,1.30994 3.712784,2.0204 1.130139,0.65003 2.233454,1.34538 3.368866,1.98663 1.043347,0.58071 2.078111,1.17662 3.109521,1.77825 0.782084,0.44085 1.575326,0.86981 2.287936,1.42022 0.431308,0.34115 0.852488,0.70966 1.34764,0.95636 0,0 -2.630469,1.47179 -2.630469,1.47179 z"
       inkscape:connector-curvature="0" />
    <path
       style="opacity:0.98000004;fill:#1a1a1a;fill-opacity:0.98039216;stroke-width:0.26458332"
       id="path57"
       d="m 29.616606,163.60578 c 0.233262,-0.44602 0.442505,-0.901 0.637519,-1.36492 0.341892,-0.82531 0.684546,-1.65007 1.084194,-2.44929 0.528314,-1.03508 1.108508,-2.0433 1.731324,-3.02417 0.654045,-1.10793 1.425795,-2.13287 2.221976,-3.14042 0.823876,-1.05901 1.787652,-1.99415 2.760203,-2.914 1.024199,-0.96697 2.138579,-1.8267 3.278536,-2.65092 1.139796,-0.8352 2.402607,-1.46656 3.657545,-2.10437 2.027862,-1.10419 4.124478,-2.05499 6.220346,-3.02382 0.204779,-0.0833 0.409559,-0.16657 0.614341,-0.24986 0,0 -2.436024,1.68211 -2.436024,1.68211 v 0 c -0.203147,0.0857 -0.406297,0.17145 -0.609444,0.25718 4.59272,-2.16615 0.07061,-0.0409 -0.936786,0.55237 -1.247905,0.64316 -2.527551,1.23541 -3.672665,2.0587 -1.143331,0.8088 -2.259098,1.65637 -3.288586,2.60827 -0.970262,0.90942 -1.94102,1.82494 -2.771505,2.86738 -0.790834,1.00184 -1.589085,1.99923 -2.228329,3.1089 -0.627568,0.96735 -1.207283,1.96544 -1.733722,2.99161 -0.4118,0.78248 -0.743574,1.6012 -1.074888,2.42033 -0.197004,0.46276 -0.379018,0.93212 -0.60969,1.37729 0,0 -2.844345,0.99763 -2.844345,0.99763 z"
       inkscape:connector-curvature="0" />
    <path
       style="opacity:0.98000004;fill:#1a1a1a;fill-opacity:0.98039216;stroke-width:0.26458332"
       id="path59"
       d="m 46.247557,168.89745 c 0.239141,-0.55838 0.567135,-1.06662 0.908659,-1.56648 0.551003,-0.80449 1.10925,-1.60476 1.707253,-2.37514 0.756568,-0.94819 1.596713,-1.82368 2.418397,-2.71446 0.883405,-0.94492 1.782744,-1.87284 2.750291,-2.73199 0.943907,-0.85277 1.945444,-1.63835 2.946768,-2.42185 1.008322,-0.8105 2.119678,-1.46849 3.267694,-2.0576 1.838476,-0.96789 3.72904,-1.77707 5.696289,-2.42183 0,0 -2.44901,1.6633 -2.44901,1.6633 v 0 c -1.057585,0.36052 -4.934863,1.96232 -0.390163,-0.0223 -1.152178,0.56668 -2.272598,1.19859 -3.284429,1.99526 -1.000238,0.78172 -2.009343,1.55537 -2.953051,2.40546 -0.978855,0.83893 -1.875975,1.76009 -2.759797,2.69762 -0.815113,0.88747 -1.654017,1.75368 -2.416183,2.68823 -0.60833,0.75343 -1.157066,1.55295 -1.703179,2.35187 -0.335825,0.47763 -0.690912,0.96068 -0.895194,1.51224 0,0 -2.844345,0.99763 -2.844345,0.99763 z"
       inkscape:connector-curvature="0" />
    <path
       style="opacity:0.98000004;fill:#1a1a1a;fill-opacity:0.98039216;stroke-width:0.26458332"
       id="path61"
       d="m 57.579273,173.43632 c 0.319455,-0.50653 0.654235,-1.00397 0.992367,-1.49853 0.609028,-0.90114 1.316122,-1.7255 2.045266,-2.52992 1.026814,-1.15535 2.26051,-2.08052 3.519146,-2.96394 1.782432,-1.23159 3.687226,-2.27142 5.591411,-3.29942 0.380706,-0.20415 0.761415,-0.4083 1.142121,-0.61245 0,0 2.795109,-0.7728 2.795109,-0.7728 v 0 c -0.378484,0.20343 -0.756968,0.40687 -1.135454,0.6103 -1.894875,1.01599 -3.789596,2.04552 -5.569839,3.25499 -1.25104,0.86418 -2.489325,1.75591 -3.517739,2.88728 -0.722291,0.79206 -1.436185,1.59271 -2.039765,2.48157 -0.334643,0.48351 -0.676709,0.97266 -0.963137,1.4837 0,0 -2.859486,0.95922 -2.859486,0.95922 z"
       inkscape:connector-curvature="0" />
    <path
       style="opacity:0.98000004;fill:#1a1a1a;fill-opacity:0.98039216;stroke-width:0.26458332"
       id="path73"
       d="m 90.589318,281.89176 c 0.485937,0.18267 0.974397,0.3524 1.450142,0.56412 0.698421,0.39785 1.417085,0.75785 2.120707,1.14559 0.835162,0.47543 1.731539,0.81939 2.640449,1.12279 1.057206,0.35018 2.153753,0.55049 3.234414,0.80965 1.14484,0.35266 2.29577,0.68075 3.46006,0.96279 1.24146,0.29459 2.49991,0.50697 3.7606,0.69919 1.33226,0.19862 2.67164,0.34293 4.01196,0.4739 1.39203,0.13327 2.78704,0.23124 4.18248,0.32022 1.38532,0.11896 2.77527,0.0936 4.16378,0.0772 1.28602,-0.0277 2.55205,-0.18243 3.81184,-0.43076 1.29421,-0.0855 5.27033,-2.02682 0.48827,0.15438 0.61844,-0.33941 1.20107,-0.75504 1.54044,-1.38538 0.22881,-0.48681 0.14974,-0.94962 -0.031,-1.43307 -0.2427,-0.61261 -0.45756,-1.23404 -0.73917,-1.83052 -0.36481,-0.67606 -0.82058,-1.29405 -1.26327,-1.91955 -0.49693,-0.72821 -0.97532,-1.46801 -1.44709,-2.21282 -0.46968,-0.82883 -1.0535,-1.58115 -1.5454,-2.39638 -0.56057,-0.84444 -1.02622,-1.74535 -1.50612,-2.6366 -0.0793,-0.15679 -0.15857,-0.31361 -0.23785,-0.4704 0,0 2.69056,-1.26643 2.69056,-1.26643 v 0 c 0.0783,0.1542 0.15658,0.3084 0.23488,0.46257 0.47839,0.88601 0.94328,1.78094 1.50133,2.62062 0.49387,0.81108 1.07636,1.56213 1.54514,2.38882 0.47091,0.7389 0.94629,1.47428 1.44377,2.19559 0.45617,0.63958 0.9203,1.27569 1.29234,1.96974 0.28595,0.6037 0.50884,1.23111 0.7579,1.85026 0.21168,0.54861 0.33418,1.1008 0.128,1.67457 -0.27772,0.7211 -0.83593,1.20873 -1.49466,1.59721 -1.92924,0.92012 -3.71323,1.95263 -5.83545,2.26714 -1.26773,0.23392 -2.54731,0.35584 -3.83712,0.37819 -1.39259,0.014 -2.78574,0.0196 -4.17483,-0.0992 -1.39805,-0.0913 -2.79564,-0.19177 -4.19009,-0.32859 -1.34443,-0.13467 -2.68785,-0.2831 -4.02374,-0.48757 -1.26711,-0.19836 -2.53176,-0.41783 -3.77855,-0.72158 -1.162409,-0.2886 -2.309298,-0.62917 -3.460453,-0.95877 -1.092168,-0.25072 -2.193806,-0.4714 -3.256698,-0.83343 -0.920869,-0.31896 -1.82553,-0.68324 -2.673892,-1.16756 -0.702823,-0.37515 -1.404842,-0.75245 -2.114862,-1.1136 -0.472417,-0.19291 -0.951691,-0.37119 -1.44372,-0.50734 0,0 2.594953,-1.53501 2.594953,-1.53501 z"
       inkscape:connector-curvature="0" />
    <path
       style="opacity:0.98000004;fill:#1a1a1a;fill-opacity:0.98039216;stroke-width:0.26458332"
       id="path75"
       d="M 14.796694,65.597066 C 14.672554,65.440004 14.522298,65.307786 14.369482,65.178807 14.107256,64.987116 13.822222,64.83061 13.547491,64.658276 13.222516,64.407629 12.867436,64.201055 12.526946,63.973222 12.141368,63.698918 11.734984,63.459399 11.33157,63.213114 10.928143,62.928523 10.542401,62.619299 10.146324,62.324257 9.7532559,62.003063 9.3324586,61.718676 8.9303663,61.409241 8.5117735,61.066497 8.0800595,60.741117 7.6514348,60.411304 7.2018659,60.09859 6.7636741,59.772081 6.3427469,59.421532 5.9071419,59.039937 5.4848106,58.643128 5.0756989,58.233219 4.6062045,57.758697 4.1428535,57.277685 3.7037891,56.774751 3.2059692,56.192472 2.7357906,55.586113 2.2799912,54.970468 1.7850288,54.318047 1.3193009,53.645098 0.87248314,52.959026 0.43437889,52.306751 0.00283661,51.650159 -0.43011746,50.994476 -0.82452153,50.378222 -1.1866747,49.742357 -1.5608556,49.113887 -1.9262196,48.519323 -2.2907796,47.923759 -2.6359642,47.317183 -2.9952447,46.756531 -3.283282,46.157231 -3.5829533,45.5642 c -0.3079128,-0.57449 -0.5325192,-1.186059 -0.7763304,-1.788727 -0.2704605,-0.565888 -0.5201253,-1.139986 -0.737321,-1.728361 -0.2104416,-0.595366 -0.4281852,-1.187344 -0.6138447,-1.791108 -0.1897372,-0.628075 -0.3287754,-1.269476 -0.4543993,-1.912913 -0.1283076,-0.671632 -0.2221156,-1.34905 -0.3072077,-2.027288 -0.086835,-0.691409 -0.154272,-1.384401 -0.1816799,-2.080715 -0.024572,-0.547703 0.00844,-1.095674 0.034358,-1.642671 0,0 1.3733989,-0.553519 1.3733989,-0.553519 v 0 c -0.025845,0.542888 -0.062018,1.086768 -0.040735,1.630408 0.024098,0.692142 0.087829,1.380818 0.1755039,2.067885 0.084181,0.67465 0.1769648,1.348502 0.3040047,2.016633 0.123984,0.637918 0.261176,1.273852 0.4488299,1.896565 0.1844225,0.601004 0.4011578,1.190162 0.6102726,1.78281 0.216431,0.58692 0.4664813,1.158997 0.7347429,1.724081 0.2415272,0.598741 0.4647175,1.205976 0.7702196,1.776632 0.2974768,0.591097 0.5858932,1.18696 0.9421081,1.746226 0.3447451,0.605652 0.70776565,1.200949 1.07297387,1.794417 0.37125469,0.627134 0.7322021,1.260647 1.12474721,1.874938 0.43245102,0.656246 0.86369702,1.31326 1.30078152,1.966447 0.4453881,0.683186 0.9098047,1.353161 1.4040151,2.002147 0.4548788,0.611344 0.9233823,1.213991 1.4219722,1.790393 0.4393832,0.498507 0.9014944,0.976596 1.371029,1.446702 0.4079322,0.404707 0.8275261,0.79824 1.2627514,1.173464 0.4217691,0.346504 0.8603311,0.669158 1.3056656,0.984483 0.4300865,0.328187 0.8577577,0.658979 1.2802848,0.996937 0.403908,0.306247 0.821151,0.594717 1.215703,0.913257 0.391076,0.293592 0.77314,0.600543 1.178101,0.874564 0.407102,0.244581 0.809313,0.494686 1.20014,0.764855 0.342418,0.223382 0.691232,0.437071 1.021578,0.678527 0.284509,0.171931 0.574942,0.337079 0.838258,0.541033 0.162356,0.141092 0.32413,0.283334 0.455654,0.454726 0,0 -1.355928,0.660038 -1.355928,0.660038 z"
       inkscape:connector-curvature="0" />
    <path
       style="opacity:0.98000004;fill:#1a1a1a;fill-opacity:0.98039216;stroke-width:0.26458332"
       id="path77"
       d="m -5.3551129,31.076482 c -0.1233207,0.176868 -0.2232282,0.366506 -0.3192058,0.559173 -0.1721384,0.313719 -0.3719758,0.61025 -0.5409406,0.925711 -0.204847,0.379304 -0.4080883,0.759719 -0.6017127,1.144905 -0.2131846,0.427751 -0.4584735,0.837961 -0.695788,1.252434 -0.2484216,0.469249 -0.4905971,0.942364 -0.7078978,1.426953 -0.2188498,0.51004 -0.4172384,1.029266 -0.660618,1.528276 -0.2619325,0.489143 -0.4779166,1.000268 -0.7056665,1.505656 -0.2460286,0.525682 -0.4137517,1.081252 -0.5965237,1.630498 -0.202256,0.566795 -0.366175,1.145468 -0.510323,1.729391 -0.146441,0.618844 -0.249714,1.246364 -0.381857,1.868238 -0.139654,0.63083 -0.250477,1.267286 -0.348924,1.905672 -0.101175,0.669669 -0.174945,1.342978 -0.241844,2.016797 -0.06794,0.6984 -0.117907,1.398344 -0.163283,2.098514 -0.07057,0.677913 -0.04659,1.355122 -3.97e-4,2.033111 0.02636,0.623464 0.143245,1.236036 0.258565,1.847517 0.08792,0.584192 0.248248,1.149207 0.446353,1.704189 0.205527,0.510773 0.440254,1.009764 0.684213,1.503204 0.166143,0.314579 0.350895,0.616413 0.5560216,0.906766 0,0 -1.3347736,0.654069 -1.3347736,0.654069 v 0 c -0.207932,-0.29835 -0.39708,-0.607391 -0.566076,-0.929725 -0.246154,-0.499388 -0.48429,-1.003718 -0.691292,-1.52073 -0.201098,-0.562898 -0.365349,-1.135768 -0.454867,-1.728327 -0.116774,-0.617622 -0.236811,-1.236173 -0.264354,-1.865929 -0.04769,-0.684887 -0.07645,-1.369173 -0.0051,-2.054206 0.04458,-0.701725 0.09366,-1.403231 0.16032,-2.103258 0.06571,-0.676275 0.138153,-1.35206 0.237376,-2.024369 0.0966,-0.641199 0.204766,-1.280729 0.344205,-1.9142 0.133841,-0.622831 0.239779,-1.250743 0.379636,-1.872318 0.141171,-0.588195 0.300321,-1.172073 0.503934,-1.742165 0.188988,-0.550929 0.344695,-1.114488 0.589907,-1.644835 0.227155,-0.507278 0.441872,-1.020765 0.702676,-1.512099 0.254297,-0.491604 0.447795,-1.011306 0.6634207,-1.520542 0.2126054,-0.490752 0.4583625,-0.965248 0.7006124,-1.441768 0.2321801,-0.414366 0.4803177,-0.819607 0.696563,-1.24275 0.1876245,-0.388199 0.392648,-0.768072 0.5981377,-1.146961 0.1594625,-0.319786 0.3526504,-0.617728 0.5353941,-0.924211 0.1033669,-0.190325 0.184675,-0.393353 0.3043984,-0.573074 0,0 1.429743,-0.479607 1.429743,-0.479607 z"
       inkscape:connector-curvature="0" />
    <path
       style="opacity:0.98000004;fill:#1a1a1a;fill-opacity:0.98039216;stroke-width:0.26458332"
       id="path81"
       d="m 56.566643,175.67526 c -0.360905,0.23454 -0.736676,0.44596 -1.105744,0.66809 -0.556926,0.32939 -1.02272,0.78482 -1.525272,1.18747 -0.666832,0.47166 -1.343737,0.92738 -2.001221,1.41215 -0.731819,0.5802 -1.496169,1.11697 -2.243088,1.67715 -0.807204,0.61479 -1.617826,1.22633 -2.399339,1.87369 -0.856832,0.70825 -1.730804,1.39567 -2.59755,2.09182 -0.846312,0.69992 -1.701413,1.39019 -2.504969,2.13936 -0.788958,0.74822 -1.563677,1.51161 -2.333093,2.27992 -0.768768,0.7611 -1.539735,1.52007 -2.303552,2.28616 -0.739161,0.78483 -1.454785,1.59123 -2.185771,2.38358 -0.750263,0.79115 -1.470781,1.60574 -2.143844,2.46359 -0.713936,0.89851 -1.392092,1.8246 -2.081184,2.74224 -0.671335,0.96424 -1.378897,1.90273 -2.046052,2.86976 -0.648113,0.96373 -1.221274,1.97489 -1.866326,2.94015 -0.634788,0.94133 -1.281095,1.87499 -1.85865,2.85297 -0.623033,0.96488 -1.125134,1.99471 -1.629062,3.02402 -0.540674,1.03582 -0.928613,2.13929 -1.420878,3.19687 -0.487136,1.03753 -1.020349,2.05221 -1.493285,3.09636 -0.478339,1.08859 -0.852253,2.21919 -1.140573,3.37179 -0.223329,1.01929 -0.278491,2.06006 -0.168854,3.09578 0.162582,1.00394 0.290501,2.0139 0.467918,3.01528 0.218192,1.08891 0.400636,2.18399 0.558783,3.28306 0.211271,1.1511 0.423156,2.3016 0.602373,3.45822 0.161159,1.26112 0.380303,2.51337 0.576872,3.7692 0.158173,1.28643 0.39246,2.55795 0.686005,3.8197 0.29194,1.23396 0.527688,2.4794 0.814546,3.71446 0.309327,1.24541 0.508814,2.51355 0.766871,3.76947 0.250849,1.28731 0.572175,2.55878 0.858383,3.83836 0.21517,1.28307 0.571494,2.52882 0.934745,3.77544 0.337258,1.24677 0.70505,2.48462 1.026601,3.73568 0.325472,1.2765 0.647811,2.55528 1.003681,3.82378 0.330954,1.23979 0.686138,2.46839 1.102434,3.6822 0.426037,1.20086 0.845029,2.40524 1.285515,3.60103 0.446767,1.14379 0.891847,2.28936 1.35283,3.4277 0.469503,1.05233 0.991143,2.08124 1.616263,3.04975 0.569672,0.95125 1.187098,1.85705 1.943367,2.66919 0.749462,0.78923 1.608291,1.44667 2.466393,2.10916 0.896811,0.723 1.928196,1.22872 2.977317,1.68698 1.092634,0.53742 2.223709,0.98406 3.375244,1.37663 1.213305,0.40415 2.458726,0.69683 3.708541,0.96157 1.316063,0.2725 2.645574,0.47088 3.976925,0.65082 1.382236,0.18304 2.770132,0.31758 4.158856,0.43977 1.425427,0.123 2.85329,0.21415 4.28153,0.29697 1.434761,0.091 2.868916,0.15263 4.306464,0.13816 1.33342,-0.0775 2.663989,-0.19658 3.9961,-0.29355 1.290494,-0.13907 2.576668,-0.30174 3.856648,-0.51631 1.236485,-0.2113 2.458001,-0.49993 3.691041,-0.73181 0.799322,-0.18386 0.405746,-0.0811 1.181005,-0.30745 0,0 -2.463202,1.65232 -2.463202,1.65232 v 0 c -0.785493,0.20609 -0.387766,0.11126 -1.193366,0.28369 -1.23234,0.23892 -2.455217,0.52716 -3.695221,0.72464 -1.283841,0.20762 -2.57514,0.36481 -3.869624,0.4899 -1.334556,0.0995 -2.667974,0.22659 -4.00571,0.27371 -1.440495,0.003 -2.878084,-0.0709 -4.315791,-0.15718 -1.430435,-0.0849 -2.860473,-0.17836 -4.287953,-0.30457 -1.392119,-0.12546 -2.783364,-0.26368 -4.16864,-0.45177 -1.336705,-0.18529 -2.671453,-0.38965 -3.991973,-0.67043 -1.258274,-0.27368 -2.511761,-0.57661 -3.731411,-0.99391 -1.155488,-0.40425 -2.28782,-0.86593 -3.39005,-1.39991 -1.065782,-0.47884 -2.108473,-1.01126 -3.020026,-1.75268 -0.873172,-0.67122 -1.733539,-1.35498 -2.492049,-2.15841 -0.759651,-0.83302 -1.386764,-1.7553 -1.96709,-2.72087 -0.630873,-0.98859 -1.163606,-2.03439 -1.638435,-3.10648 -0.461449,-1.14194 -0.908315,-2.29049 -1.355251,-3.43799 -0.440614,-1.19827 -0.860071,-2.40501 -1.287201,-3.60805 -0.419562,-1.21933 -0.779169,-2.4529 -1.109712,-3.69939 -0.356682,-1.27081 -0.67858,-2.55227 -1.004967,-3.83105 -0.320633,-1.24762 -0.691191,-2.48093 -1.025456,-3.72483 -0.364878,-1.25337 -0.725071,-2.50549 -0.940223,-3.79567 -0.286023,-1.28128 -0.609611,-2.55386 -0.862731,-3.84237 -0.258912,-1.25294 -0.455743,-2.51882 -0.76451,-3.76156 -0.287155,-1.23497 -0.523537,-2.48015 -0.81454,-3.7143 -0.295951,-1.26935 -0.535278,-2.54811 -0.693121,-3.84271 -0.196701,-1.2556 -0.421127,-2.50675 -0.581632,-3.76776 -0.179183,-1.1576 -0.390771,-2.30915 -0.605816,-3.46055 -0.157597,-1.09503 -0.339125,-2.18619 -0.559178,-3.27058 -0.182877,-1.00725 -0.309151,-2.02434 -0.479711,-3.03386 -0.125385,-1.07069 -0.08066,-2.14757 0.135552,-3.20573 0.27766,-1.17079 0.648744,-2.31835 1.118876,-3.42674 0.462679,-1.05149 0.998844,-2.06623 1.490242,-3.10421 0.514442,-1.04942 0.883076,-2.16122 1.419531,-3.20113 0.51404,-1.02888 0.981613,-2.08328 1.621456,-3.04437 0.565529,-0.99171 1.213023,-1.92972 1.850911,-2.87568 0.665047,-0.95245 1.226143,-1.97166 1.867681,-2.94006 0.656986,-0.97786 1.380714,-1.90805 2.042053,-2.88305 0.682141,-0.92323 1.368682,-1.84405 2.077281,-2.74684 0.662564,-0.87263 1.376328,-1.69884 2.132084,-2.49194 0.741195,-0.78497 1.452276,-1.59776 2.18319,-2.39226 0.755761,-0.77426 1.534824,-1.52567 2.303585,-2.28689 0.76209,-0.77765 1.546407,-1.53385 2.330727,-2.28884 0.789922,-0.77094 1.654157,-1.45641 2.497326,-2.16742 0.870823,-0.68866 1.732055,-1.38951 2.599383,-2.0824 0.768151,-0.66349 1.582758,-1.271 2.388589,-1.88727 0.736341,-0.5743 1.517261,-1.08832 2.238087,-1.68263 0.657227,-0.47908 1.307986,-0.96669 1.995307,-1.40273 0.522687,-0.3845 0.979993,-0.84553 1.506379,-1.22451 0.367604,-0.21059 0.728917,-0.43694 1.092973,-0.64489 0,0 2.898433,-0.83417 2.898433,-0.83417 z"
       inkscape:connector-curvature="0" />
    <path
       style="opacity:0.98000004;fill:#1a1a1a;fill-opacity:0.98039216;stroke-width:0.26458332"
       id="path85"
       d="m 58.796091,288.58181 c 0.51017,-0.0922 1.026544,-0.14224 1.542376,-0.1899 0.767334,-0.0406 1.4972,-0.30511 2.239586,-0.48432 0.844175,-0.29726 1.722155,-0.47685 2.577756,-0.73329 -0.766884,0.56991 2.283886,-0.92511 1.331479,-0.48903 -4.031194,1.84579 -2.400144,1.18235 -1.493906,0.5334 0.557143,-0.41307 0.963863,-0.93437 1.217027,-1.57525 0.222949,-0.58803 0.216612,-1.18874 0.116203,-1.79808 -0.159753,-0.6767 -0.454179,-1.30879 -0.683512,-1.96308 -0.296494,-0.78689 -0.625882,-1.56022 -0.934632,-2.34222 -0.341612,-0.84913 -0.770747,-1.65579 -1.207365,-2.45851 -0.453525,-0.87881 -0.867929,-1.77723 -1.313218,-2.66009 -0.436501,-0.91972 -0.980479,-1.78126 -1.47212,-2.67116 -0.515858,-0.93199 -0.968872,-1.89439 -1.437013,-2.85038 -0.464106,-0.99446 -0.956371,-1.97511 -1.386922,-2.9849 -0.444619,-1.01531 -0.958763,-1.99683 -1.403644,-3.01196 -0.472305,-1.08535 -0.946147,-2.17043 -1.400476,-3.26353 -0.412602,-1.12364 -0.85049,-2.23575 -1.322554,-3.3357 -0.51798,-1.1104 -0.971786,-2.24838 -1.449504,-3.37625 -0.448535,-1.1455 -0.924748,-2.27992 -1.346811,-3.43567 -0.395672,-1.15415 -0.816317,-2.29958 -1.254107,-3.43838 -0.474808,-1.08323 -0.908169,-2.18333 -1.363168,-3.27484 -0.453239,-1.09447 -0.924829,-2.179 -1.324657,-3.29473 -0.43751,-1.10535 -0.823963,-2.22922 -1.239443,-3.34279 -0.457854,-1.07456 -0.875634,-2.16494 -1.316152,-3.24654 -0.448572,-1.0775 -0.870593,-2.16588 -1.311608,-3.24643 -0.473393,-1.10225 -0.848799,-2.24081 -1.180835,-3.39232 -0.355839,-1.19728 -0.573659,-2.42345 -0.734063,-3.65985 -0.177694,-1.17635 -0.149855,-2.36332 -0.09378,-3.54688 0.09424,-1.13239 0.237363,-2.26002 0.4264,-3.38031 0.193209,-1.18108 0.569899,-2.31368 0.941023,-3.44708 0.374787,-1.11976 0.859665,-2.19687 1.283554,-3.29793 0.385535,-1.0876 0.924695,-2.1033 1.451631,-3.12577 0.50351,-1.0152 1.003073,-2.0323 1.512245,-3.04469 0.548886,-0.98434 1.040704,-1.99789 1.545013,-3.0053 0.517088,-0.98833 1.073782,-1.95533 1.628764,-2.92272 0.528955,-0.96584 1.131062,-1.88445 1.778204,-2.77408 0.636238,-0.8813 1.249368,-1.77817 1.857428,-2.67904 0.588537,-0.9113 1.284809,-1.74105 1.950432,-2.59474 0.660259,-0.85062 1.3395,-1.68589 2.02067,-2.51974 0.462725,-0.54908 0.226042,-0.2792 0.710054,-0.80965 0,0 2.834759,-0.89453 2.834759,-0.89453 v 0 c -0.490709,0.51263 -0.251584,0.25003 -0.717277,0.78788 -0.674309,0.8375 -1.364406,1.66192 -2.02347,2.51169 -0.651549,0.85982 -1.3692,1.66741 -1.957641,2.57478 -0.60352,0.90705 -1.221656,1.80331 -1.853097,2.69098 -0.64385,0.88371 -1.2744,1.7752 -1.790023,2.74263 -0.56375,0.95717 -1.10073,1.93039 -1.636625,2.90335 -0.501298,1.00898 -0.986523,2.02666 -1.544796,3.00601 -0.507219,1.0141 -1.015317,2.02759 -1.511353,3.04713 -0.517147,1.01844 -1.082275,2.01225 -1.465953,3.09298 -0.414033,1.10135 -0.900478,2.17288 -1.290016,3.28359 -0.364664,1.12114 -0.759044,2.23363 -0.954529,3.4011 -0.191495,1.10877 -0.33596,2.22355 -0.441743,3.34402 -0.0579,1.1656 -0.106074,2.33554 0.06863,3.49507 0.15503,1.22089 0.359169,2.43288 0.713968,3.61424 0.3282,1.14051 0.699992,2.26795 1.169098,3.35938 0.440521,1.08083 0.863349,2.16891 1.311564,3.24662 0.441724,1.08461 0.860885,2.17793 1.319366,3.25574 0.415914,1.11493 0.802875,2.24014 1.240663,3.34691 0.397806,1.11054 0.868105,2.18964 1.318585,3.27925 0.456075,1.09437 0.890733,2.19723 1.365864,3.28365 0.438232,1.14062 0.85921,2.28792 1.255252,3.44391 0.41991,1.15068 0.893829,2.28014 1.340125,3.42061 0.477282,1.12747 0.930257,2.26529 1.450975,3.37387 0.472324,1.10118 0.910119,2.21468 1.323374,3.33937 0.453724,1.09101 0.925725,2.17463 1.400972,3.25633 0.446045,1.01574 0.961527,1.99794 1.40535,3.01479 0.42904,1.00425 0.919424,1.97963 1.381495,2.96881 0.465064,0.95138 0.91816,1.90756 1.431783,2.8345 0.495493,0.8926 1.039857,1.75882 1.478713,2.68214 0.443095,0.88008 0.858253,1.77427 1.311627,2.64922 0.444035,0.81386 0.877631,1.63322 1.226222,2.4938 0.311804,0.78521 0.644404,1.56168 0.944989,2.35143 0.237003,0.67083 0.540774,1.31794 0.71171,2.01065 0.118817,0.65627 0.157769,1.30823 -0.05221,1.95445 -0.22407,0.69977 -0.591248,1.29302 -1.171284,1.76054 -1.495713,1.20388 -3.341812,1.91055 -5.16764,2.46107 -0.864598,0.23707 -1.731018,0.46609 -2.589075,0.72642 -0.748922,0.19021 -1.49271,0.41809 -2.270866,0.44884 -0.515178,0.0561 -1.034127,0.11009 -1.536335,0.2431 0,0 2.508496,-1.67259 2.508496,-1.67259 z"
       inkscape:connector-curvature="0" />
  </g>
</svg>
