<?xml version="1.0" encoding="UTF-8" standalone="no"?>
<!-- Created with Inkscape (http://www.inkscape.org/) -->

<svg
   xmlns:dc="http://purl.org/dc/elements/1.1/"
   xmlns:cc="http://creativecommons.org/ns#"
   xmlns:rdf="http://www.w3.org/1999/02/22-rdf-syntax-ns#"
   xmlns:svg="http://www.w3.org/2000/svg"
   xmlns="http://www.w3.org/2000/svg"
   xmlns:sodipodi="http://sodipodi.sourceforge.net/DTD/sodipodi-0.dtd"
   xmlns:inkscape="http://www.inkscape.org/namespaces/inkscape"
   width="121.29279mm"
   height="103.79948mm"
   viewBox="0 0 121.29279 103.79947"
   version="1.1"
   id="svg8"
   inkscape:version="0.92.1 r15371"
   sodipodi:docname="Slug.svg">
  <defs
     id="defs2" />
  <sodipodi:namedview
     id="base"
     pagecolor="#ffffff"
     bordercolor="#666666"
     borderopacity="1.0"
     inkscape:pageopacity="0.0"
     inkscape:pageshadow="2"
     inkscape:zoom="1.4"
     inkscape:cx="307.3105"
     inkscape:cy="194.12291"
     inkscape:document-units="mm"
     inkscape:current-layer="layer3"
     showgrid="false"
     inkscape:window-width="1024"
     inkscape:window-height="714"
     inkscape:window-x="-4"
     inkscape:window-y="1"
     inkscape:window-maximized="1"
     scale-x="1"
     fit-margin-top="0"
     fit-margin-left="0"
     fit-margin-right="0"
     fit-margin-bottom="0" />
  <metadata
     id="metadata5">
    <rdf:RDF>
      <cc:Work
         rdf:about="">
        <dc:format>image/svg+xml</dc:format>
        <dc:type
           rdf:resource="http://purl.org/dc/dcmitype/StillImage" />
        <dc:title />
      </cc:Work>
    </rdf:RDF>
  </metadata>
  <g
     inkscape:label="Layer 1"
     inkscape:groupmode="layer"
     id="layer1"
     transform="translate(38.320721,-185.95388)"
     style="display:none;opacity:0.303">
    <path
       style="fill:none;stroke:#000000;stroke-width:0.26458332px;stroke-linecap:butt;stroke-linejoin:miter;stroke-opacity:1"
       d="m 26.192414,191.16127 c -15.34713,-1.20299 -21.7597041,32.77961 -5.34539,36.88319"
       id="path12"
       inkscape:connector-curvature="0" />
    <path
       style="fill:none;stroke:#000000;stroke-width:0.26458332px;stroke-linecap:butt;stroke-linejoin:miter;stroke-opacity:1"
       d="m 12.294397,199.71389 c -13.8095621,33.06102 29.313021,39.72915 39.555891,19.24341"
       id="path14"
       inkscape:connector-curvature="0" />
    <path
       style="fill:none;stroke:#000000;stroke-width:0.26458332px;stroke-linecap:butt;stroke-linejoin:miter;stroke-opacity:1"
       d="m 51.850288,218.9573 c -2.13816,1.06908 -4.20783,2.2878 -6.41447,3.20723 -0.9304,0.38767 1.42544,-1.42544 2.13816,-2.13816 2.56702,-2.56702 2.05056,-9.39375 2.13815,-9.08716 0.75991,2.65967 1.42544,5.34539 2.13816,8.01809"
       id="path16"
       inkscape:connector-curvature="0" />
    <path
       style="fill:none;stroke:#000000;stroke-width:0.26458332px;stroke-linecap:butt;stroke-linejoin:miter;stroke-opacity:1"
       d="m 51.850288,218.9573 c -1.06908,0.53454 -2.1823,0.98866 -3.20724,1.60361 -1.02493,0.61496 2.5125,-0.63098 3.20724,-1.60361 2.45106,-3.43149 1.06908,-11.88667 1.06908,-16.57071"
       id="path18"
       inkscape:connector-curvature="0" />
    <path
       style="fill:none;stroke:#000000;stroke-width:0.26458332px;stroke-linecap:butt;stroke-linejoin:miter;stroke-opacity:1"
       d="m 26.192414,191.16127 c -1.069078,0.35636 -2.160929,0.65055 -3.207234,1.06907 -0.467924,0.18717 0.712718,-0.71271 1.069078,-1.06907 3.376464,-3.37647 8.15641,-3.20724 13.89801,-3.20724 8.01017,0 16.06053,8.9654 14.9671,14.43256"
       id="path22"
       inkscape:connector-curvature="0" />
    <path
       style="fill:none;stroke:#000000;stroke-width:0.26458332px;stroke-linecap:butt;stroke-linejoin:miter;stroke-opacity:1"
       d="m 26.192414,191.16127 c -1.781797,-0.17819 -3.597349,-0.14609 -5.34539,-0.53454 -0.886908,-0.19709 1.764151,-0.53454 2.672693,-0.53454 4.087445,0 7.460421,-1.60362 12.294401,-1.60362 9.95747,0 11.39727,7.6555 17.10525,13.36348 7.37611,7.37611 -8.7773,29.95228 -1.06908,17.10525"
       id="path24"
       inkscape:connector-curvature="0" />
    <path
       style="fill:none;stroke:#000000;stroke-width:0.26458332px;stroke-linecap:butt;stroke-linejoin:miter;stroke-opacity:1"
       d="m 51.850288,218.9573 c -11.3737,8.06556 -4.42918,2.81856 0,0"
       id="path26"
       inkscape:connector-curvature="0" />
    <path
       style="fill:none;stroke:#000000;stroke-width:0.26458332px;stroke-linecap:butt;stroke-linejoin:miter;stroke-opacity:1"
       d="m 51.315748,200.24843 c -6.84683,0.64944 -18.14858,8.31599 -19.64431,14.29892 4.50296,-3.86814 15.68376,-13.5518 21.24793,-12.16076"
       id="path30"
       inkscape:connector-curvature="0" />
    <path
       style="fill:none;stroke:#000000;stroke-width:0.26458332px;stroke-linecap:butt;stroke-linejoin:miter;stroke-opacity:1"
       d="m 12.027128,210.00377 c 1.146926,-0.55648 2.488917,-0.85609 3.875407,-1.20271 5.012373,-1.2531 9.764107,1.20709 13.229843,2.93996 1.03908,0.51954 2.8112,3.3506 2.53906,2.80633"
       id="path34"
       inkscape:connector-curvature="0" />
    <path
       style="fill:none;stroke:#000000;stroke-width:0.26458332px;stroke-linecap:butt;stroke-linejoin:miter;stroke-opacity:1"
       d="m 35.546848,225.23813 c -1.35232,-0.0933 -1.85856,0.10899 -2.27179,0.93544"
       id="path38"
       inkscape:connector-curvature="0" />
    <path
       style="fill:none;stroke:#000000;stroke-width:0.26458332px;stroke-linecap:butt;stroke-linejoin:miter;stroke-opacity:1"
       d="m 52.919368,202.38659 c 0.3243,0.12434 0.63164,0.30847 0.97292,0.37304 1.23796,0.23419 0,-2.51985 0,-3.77977 0,-2.33085 0,-4.6617 0,-6.99256 0,-5.90261 2.56101,-10.79166 4.53571,-14.74107 -5.67824,3.23695 -10.6935,9.3155 -15.49702,11.71727"
       id="path40"
       inkscape:connector-curvature="0" />
    <path
       style="fill:none;stroke:#000000;stroke-width:0.26458332px;stroke-linecap:butt;stroke-linejoin:miter;stroke-opacity:1"
       d="M 10.614012,206.3504 C 9.7272609,200.16385 2.1267029,192.27936 -2.6151551,189.90843"
       id="path42"
       inkscape:connector-curvature="0" />
    <path
       style="fill:none;stroke:#000000;stroke-width:0.26458332px;stroke-linecap:butt;stroke-linejoin:miter;stroke-opacity:1"
       d="m -2.6151551,189.90843 c 5.876989,3.13354 11.727881,3.96875 20.0327391,3.96875"
       id="path44"
       inkscape:connector-curvature="0" />
    <path
       style="fill:none;stroke:#000000;stroke-width:0.26458332px;stroke-linecap:butt;stroke-linejoin:miter;stroke-opacity:1"
       d="m 26.192414,191.16127 c -0.468098,-0.98458 -0.910593,-1.98174 -1.404295,-2.95373 -0.353674,-0.6963 -5.477306,3.20945 -5.669642,3.40179 -1.763586,1.76359 -2.86235,4.00545 -2.834823,3.96875 0.408845,-0.54513 0.755952,-1.13393 1.133928,-1.7009"
       id="path46"
       inkscape:connector-curvature="0" />
    <path
       style="fill:none;stroke:#000000;stroke-width:0.26458332px;stroke-linecap:butt;stroke-linejoin:miter;stroke-opacity:1"
       d="m 17.417582,193.87718 c -0.188987,0.25199 -0.426101,0.47423 -0.566963,0.75596 -0.140861,0.28172 0.274511,-0.63898 0.566963,-0.75596 0.859015,-0.3436 2.371876,-0.22366 3.401787,-0.56696 2.812894,-0.93763 6.874804,0.53128 6.614584,0 -0.363892,-0.74294 -0.827694,-1.43264 -1.241539,-2.14895"
       id="path48"
       inkscape:connector-curvature="0" />
    <path
       style="fill:none;stroke:#000000;stroke-width:0.26458332px;stroke-linecap:butt;stroke-linejoin:miter;stroke-opacity:1"
       d="m 54.081278,211.45308 c -4.54621,10.47949 -11.20204,21.10965 -18.33185,30.61607"
       id="path50"
       inkscape:connector-curvature="0" />
    <path
       style="fill:none;stroke:#000000;stroke-width:0.26458332px;stroke-linecap:butt;stroke-linejoin:miter;stroke-opacity:1"
       d="m 20.847024,228.04446 c -0.702175,-0.42778 -1.423215,-0.82603 -2.106523,-1.28334 -0.983623,-0.65831 2.086295,1.14875 3.212798,1.5119 1.252712,0.40383 3.289316,1.77741 4.157737,2.64583 2.238692,2.2387 10.323202,7.04151 9.638392,11.1503"
       id="path52"
       inkscape:connector-curvature="0" />
    <path
       style="fill:none;stroke:#000000;stroke-width:0.26458332px;stroke-linecap:butt;stroke-linejoin:miter;stroke-opacity:1"
       d="m 15.905679,225.81617 c 7.65339,3.33466 16.056469,14.35934 19.843749,16.25298 -5.81208,-5.58036 -11.881877,-15.67992 -20.977676,-17.95387"
       id="path54"
       inkscape:connector-curvature="0" />
    <path
       style="fill:none;stroke:#000000;stroke-width:0.26458332px;stroke-linecap:butt;stroke-linejoin:miter;stroke-opacity:1"
       d="m 35.749428,242.06915 c -0.62996,-0.88195 -1.30379,-1.73414 -1.88988,-2.64583 -0.28386,-0.44156 10.63671,-12.7228 12.6622,-13.22917 -4.39918,0.55062 -11.61251,10.83382 -10.77232,15.875"
       id="path56"
       inkscape:connector-curvature="0" />
    <path
       style="fill:none;stroke:#000000;stroke-width:0.26458332px;stroke-linecap:butt;stroke-linejoin:miter;stroke-opacity:1"
       d="m 56.126598,193.29942 c 7.93381,-0.71527 11.70828,2.8368 14.96709,9.35444 1.87021,3.7404 3.27257,7.67953 4.54359,11.49259 4.073759,12.2213 -11.209,30.76864 -2.13816,48.91032 1.74712,3.49423 3.89612,6.75891 6.949009,8.28535"
       id="path136"
       inkscape:connector-curvature="0" />
    <path
       style="fill:none;stroke:#000000;stroke-width:0.26458332px;stroke-linecap:butt;stroke-linejoin:miter;stroke-opacity:1"
       d="m 41.961318,234.19166 c 2.89023,15.31562 -12.36219,28.82926 -5.07812,47.03944 1.38111,3.45279 3.32058,7.04416 7.21627,8.01808"
       id="path140"
       inkscape:connector-curvature="0" />
    <path
       style="fill:none;stroke:#000000;stroke-width:0.26458332px;stroke-linecap:butt;stroke-linejoin:miter;stroke-opacity:1"
       d="m 52.919368,202.38659 c 31.761319,12.41759 -6.20674,50.72167 14.69982,71.62823"
       id="path146"
       inkscape:connector-curvature="0" />
    <path
       style="fill:none;stroke:#000000;stroke-width:0.26458332px;stroke-linecap:butt;stroke-linejoin:miter;stroke-opacity:1"
       d="m 67.619188,274.01482 c -1.69794,0.72836 -1.55649,1.65075 -0.80181,2.40542 0.32795,0.32796 1.53072,0.26727 2.13816,0.26727 5.70245,0 -2.47549,-7.2293 -1.33635,-2.67269 z"
       id="path152"
       inkscape:connector-curvature="0" />
    <path
       style="fill:none;stroke:#000000;stroke-width:0.26458332px;stroke-linecap:butt;stroke-linejoin:miter;stroke-opacity:1"
       d="m 20.847024,228.04446 c 0.534537,0.8909 1.007813,1.82155 1.603615,2.6727 0.493596,0.70514 2.317576,1.24849 2.939966,1.87088 0.55704,0.55704 -0.366467,2.74158 0,3.47451 7.001303,14.0026 -21.5150651,41.026 -10.958052,51.58302"
       id="path154"
       inkscape:connector-curvature="0" />
    <path
       style="fill:none;stroke:#000000;stroke-width:0.26458332px;stroke-linecap:butt;stroke-linejoin:miter;stroke-opacity:1"
       d="m 14.432553,287.64557 c 0.06739,-0.6944 2.129647,-2.54758 3.073601,-1.60362 0.462981,0.46298 0.400904,1.33414 0.400904,2.27179 0,5.44294 -7.031005,1.01744 -5.612661,-0.40091 0.192714,-0.19271 1.789316,-0.0928 2.138156,-0.26726 z"
       id="path156"
       inkscape:connector-curvature="0" />
  </g>
  <g
     inkscape:groupmode="layer"
     id="layer3"
     inkscape:label="Layer 3"
     style="opacity:0.42156863">
    <path
       style="opacity:0.98000004;fill:#5f5fd3;fill-opacity:0.97254902;stroke-width:0.26458332"
       id="path62"
       d="m 94.286677,20.909612 c 0.18796,-0.02714 0.374918,-0.05657 0.56187,-0.0901 0.312568,-0.05279 0.599535,-0.182946 0.893196,-0.295229 0.326771,-0.131615 0.669099,-0.204391 1.015246,-0.26123 0.351186,-0.06612 0.707556,-0.04933 1.062019,-0.03191 0.367895,0.0043 0.730273,0.05639 1.090782,0.124979 0.368998,0.06505 0.736012,0.143657 1.09724,0.243407 0.37764,0.102183 0.74749,0.231577 1.10745,0.384498 0.36156,0.14052 0.69709,0.331667 1.02713,0.533006 0.33526,0.177723 0.6309,0.415583 0.91767,0.66154 0.28706,0.24547 0.5315,0.529681 0.77466,0.81682 0.25085,0.305147 0.46317,0.639931 0.67697,0.971497 0.25399,0.370011 0.46526,0.765103 0.65384,1.171588 0.18394,0.413303 0.36526,0.826906 0.52156,1.251584 0.15835,0.438308 0.27501,0.889671 0.38037,1.343117 0.10738,0.474353 0.18792,0.954124 0.2568,1.435393 0.0719,0.521394 0.1262,1.04497 0.17282,1.569154 0.0508,0.582462 0.0946,1.165101 0.0894,1.74997 -0.01,0.643731 -0.0805,1.284449 -0.17229,1.921037 -0.0919,0.654354 -0.2388,1.299514 -0.39138,1.941943 -0.14275,0.619744 -0.3054,1.234292 -0.47786,1.846332 -0.16709,0.589949 -0.38701,1.162484 -0.59796,1.737555 -0.20721,0.529866 -0.40335,1.063766 -0.63426,1.58391 -0.23856,0.517297 -0.47162,1.037225 -0.71955,1.550138 -0.24105,0.515062 -0.50653,1.018297 -0.77373,1.520158 -0.25586,0.473422 -0.48866,0.958803 -0.74628,1.43124 -0.24595,0.456324 -0.5012,0.907494 -0.7528,1.360707 -0.25885,0.454824 -0.49052,0.923761 -0.75625,1.37468 -0.28199,0.463846 -0.54838,0.936731 -0.817775,1.407909 -0.26738,0.474271 -0.538284,0.946454 -0.815062,1.415304 -0.280802,0.487351 -0.573,0.967933 -0.858639,1.452451 -0.303988,0.535159 -0.619498,1.063612 -0.945375,1.585701 -0.333629,0.533868 -0.643604,1.082273 -0.943615,1.635609 -0.311439,0.573984 -0.648867,1.13334 -0.972691,1.700374 -0.30834,0.565081 -0.618291,1.129353 -0.922551,1.696635 -0.319392,0.577511 -0.601062,1.174311 -0.884714,1.769793 -0.289081,0.60866 -0.570862,1.220692 -0.842201,1.837473 -0.303813,0.698886 -0.550947,1.420487 -0.778118,2.147329 -0.230852,0.752541 -0.412271,1.518809 -0.574186,2.288725 -0.162597,0.785244 -0.281998,1.578375 -0.389694,2.372715 -0.107513,0.809794 -0.188507,1.622724 -0.262437,2.436164 -0.07165,0.827667 -0.136229,1.656138 -0.170254,2.486266 -0.03475,0.857519 -0.0037,1.715815 0.05477,2.57148 0.04806,0.856117 0.186134,1.702845 0.340495,2.545122 0.137549,0.852286 0.355772,1.685779 0.606128,2.510771 0.246454,0.863188 0.622073,1.679245 1.006936,2.487412 0.38046,0.791948 0.814062,1.556239 1.265166,2.309593 0.419952,0.700828 0.911336,1.353015 1.421873,1.989333 0.472014,0.580665 0.990418,1.120034 1.520693,1.647042 0.498493,0.482465 0.999228,0.963612 1.516941,1.425546 0.464891,0.431683 0.981617,0.799769 1.491424,1.175131 0.515876,0.37855 1.047386,0.734761 1.596586,1.062974 0.52922,0.307401 1.08396,0.5677 1.64431,0.812525 0.54738,0.236905 1.11281,0.426995 1.68299,0.600249 0.54585,0.163473 1.10136,0.290764 1.65895,0.406644 0.54348,0.111212 1.09169,0.196588 1.64081,0.27428 0.52713,0.09455 1.06001,0.103187 1.59356,0.100997 0.51274,-0.0094 1.02604,-0.0024 1.53827,-0.02858 0.48639,-0.01932 0.96941,-0.07214 1.45249,-0.128813 0.44926,-0.06607 0.89485,-0.150048 1.33455,-0.263485 0.2108,-0.06269 0.41787,-0.134546 0.6232,-0.213008 0,0 -0.86516,0.591936 -0.86516,0.591936 v 0 c -0.20771,0.07409 -0.41616,0.145913 -0.6296,0.202171 -0.44261,0.106966 -0.89009,0.190876 -1.34166,0.250415 -0.48402,0.05604 -0.96874,0.102037 -1.45586,0.121169 -0.51318,0.01918 -1.02692,0.01797 -1.54038,0.02408 -0.53635,-7.94e-4 -1.07113,-0.02291 -1.60077,-0.115891 -0.55034,-0.07964 -1.09971,-0.167134 -1.64417,-0.280945 -0.55923,-0.118708 -1.11628,-0.249065 -1.66335,-0.416107 -0.57217,-0.177213 -1.13937,-0.371584 -1.68831,-0.612579 -0.56279,-0.248995 -1.12088,-0.511445 -1.65087,-0.825519 C 99.746092,94.878833 99.213047,94.519331 98.694231,94.139569 98.181693,93.762532 97.665764,93.388383 97.199274,92.953847 96.682606,92.488418 96.180652,92.006395 95.682156,91.521668 95.150269,90.990932 94.631511,90.4466 94.15887,89.861627 93.646642,89.220436 93.153422,88.56328 92.732848,87.857154 92.2809,87.100216 91.846698,86.332255 91.465285,85.53688 91.0782,84.723644 90.699404,83.902832 90.449571,83.034896 90.198018,82.205932 89.975665,81.369211 89.837825,80.512641 89.68206,79.6664 89.54142,78.815889 89.49275,77.955597 c -0.05964,-0.85928 -0.09414,-1.721189 -0.06033,-2.582482 0.03237,-0.831694 0.09494,-1.661866 0.166876,-2.49102 0.07302,-0.814983 0.154148,-1.629376 0.260662,-2.440757 0.105942,-0.796703 0.224327,-1.592173 0.3855,-2.379848 0.159822,-0.77343 0.341397,-1.542733 0.570553,-2.298901 0.224684,-0.729917 0.469757,-1.454748 0.769586,-2.157653 0.268279,-0.61871 0.550804,-1.230996 0.839369,-1.840476 0.284544,-0.596141 0.56207,-1.196123 0.882343,-1.774357 0.301474,-0.569611 0.616395,-1.132118 0.92165,-1.699739 0.322225,-0.567021 0.659701,-1.125379 0.972698,-1.697535 0.298061,-0.5564 0.609089,-1.10618 0.941634,-1.642777 0.326501,-0.520118 0.641638,-1.047345 0.943853,-1.58197 0.285337,-0.48401 0.575233,-0.965279 0.8562,-1.451835 0.277854,-0.468079 0.549854,-0.939445 0.816226,-1.414153 0.271629,-0.469942 0.532484,-0.946028 0.81597,-1.409091 0.269044,-0.44818 0.50045,-0.915789 0.7569,-1.371073 0.25014,-0.454319 0.50891,-0.903809 0.75384,-1.360983 0.26244,-0.469725 0.49142,-0.956926 0.74733,-1.430218 0.27046,-0.499049 0.53437,-1.002416 0.7763,-1.515962 0.24838,-0.51185 0.482,-1.030544 0.72068,-1.546961 0.23419,-0.516953 0.42792,-1.04957 0.63783,-1.576636 0.20991,-0.573458 0.43391,-1.142407 0.60258,-1.729994 0.17289,-0.610878 0.33839,-1.223621 0.48065,-1.842497 0.15449,-0.638898 0.30199,-1.281163 0.39483,-1.932316 0.0942,-0.631383 0.16495,-1.267309 0.17673,-1.906153 0.007,-0.580951 -0.0369,-1.15955 -0.0884,-1.738027 -0.0473,-0.521975 -0.10004,-1.043575 -0.1721,-1.562796 -0.0691,-0.47789 -0.14797,-0.954595 -0.25437,-1.425795 -0.10387,-0.448884 -0.21885,-0.895749 -0.37535,-1.329642 -0.15503,-0.421774 -0.33512,-0.832498 -0.51758,-1.243003 -0.18653,-0.401603 -0.39605,-0.791584 -0.64839,-1.156333 -0.21231,-0.326869 -0.42333,-0.656807 -0.67234,-0.957316 -0.23898,-0.282771 -0.48288,-0.559543 -0.76612,-0.799933 -0.28474,-0.2403 -0.57844,-0.469998 -0.90877,-0.645541 -0.32626,-0.198016 -0.66168,-0.378985 -1.01806,-0.51797 -0.358657,-0.146469 -0.725224,-0.273154 -1.100366,-0.3708 -0.360971,-0.09349 -0.725556,-0.172339 -1.093118,-0.235323 -0.35805,-0.06455 -0.7186,-0.105046 -1.082821,-0.111075 -0.35075,-0.0142 -0.702447,-0.01744 -1.048488,0.05297 -0.343014,0.06255 -0.680201,0.147713 -1.003546,0.280819 -0.295923,0.115276 -0.592124,0.229146 -0.907918,0.278458 -0.188581,0.03387 -0.37964,0.05573 -0.565689,0.102055 0,0 0.886888,-0.591346 0.886888,-0.591346 z"
       inkscape:connector-curvature="0" />
    <path
       style="opacity:0.98000004;fill:#5f5fd3;fill-opacity:0.97254902;stroke-width:0.26458332"
       id="path64"
       d="m 113.11447,96.619509 c -0.21618,0.108587 -0.44765,0.17922 -0.67348,0.264001 -0.36101,0.121507 -0.72044,0.24757 -1.08217,0.367056 -0.39505,0.129001 -0.80029,0.221689 -1.20698,0.305046 -0.44146,0.08822 -0.88733,0.151146 -1.33371,0.208198 -0.45202,0.05855 -0.90887,0.06603 -1.36396,0.07907 -0.45227,0.0087 -0.90011,-0.04913 -1.34598,-0.117009 -0.44336,-0.09653 -0.89086,-0.174151 -1.33336,-0.274283 -0.42233,-0.09905 -0.81827,-0.274831 -1.2203,-0.432737 -0.3944,-0.160477 -0.78028,-0.334949 -1.15856,-0.530095 -0.36587,-0.209063 -0.73811,-0.405685 -1.09868,-0.623951 -0.40079,-0.234124 -0.7875,-0.492212 -1.164,-0.763458 -0.412693,-0.280691 -0.811584,-0.579564 -1.196529,-0.897035 -0.394885,-0.335777 -0.770337,-0.692809 -1.143767,-1.051997 -0.384548,-0.372342 -0.733581,-0.778232 -1.07805,-1.187222 -0.307155,-0.393705 -0.627801,-0.776378 -0.942909,-1.163627 -0.311534,-0.38971 -0.623292,-0.779449 -0.921589,-1.179473 -0.295013,-0.381889 -0.581737,-0.770795 -0.852022,-1.17063 -0.25406,-0.388454 -0.496181,-0.783971 -0.726694,-1.186826 -0.246364,-0.400439 -0.48012,-0.807929 -0.708104,-1.219004 -0.241607,-0.427445 -0.436113,-0.878022 -0.610899,-1.336093 -0.17376,-0.464468 -0.304012,-0.943142 -0.421968,-1.424276 -0.120068,-0.495906 -0.207624,-0.998532 -0.284382,-1.502672 -0.08221,-0.568547 -0.14011,-1.140124 -0.190717,-1.712222 -0.05537,-0.63854 -0.09389,-1.278371 -0.12822,-1.918335 -0.04787,-0.711337 -0.05543,-1.423619 -0.05377,-2.136224 0.0046,-0.780516 0.03694,-1.561087 0.08268,-2.340229 0.04575,-0.80195 0.115474,-1.602052 0.227864,-2.397437 0.107694,-0.755171 0.247065,-1.504837 0.400656,-2.251824 0.147098,-0.722209 0.335529,-1.43429 0.54465,-2.140712 0.215932,-0.676812 0.446789,-1.349007 0.695976,-2.014297 0.257273,-0.650547 0.526346,-1.296482 0.814515,-1.933961 0.293949,-0.648441 0.604451,-1.288725 0.93106,-1.92129 0.354362,-0.647108 0.689983,-1.304007 1.028613,-1.959383 0.349872,-0.65001 0.704591,-1.297302 1.048041,-1.950781 0.3336,-0.626948 0.674235,-1.250135 1.009449,-1.876229 0.332756,-0.611502 0.653134,-1.229627 0.988086,-1.839926 0.338823,-0.602937 0.66098,-1.215231 0.968402,-1.834731 0.290346,-0.595514 0.587138,-1.187707 0.891028,-1.776429 0.30371,-0.603914 0.58564,-1.219168 0.86212,-1.836052 0.27132,-0.606417 0.54656,-1.211043 0.82088,-1.8161 0.26938,-0.591897 0.51989,-1.191485 0.75553,-1.797524 0.23132,-0.61083 0.42892,-1.23359 0.64505,-1.849831 0.21257,-0.583153 0.39698,-1.175626 0.56381,-1.773288 0.14435,-0.561255 0.28075,-1.124461 0.42212,-1.686512 0.13444,-0.530241 0.24167,-1.066652 0.33854,-1.604846 0.0909,-0.530956 0.17278,-1.063829 0.22361,-1.600211 0.041,-0.532985 0.0603,-1.06734 0.0797,-1.601454 0.007,-0.509193 -0.009,-1.018082 -0.0446,-1.525961 -0.0309,-0.516011 -0.10787,-1.027528 -0.20601,-1.534588 -0.0944,-0.508596 -0.22523,-1.009058 -0.34139,-1.512851 -0.12868,-0.4905 -0.22944,-0.987938 -0.37914,-1.472631 -0.13737,-0.449617 -0.30534,-0.888717 -0.45307,-1.334876 -0.15011,-0.420663 -0.29549,-0.842821 -0.46894,-1.254578 -0.14942,-0.392712 -0.36337,-0.752191 -0.61626,-1.085954 -0.24199,-0.330392 -0.51565,-0.634067 -0.79215,-0.935254 -0.26809,-0.295065 -0.55139,-0.570856 -0.86821,-0.813008 -0.30587,-0.257826 -0.64417,-0.468586 -0.9973,-0.654297 -0.375655,-0.19179 -0.774644,-0.329339 -1.176731,-0.453282 C 98.49,21.53506 98.09349,21.490863 97.699192,21.475839 c -0.382809,-0.0141 -0.766426,0.0081 -1.145955,0.05836 -0.381267,0.04913 -0.753962,0.156411 -1.118738,0.275502 -0.30943,0.09477 -0.615555,0.198732 -0.914336,0.323198 0,0 0.865253,-0.596032 0.865253,-0.596032 v 0 c 0.302255,-0.117397 0.60919,-0.221031 0.919348,-0.315637 0.370388,-0.111598 0.744691,-0.218439 1.130869,-0.257817 0.383932,-0.04068 0.770075,-0.06314 1.156139,-0.04158 0.399675,0.02565 0.801161,0.06988 1.186043,0.185668 0.406695,0.129002 0.809935,0.27237 1.188555,0.47135 0.35605,0.192495 0.69608,0.410726 1.00697,0.671198 0.31855,0.249384 0.605,0.531122 0.87698,0.830495 0.27907,0.303756 0.55218,0.612753 0.79668,0.945628 0.25622,0.342972 0.47529,0.71034 0.62778,1.112017 0.17411,0.414777 0.32073,0.83971 0.47142,1.263404 0.14769,0.44702 0.31575,0.886959 0.45296,1.33747 0.15024,0.487497 0.25142,0.98766 0.38169,1.480698 0.11598,0.505172 0.2468,1.006962 0.34211,1.51669 0.1008,0.511037 0.17978,1.026858 0.21222,1.547185 0.0369,0.511807 0.0545,1.024512 0.0482,1.537769 -0.0192,0.536054 -0.0386,1.072287 -0.0775,1.607349 -0.0474,0.53966 -0.13061,1.075383 -0.2203,1.6095 -0.096,0.540726 -0.20219,1.079773 -0.33636,1.612516 -0.14146,0.563288 -0.28234,1.126567 -0.42324,1.68996 -0.16593,0.600411 -0.34904,1.195885 -0.5628,1.781204 -0.21851,0.616665 -0.41578,1.240693 -0.64508,1.853515 -0.23417,0.608161 -0.48172,1.210424 -0.75259,1.803276 -0.27398,0.605388 -0.55091,1.209418 -0.82228,1.815986 -0.27567,0.618657 -0.55911,1.234675 -0.8589,1.841857 -0.3051,0.587804 -0.60231,1.179491 -0.89258,1.774748 -0.30624,0.621504 -0.628952,1.235015 -0.967259,1.839675 -0.336815,0.609269 -0.656296,1.227849 -0.989708,1.838976 -0.334362,0.626385 -0.674722,1.249542 -1.009904,1.875475 -0.342869,0.6541 -0.697529,1.301723 -1.049888,1.950701 -0.339066,0.654823 -0.670237,1.313783 -1.027491,1.959044 -0.32729,0.630192 -0.638069,1.26837 -0.931257,1.915184 -0.290184,0.634838 -0.558347,1.279377 -0.818099,1.927222 -0.251071,0.662496 -0.47933,1.333431 -0.699101,2.00691 -0.211407,0.703159 -0.401743,1.412234 -0.549037,2.131904 -0.154903,0.745175 -0.296719,1.492752 -0.405378,2.246291 -0.116862,0.791993 -0.185389,1.589553 -0.231548,2.388698 -0.04746,0.776703 -0.07757,1.55517 -0.08294,2.333307 -0.0019,0.710182 0.0066,1.41994 0.05477,2.128819 0.03514,0.638339 0.07367,1.276573 0.129509,1.913493 0.05131,0.569389 0.108585,1.138428 0.191254,1.704261 0.0763,0.500719 0.163467,0.999948 0.281731,1.49271 0.116287,0.47666 0.244694,0.950923 0.416435,1.411087 0.17254,0.453067 0.364749,0.898686 0.604293,1.321022 0.228409,0.410284 0.462745,0.816843 0.708048,1.217345 0.22963,0.400029 0.470551,0.792988 0.722839,1.179153 0.269698,0.398026 0.554922,0.78567 0.848432,1.166418 0.298042,0.398222 0.608317,0.787194 0.919681,1.175017 0.315169,0.386295 0.6336,0.769827 0.940885,1.162521 0.342111,0.405842 0.688459,0.808829 1.072033,1.176631 0.372399,0.356294 0.746533,0.710883 1.140249,1.043806 0.384961,0.314377 0.784641,0.608737 1.194971,0.889288 0.376,0.267581 0.7612,0.523002 1.16047,0.754721 0.36069,0.214188 0.73129,0.410364 1.09653,0.616601 0.37556,0.192794 0.76113,0.361146 1.15207,0.520533 0.39723,0.157128 0.79158,0.324641 1.21046,0.417428 0.44155,0.09543 0.88555,0.180409 1.32877,0.267634 0.44238,0.06433 0.88735,0.11312 1.33534,0.09951 0.45321,-0.01423 0.90789,-0.0254 1.35755,-0.08859 0.44535,-0.05919 0.89015,-0.124516 1.33011,-0.216453 0.40506,-0.08685 0.80831,-0.183925 1.20102,-0.317193 0.36118,-0.122365 0.72307,-0.242811 1.08202,-0.371483 0.23147,-0.08482 0.45903,-0.181195 0.69171,-0.260816 0,0 -0.88689,0.591347 -0.88689,0.591347 z"
       inkscape:connector-curvature="0" />
  </g>
  <g
     inkscape:groupmode="layer"
     id="layer2"
     inkscape:label="Layer 2"
     transform="translate(35.643324,-9.038556)"
     style="display:inline">
    <path
       style="opacity:0.98000004;fill:#704214;fill-opacity:0.97254902;stroke-width:0.26458332"
       id="path3710"
       d="m 84.372706,95.298537 c -0.208283,0.01207 -0.410975,-0.02975 -0.616072,-0.05895 -0.333039,-0.05704 -0.668248,-0.121972 -0.995172,-0.209169 -0.379018,-0.119906 -0.729369,-0.305464 -1.079915,-0.489204 -0.401794,-0.184435 -0.777328,-0.411146 -1.129925,-0.676732 -0.367191,-0.317725 -0.738589,-0.629632 -1.110329,-0.94192 -0.382416,-0.33147 -0.73596,-0.69239 -1.078664,-1.064238 -0.375211,-0.356413 -0.668247,-0.783709 -1.004387,-1.174279 -0.368544,-0.434401 -0.689422,-0.90424 -1.008161,-1.375564 -0.331795,-0.485468 -0.624504,-0.993841 -0.920959,-1.500955 -0.331811,-0.474673 -0.601316,-0.985771 -0.879882,-1.491959 -0.298418,-0.515469 -0.516985,-1.068943 -0.740024,-1.619318 -0.246316,-0.592521 -0.439547,-1.204251 -0.612235,-1.821596 -0.177361,-0.647864 -0.307158,-1.3071 -0.424707,-1.967992 -0.1193,-0.684953 -0.206978,-1.374754 -0.286546,-2.065268 -0.0801,-0.708846 -0.139375,-1.419773 -0.193217,-2.131021 -0.05383,-0.7245 -0.0939,-1.449908 -0.13031,-2.175462 -0.03622,-0.734872 -0.06329,-1.470147 -0.0879,-2.205485 -0.02439,-0.741791 -0.04267,-1.483762 -0.0593,-2.225762 -0.01643,-0.746424 -0.02878,-1.492927 -0.04,-2.239446 -0.01109,-0.749536 -0.01942,-1.499108 -0.02699,-2.248686 -0.01405,-0.725295 0.03032,-1.450062 0.06334,-2.174301 0.0209,-0.699855 0.07147,-1.398241 0.155353,-2.093315 0.08,-0.652592 0.190396,-1.300011 0.308678,-1.94651 0.08778,-0.640326 0.234628,-1.264214 0.430787,-1.879161 0.187735,-0.601022 0.374383,-1.202272 0.562316,-1.80326 0.179631,-0.597011 0.379027,-1.187389 0.548418,-1.787517 0.173942,-0.581908 0.404236,-1.144447 0.595225,-1.720895 0.178705,-0.593447 0.341315,-1.191659 0.509649,-1.788194 0.173905,-0.613717 0.304345,-1.238176 0.421357,-1.864826 0.120628,-0.66046 0.208272,-1.326202 0.287747,-1.992659 0.08089,-0.692539 0.140274,-1.387292 0.194191,-2.082368 0.05429,-0.713592 0.09449,-1.428134 0.131003,-2.142824 0.03649,-0.727551 0.06368,-1.455515 0.08838,-2.183548 0.02455,-0.736864 0.04293,-1.473914 0.05963,-2.210996 0.01654,-0.743106 0.02895,-1.486296 0.04023,-2.2295 0.02387,-0.730991 0.01175,-1.461045 -0.01847,-2.191504 -0.01804,-0.700405 -0.06812,-1.398165 -0.131966,-2.095635 -0.05209,-0.668176 -0.129852,-1.334215 -0.241337,-1.995094 -0.134395,-0.60062 -0.284824,-1.197411 -0.451088,-1.789948 -0.156808,-0.577646 -0.343051,-1.1469 -0.538398,-1.712516 -0.15635,-0.561182 -0.374108,-1.093241 -0.633672,-1.61325 -0.235696,-0.511186 -0.486934,-1.014133 -0.748083,-1.512705 -0.273404,-0.471321 -0.577966,-0.924187 -0.872358,-1.382704 -0.292123,-0.448593 -0.645228,-0.849773 -1.000519,-1.248057 -0.379444,-0.372653 -0.74173,-0.763462 -1.129239,-1.127939 -0.39855,-0.356771 -0.818065,-0.687823 -1.243483,-1.011688 -0.440357,-0.333909 -0.93322,-0.582538 -1.437116,-0.803861 -0.549125,-0.233884 -1.122911,-0.399647 -1.699573,-0.549347 -0.621262,-0.157184 -1.25231,-0.269868 -1.884553,-0.371997 -0.635994,-0.10305 -1.281477,-0.130081 -1.924073,-0.163215 -0.650206,-0.04744 -1.300435,-0.043 -1.951485,-0.02584 -0.598146,0.0305 -1.191387,0.111695 -1.767192,0.27716 -0.268811,0.07687 -0.535141,0.158509 -0.799108,0.250508 0,0 1.223987,-0.831588 1.223987,-0.831588 v 0 c 0.26647,-0.0862 0.534008,-0.168339 0.804346,-0.241761 0.584478,-0.145121 1.182122,-0.223005 1.784329,-0.242361 0.65324,-0.01473 1.305684,-0.0073 1.957938,0.03657 0.646073,0.03485 1.294265,0.06804 1.93281,0.178683 0.635799,0.105371 1.27032,0.221718 1.894441,0.384092 0.582549,0.155524 1.161915,0.327981 1.715069,0.570794 0.511622,0.231482 1.010774,0.491843 1.4571,0.836251 0.428125,0.328987 0.852299,0.662926 1.251712,1.026783 0.387892,0.370237 0.757306,0.760099 1.135417,1.140079 0.361053,0.404296 0.715324,0.81557 1.011306,1.271327 0.297392,0.462211 0.604438,0.919262 0.87793,1.396044 0.261704,0.4995 0.512318,1.00398 0.749305,1.515726 0.26226,0.526474 0.481907,1.065625 0.64095,1.633177 0.196398,0.568646 0.383628,1.140959 0.541399,1.721664 0.167899,0.598088 0.319683,1.200473 0.455832,1.80663 0.11299,0.664829 0.191773,1.33499 0.244242,2.007296 0.06431,0.700148 0.11588,1.400514 0.133683,2.10366 0.03072,0.733517 0.04446,1.466617 0.02016,2.200701 -0.01109,0.743537 -0.02326,1.487059 -0.03951,2.230501 -0.01641,0.737581 -0.03444,1.475131 -0.05855,2.212506 -0.02426,0.728795 -0.05096,1.457524 -0.08678,2.185856 -0.03586,0.715864 -0.07533,1.431589 -0.128598,2.1464 -0.05294,0.696923 -0.111247,1.393534 -0.190563,2.088028 -0.07804,0.669412 -0.164079,1.338133 -0.282284,2.001827 -0.114848,0.630852 -0.24251,1.259748 -0.414266,1.877954 -0.16699,0.598768 -0.336294,1.196753 -0.506659,1.794484 -0.186306,0.576598 -0.412716,1.138248 -0.5988,1.714563 -0.166052,0.602547 -0.364744,1.194258 -0.546605,1.791939 -0.186087,0.602075 -0.378272,1.202023 -0.56179,1.804876 -0.198284,0.608473 -0.360323,1.222642 -0.439293,1.859637 -0.117665,0.644287 -0.233772,1.288248 -0.313274,1.9387 -0.09111,0.690594 -0.141113,1.386012 -0.162531,2.082205 -0.03275,0.721749 -0.07959,1.444011 -0.06861,2.166755 0.0075,0.749316 0.01582,1.498624 0.02683,2.247894 0.01117,0.746125 0.02342,1.492235 0.03976,2.238267 0.01651,0.741407 0.03468,1.482786 0.05891,2.223989 0.02445,0.734449 0.05133,1.468832 0.08731,2.202821 0.03614,0.724199 0.07591,1.448257 0.129357,2.171419 0.0534,0.709168 0.112181,1.418024 0.191638,2.124824 0.07879,0.687279 0.16561,1.373862 0.283834,2.055648 0.116147,0.655823 0.244356,1.310035 0.419897,1.952969 0.170661,0.611463 0.361651,1.217438 0.606724,1.803781 0.222255,0.543891 0.437901,1.091758 0.733853,1.601417 0.277188,0.505429 0.549381,1.01314 0.877774,1.488319 0.293767,0.504491 0.586568,1.00857 0.916106,1.491138 0.316349,0.466008 0.635487,0.930077 1.003576,1.35748 0.332393,0.391027 0.629316,0.812408 1.001995,1.168249 0.34013,0.365297 0.68956,0.72128 1.069748,1.045469 0.371131,0.308742 0.73566,0.624665 1.107667,0.932323 0.351504,0.255048 0.727014,0.46823 1.12023,0.653052 0.342151,0.178015 0.688544,0.352058 1.062337,0.454536 0.327556,0.07581 0.657613,0.147402 0.991113,0.190976 0.204332,0.02708 0.407916,0.04606 0.614365,0.03348 0,0 -1.276773,0.802471 -1.276773,0.802471 z"
       inkscape:connector-curvature="0" />
    <path
       style="opacity:0.98000004;fill:#704214;fill-opacity:0.97254902;stroke-width:0.26458332"
       id="path3712"
       d="m 49.074043,13.310081 c 0.171527,0.09102 0.352904,0.161622 0.524227,0.254127 0.314256,0.188404 0.637762,0.360046 0.953645,0.545975 0.410618,0.220961 0.798838,0.478507 1.186223,0.737031 0.429371,0.292405 0.835625,0.611747 1.206725,0.975287 0.40305,0.373482 0.806709,0.743919 1.172474,1.154683 0.405998,0.45808 0.769231,0.950518 1.097804,1.46634 0.321326,0.547869 0.66652,1.080147 0.97001,1.638375 0.310166,0.57925 0.543999,1.193457 0.754592,1.814446 0.212878,0.642091 0.36948,1.300424 0.511273,1.961214 0.155572,0.68009 0.240554,1.370521 0.300236,2.064543 0.05619,0.708165 0.09302,1.417661 0.127243,2.127168 0.03008,0.724646 0.06959,1.449223 0.07226,2.1746 -0.0065,0.736756 -0.02784,1.472874 -0.07854,2.207905 -0.02545,0.71442 -0.13462,1.417775 -0.261149,2.119786 -0.123568,0.666311 -0.313005,1.317173 -0.480351,1.973123 -0.149355,0.618016 -0.366837,1.212842 -0.624723,1.792851 -0.272093,0.539538 -0.571852,1.067503 -0.899589,1.575382 -0.319582,0.491757 -0.664663,0.966078 -1.040339,1.416343 -0.394999,0.466376 -0.815131,0.909138 -1.247143,1.341083 -0.447159,0.421214 -0.918091,0.817542 -1.401918,1.195891 -0.47166,0.380126 -0.933765,0.770609 -1.418387,1.134528 -0.508383,0.383717 -1.049279,0.720878 -1.575691,1.078724 -0.51883,0.370115 -1.043162,0.73305 -1.578544,1.078873 -0.526531,0.346335 -1.057735,0.685393 -1.586032,1.029004 -0.517006,0.34113 -1.017333,0.706372 -1.527505,1.057434 -0.533435,0.328123 -1.032666,0.705879 -1.526493,1.089864 -0.480761,0.385913 -0.973568,0.756274 -1.457841,1.137682 -0.481766,0.394748 -0.943385,0.812988 -1.403955,1.232006 -0.478269,0.402703 -0.902626,0.860673 -1.324714,1.320106 -0.415872,0.45451 -0.789183,0.946812 -1.146151,1.448353 -0.320386,0.5059 -0.685054,0.980914 -1.009753,1.483829 -0.340365,0.483333 -0.617466,1.003649 -0.893397,1.524875 -0.268558,0.523389 -0.544695,1.043043 -0.792102,1.576901 -0.223478,0.563163 -0.471773,1.115364 -0.713391,1.670862 -0.253418,0.582198 -0.444841,1.187665 -0.616556,1.798058 -0.117244,0.424329 -0.209692,0.854729 -0.298717,1.285651 0,0 -1.375426,0.527449 -1.375426,0.527449 v 0 c 0.08758,-0.434184 0.178512,-0.867865 0.293659,-1.295765 0.168926,-0.616704 0.356788,-1.228942 0.607242,-1.818219 0.238411,-0.557456 0.497226,-1.105773 0.710809,-1.67363 0.24272,-0.538872 0.521441,-1.059476 0.788662,-1.586365 0.28086,-0.521277 0.540655,-1.055177 0.889603,-1.536576 0.31886,-0.509518 0.690084,-0.981342 1.008309,-1.491191 0.352782,-0.509635 0.729837,-1.004808 1.140457,-1.469261 0.425307,-0.458798 0.836377,-0.933513 1.32071,-1.332981 0.458076,-0.423873 0.924367,-0.838869 1.400011,-1.242936 0.481626,-0.385313 0.978294,-0.750961 1.458161,-1.138497 0.489969,-0.390146 0.987263,-0.775065 1.523341,-1.100489 0.51367,-0.346969 1.011978,-0.715798 1.526701,-1.061241 0.529876,-0.341373 1.059289,-0.683443 1.585717,-1.03015 0.539118,-0.338606 1.06304,-0.701836 1.579917,-1.073295 0.521885,-0.36322 1.066898,-0.692365 1.576602,-1.073013 0.489019,-0.357772 0.953878,-0.744114 1.419109,-1.131715 0.487666,-0.369031 0.95282,-0.767366 1.40721,-1.176473 0.4352,-0.42528 0.855006,-0.86492 1.250638,-1.327436 0.381685,-0.440467 0.726363,-0.91074 1.046543,-1.397635 0.335309,-0.496723 0.625107,-1.024075 0.908428,-1.551564 0.265293,-0.569621 0.486426,-1.156287 0.638469,-1.76699 0.164621,-0.653638 0.35719,-1.30039 0.484799,-1.962849 0.126939,-0.697177 0.249748,-1.394103 0.270872,-2.10462 0.0521,-0.731422 0.07503,-1.463752 0.08227,-2.197034 0.0013,-0.72295 -0.04106,-1.445064 -0.07002,-2.167289 -0.03401,-0.707528 -0.0707,-1.415032 -0.125904,-2.121281 -0.05787,-0.687534 -0.138086,-1.37182 -0.293069,-2.04541 C 55.961689,23.79172 55.807202,23.1393 55.596723,22.502992 55.389464,21.89069 55.15929,21.285019 54.852905,20.714273 54.550558,20.159726 54.206399,19.631164 53.886933,19.086562 53.56145,18.578741 53.200913,18.094752 52.797675,17.645471 52.431343,17.240087 52.026658,16.875492 51.62874,16.501791 51.260189,16.148749 50.856842,15.83927 50.433948,15.553673 50.04812,15.296646 49.656272,15.049118 49.248546,14.827804 c -0.317076,-0.181291 -0.637497,-0.35628 -0.956177,-0.534662 -0.188984,-0.09116 -0.396791,-0.158508 -0.559777,-0.293649 0,0 1.341451,-0.689412 1.341451,-0.689412 z"
       inkscape:connector-curvature="0" />
    <path
       style="opacity:0.98000004;fill:#704214;fill-opacity:0.97254902;stroke-width:0.26458332"
       id="path3714"
       d="m 32.211994,64.682464 c -0.207627,-0.05301 -0.413422,-0.114599 -0.621311,-0.170333 -0.330581,-0.06339 -0.624165,-0.232683 -0.91836,-0.387612 -0.332912,-0.21708 -0.695148,-0.37995 -1.036416,-0.582504 C 29.230079,63.280033 28.874101,62.951587 28.506769,62.640159 28.07486,62.285826 27.688942,61.881212 27.293877,61.487623 26.897544,61.057437 26.501711,60.62755 26.087251,60.214459 25.686647,59.8016 25.300811,59.37519 24.95611,58.914339 24.593128,58.427953 24.216806,57.95297 23.862682,57.45984 23.486718,56.947085 23.148977,56.4102 22.809855,55.873049 22.496288,55.355622 22.140693,54.864597 21.789166,54.372464 21.446771,53.886316 21.145972,53.372572 20.833603,52.86694 c -0.289769,-0.532302 -0.625124,-1.036222 -0.94286,-1.551625 -0.3416,-0.535577 -0.636424,-1.098722 -0.939656,-1.656347 -0.29866,-0.603139 -0.632254,-1.187609 -0.9451,-1.783276 -0.333835,-0.579488 -0.626054,-1.180954 -0.912824,-1.784657 -0.292589,-0.626401 -0.552572,-1.267103 -0.852046,-1.890217 -0.305499,-0.636482 -0.605884,-1.275279 -0.876403,-1.927498 -0.292775,-0.664525 -0.544009,-1.345285 -0.768452,-2.035524 -0.219315,-0.70058 -0.43538,-1.401675 -0.62482,-2.111002 -0.18826,-0.714185 -0.331666,-1.438828 -0.461712,-2.165504 -0.128239,-0.7294 -0.224705,-1.463757 -0.31236,-2.198965 2.898427,-13.79889 11.044146,-20.271438 19.977385,-22.759808 0.713269,-0.05475 1.427501,-0.09531 2.141881,-0.132167 0.727303,-0.03683 1.455029,-0.06427 2.182821,-0.08922 0.736687,-0.0248 1.473559,-0.04335 2.210464,-0.06021 0.742981,-0.01671 1.486045,-0.02924 2.229125,-0.04063 0.689874,0.01403 1.379572,0.08521 2.063038,0.178741 0.687007,0.09569 1.366705,0.236699 2.042464,0.391689 0.639662,0.120658 1.248715,0.350442 1.852933,0.585695 0.566129,0.209164 1.11924,0.452991 1.656858,0.727003 0.446675,0.236367 0.882549,0.488436 1.301046,0.771699 l -1.300133,0.703348 v 0 c -0.4146,-0.278166 -0.848247,-0.523052 -1.290971,-0.753777 -0.536215,-0.266779 -1.08525,-0.507383 -1.647476,-0.714316 -0.598816,-0.231576 -1.20495,-0.44713 -1.837743,-0.567155 -0.672909,-0.152533 -1.35037,-0.288188 -2.034736,-0.37857 -0.679024,-0.08485 -1.362469,-0.159774 -2.047438,-0.160674 -0.742945,0.01173 -1.485874,0.02464 -2.228715,0.04184 -0.736701,0.01737 -1.473367,0.03647 -2.209837,0.06203 -0.727477,0.0257 -1.45488,0.05398 -2.181836,0.09196 -0.713886,0.038 -1.427613,0.07982 -2.140307,0.136351 -6.529251,2.955761 -13.697735,4.273776 -17.386577,21.392324 0.08664,0.732255 0.181979,1.46368 0.308847,2.190221 0.128429,0.722458 0.270044,1.442934 0.456347,2.153041 0.187967,0.706776 0.403289,1.405043 0.621894,2.102853 0.222421,0.686408 0.471558,1.363448 0.763841,2.02356 0.269179,0.649573 0.569286,1.285176 0.873591,1.918938 0.299923,0.623141 0.559247,1.264433 0.853194,1.890461 0.286418,0.601477 0.578902,1.200332 0.910052,1.77881 0.312811,0.594754 0.645692,1.178663 0.94484,1.780629 0.30328,0.5544 0.597795,1.114542 0.939206,1.646913 0.318228,0.514985 0.650524,1.020693 0.942616,1.551474 0.31163,0.502042 0.609804,1.013357 0.951342,1.495951 0.351826,0.495599 0.709476,0.988664 1.023072,1.509668 0.336224,0.535035 0.674041,1.067882 1.048135,1.577827 0.355202,0.491233 0.732196,0.964681 1.095174,1.449996 0.342282,0.453181 0.72428,0.873336 1.12044,1.279967 0.412438,0.414798 0.807366,0.845325 1.205905,1.273177 0.39221,0.391605 0.781092,0.788104 1.211585,1.138568 0.360312,0.306756 0.713375,0.626917 1.118719,0.874491 0.343498,0.195379 0.700868,0.365011 1.036823,0.573942 0.288817,0.150074 0.581578,0.293547 0.904396,0.354504 0.198374,0.05441 0.402389,0.123423 0.609129,0.126535 l -1.276773,0.80247 z"
       inkscape:connector-curvature="0"
       sodipodi:nodetypes="ccccccccccccccccccccccccccccccccccccccccccccccccccccccccccccccccccc" />
    <path
       style="opacity:0.98000004;fill:#704214;fill-opacity:0.97254902;stroke-width:0.26458332"
       id="path3716"
       d="m 49.199765,14.710714 c -0.170376,-0.123762 -0.354248,-0.227678 -0.528164,-0.346554 -0.319363,-0.186588 -0.625316,-0.394056 -0.932574,-0.599944 -0.400389,-0.269863 -0.842378,-0.463255 -1.291519,-0.63505 -0.522695,-0.22211 -1.06286,-0.396371 -1.608817,-0.550645 -0.599168,-0.165093 -1.209657,-0.282709 -1.821487,-0.38918 -0.652373,-0.110893 -1.309328,-0.19099 -1.966873,-0.263663 -0.686938,-0.07434 -1.375778,-0.128769 -2.064885,-0.178196 -0.709737,-0.04992 -1.420283,-0.08682 -2.130954,-0.120354 -0.709755,-0.0641 -1.417532,-0.01681 -2.125549,0.03814 -0.677246,0.04503 -1.352968,0.118488 -2.022181,0.232203 -0.636535,0.09933 -1.265989,0.232285 -1.896438,0.363382 -0.582856,0.144446 -1.149175,0.348342 -1.712971,0.553316 -0.552193,0.208334 -1.10763,0.40812 -1.661379,0.612575 -0.451824,0.209169 -1.585253,0.682321 0.482049,-0.225201 0.09799,-0.04302 -0.191161,0.09628 -0.286289,0.145305 -0.301713,0.155492 -0.288018,0.150552 -0.58851,0.315459 -0.606299,0.359978 -1.188722,0.760471 -1.761865,1.170871 -0.571169,0.396046 -1.104776,0.842206 -1.626423,1.300527 -0.486864,0.454615 -0.981881,0.899618 -1.463531,1.359787 -0.447376,0.436564 -0.875183,0.89318 -1.264775,1.382132 -0.358009,0.481659 -0.753466,0.932462 -1.13376,1.396035 -0.35536,0.464648 -0.686557,0.94814 -0.986619,1.450282 -0.312885,0.494077 -0.580774,1.013772 -0.855186,1.529575 -0.281575,0.550737 -0.565013,1.100497 -0.849815,1.649564 -0.305354,0.556719 -0.555454,1.139554 -0.777113,1.733757 -0.225293,0.617653 -0.390289,1.254347 -0.539483,1.893882 -0.152015,0.666115 -0.263383,1.340363 -0.364384,2.015783 -0.102118,0.696868 -0.177453,1.397201 -0.245857,2.098056 -0.07893,0.698947 -0.110298,1.400183 -0.120159,2.102996 -0.0036,0.454123 -0.0059,0.229158 0.0063,0.674896 0,0 -1.361668,0.562153 -1.361668,0.562153 v 0 c -0.0138,-0.451901 -0.01106,-0.22469 -0.0079,-0.681638 0.0088,-0.707102 0.03768,-1.412719 0.116494,-2.116029 0.06734,-0.703202 0.14149,-1.405901 0.241872,-2.105277 0.09945,-0.679119 0.209094,-1.357106 0.358464,-2.027322 0.146977,-0.645361 0.309449,-1.287997 0.530927,-1.912482 0.217922,-0.600798 0.462379,-1.191846 0.769398,-1.753463 0.289312,-0.545985 0.565796,-1.099022 0.846915,-1.649282 0.273255,-0.518161 0.538885,-1.041358 0.853105,-1.536418 0.295207,-0.511322 0.629473,-0.997823 0.978986,-1.47341 0.374599,-0.46819 0.781142,-0.909683 1.136073,-1.393878 0.383961,-0.499798 0.812908,-0.960851 1.259381,-1.405342 0.484655,-0.459249 0.976296,-0.909762 1.463783,-1.365962 0.520118,-0.463844 1.051542,-0.917726 1.624113,-1.316265 0.569246,-0.417789 1.156381,-0.812844 1.753943,-1.188816 0.977854,-0.550268 1.992065,-1.039386 3.030629,-1.46375 0.555392,-0.201161 1.107347,-0.411011 1.662491,-0.612696 0.565549,-0.203878 1.135988,-0.401733 1.723501,-0.532674 0.630817,-0.132039 1.262785,-0.25631 1.8996,-0.356544 0.672457,-0.102455 1.348705,-0.176802 2.027697,-0.21948 0.711412,-0.05212 1.422549,-0.07994 2.135003,-0.02058 0.711676,0.03432 1.423223,0.0721 2.13392,0.12323 0.69066,0.05068 1.38104,0.106506 2.069414,0.182821 0.660004,0.07474 1.319385,0.157149 1.973906,0.271368 0.615796,0.110028 1.23013,0.231721 1.832467,0.40238 0.549442,0.159512 1.091695,0.341235 1.620165,0.561423 0.45705,0.180996 0.904979,0.38589 1.313104,0.663046 0.310213,0.203415 0.62044,0.406251 0.939032,0.596264 0.187251,0.119656 0.384591,0.226891 0.55584,0.369475 0,0 -1.341451,0.689412 -1.341451,0.689412 z"
       inkscape:connector-curvature="0" />
    <path
       style="opacity:0.98000004;fill:#704214;fill-opacity:0.97254902;stroke-width:0.26458332"
       id="path3718"
       d="m 57.014699,26.256565 c -0.06321,0.190833 -0.195617,0.336785 -0.349139,0.46056 -0.701378,0.436943 -1.4669,0.774218 -2.269109,0.9687 -0.441788,0.106688 -0.890256,0.166531 -1.343194,0.193926 -0.516474,0.02503 -1.033523,0.03543 -1.550453,0.04606 -0.572299,0.02731 -1.143876,-0.01207 -1.715135,-0.04244 -0.611436,-0.0332 -1.223261,-0.05831 -1.835176,-0.08073 -0.657876,-0.0236 -1.315964,-0.04056 -1.974075,-0.05596 -0.674452,-0.03105 -1.347875,-0.01529 -2.021933,0.0127 -0.642138,0.0205 -1.28021,0.100285 -1.914363,0.199057 -0.621562,0.08253 -1.23748,0.194672 -1.854018,0.307509 -0.595106,0.08032 -1.16283,0.275818 -1.726284,0.474626 -0.58479,0.24136 -0.517488,0.217717 0.810538,-0.386268 0.08383,-0.03813 -0.166675,0.07846 -0.248952,0.119845 -0.241975,0.121711 -0.469268,0.262845 -0.69836,0.406776 -0.469971,0.299146 -0.915233,0.635418 -1.354468,0.977543 -0.426207,0.347154 -0.80128,0.749882 -1.170403,1.155488 -0.380987,0.390163 -0.752742,0.789657 -1.101841,1.208699 -0.351753,0.431133 -0.611315,0.924938 -0.881677,1.408454 -0.271917,0.497353 -0.540676,0.994963 -0.771821,1.512776 -0.240459,0.551336 -0.412848,1.127919 -0.568089,1.707912 -0.100278,0.406688 -0.05184,0.202343 -0.145244,0.613053 0,0 -1.378368,0.52524 -1.378368,0.52524 v 0 c 0.09156,-0.414179 0.04409,-0.208045 0.142354,-0.618416 0.152421,-0.587002 0.32148,-1.170818 0.557009,-1.730782 0.225991,-0.524198 0.491755,-1.026523 0.765913,-1.526823 0.270317,-0.490096 0.53067,-0.989722 0.871599,-1.435664 0.341997,-0.426667 0.713149,-0.83027 1.0992,-1.217356 0.373899,-0.407011 0.740945,-0.821751 1.163201,-1.180677 0.435309,-0.349615 0.884349,-0.683619 1.348574,-0.99379 0.875411,-0.555678 1.803669,-1.023946 2.78263,-1.378456 0.566992,-0.196008 1.14213,-0.368382 1.738027,-0.452268 0.617016,-0.113485 1.235369,-0.215924 1.856687,-0.303323 0.63695,-0.09448 1.278104,-0.163764 1.922185,-0.182685 0.675719,-0.0259 1.350991,-0.0302 2.026915,-0.0037 0.659137,0.01556 1.318252,0.03271 1.977149,0.05659 0.613235,0.02273 1.226362,0.04834 1.839148,0.0812 0.569669,0.0292 1.139623,0.05931 1.710134,0.03134 0.516901,-0.01206 1.034063,-0.02318 1.550194,-0.05533 0.449154,-0.03659 0.894103,-0.107984 1.330727,-0.221281 0.153011,-0.04189 0.216024,-0.05654 0.364522,-0.107135 0.05439,-0.01852 0.213426,-0.08469 0.161768,-0.05953 -2.117859,1.031336 -1.40222,0.654789 -0.933719,0.442924 0.158067,-0.09446 0.283572,-0.195901 0.372485,-0.357172 0,0 1.414862,-0.521189 1.414862,-0.521189 z"
       inkscape:connector-curvature="0" />
    <path
       style="opacity:0.98000004;fill:#704214;fill-opacity:0.97254902;stroke-width:0.26458332"
       id="path3722"
       d="m 30.890247,37.672748 c 0.04103,-0.05313 0.09549,-0.08982 0.149862,-0.128347 0.08825,-0.065 0.179824,-0.125222 0.271095,-0.185867 0.116859,-0.08385 0.229706,-0.172945 0.345517,-0.258239 0.130886,-0.09406 0.26494,-0.183602 0.396597,-0.276619 0.138409,-0.101134 0.273209,-0.206793 0.413496,-0.305345 0.150807,-0.108135 0.296273,-0.223327 0.441529,-0.33872 0.150468,-0.113133 0.301241,-0.225856 0.448979,-0.342548 0.145164,-0.122713 0.282737,-0.253894 0.427056,-0.377576 0.155615,-0.129228 0.293944,-0.277199 0.431575,-0.424937 0.138219,-0.149092 0.289857,-0.284789 0.430996,-0.431003 0.142068,-0.151559 0.271759,-0.314005 0.413427,-0.465913 0.1407,-0.146667 0.272476,-0.301273 0.40213,-0.457647 0.130164,-0.166188 0.273788,-0.320972 0.412483,-0.479891 0.147693,-0.165751 0.291327,-0.335155 0.445561,-0.494914 0.148013,-0.151463 0.298053,-0.300982 0.449016,-0.449511 0.141962,-0.147508 0.296103,-0.282326 0.447183,-0.420232 0.151164,-0.143537 0.306197,-0.282631 0.464055,-0.418714 0.157226,-0.129643 0.309814,-0.264234 0.457804,-0.404262 0.147338,-0.135975 0.306543,-0.258024 0.466052,-0.379151 0.158766,-0.120012 0.324094,-0.230856 0.489419,-0.341511 0.159819,-0.113127 0.310584,-0.23795 0.472178,-0.348567 0.16964,-0.108138 0.350443,-0.197988 0.530775,-0.286771 0.186709,-0.08657 0.373452,-0.173061 0.56012,-0.25972 0.12505,-0.05805 -0.250063,0.116191 -0.375271,0.173908 -0.03076,0.01418 0.0612,-0.02907 0.09193,-0.04331 0.258537,-0.119779 0.493614,-0.236789 0.753782,-0.334687 0.20457,-0.07519 0.415822,-0.129217 0.627954,-0.178004 0.22602,-0.05074 0.454808,-0.08737 0.683951,-0.120573 0.239908,-0.03403 0.480956,-0.05889 0.722166,-0.08147 0.248995,-0.02283 0.498475,-0.0397 0.748028,-0.05502 0.255013,-0.01535 0.510241,-0.02677 0.7655,-0.03714 0.259033,-0.01035 0.51816,-0.01805 0.777301,-0.02506 0.261726,-0.007 0.523494,-0.01217 0.78527,-0.01691 0.263536,-0.0047 0.52709,-0.0082 0.790647,-0.01143 0.264752,-0.0032 0.529513,-0.0055 0.794276,-0.0077 0.265573,-0.0021 0.531151,-0.0037 0.796727,-0.0052 0.266126,-0.0013 0.532254,-0.0026 0.79838,-0.0035 0.266499,-0.0011 0.532998,-0.0016 0.799494,-0.0024 0.26675,-5.29e-4 0.533501,-0.0011 0.800248,-0.0016 0.26692,-5.29e-4 0.533837,-7.94e-4 0.800756,-0.0011 0.257953,0.0066 0.514144,-0.02903 0.77003,-0.05629 0.256845,-0.02199 0.511802,-0.06004 0.767387,-0.0929 0.244787,-0.03975 0.489093,-0.08107 0.732007,-0.130955 0.224891,-0.03669 0.439158,-0.1143 0.651941,-0.192958 0.178883,-0.07612 0.303985,-0.130461 -0.275455,0.130067 -0.03136,0.0141 0.06198,-0.02982 0.09258,-0.04548 0.08953,-0.04584 0.173916,-0.09853 0.258908,-0.15212 0.168765,-0.09965 0.329102,-0.212719 0.480351,-0.337214 0.148334,-0.12266 0.287219,-0.256092 0.434015,-0.380505 0.07294,-0.06221 0.146809,-0.123288 0.219885,-0.185335 0,0 0.501028,-0.151506 0.501028,-0.151506 v 0 c -0.07248,0.06306 -0.147217,0.123153 -0.219652,0.186259 -0.149222,0.121608 -0.286329,0.256852 -0.434216,0.38005 -0.148545,0.129048 -0.308776,0.245105 -0.478459,0.3449 -0.318299,0.202515 -0.654576,0.373637 -1.009832,0.505503 -0.213786,0.07771 -0.430544,0.147719 -0.655622,0.184999 -0.243269,0.04885 -0.488077,0.08945 -0.733346,0.126934 -0.255796,0.03331 -0.511265,0.06935 -0.768313,0.09196 -0.256749,0.02732 -0.513884,0.0587 -0.772673,0.05087 -0.266914,2.65e-4 -0.533831,5.3e-4 -0.800746,0.0011 -0.266744,5.29e-4 -0.533489,0.0011 -0.800232,0.0016 -0.266491,7.94e-4 -0.532984,0.0013 -0.799473,0.0024 -0.266118,0.0011 -0.532233,0.0021 -0.798348,0.0036 -0.26556,0.0016 -0.531122,0.0031 -0.796676,0.0053 -0.26474,0.0021 -0.529477,0.0047 -0.794206,0.0079 -0.263519,0.0033 -0.527039,0.0069 -0.790535,0.01175 -0.26172,0.0049 -0.523433,0.01027 -0.785101,0.01744 -0.259056,0.0072 -0.518096,0.01519 -0.777038,0.02582 -0.255125,0.01069 -0.510218,0.02246 -0.765083,0.0383 -0.249341,0.0158 -0.498605,0.03319 -0.747347,0.0568 -0.240864,0.02331 -0.481558,0.04901 -0.721019,0.08425 -0.228563,0.03437 -0.456745,0.07231 -0.681913,0.125008 -0.211169,0.05066 -0.421341,0.106865 -0.624287,0.184983 -0.03233,0.01273 -0.06484,0.025 -0.097,0.03814 -0.393872,0.160867 0.568907,-0.271166 0.186629,-0.09243 -0.186155,0.08704 -0.371896,0.174966 -0.558445,0.261152 -0.124905,0.05771 0.249004,-0.117139 0.373504,-0.17571 -0.18083,0.0862 -0.359855,0.177564 -0.532575,0.278995 -0.164084,0.107302 -0.315407,0.231077 -0.47235,0.348316 -0.163927,0.112101 -0.331327,0.219176 -0.490407,0.338296 -0.158036,0.121904 -0.319387,0.239758 -0.46789,0.373534 -0.148801,0.139779 -0.297473,0.279394 -0.457438,0.406651 -0.1568,0.136769 -0.315185,0.271595 -0.464272,0.41697 -0.149693,0.139205 -0.307081,0.270381 -0.447998,0.418791 -0.152307,0.147089 -0.300971,0.297997 -0.449889,0.448487 -0.156782,0.156728 -0.298837,0.326861 -0.447069,0.491545 -0.136803,0.159817 -0.282358,0.312264 -0.411517,0.478536 -0.131115,0.156078 -0.2597,0.314291 -0.401257,0.461272 -0.144595,0.149188 -0.273338,0.312211 -0.413171,0.465746 -0.138541,0.14881 -0.291137,0.283277 -0.431501,0.430321 -0.136646,0.149829 -0.275285,0.298948 -0.428937,0.431636 -0.146211,0.121632 -0.283715,0.252905 -0.426172,0.37882 -0.145973,0.118941 -0.297334,0.23118 -0.448786,0.342993 -0.146286,0.11453 -0.290153,0.232061 -0.440214,0.34172 -0.140333,0.09817 -0.277334,0.20022 -0.412703,0.30512 -0.132,0.09177 -0.262863,0.185047 -0.396364,0.274614 -0.114239,0.08722 -0.23136,0.170444 -0.343291,0.260736 -0.09008,0.06113 -0.183322,0.117853 -0.268897,0.185071 -0.05128,0.03294 -0.117086,0.06445 -0.149481,0.116554 0,0 -0.509119,0.158573 -0.509119,0.158573 z"
       inkscape:connector-curvature="0" />
    <path
       style="opacity:0.98000004;fill:#704214;fill-opacity:0.97254902;stroke-width:0.26458332"
       id="path3728"
       d="m 30.674159,36.940923 c 0.0099,-0.209933 0.0047,-0.418266 -0.01823,-0.627062 -0.0542,-0.315608 -0.156139,-0.6188 -0.248396,-0.924465 -0.100526,-0.385143 -0.240565,-0.758359 -0.408059,-1.119034 -0.18606,-0.38364 -0.458317,-0.710409 -0.701987,-1.056677 -0.266264,-0.365194 -0.586552,-0.689448 -0.924568,-0.988242 -0.37605,-0.32098 -0.815181,-0.546878 -1.263272,-0.748036 -0.511413,-0.221194 -1.047929,-0.373358 -1.586689,-0.510815 -0.564319,-0.142264 -1.145748,-0.199123 -1.723436,-0.258019 -0.581185,-0.06435 -1.166412,-0.05461 -1.748967,-0.02021 -0.593028,0.04607 -1.188424,0.06065 -1.780238,0.12043 -0.585547,0.06628 -1.163874,0.1846 -1.746024,0.275805 -0.611909,0.09878 -1.226604,0.167108 -1.84552,0.19699 -0.581166,0.01781 -1.153958,-0.03816 -1.724604,-0.141203 -0.522913,-0.106471 -1.022446,-0.29034 -1.518292,-0.482849 -0.493944,-0.172175 -0.962626,-0.410051 -1.40109,-0.693962 -0.195456,-0.124341 -0.36235,-0.282805 -0.526652,-0.444159 0,0 1.322141,-0.681921 1.322141,-0.681921 v 0 c 0.157796,0.152318 0.319221,0.299971 0.506284,0.416811 0.436087,0.271444 0.898757,0.497806 1.384679,0.666253 0.48891,0.187605 0.984369,0.360101 1.500773,0.456187 0.563117,0.09481 1.130654,0.135829 1.70217,0.111807 0.616012,-0.03636 1.227809,-0.11258 1.836912,-0.211603 0.583026,-0.09431 1.163221,-0.212389 1.751839,-0.26674 0.594185,-0.0492 1.1901,-0.07516 1.784911,-0.116041 0.587298,-0.0281 1.176576,-0.02506 1.761481,0.04252 0.583054,0.06193 1.168524,0.126542 1.736402,0.278635 0.545396,0.143455 1.08825,0.302604 1.604071,0.533694 0.45883,0.213294 0.906862,0.453565 1.289423,0.789699 0.343588,0.310634 0.67179,0.643271 0.942536,1.0204 0.251312,0.352925 0.526518,0.689851 0.716221,1.082689 0.170786,0.367358 0.316146,0.746646 0.420304,1.138592 0.09635,0.314203 0.202192,0.62549 0.264589,0.948983 0.02754,0.213278 0.04044,0.425381 0.03702,0.640549 0,0 -1.39573,0.571007 -1.39573,0.571007 z"
       inkscape:connector-curvature="0" />
    <path
       style="opacity:0.98000004;fill:#704214;fill-opacity:0.97254902;stroke-width:0.26458332"
       id="path3730"
       d="m 11.423303,29.908656 c -0.167332,-0.07142 -0.3386,-0.135605 -0.50597,-0.20937 C 10.631472,29.553289 10.369416,29.369049 10.103211,29.191135 9.7860354,28.931671 9.4419816,28.708667 9.126803,28.447021 8.895757,28.260818 9.010071,28.356832 8.7840118,28.158797 c 0,0 1.3162342,-0.689547 1.3162342,-0.689547 v 0 c 0.224386,0.192376 0.110663,0.09783 0.341183,0.283631 0.31604,0.253606 0.653104,0.479766 0.973346,0.728065 0.258953,0.173312 0.518187,0.349117 0.803497,0.477154 0.151873,0.05903 0.316575,0.151329 0.481804,0.148085 0,0 -1.276773,0.802471 -1.276773,0.802471 z"
       inkscape:connector-curvature="0" />
    <path
       style="opacity:0.98000004;fill:#704214;fill-opacity:0.97254902;stroke-width:0.26458332"
       id="path3732"
       d="m 32.186065,49.036163 c -0.01831,-0.152263 -0.08986,-0.288306 -0.180946,-0.409441 -0.150154,-0.239328 -0.378373,-0.39107 -0.621004,-0.52383 -0.346487,-0.1789 -0.720331,-0.279828 -1.101794,-0.348652 -0.417427,-0.04685 -0.836538,0.01135 -1.241988,0.110602 -1.405189,0.617119 1.479455,-0.816047 0.605155,-0.264084 0,0 -1.429769,0.413846 -1.429769,0.413846 v 0 c 0.611955,-0.455187 1.335432,-0.757402 2.064875,-0.970799 0.421325,-0.08106 0.851331,-0.130969 1.277908,-0.05448 0.392861,0.08204 0.778457,0.199443 1.132515,0.392525 0.257111,0.151985 0.494313,0.327805 0.659013,0.582586 0.108178,0.15249 0.189617,0.317661 0.231762,0.500719 0,0 -1.395727,0.571008 -1.395727,0.571008 z"
       inkscape:connector-curvature="0" />
    <path
       style="opacity:0.98000004;fill:#704214;fill-opacity:0.97254902;stroke-width:0.26458332"
       id="path3734"
       d="m 41.897043,48.582315 c -0.131723,0.132479 -0.290473,0.235595 -0.442145,0.344289 -0.27422,0.181761 -0.519634,0.401809 -0.780413,0.60143 -0.336759,0.241429 -0.686755,0.459647 -1.057172,0.645133 -0.849696,0.45411 -1.74028,0.819139 -2.624185,1.197025 0.36865,-0.169804 0.736243,-0.341913 1.105945,-0.50941 0.150781,-0.06831 -0.296563,0.147241 -0.446701,0.216956 -0.679349,0.315436 -1.357852,0.63854 -2.045867,0.936543 -0.528275,0.234225 -1.088659,0.377685 -1.635384,0.559117 -0.570037,0.196139 -1.153221,0.348247 -1.74027,0.483296 -0.628452,0.141227 -1.264669,0.24279 -1.901868,0.334806 -0.659738,0.09074 -1.319707,0.180184 -1.986399,0.183142 -0.616905,0.0037 -1.229868,-0.05255 -1.842762,-0.114569 -0.58443,-0.0792 -1.164942,-0.179904 -1.734919,-0.332113 -0.52622,-0.157652 -1.023644,-0.388708 -1.518648,-0.62324 -0.498405,-0.200083 -0.945332,-0.497022 -1.377271,-0.811575 -0.431826,-0.302286 -0.847995,-0.62371 -1.222148,-0.995449 -0.251442,-0.243176 -0.5092,-0.478219 -0.752321,-0.729906 0,0 1.318701,-0.675201 1.318701,-0.675201 v 0 c 0.243999,0.248989 0.501511,0.48302 0.750817,0.726583 0.372483,0.362082 0.785864,0.674957 1.210557,0.973447 0.42862,0.305252 0.87172,0.588695 1.362175,0.785923 0.487725,0.230055 0.980947,0.451446 1.501634,0.597599 0.566124,0.141409 1.140863,0.241736 1.720194,0.311867 0.609074,0.06 1.21906,0.107836 1.831793,0.09947 0.662125,-0.01725 1.31826,-0.107456 1.973537,-0.200147 0.635617,-0.09538 1.270164,-0.20075 1.896261,-0.347549 0.585044,-0.140361 1.164961,-0.300283 1.734355,-0.495541 0.548727,-0.173921 1.102841,-0.335266 1.628343,-0.573849 1.799283,-0.796737 -1.85938,0.881877 -0.155517,0.07917 0.514607,-0.242438 1.030706,-0.481695 1.546061,-0.722543 0.152535,-0.06218 0.306295,-0.121372 0.45823,-0.185007 0.07389,-0.03095 0.292412,-0.130956 0.220077,-0.09654 -2.100532,0.999546 -1.163857,0.555477 -0.708723,0.316741 0.373599,-0.172435 0.72341,-0.379812 1.061135,-0.614627 0.267706,-0.189066 0.506246,-0.413478 0.772168,-0.60456 0.150797,-0.09916 0.298453,-0.207632 0.440722,-0.3122 0,0 1.440008,-0.448514 1.440008,-0.448514 z"
       inkscape:connector-curvature="0" />
    <path
       style="opacity:0.98000004;fill:#704214;fill-opacity:0.97254902;stroke-width:0.26458332"
       id="path3738"
       d="m 46.042783,47.661094 c 0.186566,0.06346 0.367774,0.148907 0.548828,0.229505 0.278739,0.149219 0.555815,0.302368 0.841065,0.43907 0.401148,0.181097 0.779455,0.39065 1.125877,0.662671 0.380121,0.3279 0.688324,0.725318 0.965435,1.141163 0.302652,0.46975 0.517753,0.98574 0.710562,1.507927 0.204759,0.571537 0.349208,1.161566 0.479753,1.75365 0.136512,0.634894 0.234379,1.27703 0.323086,1.920052 0.09449,0.676077 0.162811,1.354381 0.191643,2.03634 0.0312,0.678328 -0.0079,1.356868 -0.06902,2.032269 -0.0548,0.679908 -0.167304,1.352987 -0.319524,2.017385 -0.149093,0.63541 -0.347057,1.257887 -0.574905,1.869077 -0.218612,0.623811 -0.519795,1.210411 -0.838425,1.787549 -0.340791,0.603136 -0.719638,1.184082 -1.109803,1.756201 -0.431927,0.635048 -0.914024,1.232897 -1.391986,1.833248 -0.451112,0.594106 -0.918845,1.17407 -1.404406,1.740191 -0.464145,0.497464 -0.883343,1.032605 -1.297413,1.571601 -0.377468,0.519798 -0.73656,1.053433 -1.063112,1.606738 -0.307581,0.559694 -0.613711,1.120171 -0.920734,1.680167 -0.324165,0.593815 -0.610656,1.207649 -0.883944,1.82626 -0.278632,0.609955 -0.550754,1.222656 -0.840499,1.827464 -0.284483,0.602239 -0.551505,1.212932 -0.813512,1.825294 -0.260413,0.622427 -0.506719,1.249791 -0.723159,1.888871 -0.196257,0.648523 -0.403815,1.293688 -0.593476,1.944222 -0.176379,0.67132 -0.387308,1.332569 -0.587812,1.996842 -0.202551,0.6779 -0.357195,1.368425 -0.537469,2.05231 -0.181946,0.669668 -0.3277,1.348052 -0.457928,2.029407 -0.130598,0.696052 -0.227589,1.397669 -0.315595,2.100175 -0.08807,0.716468 -0.153585,1.435394 -0.2131,2.154708 -0.05929,0.729748 -0.103556,1.460577 -0.143791,2.191584 -0.04198,0.728009 -0.07529,1.455822 -0.06986,2.18509 0.0053,0.680413 0.07399,1.358415 0.12591,2.036395 0.04575,0.66399 0.194337,1.31132 0.338651,1.9588 0.166767,0.68367 0.339871,1.36562 0.538673,2.04072 0.191196,0.69693 0.416132,1.38216 0.685549,2.05268 0.254272,0.62048 0.536895,1.22911 0.82028,1.83675 0.258405,0.56224 0.619794,1.06347 1.024842,1.52768 0.403955,0.44969 0.895096,0.79927 1.407742,1.11268 0.353195,0.19648 0.174506,0.10147 0.536104,0.28496 0,0 -1.289225,0.71924 -1.289225,0.71924 v 0 c -0.366008,-0.19068 -0.185129,-0.092 -0.542663,-0.29609 -0.521761,-0.32722 -1.02041,-0.69187 -1.430218,-1.15641 -0.411118,-0.47853 -0.78001,-0.99235 -1.042559,-1.56916 -0.284072,-0.6106 -0.566814,-1.22246 -0.821288,-1.84607 -0.269983,-0.67561 -0.497808,-1.36527 -0.690806,-2.06687 -0.201668,-0.67794 -0.375618,-1.36324 -0.545367,-2.04979 -0.146555,-0.65465 -0.3015,-1.30846 -0.347908,-1.98008 -0.05231,-0.68164 -0.121889,-1.36324 -0.1285,-2.047291 -0.0065,-0.732597 0.02537,-1.46372 0.0675,-2.195081 0.03966,-0.732295 0.08328,-1.464419 0.141677,-2.195494 0.05867,-0.721281 0.123248,-1.442183 0.209981,-2.160717 0.08678,-0.705509 0.182399,-1.410158 0.311055,-2.109444 0.128381,-0.6849 0.271518,-1.367144 0.453453,-2.040109 0.18202,-0.685168 0.339111,-1.376519 0.536395,-2.057609 0.198335,-0.664022 0.413097,-1.323287 0.586415,-1.994567 0.187436,-0.65332 0.400119,-1.2988 0.591823,-1.950823 0.213246,-0.64334 0.457435,-1.274442 0.717415,-1.900306 0.259646,-0.615469 0.53178,-1.226 0.811289,-1.832613 0.291904,-0.602718 0.562724,-1.214707 0.843862,-1.822426 0.270301,-0.62311 0.557141,-1.240102 0.8773,-1.839285 0.307964,-0.560176 0.613743,-1.121609 0.918281,-1.683605 0.322234,-0.56152 0.684485,-1.097886 1.057985,-1.626402 0.41222,-0.543303 0.828497,-1.085069 1.297543,-1.581306 0.485375,-0.566171 0.964718,-1.13657 1.409618,-1.735738 0.476369,-0.597643 0.960289,-1.190014 1.392491,-1.821132 0.390176,-0.567338 0.767543,-1.144485 1.112099,-1.740763 0.317045,-0.571113 0.628494,-1.14595 0.844058,-1.765175 0.234651,-0.602943 0.431171,-1.220473 0.583565,-1.849483 0.159914,-0.656137 0.273331,-1.323094 0.328814,-1.996569 0.06235,-0.668732 0.106238,-1.340745 0.07781,-2.012691 -0.02664,-0.67704 -0.09227,-1.350333 -0.187039,-2.02139 -0.08785,-0.638718 -0.184748,-1.27657 -0.320053,-1.907241 -0.128691,-0.584819 -0.270979,-1.16767 -0.473329,-1.732111 -0.188606,-0.510043 -0.398852,-1.014235 -0.696892,-1.471737 -0.270184,-0.400127 -0.570674,-0.782767 -0.944528,-1.09225 -0.34503,-0.258641 -0.723225,-0.452784 -1.115221,-0.630955 -0.282816,-0.140094 -0.559893,-0.291443 -0.843013,-0.430977 -0.17984,-0.07904 -0.361683,-0.155752 -0.550532,-0.210492 0,0 1.304187,-0.756684 1.304187,-0.756684 z"
       inkscape:connector-curvature="0" />
    <path
       style="opacity:0.98000004;fill:#704214;fill-opacity:0.97254902;stroke-width:0.26458332"
       id="path3740"
       d="m 57.746338,25.7044 c 0.201044,1.8e-5 0.398061,0.05054 0.59717,0.07835 0.365961,0.0317 0.727176,0.09285 1.08983,0.149509 0.432075,0.107486 0.861369,0.238451 1.282641,0.383782 0.465529,0.148882 0.927497,0.307844 1.392304,0.459008 0.501351,0.133369 0.974484,0.337259 1.439706,0.562716 0.448234,0.234961 0.849514,0.54564 1.273678,0.819346 0.430316,0.278556 0.797851,0.638577 1.178639,0.97858 0.40349,0.361177 0.734754,0.790882 1.091206,1.195961 0.391297,0.422815 0.743174,0.875771 1.092416,1.33299 0.361847,0.461121 0.646396,0.972275 0.899295,1.499005 0.26116,0.559363 0.449369,1.14768 0.619062,1.739944 0.175622,0.628449 0.302387,1.268765 0.417184,1.910631 0.117563,0.671983 0.203327,1.348851 0.281139,2.026399 0.07879,0.700106 0.136832,1.402273 0.189542,2.104749 0.06888,0.69886 0.07368,1.398964 0.03899,2.099525 -0.03067,0.729408 -0.113813,1.454756 -0.187566,2.18064 -0.05749,0.729348 -0.159144,1.45365 -0.253484,2.178812 -0.09719,0.75915 -0.261268,1.505775 -0.45303,2.2459 -0.197165,0.763886 -0.421529,1.520232 -0.624324,2.282584 -0.209288,0.772686 -0.466018,1.531614 -0.735137,2.285217 -0.269782,0.753975 -0.528079,1.512207 -0.778499,2.272839 -0.266144,0.781436 -0.56074,1.553155 -0.857546,2.323407 -0.303737,0.803495 -0.623422,1.600459 -0.982295,2.380956 -0.404598,0.838811 -0.819169,1.673117 -1.253157,2.497154 -0.477419,0.853043 -0.927195,1.72099 -1.394116,2.5797 -0.459094,0.840232 -0.905912,1.687182 -1.36798,2.525774 -0.435081,0.773157 -0.857187,1.553183 -1.266584,2.340226 -0.400749,0.767358 -0.799381,1.535864 -1.192758,2.307034 -0.371017,0.752015 -0.721572,1.514097 -1.043919,2.288228 -0.299453,0.713359 -0.623075,1.416129 -0.943358,2.120289 -0.309042,0.693018 -0.615091,1.387565 -0.885024,2.096876 -0.28847,0.78101 -0.534318,1.575657 -0.753385,2.378567 -0.229494,0.863793 -0.398581,1.74159 -0.549344,2.621999 -0.161147,0.972093 -0.272158,1.951316 -0.373242,2.93115 -0.106945,1.066715 -0.182629,2.136148 -0.251812,3.205858 -0.07027,1.11466 -0.120994,2.2304 -0.168807,3.346207 -0.05789,1.118896 0.0095,2.233945 0.124108,3.346402 0.100894,1.034264 0.34693,2.041612 0.658617,3.030106 0.268922,0.84478 0.678513,1.62712 1.167781,2.36262 0.419023,0.61556 0.949716,1.13456 1.520383,1.60723 0.514403,0.41915 1.099995,0.70728 1.736474,0.88249 0.633994,0.13831 1.276434,0.1711 1.921409,0.12077 0.68898,-0.0758 1.361586,-0.24312 2.022803,-0.44612 -0.778441,0.46238 1.783297,-0.78426 0.918628,-0.38378 -2.018194,0.93477 -0.934315,0.42537 -0.490484,0.17146 0.555307,-0.31502 1.024109,-0.7489 1.484759,-1.18502 0.427149,-0.40555 0.779132,-0.87507 1.068015,-1.38643 0.201247,-0.38013 0.321833,-0.78303 0.308303,-1.21348 -0.01609,-0.37416 -0.104987,-0.72157 -0.288253,-1.04706 -0.153591,-0.22344 -0.338625,-0.457371 -0.622536,-0.494589 -0.831807,0.363359 1.924399,-1.231218 0.845426,-0.314352 -0.247277,0.194276 -0.510238,0.362429 -0.791517,0.502441 -0.849675,0.47577 -1.545815,0.79157 -2.463244,0.85501 -0.401124,0.007 -0.795518,-0.0541 -1.173684,-0.18587 -0.387869,-0.15289 -0.676063,-0.43843 -0.930428,-0.758508 -0.279673,-0.375198 -0.462675,-0.806262 -0.626298,-1.241269 -0.187283,-0.485719 -0.279067,-0.997019 -0.357291,-1.509212 -0.08265,-0.522275 -0.01484,-1.036966 0.140465,-1.537359 0.158607,-0.462857 0.458668,-0.835189 0.807421,-1.168157 0.757377,-0.647472 1.718622,-0.991526 2.609254,-1.404517 0.472295,-0.192608 0.97132,-0.281225 1.473677,-0.349239 0.50356,-0.08711 1.007459,-0.02885 1.502661,0.07568 0.479724,0.113774 0.957154,0.250235 1.411031,0.444149 0.435607,0.217897 0.855541,0.465658 1.24474,0.758623 0.387757,0.30733 0.734497,0.652532 1.033978,1.045869 0.221137,0.301482 0.349129,0.631132 0.32547,1.005187 -0.04466,0.275547 -0.203952,0.491119 -0.425731,0.65115 -0.824534,0.483108 -1.343046,0.739299 -2.183251,0.786095 -0.371894,-0.0096 -0.717244,0.04854 -1.050981,0.212567 2.108695,-1.053452 1.174745,-0.612934 0.757909,-0.190961 0,0 -1.42046,0.449697 -1.42046,0.449697 v 0 c 0.515596,-0.602139 1.02975,-0.775584 1.888527,-1.107615 0.350345,-0.129111 0.710769,-0.161298 1.082699,-0.16823 0.644604,-0.05786 1.818002,-0.594839 -0.517586,0.423027 0.225745,-0.100899 0.40178,-0.264137 0.477332,-0.506326 0.0573,-0.333388 -0.07047,-0.625469 -0.264337,-0.895371 -0.291275,-0.380735 -0.633717,-0.710829 -1.012188,-1.005313 -0.384325,-0.279294 -0.794662,-0.522089 -1.225171,-0.723649 -0.45093,-0.179424 -0.920234,-0.314489 -1.394608,-0.416203 -0.488982,-0.08754 -0.98061,-0.123248 -1.472854,-0.02966 -0.495646,0.07588 -0.986702,0.180377 -1.447294,0.385892 2.296435,-1.082241 0.478329,-0.282379 0.02674,0.124815 -0.35116,0.30593 -0.661564,0.649369 -0.834924,1.08952 -0.168418,0.474027 -0.245041,0.964012 -0.170831,1.466643 0.07601,0.500938 0.160637,1.002509 0.345186,1.477217 0.158192,0.418523 0.334388,0.834011 0.608177,1.192159 0.242152,0.294587 0.5163,0.551484 0.88633,0.674262 0.370147,0.108157 0.753412,0.157927 1.139452,0.130597 0.637648,-0.06645 2.099146,-0.629276 -0.229441,0.33796 0.284448,-0.12472 0.547076,-0.2774 0.795729,-0.463218 0.545623,-0.408919 1.160158,-1.027771 1.882793,-0.87413 0.296087,0.117019 0.506174,0.349329 0.675222,0.614587 0.192797,0.348251 0.296878,0.717201 0.31917,1.116211 0.02796,0.45815 -0.07932,0.88991 -0.285322,1.30074 -0.281903,0.52781 -0.630012,1.01405 -1.057703,1.43509 -0.458092,0.44489 -0.925444,0.88807 -1.473087,1.2226 -0.978175,0.56587 -2.002536,1.0597 -3.069767,1.43244 -0.669401,0.19285 -1.348171,0.35887 -2.044499,0.4168 -0.656166,0.0335 -1.31227,-0.008 -1.952006,-0.1684 -0.645998,-0.20011 -1.244227,-0.50613 -1.765241,-0.94278 -0.577287,-0.48732 -1.113558,-1.02131 -1.536491,-1.65167 -0.49257,-0.75098 -0.905005,-1.54843 -1.176978,-2.40762 -0.315024,-0.9989 -0.562557,-2.017309 -0.666099,-3.062183 -0.115113,-1.119674 -0.187534,-2.241682 -0.132228,-3.368024 0.0469,-1.116759 0.0999,-2.23329 0.166793,-3.349048 0.06728,-1.070999 0.141954,-2.141646 0.245581,-3.209838 0.09836,-0.982274 0.207428,-1.963817 0.363884,-2.938812 0.147151,-0.884875 0.315346,-1.766514 0.540419,-2.635337 0.216988,-0.806603 0.45828,-1.605674 0.743583,-2.39109 0.263699,-0.714457 0.572344,-1.410568 0.880004,-2.106985 0.321752,-0.703041 0.644125,-1.405824 0.949198,-2.116278 0.320429,-0.778791 0.672116,-1.544063 1.041585,-2.300777 0.392126,-0.772284 0.792255,-1.540521 1.192906,-2.308402 0.408426,-0.789607 0.830548,-1.571713 1.268132,-2.345563 0.467571,-0.836168 0.910598,-1.685917 1.371565,-2.525752 0.46871,-0.856856 0.913292,-1.726703 1.393574,-2.577293 0.434896,-0.819915 0.845362,-1.652601 1.250789,-2.487391 0.361987,-0.776094 0.682945,-1.569548 0.984935,-2.370838 0.297521,-0.766948 0.586724,-1.537679 0.85748,-2.314453 0.248994,-0.762448 0.508913,-1.521508 0.777412,-2.277277 0.270872,-0.74884 0.526344,-1.504117 0.738886,-2.271784 0.200993,-0.762754 0.426426,-1.518626 0.624433,-2.282187 0.194233,-0.732904 0.358864,-1.472653 0.45667,-2.225284 0.09376,-0.724164 0.20101,-1.446757 0.2568,-2.175229 0.07294,-0.723062 0.15739,-1.445345 0.187293,-2.171904 0.03702,-0.694224 0.04049,-1.38839 -0.02994,-2.081175 -0.05232,-0.700358 -0.109919,-1.400414 -0.188137,-2.098427 -0.0771,-0.674206 -0.162066,-1.347747 -0.27862,-2.016453 -0.113429,-0.636468 -0.23863,-1.271434 -0.412419,-1.894631 -0.166889,-0.583488 -0.351896,-1.163182 -0.609669,-1.713976 -0.248851,-0.516617 -0.52973,-1.017093 -0.885896,-1.468789 -0.346253,-0.454933 -0.699821,-0.90184 -1.087504,-1.32284 -0.351824,-0.401235 -0.684535,-0.821907 -1.085323,-1.177023 -0.374322,-0.33588 -0.740349,-0.686101 -1.16699,-0.956447 -0.416941,-0.273379 -0.816353,-0.577141 -1.263613,-0.801053 -0.461394,-0.22066 -0.935551,-0.406495 -1.429041,-0.543973 -0.464979,-0.153297 -0.929696,-0.306908 -1.39518,-0.45861 -0.417941,-0.135718 -0.838395,-0.275098 -1.270026,-0.359069 -0.364644,-0.05607 -0.729771,-0.103497 -1.096568,-0.142949 -0.197562,-0.02844 -0.394402,-0.06704 -0.595051,-0.0523 0,0 1.276773,-0.802471 1.276773,-0.802471 z"
       inkscape:connector-curvature="0" />
    <path
       style="opacity:0.98000004;fill:#704214;fill-opacity:0.97254902;stroke-width:0.26458332"
       id="path3744"
       d="m 55.620586,24.845686 c 0.0048,-0.221317 0.0053,-0.442712 0.0065,-0.664072 -0.0013,-0.391542 -0.0011,-0.782203 0.02831,-1.172761 0.03289,-0.459263 0.121693,-0.912121 0.217773,-1.361644 0.122135,-0.513614 0.28034,-1.016233 0.455782,-1.513724 0.211024,-0.577902 0.446363,-1.146086 0.693418,-1.709347 0.262212,-0.583626 0.54474,-1.157699 0.82165,-1.734427 0.281075,-0.568347 0.603181,-1.114252 0.931431,-1.656162 0.30235,-0.523371 0.617075,-1.039486 0.949045,-1.54459 0.335854,-0.468862 0.691893,-0.92259 1.038603,-1.383419 0.328343,-0.457519 0.690639,-0.889733 1.078836,-1.297367 0.379825,-0.399968 0.791998,-0.766617 1.187238,-1.1510659 0.06753,-0.062107 0.135054,-0.1242134 0.202578,-0.1863201 0,0 1.415614,-0.432231 1.415614,-0.432231 v 0 c -0.06807,0.060342 -0.136147,0.1206841 -0.204221,0.1810261 -0.397161,0.381644 -0.802543,0.754322 -1.189038,1.1465619 -0.395121,0.395993 -0.759232,0.824205 -1.085786,1.278538 -0.349745,0.456556 -0.693682,0.917321 -1.042877,1.374355 -0.338116,0.499627 -0.651975,1.015538 -0.952841,1.538335 -0.326255,0.539636 -0.654211,1.078284 -0.938107,1.642037 -0.27719,0.57481 -0.556485,1.148513 -0.822304,1.728655 -0.245861,0.559741 -0.484497,1.12221 -0.694322,1.696746 -0.173159,0.491744 -0.333264,0.986289 -0.459179,1.492677 -0.09455,0.442636 -0.186753,0.888011 -0.221842,1.339981 -0.03122,0.385931 -0.03538,0.771261 -0.02694,1.158419 0.0011,0.219599 0.0016,0.439236 0.0065,0.658792 0,0 -1.39573,0.571007 -1.39573,0.571007 z"
       inkscape:connector-curvature="0" />
    <path
       style="opacity:0.98000004;fill:#704214;fill-opacity:0.97254902;stroke-width:0.26458332"
       id="path3746"
       d="m 63.819661,9.650769 c -0.136004,0.1309902 -0.311923,0.2211703 -0.476221,0.3134501 -0.252918,0.1731799 -0.499073,0.3561619 -0.755674,0.5241609 -0.351367,0.234528 -0.735354,0.411109 -1.112316,0.599142 -3.279743,1.531251 -1.052576,0.488873 -0.418399,0.20091 0.07174,-0.03258 -0.141637,0.0691 -0.211812,0.104925 -0.213273,0.108889 -0.422632,0.225343 -0.635156,0.33571 -0.896657,0.434499 -1.7834,0.894648 -2.71485,1.250919 -0.528164,0.174889 -1.057656,0.346443 -1.58908,0.511595 -0.569875,0.175191 -1.152699,0.301511 -1.73742,0.41515 -0.622372,0.122066 -1.249543,0.207211 -1.881836,0.252922 -0.507926,0.03834 -1.018059,0.01615 -1.526617,0.0036 0,0 1.252133,-0.78254 1.252133,-0.78254 v 0 c 0.505616,0.01099 1.012637,0.02742 1.517232,-0.01707 0.628909,-0.05245 1.252714,-0.145434 1.871657,-0.269254 0.5827,-0.118364 1.163061,-0.250578 1.730047,-0.43146 0.529791,-0.168732 1.062275,-0.330925 1.584378,-0.522171 0.47798,-0.193253 1.500616,-0.668542 -0.60851,0.307347 -0.716653,0.331595 1.382323,-0.687334 0.671904,-0.327008 0.793197,-0.397097 4.052594,-1.992506 1.262859,-0.642929 0.375171,-0.184021 0.758216,-0.356241 1.110863,-0.581755 0.261734,-0.156348 0.512004,-0.334153 0.749668,-0.524619 0.153157,-0.100581 0.315368,-0.189484 0.477142,-0.272545 0,0 1.440008,-0.4485116 1.440008,-0.4485116 z"
       inkscape:connector-curvature="0" />
    <path
       style="opacity:0.98000004;fill:#704214;fill-opacity:0.97254902;stroke-width:0.26458332"
       id="path3754"
       d="m 21.451355,17.195357 c -0.155289,0.03127 -0.312951,0.04781 -0.470401,0.0636 -0.280452,0.02626 -0.561798,0.04103 -0.843085,0.05479 -0.363197,0.01703 -0.726638,0.02798 -1.090085,0.03798 -0.376364,-0.01086 -0.753315,-0.05751 -1.124303,-0.121666 -0.371272,-0.07026 -0.735801,-0.171281 -1.105354,-0.250559 -0.381251,-0.08532 -0.748726,-0.216686 -1.116199,-0.346984 -0.394604,-0.140604 -0.775547,-0.313275 -1.154458,-0.490859 -0.412987,-0.194998 -0.796858,-0.44337 -1.195035,-0.665645 -0.426309,-0.229671 -0.816486,-0.517946 -1.218731,-0.78592 -0.381863,-0.27242 -0.779816,-0.520925 -1.164407,-0.78936 -0.239116,-0.182557 -0.122312,-0.08861 -0.350503,-0.281728 0,0 0.923479,-0.485839 0.923479,-0.485839 v 0 c 0.224427,0.186832 0.109504,0.09581 0.344884,0.272909 0.384852,0.266452 0.780075,0.517502 1.161989,0.788254 0.399443,0.267579 0.789559,0.551423 1.21468,0.777982 0.395725,0.223025 0.780775,0.466381 1.194205,0.656484 0.376463,0.176132 0.756802,0.343556 1.149585,0.48061 0.364556,0.128264 0.730909,0.25262 1.109358,0.334208 0.36794,0.08075 0.731561,0.181767 1.103078,0.244989 0.367639,0.05658 0.739372,0.106291 1.111928,0.10346 0.364122,-0.01106 0.728241,-0.02317 1.09204,-0.04238 0.281831,-0.0156 0.563799,-0.03216 0.844378,-0.06378 0.156341,-0.01929 0.315928,-0.03588 0.465004,-0.08948 0,0 -0.882047,0.59894 -0.882047,0.59894 z"
       inkscape:connector-curvature="0" />
    <path
       style="opacity:0.98000004;fill:#704214;fill-opacity:0.97254902;stroke-width:0.26458332"
       id="path3756"
       d="m 9.8445226,12.116469 c 0.099556,0.07827 0.1957534,0.164486 0.2870394,0.253294 0.135568,0.165488 0.287296,0.314424 0.439236,0.464372 0.216541,0.203266 0.381462,0.451531 0.559761,0.686923 0.218576,0.299195 0.437856,0.597696 0.645532,0.904614 0.228624,0.358829 0.442901,0.726396 0.675976,1.082392 0.256495,0.365829 0.495819,0.743398 0.71787,1.131022 0.237455,0.383171 0.443298,0.784294 0.653922,1.18247 0.21297,0.399567 0.377161,0.821414 0.52413,1.248826 0.149591,0.445188 0.25902,0.902092 0.358041,1.360711 0.100626,0.476238 0.174447,0.957448 0.241407,1.439383 0.06755,0.496032 0.117449,0.994188 0.162758,1.492666 0.05441,0.50912 0.07343,1.019768 0.07823,1.531386 0.01126,0.503325 0.0029,1.004604 -0.04898,1.505393 -0.0357,0.385299 -0.09832,0.766839 -0.161264,1.14836 0,0 -0.971925,0.37736 -0.971925,0.37736 v 0 c 0.0627,-0.379807 0.129344,-0.758976 0.164534,-1.142651 0.05509,-0.496985 0.07065,-0.993912 0.05606,-1.493999 -0.0041,-0.508656 -0.02009,-1.016415 -0.07509,-1.522571 -0.0449,-0.496707 -0.09435,-0.993099 -0.161329,-1.487392 -0.06625,-0.479165 -0.139267,-0.957622 -0.238918,-1.431161 -0.0977,-0.454259 -0.205642,-0.906852 -0.353546,-1.347815 -0.144855,-0.421856 -0.306877,-0.838148 -0.51725,-1.232365 -0.20986,-0.397076 -0.415049,-0.796982 -0.65149,-1.179219 -0.221681,-0.385435 -0.46144,-0.760184 -0.716682,-1.124317 -0.231632,-0.356092 -0.446214,-0.722707 -0.676174,-1.079869 -0.208145,-0.304583 -0.428227,-0.60041 -0.647119,-0.8973 C 10.01416,13.755619 9.8482673,13.514564 9.6328594,13.317656 9.4796865,13.169379 9.3328507,13.016298 9.191114,12.856972 9.0952679,12.769673 8.9964516,12.68586 8.8959734,12.603957 c 0,0 0.9485492,-0.487488 0.9485492,-0.487488 z"
       inkscape:connector-curvature="0" />
    <path
       style="opacity:0.98000004;fill:#704214;fill-opacity:0.97254902;stroke-width:0.26458332"
       id="path3758"
       d="m 22.142683,52.773902 c 0.07669,0.130387 0.143682,0.266208 0.208813,0.403357 0.136596,0.290971 0.230158,0.598829 0.311439,0.908984 0.129194,0.530789 0.196488,1.073531 0.255725,1.615723 0.07645,0.74607 0.126678,1.494489 0.1736,2.242892 0.05134,0.810009 0.08623,1.620914 0.117719,2.431896 0.03214,0.863764 0.05657,1.727785 0.08028,2.591814 0.02166,0.815623 -0.0181,1.630238 -0.0799,2.443175 -0.05635,0.737876 -0.17114,1.467136 -0.346655,2.18558 -0.155291,0.615146 -0.406945,1.196399 -0.713305,1.74982 -0.264128,0.466889 -0.614828,0.869973 -1.000183,1.239289 -0.33954,0.314265 -0.719287,0.578189 -1.133332,0.783366 C 19.385118,71.693232 18.81,71.999694 18.106817,71.97055 17.787428,71.962771 17.492386,71.852596 17.21402,71.704199 16.918097,71.550423 16.648945,71.348983 16.400254,71.127952 16.135369,70.899686 15.88547,70.655142 15.638878,70.407423 15.344885,70.097244 15.0666,69.772862 14.781572,69.454616 14.409436,69.032254 14.048318,68.600234 13.692906,68.163741 13.281695,67.648957 12.853204,67.148426 12.433716,66.640476 11.973077,66.075916 11.501389,65.52063 11.023542,64.970609 10.451545,64.312024 9.8584058,63.672351 9.2574564,63.040227 8.6113997,62.351364 7.9355124,61.692541 7.2575993,61.035469 6.5584119,60.360057 5.8341098,59.711563 5.1140029,59.058735 4.4455251,58.469357 3.7621088,57.897757 3.0703636,57.336017 2.4870592,56.834259 1.8760474,56.366968 1.2525219,55.916713 0.69367558,55.525376 0.11545251,55.162873 -0.47886942,54.828146 -1.0190824,54.534945 -1.5817956,54.286787 -2.1292604,54.007786 -2.6171328,53.749262 -3.12348,53.530055 -3.6388389,53.333131 c -0.4989613,-0.187645 -1.0122826,-0.331939 -1.5285209,-0.462902 -0.5125267,-0.127759 -1.0318858,-0.22456 -1.5524824,-0.31251 -0.5207391,-0.08645 -1.0446128,-0.151635 -1.5690334,-0.210891 -0.5257202,-0.05838 -1.0528643,-0.102347 -1.5802543,-0.14232 -0.5288141,-0.0394 -1.0582731,-0.06906 -1.5878431,-0.09604 -0.52406,-0.0295 -1.047829,-0.04967 -1.572675,-0.04277 -0.48435,0.01236 -0.969669,0.04665 -1.450743,0.105119 -0.445778,0.06743 -0.87725,0.203036 -1.301391,0.352454 0.560163,-0.332677 -1.385653,0.600014 -0.811437,0.339394 0.779951,-0.353999 0.986273,-0.477189 0.562036,-0.237731 -0.356698,0.1904 -0.668855,0.445326 -0.97276,0.708978 -0.29851,0.252674 -0.578108,0.527098 -0.841781,0.815713 -0.251226,0.299643 -0.480033,0.618056 -0.687154,0.949595 -0.21949,0.331901 -0.405788,0.683387 -0.596354,1.032176 -0.185204,0.347277 -0.403126,0.673611 -0.636403,0.989957 -0.229904,0.310878 -0.530133,0.554898 -0.827216,0.797799 -0.580493,0.465513 -1.276166,0.733594 -1.944986,1.046003 -0.187331,0.08445 -0.381405,0.149514 -0.577376,0.210042 0,0 0.86576,-0.586729 0.86576,-0.586729 v 0 c 0.192982,-0.06558 0.384786,-0.134149 0.569454,-0.221178 -1.6218,0.762105 -0.23483,0.140141 0.08401,-0.148606 0.296809,-0.235781 0.598012,-0.472715 0.835925,-0.770567 0.236893,-0.309695 0.455704,-0.631585 0.642574,-0.974265 0.189577,-0.35065 0.374066,-0.704927 0.594267,-1.037744 0.203481,-0.338931 0.434471,-0.659735 0.680301,-0.969192 0.25895,-0.295542 0.539051,-0.573736 0.838076,-0.828749 0.301124,-0.270481 0.610989,-0.535258 0.967629,-0.730853 0.663394,-0.399733 1.390689,-0.704967 2.11789,-0.971016 0.428576,-0.143968 0.863707,-0.275743 1.314048,-0.330777 0.483343,-0.05083 0.969086,-0.08904 1.45524,-0.09395 0.525655,-0.003 1.050404,0.02162 1.575259,0.04937 0.530106,0.02765 1.0600945,0.05806 1.5894065,0.09843 0.5281826,0.04099 1.0561073,0.08607 1.5825393,0.145913 0.5255889,0.06079 1.0506024,0.127669 1.5723354,0.216294 0.5222957,0.09028 1.0432867,0.189648 1.5571477,0.320611 0.5185834,0.134488 1.0340867,0.282655 1.5347281,0.474774 0.5165545,0.2013 1.0235787,0.425368 1.51337,0.685879 0.54847698,0.278183 1.11061041,0.529297 1.64903756,0.827032 0.59487064,0.33972 1.17489624,0.705207 1.73378714,1.101656 0.6223949,0.453605 1.2317989,0.924375 1.8148765,1.427975 0.6912554,0.563989 1.3727014,1.139539 2.0405989,1.731111 0.7201096,0.654386 1.4443454,1.304483 2.1446731,1.980205 0.6800778,0.657373 1.3564698,1.318212 2.0046588,2.007449 0.603085,0.633233 1.198258,1.274032 1.775362,1.931136 0.480773,0.549259 0.953991,1.104987 1.416198,1.670005 0.421661,0.506828 0.849469,1.008562 1.263047,1.522092 0.357183,0.433716 0.718487,0.864269 1.093963,1.282338 0.28508,0.31614 0.563988,0.637992 0.859386,0.944729 0.246743,0.244541 0.496534,0.486206 0.760072,0.712755 0.24579,0.211993 0.509575,0.405617 0.800911,0.550834 0.272891,0.133503 0.559557,0.22334 0.866802,0.219898 0.461154,-0.0081 1.59304,-0.42608 0.0087,0.230576 0.421703,-0.187208 0.804687,-0.443307 1.149483,-0.750411 0.389276,-0.357987 0.745203,-0.749946 1.01523,-1.207849 0.312922,-0.543037 0.569101,-1.115648 0.730107,-1.723282 0.180703,-0.712676 0.299889,-1.436357 0.357976,-2.169832 0.06433,-0.809755 0.107603,-1.621068 0.08794,-2.433815 -0.02208,-0.863576 -0.04619,-1.72712 -0.08004,-2.590326 -0.03267,-0.809715 -0.06933,-1.619298 -0.119895,-2.428124 -0.04751,-0.745802 -0.09776,-1.491705 -0.178476,-2.234797 -0.06239,-0.535141 -0.131408,-1.071066 -0.26204,-1.594642 -0.08153,-0.302302 -0.176116,-0.601567 -0.312679,-0.884213 -0.06941,-0.14106 -0.141778,-0.279151 -0.223623,-0.413076 0,0 0.971889,-0.438372 0.971889,-0.438372 z"
       inkscape:connector-curvature="0" />
    <path
       style="opacity:0.98000004;fill:#704214;fill-opacity:0.97254902;stroke-width:0.26458332"
       id="path3762"
       d="m -21.957336,58.171997 c -0.355123,0.313333 -0.854985,0.536631 -1.334753,0.594384 -0.135248,-0.0026 -0.275669,0.0019 -0.368235,-0.110096 -0.06687,-0.115366 -0.0032,-0.208301 0.05007,-0.312287 0.103896,-0.158385 0.161506,-0.337892 0.212308,-0.518629 0.07071,-0.280532 0.118877,-0.56661 0.145122,-0.854604 0.0247,-0.314891 -0.0068,-0.630203 -0.05072,-0.941834 -0.05165,-0.303888 -0.160222,-0.591087 -0.318374,-0.854586 -0.150764,-0.277392 -0.36597,-0.5002 -0.609641,-0.69642 -0.276673,-0.207071 -0.587381,-0.360979 -0.913163,-0.473049 -0.352698,-0.119594 -0.722856,-0.161396 -1.09099,-0.202001 -0.38209,-0.04702 -0.767665,-0.03324 -1.148728,0.01405 -0.367036,0.06876 -0.729888,0.155551 -1.083181,0.276744 -0.333637,0.143211 -1.056825,0.452696 0.44372,-0.21576 0.05583,-0.02487 -0.109255,0.0549 -0.162679,0.08459 -0.149948,0.08332 -0.168093,0.100478 -0.309431,0.197014 -0.323582,0.211148 -0.606615,0.469431 -0.878922,0.741362 -0.286112,0.270087 -0.503311,0.595977 -0.717692,0.922624 -0.212434,0.334772 -0.421921,0.671716 -0.609775,1.021008 -0.190093,0.352261 -0.390575,0.698616 -0.58374,1.049189 -0.195238,0.371557 -0.391628,0.742757 -0.568383,1.123561 -0.183711,0.404331 -0.361773,0.810472 -0.555784,1.210035 -0.182623,0.405657 -0.395459,0.796319 -0.597238,1.192443 -0.189524,0.388197 -0.376719,0.777494 -0.567796,1.164934 -0.206378,0.367792 -0.381209,0.750686 -0.556665,1.133668 -0.182576,0.382093 -0.33854,0.775824 -0.4606,1.18123 -0.101007,0.339817 -0.100449,0.681979 -0.01662,1.023474 0.08507,0.294706 0.272989,0.524227 0.493618,0.728694 0.251499,0.218213 0.550235,0.365104 0.853313,0.496462 0.34576,0.137559 0.711567,0.173807 1.079428,0.190878 0.418407,0.02082 0.836499,-0.0217 1.2495,-0.0855 0.459055,-0.08256 0.91839,-0.170939 1.372444,-0.27826 0.451274,-0.09911 0.898052,-0.2151 1.345975,-0.327959 0.465495,-0.101573 0.916104,-0.257955 1.367118,-0.409106 0.447202,-0.182986 0.909258,-0.324517 1.363675,-0.487228 0.42898,-0.163563 0.861458,-0.319632 1.288319,-0.488844 0.411451,-0.163721 0.816358,-0.343696 1.224791,-0.514977 0.429601,-0.185015 0.871081,-0.339497 1.305993,-0.510791 0.07246,-0.02797 0.144704,-0.05651 0.217381,-0.08391 0.191367,-0.07215 0.243622,-0.08506 0.430167,-0.166976 0.06803,-0.02988 0.269085,-0.126188 0.201667,-0.09495 -0.244058,0.113064 -0.975881,0.453019 -0.731592,0.340452 0.378003,-0.174183 0.755157,-0.3502 1.132736,-0.525298 0.384367,-0.163508 1.897779,-0.857957 0.248051,-0.106172 0.332625,-0.175991 0.625567,-0.409001 0.859353,-0.703305 0.131308,-0.18075 0.212127,-0.377397 0.170186,-0.600316 -0.06303,-0.192122 -0.226322,-0.303167 -0.391875,-0.402198 -0.247454,-0.135245 -0.51922,-0.213889 -0.790235,-0.285988 -0.326751,-0.06959 -0.640396,-0.188945 -0.934651,-0.345816 -0.308033,-0.144883 -0.563253,-0.361373 -0.790917,-0.610521 -0.228775,-0.276897 -0.455123,-0.553868 -0.653352,-0.853707 -0.136082,-0.205073 -0.236226,-0.428736 -0.323765,-0.657693 0,0 0.954641,-0.435507 0.954641,-0.435507 v 0 c 0.08235,0.221657 0.17868,0.437668 0.310951,0.634899 0.196431,0.293778 0.420491,0.565283 0.647228,0.836057 0.22316,0.237286 0.474585,0.437515 0.772429,0.574993 0.29316,0.146314 0.602376,0.254791 0.922857,0.324553 0.279584,0.07807 0.559744,0.164092 0.811155,0.312968 0.188824,0.122478 0.362368,0.263345 0.435503,0.485074 0.05738,0.251505 0.0013,0.480168 -0.142114,0.695497 -0.224834,0.313452 -0.513645,0.563504 -0.850169,0.753787 -0.700221,0.334886 -1.398624,0.672825 -2.111745,0.979519 1.964568,-0.920964 -0.698646,0.366504 -1.252758,0.524428 -0.436876,0.166691 -0.8747,0.330555 -1.304936,0.514141 -0.407908,0.173027 -0.813724,0.351547 -1.22663,0.512353 -0.428875,0.163888 -0.857514,0.328853 -1.289254,0.484925 -0.456076,0.157727 -0.913035,0.312418 -1.363774,0.485177 -0.452718,0.151448 -0.907137,0.299551 -1.373709,0.403194 -0.447659,0.114062 -0.896001,0.224382 -1.34684,0.325345 -0.457144,0.101227 -0.916289,0.197122 -1.378625,0.271245 -0.418801,0.05705 -0.841298,0.09568 -1.264306,0.06784 -0.377457,-0.02365 -0.751681,-0.07519 -1.102516,-0.225605 -0.312081,-0.140486 -0.618469,-0.298387 -0.874395,-0.529802 -0.232249,-0.223403 -0.429157,-0.473649 -0.521417,-0.788302 -0.09118,-0.359463 -0.102841,-0.721741 -0.0013,-1.08222 0.118139,-0.411041 0.271349,-0.810802 0.454946,-1.19724 0.178924,-0.381947 0.341535,-0.771916 0.556059,-1.136329 0.190706,-0.388126 0.381116,-0.776328 0.568023,-1.166278 0.199062,-0.397238 0.418134,-0.784464 0.59858,-1.190922 0.19317,-0.398986 0.376296,-0.801544 0.555183,-1.207119 0.173538,-0.384463 0.372036,-0.756293 0.56473,-1.131332 0.192902,-0.35016 0.389948,-0.697666 0.583977,-1.047168 0.184071,-0.354242 0.395052,-0.692629 0.605782,-1.031438 0.218134,-0.328806 0.423323,-0.668748 0.710224,-0.944766 0.273754,-0.273119 0.544253,-0.549048 0.872247,-0.75928 0.571415,-0.423765 1.240877,-0.690624 1.901338,-0.947018 0.358439,-0.11153 0.723582,-0.202499 1.095494,-0.25626 0.387055,-0.03653 0.77624,-0.04489 1.16264,0.0074 0.374272,0.04404 0.749155,0.09577 1.10553,0.224689 0.332621,0.126183 0.652829,0.285806 0.93408,0.506251 0.250003,0.208534 0.470998,0.44396 0.628618,0.731777 0.163942,0.277545 0.279856,0.578022 0.336296,0.896485 0.0468,0.319349 0.08189,0.642387 0.06122,0.965586 -0.02156,0.293614 -0.06903,0.584909 -0.133604,0.872144 -0.04686,0.187915 -0.09666,0.378174 -0.195374,0.546695 -0.03739,0.0541 -0.07029,0.12763 -0.106891,0.168891 0.09692,0.03686 0.20367,0.03125 0.305177,0.01577 0.0494,-0.01262 0.459613,-0.185674 0.239854,-0.0811 -1.518044,0.722384 -1.134356,0.524269 -0.808099,0.385128 0,0 1.018238,-0.317146 1.018238,-0.317146 z"
       inkscape:connector-curvature="0" />
  </g>
</svg>
